<svg xmlns="http://www.w3.org/2000/svg" viewBox="0 0 32 32" fill="none">
  <rect width="32" height="32" rx="8" fill="#a855f7"/>
  <path d="M21.5 10.5c0-1.1-.5-2-1.4-2.6-.9-.6-2.1-.9-3.6-.9-1.6 0-2.9.4-3.8 1.1-.9.7-1.4 1.7-1.4 2.8 0 .9.3 1.6.9 2.2.6.5 1.5 1 2.7 1.3l2.4.7c.8.2 1.3.5 1.6.8.3.3.5.7.5 1.1 0 .6-.3 1-.8 1.4-.5.3-1.2.5-2.1.5-1 0-1.8-.2-2.3-.7-.5-.4-.8-1.1-.9-1.9h-2.5c.1 1.5.6 2.6 1.7 3.4 1 .8 2.4 1.2 4 1.2 1.7 0 3-.4 4-1.2 1-.8 1.5-1.8 1.5-3.1 0-.9-.3-1.7-.9-2.3-.6-.6-1.6-1.1-2.8-1.4l-2.3-.6c-.7-.2-1.2-.4-1.5-.7-.3-.3-.4-.6-.4-1 0-.5.2-1 .7-1.3.5-.3 1.1-.5 1.8-.5.8 0 1.4.2 1.8.6.4.4.7.9.7 1.5h2.5z" fill="white"/>
</svg>
