<svg xmlns="http://www.w3.org/2000/svg" viewBox="0 0 32 32" fill="none">
  <defs>
    <linearGradient id="favGrad" x1="0" y1="0" x2="1" y2="1">
      <stop offset="0%" stop-color="#D4AF37"/>
      <stop offset="100%" stop-color="#C9A227"/>
    </linearGradient>
  </defs>
  <rect width="32" height="32" rx="8" fill="#080C14"/>
  <path d="M6 10C6 7.79 7.79 6 10 6h8c2.21 0 4 1.79 4 4v4c0 2.21-1.79 4-4 4h-4c-2.21 0-4 1.79-4 4v4c0 2.21 1.79 4 4 4h8c2.21 0 4-1.79 4-4v-4c0-2.21-1.79-4-4-4" 
        stroke="url(#favGrad)" stroke-width="2" stroke-linecap="round" stroke-linejoin="round" fill="none"/>
  <circle cx="20" cy="8" r="2" fill="url(#favGrad)"/>
</svg>
