<svg xmlns="http://www.w3.org/2000/svg" width="66" height="112" fill="none"><path fill="#D7FE03" d="M56.301 1.574c0-.035.23-.056.69-.068.228-.009.51.036.852.066.17.017.348.066.542.104.099.02.199.04.302.064.1.032.205.063.314.097a7.956 7.956 0 0 1 2.906 1.629l.193.163c.059.06.117.123.179.183l.369.38c.11.139.225.281.343.426.056.075.118.144.17.222l.158.238c.1.163.222.319.308.498l.277.537c.157.377.332.764.435 1.189.04.138.085.277.114.422.028.146.052.292.079.44.065.296.075.602.096.914l.017.236.004.223.008.457c.003.306.01.618.014.936.037 1.267.078 2.614.06 4.039-.186 1.424.346 2.929.057 4.507-.081 1.578-.005 3.23.056 4.954.065 1.724-.117 3.52.053 5.386.364 1.866-.401 3.802.05 5.802.1 2.003.074 4.068.05 6.2-.276 2.13-.001 4.323.048 6.58-.333 2.255-.19 4.57.042 6.942-.456 2.372-.386 4.803.04 7.29.016 2.483-.162 5.025.038 7.617.03 2.592.115 5.237.035 7.93.307 2.694.293 5.437.032 8.224.328 2.788.199 5.624.03 8.504-.093 1.44-.02 2.888.04 4.349.031.731.062 1.463.066 2.2-.003.746.005 1.43-.124 2.309-.104.834-.28 1.668-.61 2.45-.33.781-.742 1.538-1.287 2.202-.544.663-1.166 1.277-1.89 1.763-.724.483-1.51.888-2.356 1.143-.21.068-.43.101-.645.15l-.323.068c-.106.019-.218.028-.326.042-.22.022-.436.055-.658.068l-.658.01c-.23.009-.404-.006-.607-.009l-.587-.017-1.177-.022c-1.57-.016-3.15.022-4.739.17-3.177.081-6.39.189-9.636.014-3.246.344-6.525.19-9.834.011-3.308.056-6.647-.186-10.012.006-3.366-.053-6.755.151-10.174.002-1.952-.07-3.858-.732-5.362-1.888a9.577 9.577 0 0 1-1.988-1.999 10.317 10.317 0 0 1-1.327-2.484 25.64 25.64 0 0 1-.216-.679c-.053-.23-.093-.462-.139-.696-.052-.233-.056-.47-.073-.706l-.021-.355c-.008-.119-.004-.211-.004-.316-.004-.821.01-1.64.032-2.457.04-1.636.096-3.264.054-4.884.327-3.242-.108-6.455.01-9.634-.032-3.182.189-6.33.014-9.443-.061-3.114-.122-6.193.018-9.234-.506-3.042.129-6.044.02-9.005.214-2.963-.031-5.886.026-8.764-.093-2.88.234-5.715.027-8.502.045-2.79-.161-5.533.032-8.226-.25-2.694.212-5.337.036-7.93.001-2.592-.016-5.132.039-7.62.392-2.484.065-4.913.038-7.288.006-.15.002-.289.008-.448l.024-.491c.002-.327.063-.65.103-.973.017-.164.053-.322.092-.48l.113-.475c.09-.31.203-.616.315-.921C2.095 4.72 2.9 3.654 3.94 2.926a8.516 8.516 0 0 1 3.272-1.708c.297-.064.59-.148.888-.198.301-.037.597-.1.897-.12l.448-.03c.15-.008.303-.023.435-.025.275-.01.547-.023.82-.044 2.173-.056 4.283.562 6.324.05 2.044-.093 4.02.394 5.923.048 1.904-.316 3.737.04 5.496.052 1.762.02 3.449.037 5.057.054 7.248.085 12.947.176 16.836.271 1.944.046 3.436.095 4.44.145 1.005.051 1.525.101 1.525.153 0 .058-.642.114-1.876.17-1.237.055-3.07.109-5.452.16-4.764.107-11.728.205-20.53.294-1.76.016-3.592.287-5.496.05-1.903 0-3.88.207-5.923.051-2.041.357-4.15.064-6.324.049h-.82c-.143-.003-.261.004-.385.01l-.37.015c-.248.009-.492.06-.741.087-.247.042-.487.114-.733.169a6.016 6.016 0 0 0-2.604 1.519c-.694.745-1.324 1.543-1.78 2.473-.098.236-.204.473-.291.717l-.108.374c-.039.125-.073.25-.09.381-.038.258-.097.515-.091.78l-.007.394c0 .135.01.293.019.437-.226 2.375-.166 4.804.04 7.289-.218 2.487.046 5.027.037 7.619-.335 2.593-.099 5.236.036 7.93.123 2.693-.05 5.437.032 8.225-.064 2.788.085 5.624.028 8.503.157 2.878.217 5.8.025 8.764.108 2.961.02 5.963.02 9.005.135 3.04-.016 6.12.019 9.234.07 3.112-.356 6.261.013 9.443.048 3.18-.058 6.392.01 9.634-.022 1.62-.046 3.248-.051 4.884-.001.817-.001 1.636.008 2.457.001.099-.001.213.008.302l.017.262c.018.177.014.354.056.525.032.174.06.348.098.52l.152.505c.12.696.39 1.38.784 1.993.394.617.932 1.143 1.53 1.575.603.424 1.275.76 1.99.945.71.194 1.446.268 2.176.246 3.416-.104 6.806-.051 10.172.001a556.52 556.52 0 0 1 10.012.007c3.309-.106 6.588.154 9.834.01 3.246-.152 6.459.163 9.636.012 1.588-.051 3.168-.091 4.739-.096.395 0 .787.002 1.177.003l.587.008c.188.001.41.013.56.003l.496-.008c.164-.011.328-.035.495-.05.08-.01.166-.013.246-.026l.244-.051c.162-.035.33-.05.49-.101a8.283 8.283 0 0 0 1.8-.835 6.915 6.915 0 0 0 1.513-1.289c.447-.495.776-1.077 1.028-1.682.248-.609.343-1.265.344-1.902.03-.593-.027-1.392-.064-2.114a91.494 91.494 0 0 1-.11-2.2c-.047-1.46-.023-2.91.231-4.35-.126-2.879.247-5.715.03-8.503.372-2.787.018-5.53.029-8.225.075-2.692.2-5.337.037-7.929-.178-2.592.096-5.134.038-7.617-.215-2.487.28-4.918.04-7.29.049-2.373-.031-4.687.044-6.943-.504-2.256.002-4.449.046-6.578.07-2.133-.333-4.198.048-6.2-.381-2-.05-3.934.052-5.803.11-1.865-.161-3.662.054-5.386-.27-1.724.146-3.376.054-4.954.179-1.578.01-3.083.058-4.507a33.77 33.77 0 0 1 .06-4.038c.005-.318.012-.63.016-.937.002-.153.005-.304.006-.457l.004-.223-.006-.212c-.012-.278-.008-.554-.06-.82-.016-.135-.036-.268-.054-.4-.024-.13-.06-.256-.09-.386-.076-.385-.223-.74-.351-1.088-.077-.17-.156-.336-.23-.498-.073-.167-.18-.312-.265-.466l-.132-.225c-.045-.074-.1-.14-.15-.209-.1-.14-.198-.274-.294-.406l-.324-.366c-.052-.059-.105-.117-.157-.178a6.426 6.426 0 0 1-.17-.159 7.982 7.982 0 0 0-2.627-1.684c-.1-.038-.196-.078-.291-.115-.096-.029-.19-.057-.28-.082-.183-.054-.348-.115-.51-.15-.32-.06-.589-.134-.809-.16-.442-.056-.672-.102-.672-.136Z"/><path fill="#D7FE03" d="M56.301 1.574c0-.035.099-.064.296-.088.196-.017.495-.06.883-.02.773.04 1.95.253 3.275 1.002a8.14 8.14 0 0 1 1.324.942c.12.087.225.19.333.295l.328.32c.205.23.407.481.587.753.049.164.134.303.238.436.051.068.114.13.167.199l.164.205c.11.14.22.285.304.445.068.164.115.342.11.537.022.089.047.177.073.265.018.09.038.18.06.27.045.18.1.36.15.543.068.371.192.749.227 1.147.024.195.043.409.036.597l-.025.572c-.015.387-.018.78.066 1.18.364.857-.401 1.408.051 3.005l.035.585a38.63 38.63 0 0 1-1.82.035l-.688-.008c-.2-.004-.4-.01-.602-.013-.934-.27-1.896-.002-2.882.045-.992-.327-2.004-.184-3.047.043-1.039-.447-2.104-.379-3.193.039-1.091.016-2.204-.16-3.342.038-1.137.029-2.296.112-3.476.034-1.181.3-2.382.286-3.606.031-1.223.32-2.464.194-3.726.026-1.264-.177-2.545.283-3.842.026-1.299-.02-2.618.074-3.95.021-1.333-.133-2.682-.28-4.048.017-1.364.081-2.745.187-4.138.015-1.395.342-2.804.19-4.226.01-1.42.056-2.853-.187-4.3.005-1.445-.052-2.902.152-4.37.002-1.467-.104-2.924-.203-4.37-.002-.596.09-1.192.09-1.784.066l-.444-.023-.821-.024a68.172 68.172 0 0 0-1.615-.037c.007-.456.003-.896-.012-1.338.04-.34.068-.658.088-.97l.024-.292c.006-.086.01-.173.011-.26.007-.347-.013-.693-.04-1.037-.025-.346-.059-.688-.08-1.032a11.05 11.05 0 0 1-.013-.515c.001-.175.001-.33.029-.534.005-.197.015-.39.03-.584.006-.195.058-.384.09-.576.059-.384.185-.75.299-1.117.26-.725.565-1.419.904-2.106a7.913 7.913 0 0 1 1.39-1.816c.283-.259.567-.516.891-.721.159-.103.308-.22.483-.303a12.1 12.1 0 0 1 .509-.256c.128-.156.283-.267.443-.38.157-.105.321-.212.498-.285.359-.136.723-.264 1.104-.305L7.907.61c.19-.006.378-.015.566-.023.371-.036.74-.01 1.107-.06.195.013.335.04.503.05.161.015.324.023.485.027.323.006.643 0 .963-.015.641-.027 1.278-.073 1.908-.044C14.7.452 15.943.772 17.167.57c1.222.043 2.425-.158 3.606.033 1.182-.246 2.34.206 3.475.034 1.137.001 2.25-.017 3.34.036 1.09.384 2.156.066 3.197.04 1.039.041 2.055-.217 3.043.043.99.03 1.95.2 2.884.044.936-.056 1.841.562 2.719.05.877-.093 1.726.394 2.542.048.818-.316 1.607.04 2.362.052.757.02 1.481.037 2.172.054 6.225.167 9.794.363 9.794.57 0 .114-1.101.225-3.146.33-2.047.106-5.039.204-8.82.293-.755.017-1.544.287-2.362.05-.816 0-1.665.207-2.542.051-.878.357-1.783.064-2.719.049-.933.015-1.895-.1-2.884.046-.988.206-2.004-.104-3.043.041-1.041-.22-2.106-.163-3.197.04-1.09-.215-2.203.044-3.34.036-1.135-.328-2.293-.098-3.475.034-1.181.122-2.384-.048-3.606.031-1.224-.062-2.466.085-3.728.03a18.6 18.6 0 0 1-1.908.139 14.84 14.84 0 0 1-.963-.017 12.13 12.13 0 0 1-.485-.04c-.155-.016-.312-.036-.467-.054-.28.05-.559.052-.832.117-.137.025-.276.046-.413.067l-.41.1c-.276.05-.537.164-.806.246-.136.045-.26.113-.392.17-.127.06-.263.109-.382.19a8.43 8.43 0 0 1-.346.25c-.122.074-.224.177-.339.258-.235.162-.443.355-.663.54-.417.386-.825.807-1.105 1.314-.15.246-.276.501-.43.753-.08.12-.131.259-.202.388-.057.132-.143.262-.184.401-.097.279-.201.56-.221.857-.011.15-.038.297-.014.446.018.149.043.3.082.447l.002 1.003c-.004.344-.008.686-.014 1.032-.003.344-.006.69-.011 1.037l.007.485c.004.022.01.046.017.064l-.024.112c.033.01.073.016.119.023l.074.006.444.002a26.334 26.334 0 0 0 1.784-.06c1.446.359 2.903.138 4.37-.002 1.468-.103 2.925-.05 4.37.001 1.447-.034 2.88-.017 4.3.007 1.422-.106 2.831.155 4.226.012 1.393-.155 2.774.163 4.138.011 1.366-.103 2.715-.16 4.048.019 1.332 0 2.651.326 3.95.02 1.297-.069 2.578-.477 3.842.026 1.262-.125 2.503.24 3.726.027 1.224.366 2.425.018 3.606.031 1.18.07 2.339.194 3.476.035 1.138-.176 2.251.095 3.342.036 1.089-.21 2.154.275 3.193.04 1.043.047 2.055-.032 3.047.042.986-.492 1.948.003 2.882.047.202.013.402.007.602-.008l.296-.03.141-.015.048-.019c.133-.044.19-.076.393.005a.44.44 0 0 1 .116-.04c-.094-.158-.145-.24-.166-.308a.286.286 0 0 1-.012-.107c.002-.106.012-.21.024-.314.046-.415.154-.823.206-1.224.055-.4.015-.793-.013-1.18a5.885 5.885 0 0 1-.017-.572c.006-.192.012-.345.061-.524a2.241 2.241 0 0 1-.16-.982 7.43 7.43 0 0 0-.039-.486c-.01-.08-.024-.16-.04-.238a1.134 1.134 0 0 0-.098-.217 2.225 2.225 0 0 0-.091-.466 4.218 4.218 0 0 0-.203-.41c-.038-.067-.074-.134-.11-.2-.039-.063-.086-.122-.126-.182a3.408 3.408 0 0 1-.228-.375 11.82 11.82 0 0 1-.53-.647c-.09-.1-.172-.206-.252-.313-.078-.107-.151-.217-.236-.316a7.664 7.664 0 0 0-1.116-.938 8.396 8.396 0 0 0-2.903-1.262c-.359-.1-.641-.126-.83-.175-.19-.043-.289-.083-.289-.117Zm0 109.179c0-.032.1-.073.291-.116.188-.047.472-.073.832-.175.72-.165 1.78-.49 2.917-1.267a7.993 7.993 0 0 0 1.123-.942c.095-.089.176-.194.259-.299.086-.103.172-.206.261-.31.163-.22.33-.446.504-.677.113-.098.193-.221.255-.358a1.6 1.6 0 0 0 .081-.21c.017-.076.033-.151.052-.226.033-.152.07-.3.13-.439a.98.98 0 0 1 .243-.405 2.92 2.92 0 0 0 .108-.217l.072-.23a5.87 5.87 0 0 0 .115-.477c.025-.33.073-.666.044-1.01-.01-.176.005-.334.01-.525.007-.189.017-.38.025-.573.016-.386.018-.778-.067-1.179-.363-.744.401-1.86-.05-1.982a.978.978 0 0 1-.034-.129 3.343 3.343 0 0 1-.5.034c-.36-.005-.725-.013-1.096-.02-.935-.27-1.896-.002-2.885.045-.988-.327-2.003-.184-3.043.043-1.04-.448-2.107-.379-3.196.04-1.09.015-2.204-.159-3.34.037-1.136.03-2.295.112-3.477.034-1.182.299-2.383.286-3.606.032-1.224.32-2.465.193-3.728.027-1.262-.18-2.544.282-3.841.023-1.299-.018-2.616.075-3.95.021-1.333-.13-2.682-.28-4.047.02-1.366.078-2.747.187-4.14.012-1.395.343-2.803.192-4.223.01-1.423.058-2.856-.185-4.301.006-1.447-.053-2.904.151-4.372.003-1.467-.103-2.924-.202-4.37-.003-.596.09-1.192.09-1.784.066l-.444-.022c-.026-.008-.038-.016-.062-.025a.655.655 0 0 0-.155-.038.275.275 0 0 0 .013.124.14.14 0 0 0-.09.076c-.006-.006-.008.06-.012.097l-.011.13c-.004.087-.01.173-.01.26-.007.347.013.691.04 1.038.026.344.058.689.078 1.031.01.173.015.344.015.515.001.168-.01.353-.011.49.01.145.019.292.023.439-.003.148.033.29.044.435.018.295.085.58.144.866.022.149.085.281.128.422.053.136.086.281.16.409.134.261.273.523.476.74.32.484.725.898 1.134 1.294.218.187.42.388.651.558.112.084.212.189.333.268.118.081.232.167.347.256.15.026.304.035.443.072.141.029.268.082.401.124.27.075.508.217.772.311l.388.167.405.123c.272.093.559.102.839.095.13.038.312.053.47.066.16.014.322.022.482.026.324.008.645-.001.965-.015.64-.027 1.276-.074 1.908-.044 1.263-.091 2.504.227 3.728.026 1.223.043 2.424-.159 3.604.033 1.182-.246 2.343.205 3.479.032 1.136.002 2.25-.015 3.339.038 1.09.384 2.154.066 3.196.041 1.041.04 2.054-.218 3.044.042.989.031 1.95.201 2.885.045.935-.057 1.84.561 2.717.048.879-.092 1.727.394 2.544.049.818-.317 1.606.04 2.362.052l2.172.055c6.225.167 9.794.362 9.794.567 0 .117-1.101.229-3.146.332-2.05.105-5.039.202-8.82.293-.756.015-1.544.287-2.362.052-.817-.003-1.665.205-2.544.049-.877.357-1.782.066-2.717.047-.935.019-1.896-.095-2.885.046-.99.208-2.003-.103-3.044.042-1.042-.218-2.106-.161-3.196.04-1.088-.214-2.203.048-3.339.039-1.136-.33-2.297-.098-3.479.033-1.18.121-2.381-.049-3.604.032-1.224-.064-2.465.082-3.728.026-.632.078-1.268.132-1.908.141a12.898 12.898 0 0 1-1.448-.056c-.169-.019-.31-.031-.504-.066-1.486.07-2.996-.39-4.302-1.134a14.07 14.07 0 0 1-.508-.261c-.172-.087-.319-.207-.478-.315-.318-.211-.596-.476-.876-.738a10.73 10.73 0 0 1-1.421-1.796c-.23-.312-.381-.667-.53-1.024-.078-.175-.115-.368-.175-.549-.048-.188-.118-.367-.147-.556-.073-.378-.163-.748-.221-1.128-.03-.188-.092-.376-.12-.566a5.744 5.744 0 0 0-.135-.576c-.02-.208-.017-.363-.02-.537v-.515l.015-1.031c.002-.347.005-.691.01-1.038l-.005-.556-.019-.98.024-1.348 1.65.02 1.254.01a27.138 27.138 0 0 0 1.784-.06c1.446.36 2.903.138 4.37-.003 1.468-.102 2.925-.05 4.372.004 1.445-.037 2.878-.017 4.301.005 1.42-.106 2.828.154 4.223.01 1.393-.151 2.774.165 4.14.015 1.365-.104 2.714-.16 4.048.017 1.333 0 2.65.327 3.949.021 1.297-.07 2.579-.477 3.841.024 1.263-.125 2.504.24 3.728.028 1.223.366 2.424.018 3.606.032 1.182.069 2.341.193 3.477.033 1.136-.175 2.25.096 3.34.036 1.09-.208 2.156.275 3.196.041 1.04.047 2.055-.032 3.043.044.989-.494 1.95.002 2.885.044.201.016.4.01.6-.008l.296-.027.157-.017.246-.017c.649-.045 1.368-.076 1.926.002a6.038 6.038 0 0 1-.116.681c.095.272.146.614.167.97.005.085.008.178.01.267v.254a3.678 3.678 0 0 1-.02.313c-.049.416-.155.822-.207 1.224-.056.401-.016.793.01 1.179.014.193.024.384.02.573a2.312 2.312 0 0 1-.11.6c.132.41.002.806-.108 1.174-.075.183-.16.359-.228.532a2.394 2.394 0 0 0-.09.267 1.556 1.556 0 0 0-.085.261c-.107.157-.19.314-.263.475a5.925 5.925 0 0 0-.232.471c-.033.079-.07.158-.102.237-.038.078-.083.151-.123.224a4.42 4.42 0 0 1-.267.422 4.873 4.873 0 0 1-.56.781 7.17 7.17 0 0 1-.337.32 2.159 2.159 0 0 1-.357.272c-.44.384-.89.699-1.33.95-1.33.751-2.512.967-3.288 1.005-.389.041-.688 0-.886-.019-.199-.024-.298-.052-.298-.089Z"/><path fill="#D7FE03" d="M33.014 101.226c0-.07.06-.134.18-.194.062-.028.137-.061.229-.081.092-.02.2-.034.323-.046.082-.007.168-.002.264.001.1-.016.209-.023.302.032.027.205.339-.243.335.07.069.128.215.102.357.122.15.015.166.227.376.177.165-.102.17.024.17.136.005.114.002.217.213.104.186.03.28.171.376.308-.1.295.205.257.354.378-.185.332.028.382.316.457-.321.363-.213.465.263.523.04.093.024.204.032.303.01.103.039.198.152.287.028.1.077.202.102.308a.673.673 0 0 1-.007.329c.158.106.22.227.217.345 0 .117-.081.231-.232.327.297.278.099.514-.13.69-.128.083-.1.215-.086.352.01.136-.003.274-.175.327-.133.208-.186.474-.392.645-.128.063-.265.114-.364.192-.096.082-.153.195-.15.39-.135.234-.303.493-.633.492-.046.437-.407.448-.729.379-.123.074-.27.082-.41.09-.147.004-.278.031-.4.15-.145-.003-.278.056-.42.098-.14.033-.29.055-.433-.014-.144-.058-.282-.115-.418-.136a.654.654 0 0 0-.433.052c-.162.084-.302.02-.428-.054-.128-.073-.235-.179-.383-.185-.07-.195-.192-.234-.341-.244-.147-.005-.303-.017-.391-.135-.127-.052-.206-.176-.296-.276-.092-.098-.176-.193-.335-.217a1.285 1.285 0 0 1-.328-.233.575.575 0 0 1-.187-.349c-.278.046-.34-.086-.335-.241 0-.154.045-.317-.055-.406.041-.158-.021-.257-.093-.359-.069-.1-.154-.199-.168-.32-.08-.101-.054-.234-.04-.354.01-.123.034-.238-.088-.336 0-.115-.052-.223-.076-.336-.026-.112-.04-.227.062-.337-.12-.112-.061-.224.006-.324.069-.104.162-.194.087-.31.017-.103.034-.208.066-.306.03-.1.058-.198.119-.284.22-.033.268-.11.269-.213-.003-.102-.036-.219-.007-.31.112-.147-.005-.442.314-.457.133-.128.363-.159.355-.378.035-.081.198-.049.31-.045.114 0 .187-.023.067-.265.027-.085.15-.065.25-.056.103.009.176-.003.132-.183-.07-.351.263-.124.375-.178.118-.055.245-.086.36-.12.523-.141.948-.119 1.221-.057.276.074.41.172.41.275 0 .119-.162.223-.414.361-.25.136-.6.319-.941.619-.07.067.005.325-.203.191-.081.057-.021.27-.193.219.172.324-.092.179-.183.251-.056.082-.21.107-.158.274.129.2-.211.13-.124.303-.256.002-.25.157-.093.324-.125.021-.122.088-.104.152.022.065.071.133.06.191-.173.03-.214.094-.183.161.032.067.12.135.185.194.056.06.053.116.037.179-.018.061-.034.127.019.18-.05.136.132.222.108.353.097.036.17.071.197.121.032.053.032.114-.026.215.155.058.14.209.226.312.088.013.127.063.16.119.03.059.055.128.119.156.072.019.058.131.09.211.024.078.075.143.236.02.135.031.212.183.367.172.11.093.241.179.397.11.035.184.113.234.191.214.08-.023.159-.112.23-.175a.275.275 0 0 1 .205-.069.745.745 0 0 1 .213.03c.127-.065.26-.08.396-.11.078-.145.324.028.368-.174.019-.092.088-.103.17-.108.08-.002.16-.022.157-.121.017-.08.03-.154.068-.205.041-.046.104-.071.213-.071.038-.053.15-.054.22-.09s.123-.091.008-.222c-.007-.075-.087-.177-.11-.246-.026-.073.011-.107.28-.09-.045-.077.027-.116.094-.167.07-.047.108-.109.014-.185.197-.033.21-.104.17-.17-.041-.067-.114-.13-.113-.189.032-.059.078-.122.096-.187.017-.061-.008-.123-.095-.166-.094-.042-.083-.099-.061-.163.021-.061.064-.136.016-.18-.123-.02-.073-.09-.032-.169.045-.077.07-.155-.062-.155 0-.124-.134-.172-.125-.303-.237.093-.265.064-.24-.017.026-.081.104-.208.081-.258-.008-.063-.105-.044-.17-.05-.063-.006-.104-.027-.008-.199-.167.106-.204.086-.21.023-.006-.064.022-.175.014-.244-.015-.15-.242.034-.203-.191-.203.182-.087-.206-.206-.165-.003-.201-.15-.072-.202-.14-.092.026-.15-.014-.193-.122-.063-.036-.121-.073-.178-.105a2.756 2.756 0 0 1-.235-.13c-.071-.042-.133-.072-.182-.11-.1-.07-.159-.14-.159-.209Zm9.959-93.453c0 .138-.22.27-.622.394-.068.02-.139.04-.218.06-.077.035-.158.075-.245.057-.087-.18-.179.337-.275.056-.097-.08-.197-.005-.301.055-.105.064-.213-.115-.328.054-.113.354-.23-.393-.353.05-.123.096-.25.067-.378.046-.13-.269-.262 0-.401.045-.137-.324-.277-.184-.423.043-.144-.448-.292-.378-.444.04-.152.015-.305-.159-.464.038-.157.03-.318.113-.481.034-.164.3-.332.286-.501.03-.171.323-.343.195-.519.028-.175-.178-.353.282-.532.025-.181-.019-.364.073-.55.022-.183-.133-.373-.28-.56.017-.191.078-.382.187-.575.013-.195.343-.39.19-.59.009-.196.058-.394-.183-.596.008-.2-.054-.404.15-.605.001-.204-.103-.408-.201-.608-.001-.2.218-.4-.09-.597-.008-.196-.319-.394.107-.587-.01-.195.032-.385-.185-.575-.012-.189.059-.377.121-.562-.017-.186.492-.368-.128-.548-.022-.182-.21-.359.03-.534-.025-.176.093-.348-.227-.516-.028-.17-.041-.338.16-.502-.03-.163.245-.326-.206-.483-.034-.159 0-.313.013-.464-.038-.15-.385-.299-.065-.443-.04-.144-.04-.285.22-.424-.043-.137-.03-.269-.2-.4-.045-.13.057-.254-.559-.378-.047-.12.092-.238-.394-.352-.05-.115.318-.223-.04-.33-.053a25.71 25.71 0 0 1-.3-.055c-.864-.167-1.36-.36-1.36-.567 0-.23.611-.444 1.66-.623.107-.015.215-.286.33-.05.114 0 .232-.208.352-.053.124-.357.248-.065.378-.046.131-.017.263.098.4-.045.139-.208.28.103.424-.044.144.223.292.165.443-.039.15.214.305-.044.464-.038.157.33.32.1.483-.032.164-.12.332.05.502-.033.168.064.34-.082.516-.027.175-.155.352-.212.534-.024.18-.107.362-.02.548-.02.185-.133.373.014.562-.02.19-.067.38.351.575-.012.193-.047.39.056.587-.012.197.047.397.097.597-.005.2.36.404.138.608-.001.201-.105.405-.051.605 0 .202-.034.4-.016.596.006.2-.106.395.157.59.012.193-.152.384.163.574.013.188-.105.378-.16.562.018.185 0 .368.327.549.021.179-.07.357-.478.532.024.176-.125.348.241.519.027.169.367.337.02.501.033.163.069.324.192.481.032.159-.173.312.097.464.038.152-.21.3.275.444.04.146.048.286-.033.423.043.139-.494.27.002.401.045.128.07.255-.328.378.046.122-.372.24-.048.353.052.115.107.223-.158.328.051.104-.261.204.147.301.055.096.175.188.01.275.056.087-.059.168-.036.245.059.079.02.15.04.218.061.402.122.622.253.622.392Zm-27.963 20.8c.12-.07.635.54 1.471 1.712l.444.635c.172.218.355.45.496.723-.002.358.62.379.546.815.101.333.35.603.593.896.244.29.284.716.639.979.516.172.069.905.681 1.058.305.325.508.724.723 1.134-.004.533.474.807.764 1.204-.042.584.338.946.8 1.274-.134.668.192 1.086.837 1.34.287.456.412 1.018.87 1.403.311.47.675.921.902 1.462.561.354.85.873.93 1.521.593.36.791.95.96 1.573.158.627.887.942.986 1.622.307.564.721 1.077 1.008 1.673.219.632.425 1.28 1.03 1.711.413.542.854 1.077 1.05 1.756.653.423.872 1.098 1.068 1.793.204.29.341.617.496.936.075.16.157.319.252.469.047.076.097.148.153.218l.043.054c.012.013.013.007.019.01a.25.25 0 0 0 .038 0 .09.09 0 0 0 .088.084c.034.005.042-.014.063.133l.008.022c.025.06.081.066.132.006a.25.25 0 0 0 .03-.273c.169-.726.803-1.18 1.082-1.828.641-.446.619-1.258 1.07-1.794.322-.608.86-1.088 1.05-1.754.29-.61.575-1.217 1.032-1.713-.103-.815.777-1.066 1.01-1.671.509-.448.618-1.113.985-1.623.234-.582.829-.952.96-1.571.342-.502.465-1.113.932-1.521.078-.625.768-.892.902-1.461.286-.484.551-.966.871-1.404.612-.272.597-.884.835-1.34.298-.42.324-.984.801-1.274.275-.405.668-.729.765-1.203.183-.426.955-.505.724-1.134.138-.42.78-.538.682-1.057-.075-.507.437-.665.638-.978.206-.314.404-.615.594-.9 1.708-2.565 2.774-3.985 2.958-3.882.203.115-.712 2.095-2.452 5.402-.174.33-.133.8-.545 1.032-.205.348-.237.813-.593 1.107.094.552-.39.793-.642 1.18-.218.406-.561.76-.684 1.252-.062.524-.592.801-.725 1.316-.455.331-.672.814-.767 1.38-.461.355-.512.96-.804 1.44-.577.318-.662.928-.841 1.496-.19.563-.643.99-.879 1.551-.364.488-.544 1.09-.909 1.599-.181.615-.45 1.189-.943 1.647-.233.608-.637 1.125-.972 1.692-.218.634-.688 1.134-1 1.73-.281.616-.997.995-1.026 1.771-.308.616-.754 1.162-1.052 1.8-.396.583-.799 1.17-1.072 1.835-.494.478-.804.94-1.112 1.514-.3.568-.603 1.258-.95 1.984l-.093.187c-.333-.478-.68-1.05-1.012-1.628a74.32 74.32 0 0 1-.955-1.74c-.126-.2-.249-.401-.373-.6l-.273-.457a39.943 39.943 0 0 1-.514-.925c-.45-.552-.573-1.28-1.049-1.802-.485-.516-.552-1.261-1.027-1.768-.433-.53-.822-1.075-1-1.732-.333-.569-.373-1.292-.969-1.69-.388-.52-1.07-.862-.943-1.65-.426-.474-.414-1.186-.91-1.6.017-.704-.591-1.041-.876-1.55-.234-.538-.415-1.093-.843-1.497-.439-.397-.479-1.007-.804-1.44-.459-.357-.299-1.055-.765-1.38-.219-.466-.544-.86-.726-1.318-.684-.173-.488-.831-.684-1.25-.17-.433-.749-.62-.637-1.18-.552-.186-.48-.71-.595-1.108-.109-.402-.542-.604-.545-1.032-.424-.19-.245-.703-.497-.951-.02-.383-.331-.58-.447-.869a1.627 1.627 0 0 1-.39-.784l-.338-.694c-.62-1.295-.903-2.038-.779-2.105Z"/><path fill="#D7FE03" d="M32.98 59.013c.14 0 .276.273.399.777l.062.27c.038.097.078.2.06.307-.185.11.344.224.056.343-.08.121-.005.247.056.378.066.13-.117.266.055.408.361.143-.4.29.05.442.1.153.071.31.05.47-.277.163-.003.33.045.502-.333.172-.188.347.044.525-.457.183-.388.367.042.557.013.19-.163.381.036.577.032.199.116.4.036.604.305.205.293.414.03.625.33.214.2.427.03.646-.184.22.29.441.025.666-.02.228.075.454.02.686-.133.231-.284.465.02.701.08.237.19.476.012.718.35.241.196.486.01.733.058.245-.187.495.007.744-.054.252.154.505.003.76-.105.253-.207.506-.003.756.224.252-.092.5-.006.747-.327.247.106.49-.01.733.032.24-.189.48-.013.717.06.237.123.47-.02.701.505.232-.13.46-.02.685-.213.225.03.447-.025.665.094.22-.232.435-.03.648-.04.212.163.42-.03.626.25.204-.21.405-.036.602 0 .198.016.39-.036.579-.394.19-.068.373-.042.554-.04.18.224.356-.044.528-.03.17-.204.338-.045.499.057.163-.57.32-.05.471.094.153-.4.301-.05.442.323.142-.04.278-.055.41-.018.13-.036.256-.056.378-.169 1.079-.366 1.697-.577 1.697-.236 0-.453-.763-.636-2.075-.019-.132-.293-.268-.053-.41.001-.141-.21-.289-.052-.442-.364-.151-.067-.308-.048-.471-.018-.16.1-.328-.046-.5-.212-.17.104-.347-.044-.527.224-.18.167-.365-.04-.554.218-.19-.046-.381-.04-.579.34-.197.102-.398-.033-.602-.124-.207.052-.414-.03-.626.063-.213-.087-.428-.03-.648-.16-.218-.217-.44-.025-.665-.108-.226-.023-.453-.023-.684-.132-.233.019-.465-.017-.702-.068-.236.358-.477-.014-.717-.048-.243.058-.486-.009-.733.047-.247.096-.495-.007-.747.366-.25.14-.503-.002-.757-.106-.254-.052-.507.002-.759a3.024 3.024 0 0 1 .007-.744c-.11-.247.156-.492.01-.733-.157-.242.167-.48.013-.718-.106-.236-.164-.47.017-.7 0-.233.335-.46.023-.687-.072-.225-.487-.447.025-.666-.128-.219.247-.432.03-.646.371-.211.017-.42.03-.625.072-.204.197-.405.033-.604-.177-.196.1-.388.04-.577-.216-.19.28-.374.04-.557.048-.178-.032-.354.044-.525-.505-.172.003-.34.046-.502.072-.16-.334-.317.048-.47-.38-.151-.052-.3.052-.442.11-.142-.162-.278.053-.408-.268-.131.147-.257.056-.378.177-.119.01-.234.056-.343-.059-.106-.037-.21.063-.306a3.79 3.79 0 0 1 .06-.27c.125-.505.258-.778.401-.778Zm15.904-2.49c0 .14-.355.27-1.007.394-.11.02-.225.039-.35.06-.126.036-.258.075-.398.06-.14-.183-.29.337-.444.056-.154-.082-.317-.006-.488.055-.168.063-.346-.115-.53.05-.183.356-.372-.393-.57.052-.197.095-.401.07-.61.047-.21-.27-.427-.002-.648.045-.223-.326-.451-.183-.683.042-.233-.447-.473-.379-.717.041-.246.014-.496-.16-.751.038-.255.027-.516.112-.78.032-.265.302-.535.288-.808.033-.276.32-.555.193-.837.026-.285-.179-.572.282-.864.025-.292-.02-.587.073-.887.021-.299-.132-.603-.28-.908.018-.307.08-.616.187-.93.013-.313.343-.629.191-.949.012-.319.056-.64-.188-.964.005-.325-.052-.653.15-.982.002-.328-.105-.656-.202-.98-.002-.326.22-.647-.092-.966-.005-.318-.321-.636.103-.95-.012-.311.032-.622-.185-.928-.013-.306.059-.608.12-.908-.018-.3.493-.595-.126-.889-.021-.289-.208-.577.031-.86-.025-.283.093-.563-.227-.837-.026-.276-.042-.546.16-.81-.033-.264.246-.526-.206-.78-.032-.256-.002-.506.014-.751-.038-.243-.384-.483-.065-.716-.04-.235-.043-.461.218-.684-.043-.221-.03-.439-.2-.647-.045-.21.057-.415-.56-.612-.047-.196.091-.388-.395-.57-.051-.183.317-.36-.038-.53-.051-.17-.02-.333-.04-.486-.055-1.398-.167-2.2-.362-2.2-.57 0-.23.988-.443 2.686-.62.17-.019.347-.289.53-.052.182 0 .374-.208.57-.051.198-.358.402-.066.612-.047.208-.017.426.098.646-.046.224-.208.45.103.685-.043.233.22.473.162.716-.04.245.215.495-.044.75-.037.255.329.517.1.78-.033.265-.121.535.048.811-.032.274.063.554-.083.836-.028.284-.154.572-.212.861-.022.294-.107.589-.023.889-.023.3-.132.602.016.908-.018.306-.066.617.35.929-.013.313-.047.63.057.95-.01.318.046.64.093.965-.007.324.36.652.139.98-.003.329-.101.657-.05.982.003.324-.035.645-.017.964.007.32-.108.636.155.95.01.313-.153.622.164.929.013.305-.104.61-.16.908.019.3 0 .595.326.887.022.292-.072.58-.48.864.022.282-.124.56.242.837.028.273.366.543.019.808.032.264.07.525.194.78.033.255-.174.505.098.75.038.245-.21.485.275.718.039.232.048.46-.032.683.043.22-.494.438.002.648.046.209.07.413-.33.61.047.198-.374.387-.051.57.05.184.109.362-.158.53.053.17-.263.334.145.488.055.155.172.304.007.444.056a.372.372 0 0 1 .398.058c.125.02.24.041.35.06.652.12 1.007.255 1.007.391Z"/><path fill="#D7FE03" d="M48.884 64.468c0 .14-.355.27-1.007.393-.11.02-.225.04-.35.06-.126.037-.258.076-.398.059-.14-.182-.29.338-.444.056-.154-.081-.317-.007-.488.055-.168.063-.346-.116-.53.052-.183.354-.372-.394-.57.051-.197.094-.401.07-.61.047-.21-.27-.427-.002-.648.045-.223-.327-.451-.183-.683.043-.233-.448-.473-.38-.717.04-.246.013-.496-.16-.751.037-.255.03-.516.113-.78.034-.265.3-.535.286-.808.03-.276.323-.555.195-.837.028-.285-.178-.572.283-.864.025-.292-.02-.587.075-.887.021-.299-.131-.603-.28-.908.017-.307.081-.616.188-.93.015-.313.342-.629.19-.949.01-.319.056-.64-.187-.964.005-.325-.052-.653.152-.982.004-.328-.104-.656-.205-.98-.004-.326.221-.647-.091-.966-.005-.318-.321-.636.105-.95-.01-.311.031-.622-.187-.928-.015-.306.06-.608.122-.908-.017-.3.493-.595-.126-.889-.02-.289-.208-.577.03-.86-.026-.283.093-.563-.227-.837-.028-.276-.04-.546.16-.81-.03-.264.246-.526-.208-.78-.034-.256-.002-.506.016-.751-.038-.243-.384-.483-.064-.716-.039-.235-.042-.461.218-.684-.043-.221-.03-.439-.2-.647-.045-.21.056-.415-.562-.612-.047-.196.09-.388-.394-.57-.05-.183.317-.36-.04-.53-.053l-.486-.055c-1.398-.166-2.2-.36-2.2-.568 0-.229.988-.444 2.686-.622.17-.018.347-.289.53-.052.182.001.374-.207.57-.05.198-.358.402-.065.612-.048.208-.017.426.098.646-.044.224-.208.45.101.685-.044.233.22.473.162.716-.04.245.214.495-.045.75-.037.255.33.517.1.78-.034.265-.121.535.048.811-.031.274.064.554-.084.836-.028.284-.155.572-.213.861-.024.294-.106.589-.02.889-.021.3-.132.602.017.908-.019.306-.066.617.352.929-.011.313-.047.63.056.95-.011.318.044.64.093.965-.006.324.358.652.137.98-.003.329-.103.657-.05.982.003.324-.037.645-.017.964.006.32-.107.636.155.95.01.313-.154.622.164.929.012.305-.103.61-.16.908.019.3 0 .595.327.887.02.292-.069.58-.476.864.025.282-.124.56.242.837.028.273.367.543.018.808.031.264.07.525.195.78.034.255-.175.505.096.75.037.245-.21.485.276.718.04.232.047.46-.03.683.044.22-.494.438 0 .648.044.209.07.413-.327.61.048.198-.374.387-.05.57.05.184.108.362-.158.53.052.17-.261.334.145.488.055.155.174.304.01.444.057a.371.371 0 0 1 .398.058c.125.02.24.042.35.06.652.122 1.007.255 1.007.392Z"/></svg>