<svg xmlns="http://www.w3.org/2000/svg" width="350" height="460" fill="none"><path fill="#000" d="M0 0h350v460H0z"/><path fill="#fff" d="m24.256 43.794-2.864-11.2h2.016l1.952 7.656 1.952-7.656h1.784l1.952 7.656 1.944-7.656h2.016l-2.848 11.2h-2.216L28.2 37.01l-1.72 6.784h-2.224Zm17.027-8h1.952v8h-1.952l-.088-.992c-.218.357-.51.648-.872.872-.357.219-.781.328-1.272.328a4.142 4.142 0 0 1-1.664-.336 4.374 4.374 0 0 1-1.368-.928 4.443 4.443 0 0 1-.92-1.368 4.23 4.23 0 0 1-.328-1.664c0-.57.104-1.107.312-1.608a4.164 4.164 0 0 1 2.2-2.208 4.005 4.005 0 0 1 1.6-.32c.528 0 1 .117 1.416.352a3.63 3.63 0 0 1 1.072.896l-.088-1.024Zm-2.28 6.328a1.98 1.98 0 0 0 1.104-.312c.32-.208.57-.488.752-.84.182-.357.272-.75.272-1.176 0-.432-.09-.824-.272-1.176a2.128 2.128 0 0 0-.76-.848 1.966 1.966 0 0 0-1.096-.312c-.41 0-.786.107-1.128.32a2.347 2.347 0 0 0-.808.84 2.363 2.363 0 0 0-.296 1.176 2.347 2.347 0 0 0 1.112 2.016c.342.208.715.312 1.12.312Zm10.114-4.376h-1.552v6.048h-1.952v-6.048H44.43v-1.952h1.184v-2.512h1.952v2.512h1.552v1.952Zm6.22 3.64 1.76.952a4.21 4.21 0 0 1-1.385 1.208 3.717 3.717 0 0 1-1.816.456c-.736 0-1.408-.19-2.016-.568a4.259 4.259 0 0 1-1.448-1.52 4.274 4.274 0 0 1-.536-2.12c0-.587.104-1.133.312-1.64.208-.512.494-.96.856-1.344.368-.39.795-.693 1.28-.912a3.734 3.734 0 0 1 1.552-.328c.656 0 1.262.152 1.816.456a4.125 4.125 0 0 1 1.384 1.224l-1.76.944a1.955 1.955 0 0 0-.664-.496 1.81 1.81 0 0 0-.776-.176c-.384 0-.73.107-1.04.32-.31.208-.554.485-.736.832a2.349 2.349 0 0 0-.272 1.12c0 .4.09.773.272 1.12.182.341.427.616.736.824.31.208.656.312 1.04.312.278 0 .542-.059.792-.176a2.1 2.1 0 0 0 .648-.488Zm10.273-2.648v5.056h-1.952V39.25c0-.315-.077-.6-.232-.856a1.686 1.686 0 0 0-.623-.616 1.623 1.623 0 0 0-.856-.232 1.705 1.705 0 0 0-1.48.848 1.66 1.66 0 0 0-.224.856v4.544H58.29l-.008-12h1.953l.008 4.712c.271-.288.597-.515.975-.68a2.96 2.96 0 0 1 1.224-.256c.582 0 1.112.144 1.592.432.48.283.862.664 1.144 1.144a3.01 3.01 0 0 1 .433 1.592Zm1.641 5.056v-12h1.952v12h-1.952Zm3.875-8h1.952v8h-1.952v-8Zm.992-1.032a1.02 1.02 0 0 1-.728-.28.963.963 0 0 1-.296-.72c0-.283.099-.52.296-.712a.994.994 0 0 1 .72-.288c.283 0 .52.096.712.288.198.192.296.43.296.712a.977.977 0 0 1-.288.72.982.982 0 0 1-.712.28Zm5.118 9.176a4.43 4.43 0 0 1-1.208-.248 3.578 3.578 0 0 1-1.024-.584 2.502 2.502 0 0 1-.688-.88l1.648-.704c.064.107.168.221.312.344a2 2 0 0 0 .512.296c.203.08.424.12.664.12.203 0 .395-.027.576-.08.187-.059.336-.147.448-.264a.617.617 0 0 0 .176-.456c0-.197-.07-.35-.208-.456a1.276 1.276 0 0 0-.512-.248c-.202-.059-.4-.112-.592-.16a5.82 5.82 0 0 1-1.416-.472 3.017 3.017 0 0 1-1.048-.824c-.261-.341-.392-.752-.392-1.232 0-.528.139-.984.416-1.368.283-.384.648-.68 1.096-.888a3.468 3.468 0 0 1 1.464-.312c.635 0 1.216.133 1.744.4.534.261.955.632 1.264 1.112l-1.544.912a1.28 1.28 0 0 0-.312-.352 1.696 1.696 0 0 0-.456-.272 1.545 1.545 0 0 0-.536-.128 2.14 2.14 0 0 0-.656.064 1.014 1.014 0 0 0-.48.272c-.117.128-.176.299-.176.512 0 .203.08.355.24.456.16.096.352.17.576.224.23.053.448.112.656.176.47.155.91.344 1.32.568.416.224.75.499 1 .824.25.325.37.715.36 1.168 0 .517-.154.97-.464 1.36a2.96 2.96 0 0 1-1.2.88 3.33 3.33 0 0 1-1.56.24Zm8.881-6.192h-1.552v6.048h-1.952v-6.048H81.43v-1.952h1.184v-2.512h1.952v2.512h1.552v1.952ZM21.954 63.47v-8.4h2.778a4.165 4.165 0 0 1 2.97 1.237c.384.384.684.83.9 1.338.22.504.33 1.046.33 1.626 0 .58-.11 1.124-.33 1.632-.216.504-.516.95-.9 1.338a4.127 4.127 0 0 1-2.97 1.23h-2.778Zm1.008-1.007h1.77c.44 0 .852-.082 1.236-.246a3.26 3.26 0 0 0 1.02-.69 3.195 3.195 0 0 0 .936-2.256c0-.44-.084-.852-.252-1.236a3.13 3.13 0 0 0-.69-1.02 3.195 3.195 0 0 0-2.25-.936h-1.77v6.384Zm11.773-4.992h1.008v6h-1.008l-.042-1.014c-.188.348-.448.63-.78.846-.328.216-.72.324-1.176.324-.44 0-.852-.082-1.236-.246a3.354 3.354 0 0 1-1.02-.69 3.266 3.266 0 0 1-.684-1.02 3.129 3.129 0 0 1-.246-1.242c0-.428.08-.832.24-1.212a3.127 3.127 0 0 1 2.874-1.914c.472 0 .886.112 1.242.336.356.22.644.506.864.858l-.036-1.026Zm-2.016 5.178c.396 0 .738-.096 1.026-.288.292-.196.516-.46.672-.792.16-.332.24-.698.24-1.098 0-.408-.08-.776-.24-1.104a1.912 1.912 0 0 0-.678-.786 1.769 1.769 0 0 0-1.02-.294c-.396 0-.756.098-1.08.294a2.168 2.168 0 0 0-1.056 1.89c0 .404.098.772.294 1.104.196.328.456.59.78.786.324.192.678.288 1.062.288Zm4.224-5.178h1.008v6h-1.008v-6Zm.516-.978a.557.557 0 0 1-.403-.156.52.52 0 0 1-.161-.39.52.52 0 0 1 .161-.39.55.55 0 0 1 .397-.156.55.55 0 0 1 .395.156.52.52 0 0 1 .163.39.52.52 0 0 1-.163.39.53.53 0 0 1-.39.156Zm1.968 6.978v-9h1.008v9h-1.008Zm6.325-6h1.068l-3.282 9H42.47l1.086-3-2.154-6h1.104l1.554 4.614 1.692-4.614Zm7.962-2.4h1.218l3.054 8.4h-1.068l-.624-1.716h-3.942l-.618 1.716H50.66l3.054-8.4Zm-.99 5.676h3.198L54.32 56.36l-1.596 4.386Zm8.655 2.724h-1.29l-2.19-6.012h1.074L60.73 62.3l1.758-4.842h1.074l-2.184 6.012Zm5.567.156a2.803 2.803 0 0 1-1.512-.426 3.194 3.194 0 0 1-1.086-1.14 3.206 3.206 0 0 1-.402-1.59c0-.44.078-.85.234-1.23.156-.384.37-.72.642-1.008.276-.292.596-.52.96-.684a2.8 2.8 0 0 1 1.164-.246c.452 0 .866.092 1.242.276.38.18.704.432.972.756.272.324.474.7.606 1.128.136.428.186.886.15 1.374H65.02c.048.34.16.644.336.912.176.264.4.474.672.63a1.88 1.88 0 0 0 1.896-.036c.292-.188.528-.444.708-.768l1.026.24c-.24.532-.602.968-1.086 1.308a2.785 2.785 0 0 1-1.626.504Zm-1.956-3.582h3.912a1.965 1.965 0 0 0-.324-.918 2.126 2.126 0 0 0-.702-.672 1.794 1.794 0 0 0-.93-.252c-.336 0-.644.082-.924.246-.28.164-.512.386-.696.666-.18.276-.292.586-.336.93Zm5.937 3.426v-6h1.008v.75c.212-.28.48-.502.804-.666a2.26 2.26 0 0 1 1.056-.252c.232 0 .456.03.672.09l-.408 1.008a1.606 1.606 0 0 0-1.308.144c-.248.144-.446.34-.594.588a1.585 1.585 0 0 0-.222.828v3.51h-1.008Zm8.797-6h1.008v6h-1.008l-.042-1.014c-.188.348-.448.63-.78.846-.328.216-.72.324-1.176.324-.44 0-.852-.082-1.236-.246a3.354 3.354 0 0 1-1.02-.69 3.266 3.266 0 0 1-.684-1.02 3.129 3.129 0 0 1-.246-1.242c0-.428.08-.832.24-1.212a3.127 3.127 0 0 1 2.874-1.914c.472 0 .886.112 1.242.336.356.22.644.506.864.858l-.036-1.026Zm-2.016 5.178c.396 0 .738-.096 1.026-.288.292-.196.516-.46.672-.792.16-.332.24-.698.24-1.098 0-.408-.08-.776-.24-1.104a1.912 1.912 0 0 0-.678-.786 1.769 1.769 0 0 0-1.02-.294c-.396 0-.756.098-1.08.294a2.168 2.168 0 0 0-1.056 1.89c0 .404.098.772.294 1.104.196.328.456.59.78.786.324.192.678.288 1.062.288ZM86.5 57.47h1.008v6.192c0 .396-.086.764-.258 1.104a2.822 2.822 0 0 1-.684.894 3.157 3.157 0 0 1-.984.594 3.134 3.134 0 0 1-1.152.216c-.416 0-.818-.094-1.206-.282a3.351 3.351 0 0 1-1.02-.744 2.806 2.806 0 0 1-.624-1.038l.924-.42c.076.276.212.524.408.744.2.224.432.4.696.528.268.132.542.198.822.198a2.246 2.246 0 0 0 1.428-.522c.2-.16.356-.35.468-.57a1.46 1.46 0 0 0 .174-.702v-1.194a2.503 2.503 0 0 1-.81.84c-.332.212-.72.318-1.164.318-.424 0-.822-.082-1.194-.246a3.088 3.088 0 0 1-.978-.678c-.28-.292-.5-.628-.66-1.008-.16-.38-.24-.788-.24-1.224a3.191 3.191 0 0 1 .9-2.232c.28-.292.606-.52.978-.684.372-.164.77-.246 1.194-.246.444 0 .832.106 1.164.318.336.212.606.492.81.84v-.996Zm-1.968 5.178c.388 0 .724-.1 1.008-.3.288-.2.51-.466.666-.798.156-.332.234-.692.234-1.08 0-.4-.08-.764-.24-1.092a1.928 1.928 0 0 0-.666-.792c-.284-.2-.618-.3-1.002-.3-.376 0-.72.098-1.032.294-.312.196-.56.46-.744.792-.18.328-.27.694-.27 1.098 0 .404.092.772.276 1.104.188.328.436.59.744.786a1.92 1.92 0 0 0 1.026.288Zm6.976.978a2.803 2.803 0 0 1-1.512-.426 3.194 3.194 0 0 1-1.086-1.14 3.206 3.206 0 0 1-.402-1.59c0-.44.078-.85.234-1.23.156-.384.37-.72.642-1.008.276-.292.596-.52.96-.684a2.8 2.8 0 0 1 1.164-.246c.452 0 .866.092 1.242.276.38.18.704.432.972.756.272.324.474.7.606 1.128.136.428.186.886.15 1.374h-4.896c.048.34.16.644.336.912.176.264.4.474.672.63a1.88 1.88 0 0 0 1.896-.036c.292-.188.528-.444.708-.768l1.026.24c-.24.532-.602.968-1.086 1.308a2.785 2.785 0 0 1-1.626.504Zm-1.956-3.582h3.912a1.965 1.965 0 0 0-.324-.918 2.126 2.126 0 0 0-.702-.672 1.794 1.794 0 0 0-.93-.252c-.336 0-.644.082-.924.246-.28.164-.512.386-.696.666-.18.276-.292.586-.336.93Z"/><path fill="#000" d="M253.181 32.853h72.283v33.824h-72.283z"/><path fill="#fff" d="M268.542 53.765v-8.4h2.772c.452 0 .858.11 1.218.33.364.22.652.518.864.894.216.372.324.788.324 1.248a2.46 2.46 0 0 1-1.206 2.154 2.308 2.308 0 0 1-1.2.324h-1.764v3.45h-1.008Zm1.008-4.458h1.674c.272 0 .52-.066.744-.198a1.514 1.514 0 0 0 .744-1.326c0-.292-.068-.552-.204-.78a1.444 1.444 0 0 0-.54-.546 1.406 1.406 0 0 0-.744-.204h-1.674v3.054Zm5.203 4.458v-6h1.008v.75c.212-.28.48-.502.804-.666a2.26 2.26 0 0 1 1.056-.252c.232 0 .456.03.672.09l-.408 1.008a1.606 1.606 0 0 0-1.308.144c-.248.144-.446.34-.594.588a1.585 1.585 0 0 0-.222.828v3.51h-1.008Zm4.277-6h1.008v6h-1.008v-6Zm.516-.978a.557.557 0 0 1-.402-.156.52.52 0 0 1-.162-.39.52.52 0 0 1 .162-.39.55.55 0 0 1 .396-.156.55.55 0 0 1 .396.156.52.52 0 0 1 .162.39.52.52 0 0 1-.162.39.53.53 0 0 1-.39.156Zm5.985 5.394.9.486c-.272.38-.618.684-1.038.912a2.776 2.776 0 0 1-1.356.342 2.803 2.803 0 0 1-1.512-.426 3.194 3.194 0 0 1-1.086-1.14 3.206 3.206 0 0 1-.402-1.59c0-.44.078-.85.234-1.23.156-.384.37-.72.642-1.008.276-.292.596-.52.96-.684a2.8 2.8 0 0 1 1.164-.246c.488 0 .94.114 1.356.342.42.228.766.534 1.038.918l-.9.486a1.998 1.998 0 0 0-.684-.546 1.838 1.838 0 0 0-1.824.108c-.3.196-.538.458-.714.786a2.236 2.236 0 0 0-.264 1.074c0 .388.088.746.264 1.074.18.324.42.584.72.78.304.196.64.294 1.008.294.296 0 .574-.068.834-.204.26-.136.48-.312.66-.528Zm4.518 1.74a2.803 2.803 0 0 1-1.512-.426 3.194 3.194 0 0 1-1.086-1.14 3.206 3.206 0 0 1-.402-1.59c0-.44.078-.85.234-1.23.156-.384.37-.72.642-1.008.276-.292.596-.52.96-.684a2.8 2.8 0 0 1 1.164-.246c.452 0 .866.092 1.242.276.38.18.704.432.972.756.272.324.474.7.606 1.128.136.428.186.886.15 1.374h-4.896c.048.34.16.644.336.912.176.264.4.474.672.63a1.88 1.88 0 0 0 1.896-.036c.292-.188.528-.444.708-.768l1.026.24c-.24.532-.602.968-1.086 1.308a2.785 2.785 0 0 1-1.626.504Zm-1.956-3.582h3.912a1.965 1.965 0 0 0-.324-.918 2.126 2.126 0 0 0-.702-.672 1.794 1.794 0 0 0-.93-.252c-.336 0-.644.082-.924.246-.28.164-.512.386-.696.666-.18.276-.292.586-.336.93Zm21.479-2.799-.775-.775-3.975 3.975-3.975-3.975-.775.775 4.75 4.725 4.75-4.725Z"/><mask id="a" fill="#fff"><path d="M24.256 124h301.262v82.529H24.256V124Z"/></mask><path fill="#000" d="M24.256 124h301.262v82.529H24.256V124Z"/><path fill="#979797" fill-opacity=".5" d="M325.518 205.529H24.256v2h301.262v-2Z" mask="url(#a)"/><path fill="#fff" d="M60.22 152.965h1.966l3.563 9.8h-1.813l-.63-1.736h-4.2l-.63 1.736h-1.813l3.556-9.8Zm-.49 6.356h2.946l-1.477-4.039-1.47 4.039Zm7.098 3.444v-7h1.708v.623a2.57 2.57 0 0 1 .854-.595 2.57 2.57 0 0 1 1.071-.224c.486 0 .931.114 1.337.343.41.228.737.534.98.917a2.75 2.75 0 0 1 2.317-1.26c.514 0 .978.126 1.393.378.42.247.754.581 1.001 1.001.252.415.378.879.378 1.393v4.424H76.16v-3.969a1.41 1.41 0 0 0-.203-.742 1.488 1.488 0 0 0-.532-.546 1.35 1.35 0 0 0-.742-.21c-.275 0-.525.067-.749.203-.22.13-.397.308-.532.532a1.445 1.445 0 0 0-.203.763v3.969H71.49v-3.969c0-.285-.065-.539-.196-.763a1.45 1.45 0 0 0-.532-.532 1.414 1.414 0 0 0-.749-.203c-.27 0-.518.07-.742.21a1.543 1.543 0 0 0-.539.546c-.13.224-.196.471-.196.742v3.969h-1.708Zm17.583-7h1.708v7H84.41l-.077-.868a2.3 2.3 0 0 1-.763.763c-.313.191-.684.287-1.113.287a3.625 3.625 0 0 1-1.456-.294 3.835 3.835 0 0 1-1.197-.812 3.905 3.905 0 0 1-.805-1.197 3.703 3.703 0 0 1-.287-1.456c0-.5.09-.969.273-1.407.186-.439.445-.824.777-1.155a3.624 3.624 0 0 1 1.148-.777 3.5 3.5 0 0 1 1.4-.28c.462 0 .875.102 1.239.308.368.205.681.466.938.784l-.077-.896Zm-1.995 5.537c.364 0 .686-.091.966-.273.28-.182.5-.427.658-.735.158-.313.238-.656.238-1.029 0-.378-.08-.721-.238-1.029a1.859 1.859 0 0 0-.665-.742 1.72 1.72 0 0 0-.96-.273c-.359 0-.688.093-.986.28-.294.182-.53.427-.707.735a2.069 2.069 0 0 0-.26 1.029 2.055 2.055 0 0 0 .973 1.764c.3.182.626.273.98.273Zm10.796-3.829-3.521 3.584h3.52v1.708h-5.977v-1.708l3.52-3.584h-3.52v-1.708h5.978v1.708Zm4.313 5.474a3.273 3.273 0 0 1-1.764-.497 3.735 3.735 0 0 1-1.267-1.33 3.743 3.743 0 0 1-.469-1.855c0-.514.091-.992.273-1.435a3.75 3.75 0 0 1 .75-1.176 3.504 3.504 0 0 1 1.12-.798 3.258 3.258 0 0 1 1.357-.287c.644 0 1.23.165 1.757.497.532.331.955.777 1.267 1.337.318.56.476 1.18.476 1.862 0 .508-.091.984-.273 1.428a3.805 3.805 0 0 1-.756 1.176 3.494 3.494 0 0 1-1.113.791 3.24 3.24 0 0 1-1.358.287Zm0-1.708c.341 0 .647-.091.917-.273.271-.182.483-.423.637-.721.159-.299.238-.626.238-.98 0-.364-.081-.696-.245-.994a1.863 1.863 0 0 0-.65-.721 1.571 1.571 0 0 0-.897-.273c-.336 0-.639.091-.91.273a1.95 1.95 0 0 0-.644.728 2.096 2.096 0 0 0-.238.987c0 .368.082.702.245 1.001.164.298.38.536.651.714.276.172.574.259.896.259Zm11.002-2.898v4.424h-1.708v-3.976c0-.276-.067-.525-.203-.749a1.463 1.463 0 0 0-.546-.539 1.413 1.413 0 0 0-.749-.203 1.49 1.49 0 0 0-1.295.742c-.13.224-.196.473-.196.749v3.976h-1.708l-.007-7h1.708l.007.623c.238-.252.523-.451.854-.595a2.57 2.57 0 0 1 1.071-.224c.509 0 .973.126 1.393.378.42.247.754.581 1.001 1.001.252.415.378.879.378 1.393Zm-48.89 11.024h1.218l3.054 8.4h-1.068l-.624-1.716h-3.942l-.618 1.716h-1.074l3.054-8.4Zm-.99 5.676h3.198l-1.602-4.386-1.596 4.386Zm6.298 2.724v-6h1.008v.75c.212-.28.477-.502.797-.666a2.26 2.26 0 0 1 1.056-.252 2.418 2.418 0 0 1 2.088 1.182c.212-.356.5-.642.864-.858a2.35 2.35 0 0 1 1.213-.324c.451 0 .861.11 1.23.33.368.216.66.508.876.876.22.368.33.778.33 1.23v3.732h-1.008v-3.492c0-.296-.073-.57-.216-.822a1.69 1.69 0 0 0-.583-.606 1.501 1.501 0 0 0-.81-.228c-.296 0-.566.072-.81.216a1.55 1.55 0 0 0-.582.588 1.665 1.665 0 0 0-.215.852v3.492h-1.009v-3.492c0-.32-.072-.604-.216-.852a1.538 1.538 0 0 0-.587-.588 1.564 1.564 0 0 0-.81-.216c-.293 0-.563.076-.81.228a1.69 1.69 0 0 0-.583.606 1.629 1.629 0 0 0-.216.822v3.492h-1.007Zm15.37-6h1.008v6h-1.008l-.042-1.014c-.188.348-.448.63-.78.846-.328.216-.72.324-1.176.324-.44 0-.852-.082-1.236-.246a3.354 3.354 0 0 1-1.02-.69 3.266 3.266 0 0 1-.684-1.02 3.129 3.129 0 0 1-.246-1.242c0-.428.08-.832.24-1.212a3.127 3.127 0 0 1 2.874-1.914c.472 0 .886.112 1.242.336.356.22.644.506.864.858l-.036-1.026Zm-2.016 5.178c.396 0 .738-.096 1.026-.288.292-.196.516-.46.672-.792.16-.332.24-.698.24-1.098 0-.408-.08-.776-.24-1.104a1.912 1.912 0 0 0-.678-.786 1.769 1.769 0 0 0-1.02-.294c-.396 0-.756.098-1.08.294a2.168 2.168 0 0 0-1.056 1.89c0 .404.098.772.294 1.104.196.328.456.59.78.786.324.192.678.288 1.062.288Zm9.108-4.17-3.69 3.984h3.69v1.008h-5.124v-1.008l3.69-3.984h-3.69v-1.008h5.124v1.008Zm3.756 5.148a2.803 2.803 0 0 1-1.512-.426 3.194 3.194 0 0 1-1.086-1.14 3.206 3.206 0 0 1-.402-1.59c0-.44.078-.85.234-1.23.156-.384.37-.72.642-1.008.276-.292.596-.52.96-.684a2.8 2.8 0 0 1 1.164-.246c.552 0 1.054.142 1.506.426.456.284.818.666 1.086 1.146a3.18 3.18 0 0 1 .408 1.596c0 .436-.078.844-.234 1.224a3.25 3.25 0 0 1-.648 1.008c-.272.288-.59.514-.954.678-.36.164-.748.246-1.164.246Zm0-1.008c.376 0 .714-.098 1.014-.294.304-.2.542-.462.714-.786.176-.328.264-.684.264-1.068 0-.392-.09-.752-.27-1.08a2.116 2.116 0 0 0-.714-.786 1.803 1.803 0 0 0-1.008-.294c-.376 0-.714.1-1.014.3-.3.196-.538.458-.714.786a2.236 2.236 0 0 0-.264 1.074c0 .4.09.764.27 1.092.18.324.422.582.726.774.304.188.636.282.996.282Zm9.296-2.88v3.732h-1.008v-3.51c0-.304-.074-.58-.222-.828a1.641 1.641 0 0 0-.594-.588 1.585 1.585 0 0 0-.828-.222c-.3 0-.576.074-.828.222-.248.144-.446.34-.594.588a1.585 1.585 0 0 0-.222.828v3.51h-1.008v-6h1.008v.75c.212-.28.48-.502.804-.666a2.26 2.26 0 0 1 1.056-.252c.448 0 .856.11 1.224.33.372.216.666.508.882.876.22.368.33.778.33 1.23Zm4.263 3.732v-8.4h1.008v8.4h-1.008Zm7.937-3.732v3.732h-1.008v-3.51c0-.304-.074-.58-.222-.828a1.641 1.641 0 0 0-.594-.588 1.585 1.585 0 0 0-.828-.222c-.3 0-.576.074-.828.222-.248.144-.446.34-.594.588a1.585 1.585 0 0 0-.222.828v3.51h-1.008v-6h1.008v.75c.212-.28.48-.502.804-.666a2.26 2.26 0 0 1 1.056-.252c.448 0 .856.11 1.224.33.372.216.666.508.882.876.22.368.33.778.33 1.23Zm5.216 2.148.9.486c-.272.38-.618.684-1.038.912a2.776 2.776 0 0 1-1.356.342 2.803 2.803 0 0 1-1.512-.426 3.194 3.194 0 0 1-1.086-1.14 3.206 3.206 0 0 1-.402-1.59c0-.44.078-.85.234-1.23.156-.384.37-.72.642-1.008.276-.292.596-.52.96-.684a2.8 2.8 0 0 1 1.164-.246c.488 0 .94.114 1.356.342.42.228.766.534 1.038.918l-.9.486a1.998 1.998 0 0 0-.684-.546 1.838 1.838 0 0 0-1.824.108c-.3.196-.538.458-.714.786a2.236 2.236 0 0 0-.264 1.074c0 .388.088.746.264 1.074.18.324.42.584.72.78.304.196.64.294 1.008.294.296 0 .574-.068.834-.204.26-.136.48-.312.66-.528Z"/><path fill="url(#b)" d="M160.022 157.288c-.648 4.216-6.216 8.513-8.919 10.135v4.865l56.351 2.027v-6.892l-7.297-10.135-6.081 5.27-3.244 4.865-20.269-4.865-3.649 4.865c-2.027-5.135-6.243-14.351-6.892-10.135Z"/><path stroke="#8478F0" stroke-linecap="round" d="M151.103 167.423c2.703-1.622 8.271-5.919 8.919-10.135.649-4.216 4.865 5 6.892 10.135l3.649-4.865 20.269 4.865 3.244-4.865 6.081-5.27 7.297 10.135"/><path fill="#fff" d="M231.246 169.765v-8.092h-1.232l.462-1.708h2.478v9.8h-1.708Zm6.623.182c-.626 0-1.2-.157-1.722-.469a3.58 3.58 0 0 1-1.253-1.253 3.317 3.317 0 0 1-.469-1.736c0-.327.037-.63.112-.91.079-.28.2-.563.364-.847l2.744-4.767h1.981l-1.841 3.185a3.254 3.254 0 0 1 2.065.539c.298.2.56.443.784.728.224.284.396.602.518.952.126.35.189.723.189 1.12 0 .476-.091.921-.273 1.337a3.567 3.567 0 0 1-.742 1.106 3.551 3.551 0 0 1-1.106.749c-.42.177-.871.266-1.351.266Zm0-1.708c.34 0 .644-.082.91-.245.266-.168.473-.385.623-.651.154-.266.231-.549.231-.847a1.749 1.749 0 0 0-.861-1.519 1.678 1.678 0 0 0-.889-.238c-.341 0-.644.084-.91.252a1.76 1.76 0 0 0-.84 1.505c0 .331.081.627.245.889.163.261.375.469.637.623.266.154.55.231.854.231Zm7.739 1.708c-.63 0-1.199-.152-1.708-.455a3.474 3.474 0 0 1-1.211-1.225 3.287 3.287 0 0 1-.441-1.673h1.708c0 .303.075.581.224.833.15.247.348.445.595.595.252.144.53.217.833.217.304 0 .579-.073.826-.217.248-.15.446-.348.595-.595.15-.252.224-.53.224-.833 0-.304-.065-.581-.196-.833a1.353 1.353 0 0 0-.623-.609c-.284-.154-.662-.231-1.134-.231h-2.52l1.036-4.956h4.816v1.708h-3.43l-.315 1.54.693.007c.663.023 1.249.184 1.757.483.509.298.906.7 1.19 1.204.29.499.434 1.061.434 1.687 0 .457-.086.889-.259 1.295a3.348 3.348 0 0 1-.721 1.071c-.308.308-.665.55-1.071.728a3.268 3.268 0 0 1-1.302.259Zm7.997 0a3.29 3.29 0 0 1-2.814-1.519 2.895 2.895 0 0 1-.434-1.554c0-.448.101-.868.301-1.26a3.02 3.02 0 0 1 .826-1.001 3.11 3.11 0 0 1-.665-.875 2.438 2.438 0 0 1-.252-1.092c0-.528.138-1.008.413-1.442.276-.434.642-.78 1.099-1.036a3.087 3.087 0 0 1 1.526-.385 3.06 3.06 0 0 1 2.625 1.421c.276.434.413.914.413 1.442 0 .387-.084.751-.252 1.092a2.778 2.778 0 0 1-.665.875c.355.27.633.604.833 1.001.206.392.308.812.308 1.26 0 .564-.147 1.08-.441 1.547a3.243 3.243 0 0 1-1.176 1.113 3.326 3.326 0 0 1-1.645.413Zm0-1.708c.271 0 .516-.061.735-.182.22-.126.395-.292.525-.497a1.25 1.25 0 0 0 .196-.686c0-.252-.065-.481-.196-.686a1.415 1.415 0 0 0-.525-.49 1.447 1.447 0 0 0-.735-.189c-.266 0-.508.063-.728.189a1.49 1.49 0 0 0-.532.49c-.13.205-.196.434-.196.686 0 .252.066.48.196.686.136.205.313.371.532.497.22.121.462.182.728.182Zm0-4.438c.229 0 .437-.052.623-.154.187-.108.334-.248.441-.42.112-.173.168-.367.168-.581 0-.215-.056-.409-.168-.581a1.162 1.162 0 0 0-.441-.413 1.218 1.218 0 0 0-.623-.161c-.224 0-.429.053-.616.161-.186.102-.336.24-.448.413a1.042 1.042 0 0 0-.168.581c0 .214.056.408.168.581.112.172.262.312.448.42.187.102.392.154.616.154Zm5.256 6.146a.863.863 0 0 1-.875-.882c0-.238.084-.444.252-.616a.85.85 0 0 1 .623-.259c.243 0 .451.086.623.259a.839.839 0 0 1 .259.616.857.857 0 0 1-.259.63.86.86 0 0 1-.623.252Zm5.959 0c-.57 0-1.088-.131-1.554-.392a3.861 3.861 0 0 1-1.211-1.099 5.367 5.367 0 0 1-.777-1.617 6.935 6.935 0 0 1-.273-1.974c0-.7.091-1.356.273-1.967a5.339 5.339 0 0 1 .777-1.624c.34-.467.744-.831 1.211-1.092a3.079 3.079 0 0 1 1.554-.399c.569 0 1.087.133 1.554.399.466.261.865.625 1.197 1.092.336.466.595 1.008.777 1.624.186.611.28 1.267.28 1.967 0 .7-.094 1.358-.28 1.974a5.367 5.367 0 0 1-.777 1.617 3.743 3.743 0 0 1-1.197 1.099 3.13 3.13 0 0 1-1.554.392Zm0-1.708c.499 0 .912-.159 1.239-.476.326-.318.569-.733.728-1.246a5.59 5.59 0 0 0 .238-1.652c0-.621-.084-1.186-.252-1.694-.168-.514-.416-.922-.742-1.225-.327-.304-.731-.455-1.211-.455-.378 0-.707.093-.987.28a2.162 2.162 0 0 0-.686.749 3.77 3.77 0 0 0-.406 1.085 5.8 5.8 0 0 0-.133 1.26c0 .583.079 1.134.238 1.652.163.513.408.928.735 1.246.331.317.744.476 1.239.476Zm8.148 1.708a3.13 3.13 0 0 1-1.554-.392 3.872 3.872 0 0 1-1.211-1.099 5.367 5.367 0 0 1-.777-1.617 6.935 6.935 0 0 1-.273-1.974c0-.7.091-1.356.273-1.967a5.339 5.339 0 0 1 .777-1.624 3.777 3.777 0 0 1 1.211-1.092 3.084 3.084 0 0 1 1.554-.399c.569 0 1.087.133 1.554.399.467.261.866.625 1.197 1.092.336.466.595 1.008.777 1.624a6.69 6.69 0 0 1 .28 1.967c0 .7-.093 1.358-.28 1.974a5.367 5.367 0 0 1-.777 1.617c-.331.466-.73.833-1.197 1.099a3.13 3.13 0 0 1-1.554.392Zm0-1.708c.499 0 .912-.159 1.239-.476.327-.318.569-.733.728-1.246a5.558 5.558 0 0 0 .238-1.652c0-.621-.084-1.186-.252-1.694-.168-.514-.415-.922-.742-1.225-.327-.304-.73-.455-1.211-.455-.378 0-.707.093-.987.28a2.172 2.172 0 0 0-.686.749 3.8 3.8 0 0 0-.406 1.085 5.8 5.8 0 0 0-.133 1.26c0 .583.079 1.134.238 1.652.163.513.408.928.735 1.246.331.317.744.476 1.239.476Z"/><path fill="#8478F0" d="M294.024 160.445a.499.499 0 0 0-.707 0l-3.182 3.182a.5.5 0 0 0 .707.707l2.828-2.829 2.829 2.829a.5.5 0 0 0 .707-.707l-3.182-3.182Zm-.854.353v8.933h1v-8.933h-1Z"/><mask id="c" fill="#fff"><path d="M21 210.588h301.262v82.53H21v-82.53Z"/></mask><path fill="#000" d="M21 210.588h301.262v82.53H21v-82.53Z"/><path fill="#979797" fill-opacity=".5" d="M322.262 292.118H21v2h301.262v-2Z" mask="url(#c)"/><path fill="#fff" d="M53.688 249.353v-9.8h1.848l4.137 6.713v-6.713h1.708v9.8H59.54l-4.144-6.713v6.713h-1.708Zm12.35.182a3.273 3.273 0 0 1-1.765-.497 3.707 3.707 0 0 1-1.736-3.192c0-.509.091-.985.273-1.428a3.75 3.75 0 0 1 .75-1.176 3.502 3.502 0 0 1 1.12-.798 3.273 3.273 0 0 1 1.357-.287c.546 0 1.046.117 1.498.35.458.229.845.544 1.162.945a3.888 3.888 0 0 1 .791 2.982h-5.117c.066.261.173.497.322.707.15.205.339.371.567.497a1.7 1.7 0 0 0 .777.189 1.5 1.5 0 0 0 .812-.21c.248-.149.453-.35.616-.602l1.743.406a3.742 3.742 0 0 1-1.274 1.526 3.25 3.25 0 0 1-1.897.588Zm-1.723-4.382h3.444a1.776 1.776 0 0 0-.329-.756 1.836 1.836 0 0 0-.609-.546 1.587 1.587 0 0 0-.784-.203c-.28 0-.539.068-.777.203-.238.131-.44.31-.609.539a1.977 1.977 0 0 0-.336.763Zm10.064-1.092h-1.358v5.292h-1.708v-5.292h-1.036v-1.708h1.036v-2.198h1.708v2.198h1.358v1.708Zm3.247-3.178v1.47h1.91v1.708h-1.91v5.292h-1.708v-5.292h-.763v-1.708h.763v-1.47c0-.401.098-.768.294-1.099.2-.336.469-.602.805-.798a2.127 2.127 0 0 1 1.113-.301c.294 0 .586.061.875.182.29.121.546.308.77.56l-1.232 1.204a.39.39 0 0 0-.182-.175.466.466 0 0 0-.231-.063.501.501 0 0 0-.357.147.455.455 0 0 0-.147.343Zm3.187 8.47v-10.5h1.708v10.5h-1.708Zm3.39-7h1.708v7h-1.708v-7Zm.868-.903a.893.893 0 0 1-.637-.245.843.843 0 0 1-.259-.63c0-.247.087-.455.26-.623a.87.87 0 0 1 .63-.252c.247 0 .454.084.622.252a.835.835 0 0 1 .26.623.855.855 0 0 1-.253.63.86.86 0 0 1-.623.245ZM87 249.353l2.562-3.514-2.541-3.493h2.107l1.484 2.037 1.49-2.037h2.108l-2.541 3.493 2.562 3.514h-2.107l-1.512-2.072-1.505 2.072H87Zm-33.432 15v-8.4h1.092l4.194 6.576v-6.576h1.008v8.4h-1.086l-4.2-6.576v6.576h-1.008Zm10.316.156a2.803 2.803 0 0 1-1.512-.426 3.194 3.194 0 0 1-1.086-1.14 3.206 3.206 0 0 1-.402-1.59c0-.44.078-.85.234-1.23.156-.384.37-.72.642-1.008.276-.292.596-.52.96-.684a2.8 2.8 0 0 1 1.164-.246c.452 0 .866.092 1.242.276.38.18.704.432.972.756.272.324.474.7.606 1.128.136.428.186.886.15 1.374h-4.896c.048.34.16.644.336.912.176.264.4.474.672.63a1.88 1.88 0 0 0 1.896-.036c.292-.188.528-.444.708-.768l1.026.24c-.24.532-.602.968-1.086 1.308a2.785 2.785 0 0 1-1.626.504Zm-1.956-3.582h3.912a1.965 1.965 0 0 0-.324-.918 2.126 2.126 0 0 0-.702-.672 1.794 1.794 0 0 0-.93-.252c-.336 0-.644.082-.924.246-.28.164-.512.386-.696.666-.18.276-.292.586-.336.93Zm8.974-1.566H69.54l-.006 4.992h-1.008l.006-4.992H67.5v-1.008h1.032l-.006-1.884h1.008l.006 1.884h1.362v1.008Zm2.438-2.49v1.482h1.758v1.008H73.34v4.992h-1.008v-4.992h-.774v-1.008h.774v-1.482c0-.308.074-.586.222-.834.152-.252.354-.452.606-.6.256-.152.536-.228.84-.228.224 0 .442.046.654.138.212.088.4.22.564.396l-.72.714a.534.534 0 0 0-.222-.174.65.65 0 0 0-.744.126.63.63 0 0 0-.192.462Zm2.798 7.482v-9h1.008v9h-1.008Zm2.45-6h1.007v6h-1.008v-6Zm.515-.978a.557.557 0 0 1-.402-.156.52.52 0 0 1-.162-.39.52.52 0 0 1 .162-.39.55.55 0 0 1 .396-.156.55.55 0 0 1 .396.156.52.52 0 0 1 .162.39.52.52 0 0 1-.162.39.53.53 0 0 1-.39.156Zm1.53 6.978 2.196-3.012-2.184-3h1.242l1.566 2.136 1.56-2.136h1.241l-2.184 3 2.197 3.012h-1.242l-1.573-2.16-1.578 2.16h-1.242Zm9.9 0v-8.4h1.008v8.4h-1.008Zm7.936-3.732v3.732h-1.008v-3.51c0-.304-.074-.58-.222-.828a1.641 1.641 0 0 0-.594-.588 1.585 1.585 0 0 0-.828-.222c-.3 0-.576.074-.828.222-.248.144-.446.34-.594.588a1.585 1.585 0 0 0-.222.828v3.51h-1.008v-6h1.008v.75c.212-.28.48-.502.804-.666a2.26 2.26 0 0 1 1.056-.252c.448 0 .856.11 1.224.33.372.216.666.508.882.876.22.368.33.778.33 1.23Zm5.217 2.148.9.486c-.272.38-.618.684-1.038.912a2.776 2.776 0 0 1-1.356.342 2.803 2.803 0 0 1-1.512-.426 3.193 3.193 0 0 1-1.086-1.14 3.206 3.206 0 0 1-.402-1.59c0-.44.078-.85.234-1.23.156-.384.37-.72.642-1.008.276-.292.596-.52.96-.684a2.8 2.8 0 0 1 1.164-.246c.488 0 .94.114 1.356.342.42.228.766.534 1.038.918l-.9.486a1.998 1.998 0 0 0-.684-.546 1.838 1.838 0 0 0-1.824.108c-.3.196-.538.458-.714.786a2.236 2.236 0 0 0-.264 1.074c0 .388.088.746.264 1.074.18.324.42.584.72.78.304.196.64.294 1.008.294.296 0 .574-.068.834-.204.26-.136.48-.312.66-.528Z"/><path fill="url(#d)" d="M156.767 245.121c-.649 4.217-6.217 8.514-8.919 10.135v4.865l56.35 2.027v-6.892l-7.286-5.578h-6.897l-9.608-7.903-13.1 8.617-3.344-5.271c-2.027-5.135-6.548-4.216-7.196 0Z"/><path stroke="#D7FE03" stroke-linecap="round" d="M147.848 255.256c2.702-1.621 8.27-5.919 8.919-10.135.648-4.216 4.621-5.224 6.648-.089l3.892 5.36 13.185-8.652 9.742 7.651h6.678l7.286 5.865"/><path fill="#fff" d="M227.99 256.353v-8.092h-1.232l.462-1.708h2.478v9.8h-1.708Zm6.623.182a3.29 3.29 0 0 1-1.722-.469 3.588 3.588 0 0 1-1.253-1.253 3.324 3.324 0 0 1-.469-1.736c0-.327.038-.63.112-.91.08-.28.201-.562.364-.847l2.744-4.767h1.981l-1.841 3.185a3.28 3.28 0 0 1 1.092.098c.35.093.675.24.973.441.299.201.56.443.784.728.224.285.397.602.518.952.126.35.189.723.189 1.12 0 .476-.091.922-.273 1.337a3.532 3.532 0 0 1-.742 1.106 3.54 3.54 0 0 1-1.106.749c-.42.177-.87.266-1.351.266Zm0-1.708c.341 0 .644-.082.91-.245.266-.168.474-.385.623-.651.154-.266.231-.548.231-.847 0-.322-.077-.616-.231-.882a1.757 1.757 0 0 0-.63-.637 1.673 1.673 0 0 0-.889-.238c-.34 0-.644.084-.91.252a1.777 1.777 0 0 0-.84 1.505c0 .331.082.628.245.889.164.261.376.469.637.623.266.154.551.231.854.231Zm7.74 1.708c-.63 0-1.2-.152-1.708-.455a3.45 3.45 0 0 1-1.211-1.225 3.284 3.284 0 0 1-.441-1.673h1.708c0 .303.074.581.224.833.149.247.347.446.595.595.252.145.529.217.833.217.303 0 .578-.072.826-.217.247-.149.445-.348.595-.595.149-.252.224-.53.224-.833 0-.303-.066-.581-.196-.833a1.358 1.358 0 0 0-.623-.609c-.285-.154-.663-.231-1.134-.231h-2.52l1.036-4.956h4.816v1.708h-3.43l-.315 1.54.693.007c.662.023 1.248.184 1.757.483.508.299.905.7 1.19 1.204.289.499.434 1.062.434 1.687 0 .457-.087.889-.259 1.295a3.364 3.364 0 0 1-.721 1.071 3.451 3.451 0 0 1-1.071.728 3.258 3.258 0 0 1-1.302.259Zm7.997 0a3.29 3.29 0 0 1-2.814-1.519 2.895 2.895 0 0 1-.434-1.554c0-.448.1-.868.301-1.26.205-.397.481-.73.826-1.001a3.078 3.078 0 0 1-.665-.875 2.438 2.438 0 0 1-.252-1.092c0-.527.138-1.008.413-1.442a3.045 3.045 0 0 1 1.099-1.036 3.087 3.087 0 0 1 1.526-.385 3.06 3.06 0 0 1 2.625 1.421c.275.434.413.915.413 1.442 0 .387-.084.751-.252 1.092a2.766 2.766 0 0 1-.665.875c.355.271.632.604.833 1.001.205.392.308.812.308 1.26 0 .565-.147 1.08-.441 1.547a3.243 3.243 0 0 1-1.176 1.113 3.33 3.33 0 0 1-1.645.413Zm0-1.708c.271 0 .516-.061.735-.182a1.5 1.5 0 0 0 .525-.497c.131-.205.196-.434.196-.686 0-.252-.065-.481-.196-.686a1.438 1.438 0 0 0-.525-.49 1.447 1.447 0 0 0-.735-.189c-.266 0-.509.063-.728.189a1.491 1.491 0 0 0-.532.49 1.248 1.248 0 0 0-.196.686c0 .252.065.481.196.686.135.205.313.371.532.497.219.121.462.182.728.182Zm0-4.438a1.22 1.22 0 0 0 1.064-.574c.112-.173.168-.366.168-.581 0-.215-.056-.408-.168-.581a1.17 1.17 0 0 0-.441-.413 1.23 1.23 0 0 0-.623-.161c-.224 0-.429.054-.616.161-.187.103-.336.24-.448.413a1.045 1.045 0 0 0-.168.581c0 .215.056.408.168.581.112.173.261.313.448.42.187.103.392.154.616.154Zm5.256 6.146a.86.86 0 0 1-.875-.882c0-.238.084-.443.252-.616a.846.846 0 0 1 .623-.259.85.85 0 0 1 .623.259.844.844 0 0 1 .259.616.861.861 0 0 1-.259.63.863.863 0 0 1-.623.252Zm5.958 0a3.13 3.13 0 0 1-1.554-.392 3.86 3.86 0 0 1-1.211-1.099 5.367 5.367 0 0 1-.777-1.617 6.935 6.935 0 0 1-.273-1.974c0-.7.091-1.356.273-1.967a5.35 5.35 0 0 1 .777-1.624 3.777 3.777 0 0 1 1.211-1.092 3.084 3.084 0 0 1 1.554-.399c.569 0 1.087.133 1.554.399.467.261.866.625 1.197 1.092a5.35 5.35 0 0 1 .777 1.624 6.69 6.69 0 0 1 .28 1.967c0 .7-.093 1.358-.28 1.974a5.367 5.367 0 0 1-.777 1.617c-.331.467-.73.833-1.197 1.099a3.13 3.13 0 0 1-1.554.392Zm0-1.708c.499 0 .912-.159 1.239-.476.327-.317.569-.733.728-1.246a5.554 5.554 0 0 0 .238-1.652 5.38 5.38 0 0 0-.252-1.694c-.168-.513-.415-.922-.742-1.225-.327-.303-.73-.455-1.211-.455-.378 0-.707.093-.987.28a2.18 2.18 0 0 0-.686.749 3.8 3.8 0 0 0-.406 1.085 5.8 5.8 0 0 0-.133 1.26c0 .583.079 1.134.238 1.652.163.513.408.929.735 1.246.331.317.744.476 1.239.476Zm8.148 1.708a3.13 3.13 0 0 1-1.554-.392 3.87 3.87 0 0 1-1.211-1.099 5.367 5.367 0 0 1-.777-1.617 6.935 6.935 0 0 1-.273-1.974c0-.7.091-1.356.273-1.967a5.35 5.35 0 0 1 .777-1.624 3.787 3.787 0 0 1 1.211-1.092 3.084 3.084 0 0 1 1.554-.399c.57 0 1.088.133 1.554.399.467.261.866.625 1.197 1.092a5.35 5.35 0 0 1 .777 1.624 6.69 6.69 0 0 1 .28 1.967c0 .7-.093 1.358-.28 1.974a5.367 5.367 0 0 1-.777 1.617c-.331.467-.73.833-1.197 1.099a3.126 3.126 0 0 1-1.554.392Zm0-1.708c.5 0 .913-.159 1.239-.476.327-.317.57-.733.728-1.246a5.554 5.554 0 0 0 .238-1.652 5.38 5.38 0 0 0-.252-1.694c-.168-.513-.415-.922-.742-1.225-.326-.303-.73-.455-1.211-.455-.378 0-.707.093-.987.28a2.18 2.18 0 0 0-.686.749 3.8 3.8 0 0 0-.406 1.085 5.863 5.863 0 0 0-.133 1.26c0 .583.08 1.134.238 1.652.164.513.409.929.735 1.246.332.317.745.476 1.239.476Z"/><path fill="#D7FE03" d="M290.061 256.673a.5.5 0 0 0 .707 0l3.182-3.182a.5.5 0 0 0-.707-.707l-2.828 2.828-2.829-2.828a.5.5 0 0 0-.707.707l3.182 3.182Zm-.146-9.287v8.934h1v-8.934h-1Z"/><path fill="#000" d="M21 297.176h301.262v82.529H21z"/><path fill="#fff" d="M56.964 326.141h1.967l3.563 9.8H60.68l-.63-1.736h-4.2l-.63 1.736h-1.813l3.556-9.8Zm-.49 6.356h2.947l-1.477-4.039-1.47 4.039Zm8.643 6.944h-1.709v-10.5h1.709v.889c.228-.317.508-.574.84-.77.336-.201.728-.301 1.175-.301.514 0 .992.096 1.435.287.444.191.834.457 1.17.798.34.336.604.726.79 1.169.192.443.287.919.287 1.428 0 .509-.095.987-.286 1.435-.187.448-.45.842-.791 1.183-.337.336-.726.6-1.17.791a3.588 3.588 0 0 1-1.434.287c-.448 0-.84-.098-1.176-.294a2.846 2.846 0 0 1-.84-.777v4.375Zm1.995-9.037a1.68 1.68 0 0 0-.953.28c-.28.182-.499.427-.658.735a2.199 2.199 0 0 0-.238 1.022c0 .373.08.716.238 1.029.16.308.378.555.658.742.28.182.598.273.953.273.359 0 .688-.091.987-.273a2.036 2.036 0 0 0 .98-1.771 2.036 2.036 0 0 0-.98-1.757 1.8 1.8 0 0 0-.987-.28Zm6.508 9.037h-1.708v-10.5h1.708v.889a2.76 2.76 0 0 1 .84-.77c.336-.201.728-.301 1.176-.301.514 0 .992.096 1.435.287.444.191.833.457 1.17.798.34.336.604.726.79 1.169.192.443.287.919.287 1.428 0 .509-.095.987-.287 1.435-.186.448-.45.842-.79 1.183-.337.336-.726.6-1.17.791a3.588 3.588 0 0 1-1.435.287c-.448 0-.84-.098-1.176-.294a2.848 2.848 0 0 1-.84-.777v4.375Zm1.995-9.037c-.354 0-.672.093-.952.28-.28.182-.499.427-.658.735a2.199 2.199 0 0 0-.238 1.022c0 .373.08.716.238 1.029.16.308.378.555.658.742.28.182.598.273.952.273.36 0 .689-.091.987-.273a2.034 2.034 0 0 0 .98-1.771 2.034 2.034 0 0 0-.98-1.757 1.8 1.8 0 0 0-.987-.28Zm4.692 5.537v-10.5h1.708v10.5h-1.708Zm6.361.182a3.273 3.273 0 0 1-1.764-.497 3.706 3.706 0 0 1-1.267-1.337 3.739 3.739 0 0 1-.469-1.855c0-.509.091-.985.273-1.428a3.74 3.74 0 0 1 .75-1.176 3.502 3.502 0 0 1 1.12-.798 3.273 3.273 0 0 1 1.357-.287c.546 0 1.045.117 1.498.35.458.229.845.544 1.162.945a3.888 3.888 0 0 1 .791 2.982h-5.117c.066.261.173.497.322.707.15.205.338.371.567.497a1.7 1.7 0 0 0 .777.189 1.5 1.5 0 0 0 .812-.21c.248-.149.453-.35.616-.602l1.743.406a3.742 3.742 0 0 1-1.274 1.526 3.25 3.25 0 0 1-1.897.588Zm-1.722-4.382h3.444a1.777 1.777 0 0 0-.329-.756 1.838 1.838 0 0 0-.609-.546 1.587 1.587 0 0 0-.784-.203c-.28 0-.539.068-.777.203-.238.131-.44.31-.609.539a1.974 1.974 0 0 0-.336.763Zm-28.564 10.8H57.6l3.054 8.4h-1.068l-.624-1.716H55.02l-.618 1.716h-1.074l3.054-8.4Zm-.99 5.676h3.198l-1.602-4.386-1.596 4.386Zm7.235 5.724h-1.008v-9h1.008v1.026c.204-.352.476-.636.816-.852.34-.22.744-.33 1.212-.33a3.125 3.125 0 0 1 2.232.93c.288.288.514.622.678 1.002.164.38.246.788.246 1.224 0 .436-.082.846-.246 1.23-.164.384-.39.722-.678 1.014a3.173 3.173 0 0 1-1.008.678c-.38.164-.788.246-1.224.246-.468 0-.872-.108-1.212-.324a2.501 2.501 0 0 1-.816-.858v4.014Zm2.016-8.178c-.388 0-.728.098-1.02.294a1.964 1.964 0 0 0-.678.786 2.524 2.524 0 0 0-.234 1.098c0 .4.078.766.234 1.098.16.332.384.596.672.792.292.196.634.294 1.026.294.388 0 .744-.096 1.068-.288.324-.196.584-.458.78-.786.196-.332.294-.702.294-1.11a2.193 2.193 0 0 0-1.062-1.884 2.046 2.046 0 0 0-1.08-.294Zm5.179 8.178h-1.008v-9h1.008v1.026c.204-.352.476-.636.816-.852.34-.22.744-.33 1.212-.33a3.125 3.125 0 0 1 2.232.93c.288.288.514.622.678 1.002.164.38.246.788.246 1.224 0 .436-.082.846-.246 1.23-.164.384-.39.722-.678 1.014a3.173 3.173 0 0 1-1.008.678c-.38.164-.788.246-1.224.246-.468 0-.872-.108-1.212-.324a2.501 2.501 0 0 1-.816-.858v4.014Zm2.016-8.178c-.388 0-.728.098-1.02.294a1.964 1.964 0 0 0-.678.786 2.524 2.524 0 0 0-.234 1.098c0 .4.078.766.234 1.098.16.332.384.596.672.792.292.196.634.294 1.026.294.388 0 .744-.096 1.068-.288.324-.196.584-.458.78-.786.196-.332.294-.702.294-1.11a2.193 2.193 0 0 0-1.062-1.884 2.046 2.046 0 0 0-1.08-.294Zm4.113 5.178v-9h1.008v9H75.95Zm5.03.156a2.803 2.803 0 0 1-1.512-.426 3.194 3.194 0 0 1-1.086-1.14 3.206 3.206 0 0 1-.402-1.59c0-.44.078-.85.234-1.23.156-.384.37-.72.642-1.008.276-.292.596-.52.96-.684a2.8 2.8 0 0 1 1.164-.246c.452 0 .866.092 1.242.276.38.18.704.432.972.756.272.324.474.7.606 1.128.136.428.186.886.15 1.374h-4.896c.048.34.16.644.336.912.176.264.4.474.672.63a1.88 1.88 0 0 0 1.896-.036c.292-.188.528-.444.708-.768l1.026.24c-.24.532-.602.968-1.086 1.308a2.785 2.785 0 0 1-1.626.504Zm-1.956-3.582h3.912a1.965 1.965 0 0 0-.324-.918 2.126 2.126 0 0 0-.702-.672 1.794 1.794 0 0 0-.93-.252c-.336 0-.644.082-.924.246-.28.164-.512.386-.696.666-.18.276-.292.586-.336.93Zm9.082 3.426v-8.4h1.008v8.4h-1.008Zm7.937-3.732v3.732h-1.008v-3.51c0-.304-.074-.58-.222-.828a1.641 1.641 0 0 0-.594-.588 1.585 1.585 0 0 0-.828-.222c-.3 0-.576.074-.828.222-.248.144-.446.34-.594.588a1.585 1.585 0 0 0-.222.828v3.51H90.74v-6h1.008v.75c.212-.28.48-.502.804-.666a2.26 2.26 0 0 1 1.056-.252c.448 0 .856.11 1.224.33.372.216.666.508.882.876.22.368.33.778.33 1.23Zm5.216 2.148.9.486c-.272.38-.618.684-1.038.912a2.775 2.775 0 0 1-1.356.342 2.803 2.803 0 0 1-1.512-.426 3.194 3.194 0 0 1-1.086-1.14 3.206 3.206 0 0 1-.402-1.59c0-.44.078-.85.234-1.23.156-.384.37-.72.642-1.008.276-.292.596-.52.96-.684a2.8 2.8 0 0 1 1.164-.246c.488 0 .94.114 1.356.342.42.228.766.534 1.038.918l-.9.486a1.998 1.998 0 0 0-.684-.546 1.837 1.837 0 0 0-1.824.108c-.3.196-.538.458-.714.786a2.236 2.236 0 0 0-.264 1.074c0 .388.088.746.264 1.074.18.324.42.584.72.78.304.196.64.294 1.008.294.296 0 .574-.068.834-.204.26-.136.48-.312.66-.528Z"/><path fill="url(#e)" d="M156.767 330.464c-.649 4.217-6.217 8.514-8.919 10.135v4.865l56.35 2.027v-6.892l-7.297-10.135-6.081 5.271-3.243 4.864-20.27-4.864-3.649 4.864c-2.027-5.135-6.243-14.351-6.891-10.135Z"/><path stroke="#8478F0" stroke-linecap="round" d="M147.848 340.599c2.702-1.621 8.27-5.918 8.919-10.135.648-4.216 4.864 5 6.891 10.135l3.649-4.864 20.27 4.864 3.243-4.864 6.081-5.271 7.297 10.135"/><path fill="#fff" d="M227.99 342.941v-8.092h-1.232l.462-1.708h2.478v9.8h-1.708Zm3.599 0 4.669-8.092h-5.159v-1.708h7.14v1.708l-4.683 8.092h-1.967Zm10.777.182c-.63 0-1.199-.152-1.708-.455a3.466 3.466 0 0 1-1.211-1.225 3.284 3.284 0 0 1-.441-1.673h1.708c0 .303.075.581.224.833.15.247.348.446.595.595.252.145.53.217.833.217a1.6 1.6 0 0 0 .826-.217 1.72 1.72 0 0 0 .595-.595c.15-.252.224-.53.224-.833a1.78 1.78 0 0 0-.196-.833 1.353 1.353 0 0 0-.623-.609c-.284-.154-.662-.231-1.134-.231h-2.52l1.036-4.956h4.816v1.708h-3.43l-.315 1.54.693.007c.663.023 1.249.184 1.757.483.509.299.906.7 1.19 1.204.29.499.434 1.062.434 1.687 0 .457-.086.889-.259 1.295a3.348 3.348 0 0 1-.721 1.071 3.451 3.451 0 0 1-1.071.728 3.251 3.251 0 0 1-1.302.259Zm7.998 0a3.29 3.29 0 0 1-2.814-1.519 2.886 2.886 0 0 1-.434-1.554c0-.448.1-.868.301-1.26.205-.397.48-.73.826-1.001a3.06 3.06 0 0 1-.665-.875 2.438 2.438 0 0 1-.252-1.092c0-.527.137-1.008.413-1.442a3.037 3.037 0 0 1 1.099-1.036c.462-.257.97-.385 1.526-.385a3.062 3.062 0 0 1 2.625 1.421c.275.434.413.915.413 1.442 0 .387-.084.751-.252 1.092a2.781 2.781 0 0 1-.665.875c.354.271.632.604.833 1.001.205.392.308.812.308 1.26 0 .565-.147 1.08-.441 1.547-.29.462-.682.833-1.176 1.113a3.33 3.33 0 0 1-1.645.413Zm0-1.708a1.5 1.5 0 0 0 .735-.182 1.5 1.5 0 0 0 .525-.497c.13-.205.196-.434.196-.686 0-.252-.066-.481-.196-.686a1.438 1.438 0 0 0-.525-.49 1.452 1.452 0 0 0-.735-.189c-.266 0-.509.063-.728.189-.22.121-.397.285-.532.49a1.248 1.248 0 0 0-.196.686c0 .252.065.481.196.686.135.205.312.371.532.497.219.121.462.182.728.182Zm0-4.438c.228 0 .436-.051.623-.154.186-.107.333-.247.441-.42.112-.173.168-.366.168-.581 0-.215-.056-.408-.168-.581a1.185 1.185 0 0 0-.441-.413 1.233 1.233 0 0 0-.623-.161c-.224 0-.43.054-.616.161-.187.103-.336.24-.448.413a1.045 1.045 0 0 0-.168.581c0 .215.056.408.168.581a1.252 1.252 0 0 0 1.064.574Zm5.255 6.146a.863.863 0 0 1-.875-.882c0-.238.084-.443.252-.616a.85.85 0 0 1 .623-.259c.243 0 .451.086.623.259a.84.84 0 0 1 .259.616.857.857 0 0 1-.259.63.86.86 0 0 1-.623.252Zm5.959 0c-.57 0-1.088-.131-1.554-.392a3.849 3.849 0 0 1-1.211-1.099 5.367 5.367 0 0 1-.777-1.617 6.935 6.935 0 0 1-.273-1.974c0-.7.091-1.356.273-1.967a5.35 5.35 0 0 1 .777-1.624c.34-.467.744-.831 1.211-1.092a3.079 3.079 0 0 1 1.554-.399c.569 0 1.087.133 1.554.399.466.261.865.625 1.197 1.092a5.35 5.35 0 0 1 .777 1.624c.186.611.28 1.267.28 1.967 0 .7-.094 1.358-.28 1.974a5.367 5.367 0 0 1-.777 1.617 3.731 3.731 0 0 1-1.197 1.099 3.13 3.13 0 0 1-1.554.392Zm0-1.708c.499 0 .912-.159 1.239-.476.326-.317.569-.733.728-1.246a5.586 5.586 0 0 0 .238-1.652 5.38 5.38 0 0 0-.252-1.694c-.168-.513-.416-.922-.742-1.225-.327-.303-.731-.455-1.211-.455-.378 0-.707.093-.987.28a2.171 2.171 0 0 0-.686.749 3.77 3.77 0 0 0-.406 1.085 5.8 5.8 0 0 0-.133 1.26c0 .583.079 1.134.238 1.652.163.513.408.929.735 1.246.331.317.744.476 1.239.476Zm8.148 1.708a3.13 3.13 0 0 1-1.554-.392 3.86 3.86 0 0 1-1.211-1.099 5.367 5.367 0 0 1-.777-1.617 6.935 6.935 0 0 1-.273-1.974c0-.7.091-1.356.273-1.967a5.35 5.35 0 0 1 .777-1.624 3.777 3.777 0 0 1 1.211-1.092 3.084 3.084 0 0 1 1.554-.399c.569 0 1.087.133 1.554.399.467.261.866.625 1.197 1.092a5.35 5.35 0 0 1 .777 1.624 6.69 6.69 0 0 1 .28 1.967c0 .7-.093 1.358-.28 1.974a5.367 5.367 0 0 1-.777 1.617c-.331.467-.73.833-1.197 1.099a3.13 3.13 0 0 1-1.554.392Zm0-1.708c.499 0 .912-.159 1.239-.476.327-.317.569-.733.728-1.246a5.554 5.554 0 0 0 .238-1.652 5.38 5.38 0 0 0-.252-1.694c-.168-.513-.415-.922-.742-1.225-.327-.303-.73-.455-1.211-.455-.378 0-.707.093-.987.28a2.18 2.18 0 0 0-.686.749 3.8 3.8 0 0 0-.406 1.085 5.8 5.8 0 0 0-.133 1.26c0 .583.079 1.134.238 1.652.163.513.408.929.735 1.246.331.317.744.476 1.239.476Z"/><path fill="#8478F0" d="M290.768 333.621a.5.5 0 0 0-.707 0l-3.182 3.182a.5.5 0 0 0 .707.707l2.829-2.828 2.828 2.828a.5.5 0 0 0 .707-.707l-3.182-3.182Zm-.853.354v8.933h1v-8.933h-1Z"/><defs><linearGradient id="b" x1="177.049" x2="176.643" y1="154.045" y2="174.315" gradientUnits="userSpaceOnUse"><stop stop-color="#8478F0"/><stop offset="1" stop-color="#fff" stop-opacity="0"/></linearGradient><linearGradient id="d" x1="173.793" x2="173.388" y1="241.878" y2="262.148" gradientUnits="userSpaceOnUse"><stop stop-color="#D7FE03"/><stop offset="1" stop-color="#EB94A2" stop-opacity="0"/></linearGradient><linearGradient id="e" x1="173.793" x2="173.388" y1="327.221" y2="347.491" gradientUnits="userSpaceOnUse"><stop stop-color="#8478F0"/><stop offset="1" stop-color="#fff" stop-opacity="0"/></linearGradient></defs></svg>