<svg xmlns="http://www.w3.org/2000/svg" width="98" height="115" fill="none"><path fill="#D7FE03" d="M61.773 2.189c-.002-.032.238-.068.712-.059a5.67 5.67 0 0 1 2.051.505 6.168 6.168 0 0 1 2.635 2.254c.388.581.712 1.281.894 2.076l.108.613c.019.21.031.425.046.643.008.41.017.833.024 1.27l.062 3.75c.036 1.336.078 2.756.06 4.257-.185 1.504.346 3.087.058 4.75-.083 1.662-.007 3.405.056 5.222.064 1.819-.118 3.712.052 5.676.364 1.968-.402 4.008.052 6.115.098 2.11.072 4.288.048 6.536-.276 2.244-.002 4.556.048 6.933-.334 2.376-.188 4.818.041 7.318-.456 2.5-.385 5.06.043 7.682.013 2.619-.164 5.296.037 8.028.03 2.732.115 5.519.035 8.359.306 2.838.293 5.728.032 8.666.328 2.94.197 5.928.028 8.962-.092 1.517-.02 3.045.041 4.586.016.384.028.77.043 1.155-.002.22-.01.456-.019.684-.015.228-.057.456-.09.683a5.999 5.999 0 0 1-1.093 2.514c-.996 1.532-2.581 2.698-4.406 3.126a7.025 7.025 0 0 1-1.386.188c-.25.016-.422.009-.628.012l-.596.001c-.797.001-1.596-.003-2.396-.015-3.206-.136-6.449-.286-9.732.016-3.282.082-6.6.192-9.952.015-3.352.349-6.737.195-10.154.011-3.415.057-6.864-.191-10.339.006-3.476-.054-6.977.154-10.505.002a7.265 7.265 0 0 1-3.003-.746 7.466 7.466 0 0 1-2.403-1.882 7.395 7.395 0 0 1-1.44-2.674c-.066-.245-.144-.489-.18-.742l-.066-.379c-.023-.125-.027-.253-.04-.38l-.031-.384-.017-.331-.036-.65c-.223-3.476.094-6.924.008-10.34.328-3.418-.107-6.803.01-10.154-.032-3.353.19-6.67.015-9.951-.063-3.282-.124-6.527.017-9.733-.505-3.203.13-6.369.02-9.49.214-3.124-.03-6.204.027-9.238-.093-3.033.232-6.022.027-8.96.044-2.94-.162-5.83.032-8.67-.25-2.839.212-5.624.034-8.358.003-2.73-.014-5.41.039-8.028.196-1.309.212-2.605.177-3.886-.012-.32-.024-.638-.034-.956l-.022-.478c-.006-.16.002-.353.003-.528.027-.714.141-1.436.413-2.098a8.28 8.28 0 0 1 1.064-1.835 7.48 7.48 0 0 1 1.528-1.445 6.4 6.4 0 0 1 1.888-.886c.667-.192 1.378-.226 2.034-.173 2.377.03 4.688.204 6.933.047 2.247-.058 4.424.57 6.533.048 2.11-.095 4.148.402 6.115.05 1.968-.322 3.859.04 5.677.055l5.224.056c7.483.084 13.368.176 17.383.273 2.01.048 3.548.1 4.587.15 1.038.05 1.574.102 1.574.156 0 .058-.662.116-1.938.173-1.279.056-3.171.112-5.63.164-4.92.107-12.112.207-21.2.297-1.818.018-3.709.294-5.677.055-1.967-.001-4.005.21-6.115.05-2.109.366-4.286.067-6.533.047-2.245.02-4.556-.097-6.933.048-.527.067-1.018.132-1.51.288a6.144 6.144 0 0 0-1.408.62 5.353 5.353 0 0 0-1.196 1.024c-.337.41-.601.884-.769 1.391-.263.468-.401 1.005-.47 1.55-.011.142-.027.269-.031.423l-.01.478a45.73 45.73 0 0 0-.001.956c.013 1.281.077 2.577.18 3.886-.217 2.618.048 5.298.039 8.028-.335 2.734-.1 5.52.034 8.358.124 2.84-.049 5.73.034 8.67-.066 2.938.085 5.927.028 8.96.157 3.034.214 6.114.024 9.238.109 3.121.021 6.286.021 9.49.135 3.206-.016 6.451.017 9.733.071 3.28-.357 6.598.015 9.951.047 3.351-.059 6.736.01 10.154-.045 3.416-.095 6.864.007 10.34l-.061.65-.027.323-.006.268c0 .092-.011.183-.003.272l.024.271c.01.182.056.358.093.537a4.407 4.407 0 0 0 1.011 1.932 4.85 4.85 0 0 0 1.78 1.256 4.965 4.965 0 0 0 2.112.363c3.527-.107 7.028-.054 10.504.001 3.475-.036 6.924-.019 10.339.005 3.417-.106 6.802.159 10.154.011 3.352-.155 6.67.168 9.952.015 3.283-.107 6.526-.166 9.732.017.8 0 1.599.021 2.396.047l.596.021c.192.005.416.021.566.013.33.007.66-.025.985-.086a4.487 4.487 0 0 0 1.807-.787 4.08 4.08 0 0 0 1.254-1.491 4.485 4.485 0 0 0 .611-1.781c.01-.156.033-.308.035-.463l-.007-.469c-.016-.385-.03-.772-.047-1.155-.049-1.541-.025-3.069.231-4.586-.128-3.034.245-6.022.028-8.962.375-2.938.019-5.828.032-8.666.072-2.84.199-5.627.033-8.359-.177-2.732.1-5.41.039-8.028-.213-2.621.281-5.183.041-7.683.05-2.5-.032-4.94.043-7.317-.504-2.377.003-4.69.047-6.933.072-2.248-.334-4.426.048-6.536-.38-2.107-.051-4.146.052-6.115.11-1.964-.162-3.857.053-5.676-.268-1.817.148-3.56.056-5.223.177-1.662.01-3.245.057-4.749a37.529 37.529 0 0 1 .06-4.257l.062-3.75.021-1.268-.019-.568-.07-.546a5.934 5.934 0 0 0-3.023-4.103 6.706 6.706 0 0 0-1.89-.67c-.451-.074-.691-.109-.689-.147Z"/><path fill="#D7FE03" d="M61.773 2.19c0-.036.103-.065.311-.089.104-.01.237-.03.39-.025.157.008.338.016.545.032.202.034.433.07.682.13.244.078.523.14.802.271.566.232 1.2.59 1.797 1.14.388.373.796.803 1.117 1.341.34.526.659 1.138.788 1.84.002.183.014.362.064.538.054.178.1.358.146.546.102.394.148.724.008 1.095-.083.73-.007 1.49.056 2.288.032.395.002.801-.014 1.216l-.004.155-.002.217a10.565 10.565 0 0 0 .072 1.45c.034.14.056.282.072.418-.267.043-.599.036-.927.01-.33-.026-.656-.074-.96-.113l-.365-.048a1.987 1.987 0 0 0-.308-.016 1.462 1.462 0 0 0-.626.147c-.924.1-1.877.072-2.86.05-.984-.275-1.996-.002-3.036.046-1.04-.333-2.108-.19-3.2.041-1.098-.454-2.218-.384-3.365.042-1.147.014-2.319-.162-3.515.038-1.194.03-2.416.115-3.658.035-1.243.307-2.507.293-3.794.032-1.286.328-2.594.197-3.922.028-1.327-.183-2.676.288-4.044.027-1.367-.022-2.751.072-4.155.02-1.403-.135-2.823-.286-4.26.017-1.436.081-2.888.19-4.355.015-1.468.35-2.949.193-4.445.01-1.495.056-3.004-.189-4.525.006-1.522-.055-3.055.154-4.598.001-1.545-.105-3.078-.205-4.598-.001l-.094.013-.046.007a.434.434 0 0 1-.063.005l-.353.021a42.592 42.592 0 0 1-2.141.033c.003-.491.015-.985.029-1.471l.022-.724.01-.344.01-.19c.027-.506.043-1.012.014-1.514.162-.75.136-1.492.084-2.234-.012-.19-.034-.357-.039-.565a21.484 21.484 0 0 1-.003-.656c.02-.217.048-.435.083-.65.04-.214.11-.422.177-.63.231-.839.674-1.604 1.207-2.263.536-.66 1.16-1.225 1.82-1.758a6.526 6.526 0 0 1 2.308-1.036 5.95 5.95 0 0 1 1.253-.15l.315-.002.264.014c.176.012.352.027.527.044 1.404-.504 2.789.13 4.156.022 1.365.213 2.714-.03 4.042.025 1.327-.093 2.636.232 3.922.03 1.286.04 2.553-.163 3.796.03 1.242-.25 2.461.21 3.657.035 1.196.002 2.367-.015 3.515.037 1.148.395 2.268.068 3.362.041 1.096.043 2.163-.222 3.203.044 1.04.031 2.052.204 3.036.047.981-.057 1.937.57 2.859.048.922-.095 1.816.403 2.676.05.861-.322 1.69.04 2.486.055.795.02 1.558.04 2.284.056 6.552.17 10.308.367 10.308.58 0 .116-1.158.23-3.313.336-2.155.107-5.303.207-9.279.298-.797.017-1.625.293-2.486.054-.86 0-1.754.21-2.676.051-.922.365-1.878.067-2.859.047-.984.02-1.996-.098-3.036.048-1.04.212-2.107-.107-3.203.044-1.094-.226-2.214-.167-3.362.041-1.148-.221-2.319.045-3.515.036-1.196-.336-2.415-.099-3.657.036-1.243.123-2.51-.052-3.795.03-1.287-.065-2.596.086-3.923.03-1.328.157-2.677.217-4.042.024-1.367.108-2.752.021-4.156.023-.175.014-.35.028-.527.037l-.261.01-.215.018c-.285.008-.567.055-.85.101a4.07 4.07 0 0 0-1.603.642c-.47.345-.964.678-1.37 1.134-.405.447-.71 1.02-.7 1.647-.028.145-.069.29-.094.435-.022.148-.044.294-.068.441-.008.15-.018.297-.03.447-.009.16-.006.364-.012.542a35.67 35.67 0 0 0 .014 2.234l-.043 1.513-.003.19c0 .03-.002.026-.002.04l-.006.063c-.001.042-.001.086.002.124a1.012 1.012 0 0 0 .186-.036l.026-.012.172-.01c1.52.366 3.053.14 4.598-.002 1.543-.105 3.076-.052 4.598.002 1.521-.036 3.03-.019 4.525.005 1.496-.108 2.977.159 4.445.012 1.467-.156 2.92.167 4.355.015 1.437-.108 2.857-.166 4.26.017 1.404-.001 2.788.332 4.155.02 1.368-.07 2.717-.485 4.044.025 1.328-.128 2.636.246 3.922.028 1.287.375 2.551.02 3.794.034 1.242.07 2.464.196 3.658.034 1.196-.18 2.368.096 3.515.036 1.147-.213 2.267.28 3.364.042 1.093.05 2.161-.035 3.201.042 1.04-.502 2.052.003 3.035.047.984.075 1.937-.333 2.861.048a2.655 2.655 0 0 1 .933-.179l.155.003.036.001.011.003.024.007c.119.033.304.124.547.185a.347.347 0 0 0 .032-.077.782.782 0 0 0 .025-.288 1.86 1.86 0 0 0-.016-.154c-.004-.03-.007-.036-.01-.085l-.011-.156c-.028-.415-.042-.821.065-1.216-.268-.797.148-1.559.056-2.288a3.01 3.01 0 0 0 .063-1.039 3.082 3.082 0 0 0-.067-.464c-.035-.15-.045-.3-.073-.448-.182-.574-.39-1.085-.567-1.602-.241-.486-.57-.879-.881-1.235A5.8 5.8 0 0 0 64.24 3.06c-.239-.147-.481-.234-.695-.335-.22-.084-.426-.148-.609-.212-.187-.045-.352-.09-.496-.127-.143-.038-.268-.052-.367-.077-.197-.043-.3-.085-.3-.12Zm0 111.427c0-.036.106-.078.31-.124.1-.028.228-.038.374-.084l.506-.144c.182-.078.393-.143.612-.247.214-.113.456-.22.69-.388a5.881 5.881 0 0 0 1.452-1.311c.084-.088.148-.2.224-.301.072-.107.156-.207.222-.321.13-.231.282-.456.394-.716.24-.512.404-1.088.575-1.694.08-.142.117-.301.133-.462.006-.164-.014-.334-.03-.503-.008-.168-.04-.335-.038-.504a1.514 1.514 0 0 1 .102-.521c.084-.746.008-1.526-.055-2.34-.065-.818.117-1.666-.055-2.547a1.593 1.593 0 0 1-.084-.315c-.004-.032-.01-.08-.012-.085a.422.422 0 0 1 .016-.183c.038-.133.112-.321.152-.524a.649.649 0 0 0-.59.122l-.083.017-.04.008c-.008.003-.053.004-.077.007a19.293 19.293 0 0 1-1.088.038c-.487.003-.983-.01-1.487-.021-1.007-.277-2.044-.003-3.108.045-1.067-.333-2.161-.186-3.281.046-1.122-.459-2.271-.388-3.446.038-1.174.016-2.374-.162-3.6.039-1.225.031-2.474.116-3.75.036-1.271.304-2.567.291-3.886.029-1.316.33-2.657.2-4.017.031-1.361-.184-2.741.287-4.143.024-1.398-.021-2.818.076-4.256.021-1.437-.136-2.892-.285-4.364.016-1.472.082-2.957.194-4.461.016-1.503.35-3.02.195-4.553.011-1.531.057-3.078-.191-4.636.005-1.56-.054-3.128.155-4.711.003-1.583-.105-3.152-.207-4.71-.003-.08.01-.058.018-.071.023l-.018.019c-.012.012-.021.018-.028.026a.065.065 0 0 1-.052.012c-.001.022-.01.038-.026.06l-.02.042c-.003.006-.003.001-.006.02l-.006.1-.01.205c-.028.544-.05 1.084-.018 1.625-.163.766-.136 1.527-.084 2.286.026.38.06.758.08 1.136.01.184.029.332.033.5.001.162.017.324.025.485.095.643.212 1.281.447 1.88.23.599.564 1.163 1.035 1.576.422.451.916.8 1.424 1.075a6.53 6.53 0 0 0 1.598.592c.15-.056.284-.091.432-.114.179-.032.356-.048.536-.056.356-.013.712.018 1.068.056.707.083 1.412.215 2.114.16 1.4.214 2.78-.032 4.14.026 1.362-.095 2.7.232 4.018.028 1.32.041 2.615-.162 3.887.033 1.273-.251 2.524.209 3.75.032 1.225.003 2.426-.015 3.6.039 1.173.393 2.322.068 3.445.041 1.12.043 2.214-.223 3.28.043 1.065.032 2.102.205 3.11.046 1.006-.057 1.984.572 2.928.048.947-.093 1.862.404 2.743.052.881-.322 1.73.039 2.544.052.816.02 1.599.04 2.343.056 3.354.087 5.994.179 7.796.275 1.8.097 2.762.201 2.762.307 0 .117-1.188.23-3.394.337-2.206.107-5.431.205-9.507.296-.813.02-1.663.295-2.544.055-.881-.002-1.796.21-2.743.049-.944.367-1.922.068-2.928.051-1.008.017-2.045-.1-3.11.046-1.066.211-2.16-.106-3.28.044-1.123-.225-2.272-.166-3.446.039-1.173-.217-2.374.047-3.6.039-1.225-.336-2.476-.1-3.75.034-1.271.124-2.566-.05-3.886.031-1.317-.064-2.656.087-4.017.031-1.361.156-2.741.214-4.141.024-.702.054-1.407.058-2.114.05-.356-.004-.712-.012-1.068-.017l-.536-.008-.648-.041c-.877-.02-1.746-.302-2.501-.738a8.095 8.095 0 0 1-1.992-1.65c-.588-.632-.967-1.423-1.255-2.214-.296-.793-.49-1.596-.781-2.418a4.463 4.463 0 0 1-.07-.638c-.011-.21-.025-.44-.025-.634l.016-1.136c.01-.759.02-1.52-.014-2.286.014-.541.028-1.081.044-1.625l.009-1.237-.004-1.507c.417-.008.837-.013 1.256-.02l.636-.015.32-.009c.1-.004.237-.007.273-.012 1.559.368 3.128.141 4.71-.001 1.584-.106 3.153-.051 4.712.001 1.558-.036 3.105-.017 4.636.008 1.533-.11 3.05.157 4.553.01 1.504-.155 2.99.167 4.461.014 1.472-.107 2.927-.164 4.364.016 1.438 0 2.858.336 4.256.023 1.402-.072 2.782-.486 4.143.024 1.36-.127 2.701.248 4.017.029 1.319.375 2.615.02 3.887.032 1.275.072 2.524.199 3.75.035 1.225-.179 2.425.097 3.6.037 1.174-.215 2.323.281 3.445.041 1.12.048 2.214-.032 3.28.044 1.065-.505 2.102.002 3.109.046.504.037 1-.047 1.487-.094.246-.021.488-.033.728-.016.12.01.24.023.36.05.034.006.046.013.1.02l.145.025c.093.02.187.04.275.064.582-.143 1.233-.185 1.806-.18a16.342 16.342 0 0 1-.094 1.509c-.024.234-.048.466-.074.695-.005.065-.012.088-.017.125l-.016.104-.028.211c-.112.881.16 1.729-.055 2.547.27.814-.148 1.594-.054 2.34-.19.768-.078 1.549-.311 2.238-.119.711-.377 1.364-.773 1.875-.147.284-.335.533-.5.777-.086.124-.187.231-.276.343-.096.107-.176.225-.28.32a6.202 6.202 0 0 1-1.752 1.312c-.278.153-.558.243-.808.333-.252.083-.492.123-.7.171-.212.024-.4.04-.56.052-.16.013-.295-.011-.404-.017-.215-.022-.322-.05-.322-.084Z"/><path fill="#D7FE03" d="M34.724 104.394c0-.071.039-.139.124-.202a.9.9 0 0 1 .393-.149c.059-.011.123-.013.194-.016.073-.02.156-.037.221.005 0 .2.28-.266.247.039.04.115.154.075.268.075.117-.004.101.196.282.12.148-.115.136.002.123.104-.013.102-.03.196.165.065.154.004.222.115.286.223-.128.266.15.193.273.28-.21.297-.027.306.241.34-.346.325-.254.381.204.393.058.147-.072.327.146.445.058.151.156.314.081.484.304.163.287.378-.001.515.301.225.121.411-.09.531-.116.057-.078.164-.056.276.023.11.026.224-.134.25-.104.156-.126.376-.291.502-.11.038-.225.066-.303.122-.076.06-.109.154-.081.332-.088.195-.203.419-.476.383.005.411-.297.391-.556.295-.09.062-.205.06-.315.057-.11-.001-.21.013-.297.129-.11-.01-.21.046-.317.083-.106.035-.219.055-.328-.017-.108-.056-.211-.114-.315-.134a.403.403 0 0 0-.333.068c-.127.091-.234.036-.327-.029-.095-.067-.17-.163-.285-.157-.038-.187-.132-.21-.25-.206-.117.006-.245.014-.304-.088-.098-.04-.153-.142-.216-.226-.064-.082-.126-.155-.258-.156a.938.938 0 0 1-.262-.17.378.378 0 0 1-.126-.284c-.26.074-.302-.036-.283-.165.019-.132.08-.272-.008-.332.055-.136.007-.209-.053-.284-.059-.075-.135-.149-.138-.244-.072-.075-.038-.181-.018-.276.02-.096.044-.184-.074-.256.007-.089-.042-.169-.066-.257-.026-.084-.038-.175.064-.259-.12-.084-.064-.173.002-.248.068-.077.154-.144.078-.236.022-.157.052-.316.146-.447.42-.012.159-.245.206-.393.09-.105-.055-.367.241-.34.107-.093.31-.087.273-.279.02-.066.167-.014.266.003.098.017.154.008.02-.224.01-.075.118-.039.202-.019.087.022.146.022.084-.15-.1-.332.2-.087.283-.122.09-.036.183-.053.268-.074.388-.084.696-.042.892.032.197.08.288.184.288.288 0 .246-.437.418-.81.853-.042.049.07.297-.11.136-.05.035.045.228-.101.148.205.301-.031.124-.09.161-.026.054-.157.042-.076.174.152.162-.158.052-.053.184-.233-.043-.208.068-.035.19-.114-.004-.11.038-.082.079.026.04.082.085.074.116-.346.016-.116.139.018.197.058.035.052.066.034.1-.02.034-.038.07.011.096-.057.08.11.111.07.187.173.016.24.028.098.175.127.004.083.104.127.158.072-.012.088.014.1.05.008.034.012.081.053.09.047-.004.01.088.012.151-.001.061.027.105.157-.036.08-.005.098.121.19.085.045.068.112.139.202.054.002.182.043.228.087.205.045-.029.088-.119.124-.187.037-.057.068-.072.103-.064.036.002.07.023.112.044.061-.05.129-.049.202-.053.014-.121.2.083.188-.084-.012-.08.032-.068.087-.053.055.014.11.02.084-.06-.01-.062-.017-.114-.004-.139.02-.027.063-.028.153 0 .019-.028.111-.005.166-.016.054-.009.088-.04-.039-.144-.021-.048-.113-.124-.15-.169-.037-.046-.007-.054.25-.006-.053-.05.01-.062.07-.085.062-.021.098-.055-.003-.103.194-.008.202-.049.161-.088-.04-.041-.117-.076-.115-.109.068-.063.191-.159.016-.197-.092-.019-.073-.051-.044-.088.03-.039.076-.09.035-.11-.112.004-.056-.044-.003-.1.052-.056.09-.113-.03-.09.018-.083-.09-.09-.054-.184-.225.114-.24.101-.197.037.037-.061.128-.173.123-.209.005-.047-.076-.012-.126-.003-.049.009-.072.003.036-.159-.292.246-.11-.026-.101-.148.017-.13-.177.079-.11-.134-.17.205-.022-.176-.113-.12.026-.19-.089-.05-.116-.108-.062.037-.093.005-.112-.099-.037-.031-.072-.063-.106-.089-.207-.167-.363-.29-.363-.436Zm9.103-96.317c0 .141-.202.276-.57.4a3.589 3.589 0 0 1-.198.062c-.071.036-.145.078-.224.06-.08-.186-.165.346-.252.059-.087-.084-.18-.008-.275.056-.096.064-.196-.12-.3.052-.104.363-.212-.403-.324.05-.11.1-.225.073-.344.05-.118-.276-.242-.003-.367.045-.124-.333-.253-.188-.385.044-.132-.456-.268-.385-.406.04-.138.015-.278-.161-.422.038-.145.032-.293.117-.443.037-.15.304-.301.29-.457.03-.155.329-.315.198-.474.03-.16-.184-.322.285-.486.024-.164-.021-.332.073-.503.021-.168-.136-.341-.285-.513.016-.172.083-.347.194-.526.016-.177.35-.354.195-.535.01-.18.057-.362-.19-.547.008-.182-.056-.367.152-.554 0-.186-.104-.372-.206-.553 0-.185.224-.366-.095-.546-.008-.182-.327-.36.108-.536-.01-.18.032-.351-.19-.526-.016-.173.063-.345.126-.513-.016-.17.506-.338-.13-.503-.021-.165-.213-.327.032-.488-.024-.159.093-.317-.235-.472-.03-.155-.042-.308.162-.457-.03-.15.248-.297-.213-.443-.037-.142 0-.284.017-.422-.038-.138-.392-.274-.066-.406-.038-.132-.044-.261.22-.386-.046-.125-.03-.248-.204-.366-.045-.119.057-.233-.572-.345-.05-.11.094-.219-.403-.323-.05-.105.323-.204-.04-.3-.052a10.353 10.353 0 0 0-.274-.056c-.79-.17-1.243-.368-1.243-.581 0-.234.558-.452 1.517-.635.096-.019.195-.295.3-.053.104 0 .212-.21.323-.051.112-.365.226-.067.345-.05.117-.017.241.1.366-.046.125-.212.254.105.386-.044.132.225.268.167.405-.039.14.218.28-.046.423-.037.146.335.294.099.443-.036.15-.123.302.05.457-.032.155.064.313-.087.472-.03.162-.155.323-.214.488-.023.165-.108.332-.022.503-.022.168-.133.34.018.513-.016.175-.07.347.356.526-.014.177-.047.354.058.535-.011.18.045.362.095.547-.008.181.367.367.141.553-.001.187-.104.372-.052.554 0a1.67 1.67 0 0 1 .546.009c.182-.11.36.156.536.01.18-.155.354.167.526.015.172-.108.345-.165.513.016.17 0 .339.334.503.022.164-.071.325-.486.486.024.16-.127.32.246.474.029.156.373.306.02.457.032.15.072.297.199.443.036.144-.18.284.096.422.037.138-.214.274.279.406.039.132.05.261-.03.385.044.126-.503.25.001.367.047.118.073.234-.334.344.049.112-.381.22-.052.324.05.104.113.204-.16.3.054.096-.268.188.15.275.056.087.179.173.01.252.059.08-.063.153-.04.224.058.07.02.137.04.198.062.368.124.57.26.57.4Zm46.779 46.285c.109.092-.357.859-1.3 2.183l-.513.708c-.17.263-.353.543-.59.8-.367.148-.197.77-.663.884-.314.244-.514.604-.738.968-.222.365-.644.585-.806 1.048-.015.583-.905.456-.872 1.123-.24.44-.585.81-.937 1.197-.547.225-.682.812-1 1.268-.611.21-.863.739-1.058 1.333-.725.152-1.053.655-1.116 1.398-.379.476-.915.84-1.17 1.457-.383.507-.734 1.059-1.218 1.513-.19.703-.632 1.21-1.27 1.567-.187.736-.731 1.187-1.315 1.617-.594.427-.692 1.278-1.359 1.666-.481.544-.881 1.17-1.4 1.708-.581.486-1.18.968-1.437 1.748-.428.638-.839 1.3-1.475 1.785a2.53 2.53 0 0 1-.597 1.033l-.347.376c-.132.142-.265.278-.397.408a24.3 24.3 0 0 1-.772.726c-.084.11-.17.217-.256.322-.516-.43-1.023-.92-1.51-1.364l-.349-.313a6.876 6.876 0 0 0-.21-.175 2.685 2.685 0 0 0-.468-.298c-.582-.564-1.337-.932-1.866-1.58-.557-.61-1.114-1.212-1.864-1.58-.761-.351-1.168-1.111-1.83-1.558-.395-.764-1.276-.942-1.797-1.534-.616-.482-1.06-1.148-1.755-1.508-.622-.448-1.24-.887-1.716-1.476-.895-.098-1.048-1.056-1.672-1.444-.416-.631-1.12-.91-1.623-1.407-.6-.387-.919-1.085-1.572-1.37a3.14 3.14 0 0 0-.139-.126l-.073-.059c-.013-.013-.017-.014-.019-.016l-.01-.005a.385.385 0 0 0-.076-.036c-.05-.017-.089-.021-.124-.064-.029.015-.055.01-.107-.015.19.166-.792.456-1.096.983-.463.435-.904.876-1.384 1.255-.715.129-.924.776-1.332 1.193-.452.368-.683.95-1.27 1.136-.422.355-.933.597-1.205 1.07-.34.4-1.141.289-1.14 1.006-.292.405-.977.37-1.07.939-.112.548-.682.585-1 .865-.32.276-.627.54-.922.792-2.652 2.261-4.24 3.485-4.385 3.332-.161-.17 1.483-2.019 4.439-5.05.293-.302.425-.805.925-.942.333-.313.535-.792.998-1.012.108-.603.682-.733 1.075-1.079.368-.37.84-.653 1.143-1.137.257-.535.888-.693 1.21-1.2.576-.235.97-.685 1.272-1.253.595-.26.867-.88 1.335-1.308.345-.096.599-.296.81-.544.053-.062.105-.127.153-.191l.039-.05c.01-.017.02-.034.046-.062l.134-.161c.178-.218.366-.448.568-.686.218-.252.453-.488.689-.712.336.283.67.588.997.883.166.147.33.29.497.432l.116.095.075.057c.05.037.1.073.154.108.48.49 1.106.825 1.608 1.325.64.336 1.226.755 1.654 1.37.626.388 1.132.929 1.7 1.41.655.383 1.134.984 1.74 1.45.627.44.939 1.266 1.775 1.486.624.468 1.157 1.059 1.81 1.519.575.55 1.154 1.105 1.837 1.55.38.802 1.149 1.157 1.868 1.58.693.449 1.28 1.015 1.862 1.578.146.112.29.227.43.343l.255.213a.75.75 0 0 1 .089.103l.02-.012c.007-.055.017-.07.034-.08.007-.006.019-.008.03-.011l.02-.004c.006-.001.008-.001.013-.004l.053-.053c.279-.28.552-.56.747-.908.38-.698 1.124-1.084 1.496-1.767.408-.653.846-1.27 1.465-1.725.478-.572 1.207-.924 1.432-1.682.412-.601.552-1.418 1.399-1.632.353-.621 1.087-.916 1.359-1.581.724-.284.883-1.028 1.316-1.527.48-.458.992-.877 1.274-1.468.27-.602.882-.904 1.226-1.41.226-.604.989-.743 1.178-1.344.41-.414.712-.902 1.125-1.28-.032-.746.7-.835 1.07-1.206.39-.354.404-1.004 1.012-1.134.023-.622.58-.774.952-1.058.379-.281.452-.793.888-.981.065-.496.644-.54.821-.896.385-.181.492-.572.755-.81.177-.307.404-.546.678-.72.217-.226.42-.435.607-.631 1.138-1.166 1.81-1.76 1.918-1.67Z"/><path fill="#D7FE03" d="M97.441 47.414c.043.136-.273.378-.888.7-.104.051-.213.106-.33.167-.115.074-.235.154-.382.18-.194-.132-.184.42-.425.194-.179-.03-.32.094-.472.205-.15.114-.38-.005-.513.216-.076.402-.495-.267-.556.227-.167.156-.379.193-.595.236-.292-.197-.427.133-.635.247-.32-.25-.505-.04-.669.254-.37-.361-.588-.221-.705.263-.24.09-.544-.002-.74.272-.244.106-.48.269-.768.275-.087.186-.2.298-.334.342a.449.449 0 0 1-.105.023c-.03 0-.09.005-.087-.015a1.28 1.28 0 0 0-.096-.126c.047.16.083.2.06.193-.02-.006-.101-.06-.228-.109-.136-.053-.1.011-.032.054.058.046.146.076-.112.017-.026.003-.036.01-.04.016.068.041.155.068.123.092-.087.012-.156.044-.141.079.012.036.108.07.286.03.063.003.119-.009.142-.01.005 0 .009.001.012.004l.001.007.039.046a.725.725 0 0 1 .124.227c.477-.033.616.304.737.666.283.186.364.595.745.682.214.27.607.35.758.695.181.312.365.618.753.698.403.064.435.528.739.69.022.466.562.371.722.68a.99.99 0 0 1 .172.178c.011.014.03.035.034.045v.017c0 .01 0 .022.004.034.005.047.037.092.086.019.066-.022.055-.119.122.134-.027-.268-.048-.336-.035-.29.012.045.059.202.108.325.03.076.056.11.04.039.075.15.081.081.07.008-.01-.076-.04-.158-.011-.158-.031-.077.021-.046.069-.053.045-.002.085-.045 0-.12.012-.014.012-.033.005-.052l-.001-.008v-.025l.003-.053.004-.11c.01-.14.038-.279.165-.393-.184-.327.327-.49.213-.79.059-.26.099-.518.208-.757.439-.163.178-.48.206-.724.094-.23-.111-.521.2-.688.08-.22.3-.401.193-.652-.008-.226.653-.296.187-.614-.046-.22.481-.304.182-.57-.273-.26.122-.361.174-.532.058-.166.113-.33.165-.484.488-1.39.865-2.165 1.072-2.12.23.052.216 1.11.003 2.884-.023.178.206.42-.07.553-.044.187.118.427-.082.595.31.282-.026.424-.092.635-.031.217-.196.412-.104.672.154.272-.207.436-.115.705-.272.192-.27.447-.125.744-.27.201-.07.515-.135.775-.388.187-.216.504-.145.804.029.15-.015.282-.063.416l-.036.101-.017.05-.008.029-.012.047a1.95 1.95 0 0 0-.063.378c-.087.236-.123.493-.16.767-.039.27-.08.557-.163.792.01.681-.094 1.413-.341 1.636-.016.212-.043.4-.077.572-.295-.252-.616-.61-.916-.887-.198-.092-.426-.306-.643-.53-.22-.226-.43-.458-.652-.642-.467-.333-.752-1.18-1.15-1.041-.274-.188-.445-.49-.737-.665-.214-.26-.429-.527-.748-.68-.001-.502-.406-.569-.756-.697-.324-.156-.54-.43-.753-.7a5.575 5.575 0 0 1-.739-.689c-.318-.148-.381-.566-.722-.681a.47.47 0 0 1-.21-.135c-.038-.044-.077-.09-.117-.133l-.145-.175c-.192-.234-.359-.445-.655-.616-.544-.356-1.128-.816-1.272-1.196a1.654 1.654 0 0 1-.308-.398c-.075-.124-.14-.24-.297-.371.13-.047.202-.11.198-.2.2-.099.279-.25.498-.37.212-.117.562-.203 1.106-.102.19-.127.516-.164.8-.2.291-.039.536-.075.727-.247.168.044.299.055.419.038a.518.518 0 0 0 .124-.03.404.404 0 0 0 .096-.05c.122-.08.232-.203.365-.238.287-.014.584.024.79-.212.202-.248.534-.063.762-.196.181-.281.568.116.73-.185.247-.025.451-.176.695-.172.072-.55.439-.133.662-.157.232.004.313-.448.624-.143.082-.427.37-.17.585-.13.217.047.313-.267.547-.115.09-.307.376.04.504-.1.208.122.306-.084.46-.082a.398.398 0 0 1 .414-.067l.37-.05c.689-.084 1.085-.066 1.126.066Zm-76.689 11.08v-3.983c-1.98-.244-3.595-.689-4.835-1.332-1.252-.638-2.321-1.677-3.221-3.105-.899-1.428-1.423-3.17-1.57-5.234l3.971-.769c.306 2.15.855 3.72 1.638 4.727 1.116 1.412 2.46 2.201 4.017 2.375V38.687c-1.639-.426-3.299-1.118-5.005-2.077a7.376 7.376 0 0 1-2.926-2.928c-.682-1.259-1.024-2.673-1.024-4.264 0-2.825 1.003-5.114 3.003-6.87 1.33-1.18 3.325-1.902 5.952-2.163v-1.9h2.345v1.9c2.3.216 4.118.904 5.474 2.041 1.729 1.446 2.762 3.438 3.118 5.959l-4.062.634c-.242-1.574-.731-2.785-1.471-3.627-.739-.845-1.761-1.395-3.059-1.66v11.452c2.002.512 3.322.909 3.97 1.188 1.229.54 2.23 1.208 3.005 1.987a7.923 7.923 0 0 1 1.81 2.78 9.717 9.717 0 0 1 .625 3.49c0 2.748-.876 5.041-2.627 6.89-1.741 1.837-4.007 2.817-6.783 2.953v4.022h-2.345Zm0-34.81c-1.536.233-2.764.853-3.641 1.86-.888 1.003-1.332 2.186-1.332 3.557 0 1.355.376 2.492 1.128 3.408.749.91 2.036 1.604 3.845 2.07V23.686Zm2.345 27.489c1.546-.188 2.823-.861 3.834-2.016 1-1.141 1.504-2.572 1.504-4.256 0-1.45-.354-2.602-1.07-3.48-.717-.879-2.141-1.581-4.268-2.136v11.888Z"/></svg>