<svg xmlns="http://www.w3.org/2000/svg" width="114" height="93" fill="none"><path fill="#D7FE03" d="M4.77 12.978c0 .017-.066.039-.192.062a4.632 4.632 0 0 0-.552.126 3.922 3.922 0 0 0-.838.359 3.467 3.467 0 0 0-.928.813 3.214 3.214 0 0 0-.634 1.384c-.02.14-.048.281-.05.428 0 .073-.003.147-.005.222.002.08.005.16.006.241.007.332.017.673.025 1.031.026 1.43.06 3.08.094 4.942.02 1.244.041 2.578.062 4.003.038 1.426.078 2.942.06 4.547-.186 1.603.345 3.294.057 5.071-.082 1.776-.005 3.636.057 5.574.064 1.942-.119 3.964.052 6.064.363 2.097-.4 4.276.053 6.528.097 2.252.07 4.578.047 6.976-.276 2.397-.002 4.867.047 7.403-.334 2.539-.188 5.142.044 7.813-.458 2.669-.388 5.406.041 8.203a99.4 99.4 0 0 1-.018 2.11l-.008.53v.117l.004.098c0 .067.002.135.015.2.025.264.104.523.222.766.228.491.64.905 1.137 1.148.246.127.52.197.791.226.137.021.275.012.413.012l.559-.032c2.975-.03 6.013-.113 9.106-.036 3.094-.297 6.244-.286 9.446-.028 3.204-.322 6.46-.197 9.766-.03 3.306.18 6.662-.281 10.066-.023 3.401.018 6.85-.073 10.344-.022 3.492.133 7.028.281 10.602-.017 3.578-.079 7.194-.187 10.846-.014 3.652-.341 7.342-.191 11.066-.01 3.722-.057 7.479.186 11.266-.006 3.788.054 7.602-.15 11.448-.002a2.373 2.373 0 0 0 2.298-1.533c.058-.153.095-.313.12-.474.011-.083.011-.165.02-.247.004-.096.003-.228.004-.34a90.34 90.34 0 0 0-.116-5.588c-.222-3.711.095-7.391.007-11.039.327-3.647-.105-7.262.011-10.841-.031-3.579.189-7.123.014-10.626-.061-3.504-.124-6.968.018-10.39-.504-3.423.129-6.802.021-10.135.213-3.334-.032-6.623.025-9.862a40.97 40.97 0 0 1-.017-1.212l.004-1.17a2.356 2.356 0 0 0-.595-1.558 2.388 2.388 0 0 0-1.513-.805c-.244-.03-.703-.014-1.095-.005-.401.01-.802.027-1.202.051-3.203-.04-6.354.16-9.447-.029-3.095.243-6.13-.209-9.108-.036-2.977-.002-5.895.017-8.75-.037-2.854-.384-5.645-.066-8.37-.04-2.725-.04-5.384.22-7.973-.042-2.591-.03-5.111-.2-7.558-.045-2.448.056-4.821-.56-7.118-.048-2.3.091-4.522-.396-6.663-.05-2.144.316-4.207-.039-6.187-.053l-5.692-.054c-8.153-.082-14.568-.175-18.943-.269a223.958 223.958 0 0 1-4.997-.146c-1.131-.05-1.716-.1-1.716-.154 0-.056.721-.111 2.112-.168a315.14 315.14 0 0 1 6.134-.16c5.362-.107 13.2-.204 23.102-.293 1.98-.018 4.043-.289 6.187-.052 2.141.001 4.363-.205 6.663-.05 2.297-.358 4.67-.065 7.118-.048 2.447-.017 4.967.098 7.556-.046 2.591-.208 5.25.103 7.975-.042 2.725.22 5.516.162 8.37-.04 2.855.214 5.773-.045 8.75-.035 2.977.327 6.013.096 9.108-.036 3.093-.12 6.244.049 9.445-.031l1.204.014.604.003a6.56 6.56 0 0 1 .727.031 4.562 4.562 0 0 1 2.767 1.363 4.313 4.313 0 0 1 1.225 2.835c.003.06.007.138.007.185l.001.154v.906l-.013 1.212c.158 3.239.217 6.527.025 9.862.109 3.333.023 6.712.023 10.134.133 3.423-.019 6.887.017 10.391.071 3.503-.357 7.047.015 10.626.046 3.579-.059 7.194.01 10.841-.048 3.648-.097 7.328.006 11.04-.184 1.855-.219 3.718-.19 5.587 0 .12.006.225.004.36-.008.148-.005.301-.021.45-.033.3-.092.599-.184.887a4.473 4.473 0 0 1-.897 1.583 4.607 4.607 0 0 1-3.332 1.564c-3.846.104-7.66.053-11.448-.001a718.88 718.88 0 0 1-11.266-.008c-3.724.108-7.414-.154-11.066-.009-3.652.153-7.268-.163-10.846-.014-3.574.103-7.11.162-10.602-.016-3.494 0-6.943-.33-10.344-.022-3.404.07-6.76.475-10.066-.025-3.306.126-6.562-.24-9.766-.028-3.202-.366-6.352-.019-9.446-.03-3.093-.072-6.13-.194-9.106-.035l-.56.029c-.234-.001-.478-.001-.715-.043a4.146 4.146 0 0 1-1.364-.429 4.306 4.306 0 0 1-1.924-1.988 4.125 4.125 0 0 1-.38-1.318 2.391 2.391 0 0 1-.024-.341l-.004-.17-.003-.082.003-.067.011-.53c.015-.707.02-1.411.006-2.11-.215-2.797.281-5.534.042-8.203.047-2.67-.033-5.274.044-7.813-.505-2.536.001-5.006.045-7.403.072-2.398-.334-4.724.048-6.976-.382-2.252-.051-4.429.052-6.528.11-2.098-.16-4.122.052-6.064-.268-1.938.15-3.798.056-5.574.178-1.777.01-3.468.058-5.072a43.184 43.184 0 0 1 .06-4.546l.062-4.003c.037-1.863.067-3.511.096-4.942l.023-1.03c.002-.083.006-.164.007-.245.008-.086.014-.174.02-.259.011-.17.05-.334.081-.492a3.615 3.615 0 0 1 .82-1.54 3.58 3.58 0 0 1 1.096-.82c.36-.168.682-.25.941-.292.262-.037.46-.043.592-.029.132.01.197.024.197.04Z"/><path fill="#D7FE03" d="M34.57 1.414c0 .034-.091.072-.265.115-.089.02-.197.043-.324.066-.126.036-.27.073-.434.115-.328.089-.72.233-1.16.437a6.51 6.51 0 0 0-1.367.935c-.143.151-.31.286-.447.461-.069.084-.142.169-.217.255-.064.093-.128.188-.196.283l-.097.147-.082.158-.172.32c-.093.227-.213.45-.301.69-.19.21-.165.504-.161.774.032.281.04.542-.107.818a3.59 3.59 0 0 0-.035.212c-.006.077-.009.158-.012.238-.002.158 0 .318.01.483.017.325.05.66.081 1 .065.681-.117 1.392.053 2.129.078.156.104.317.102.475l-.007.12-.007.06-.009.024c-.01.038-.03.075-.048.118-.073.158-.17.435-.107.568a.974.974 0 0 0 .287-.125 2.918 2.918 0 0 1 .419-.063c.008-.003.08-.003.126-.004l.156-.001c.418-.004.84.008 1.271.02.859.271 1.744.003 2.653-.047.908.328 1.842.186 2.799-.04.959.446 1.937.378 2.939-.04 1.004-.014 2.028.158 3.073-.037 1.044-.03 2.11-.114 3.199-.034 1.086-.3 2.19-.287 3.316-.033 1.125-.321 2.268-.192 3.428-.026 1.162.178 2.34-.283 3.534-.026 1.196.02 2.408-.072 3.632-.02 1.227.131 2.468.279 3.724-.017 1.256-.08 2.527-.189 3.81-.014 1.281-.343 2.577-.19 3.884-.01 1.308-.056 2.626.185 3.956-.008 1.33.055 2.67-.15 4.02-.002 1.35.105 2.689.204 4.018.002.159-.025.316-.043.474-.055l.058-.004.03-.004.005-.001.01-.007c.006-.002.011-.006.02-.006.022-.006.053.008.103.026a.191.191 0 0 0 .063-.094l.01-.038.003-.235a6.448 6.448 0 0 0-.014-.507c.326-1.277-.104-2.56.006-3.798-.018-.507-.069-1.012-.209-1.507-.043-.12-.07-.249-.125-.364l-.167-.345c-.14-.216-.285-.43-.484-.595a5.756 5.756 0 0 0-1.14-.975 10.54 10.54 0 0 0-1.313-.698 1.88 1.88 0 0 1-.391.04 1.99 1.99 0 0 1-.364-.002c-.119-.02-.237-.02-.355-.035-.124-.018-.225-.047-.389-.063-.607-.08-1.208-.207-1.805-.155-1.195-.21-2.374.03-3.535-.025-1.16.093-2.303-.227-3.428-.027-1.125-.042-2.23.16-3.317-.033-1.087.246-2.152-.205-3.199-.033-1.044-.001-2.07.015-3.07-.036-1.003-.386-1.985-.066-2.94-.04-.958-.041-1.893.219-2.8-.044-.91-.03-1.795-.2-2.654-.046-.86.06-1.692-.559-2.499-.045-.808.09-1.588-.395-2.341-.051-.752.317-1.476-.04-2.172-.053-.696-.02-1.363-.037-1.997-.054-5.727-.168-9.01-.36-9.01-.567 0-.232 4.054-.446 11.007-.625.696-.015 1.42-.285 2.172-.05.753 0 1.533-.207 2.341-.052.807-.356 1.639-.066 2.499-.047.859-.02 1.744.097 2.653-.044.908-.208 1.843.102 2.8-.043.956.22 1.938.16 2.94-.04 1.002.215 2.027-.048 3.071-.039 1.047.332 2.112.098 3.199-.034 1.086-.119 2.192.051 3.317-.031 1.125.065 2.268-.082 3.428-.026 1.161-.156 2.34-.213 3.535-.025a17.65 17.65 0 0 1 1.805-.05c.137-.002.335.013.512.024.181.014.361.018.541.056.179.03.358.059.536.093l.528.138c.72.143 1.403.46 2.008.88.604.427 1.123.953 1.594 1.52.249.275.433.6.601.928.072.17.14.343.207.515.069.17.108.35.164.526.192.71.314 1.415.506 2.16.052 1.277-.056 2.531.012 3.817l-.017.507-.008.271-.007.47c-.008.621-.014 1.245-.02 1.865-.576 0-1.145.003-1.721.012l-.433.009-.219.004-.141.005-.474.03c-1.329-.36-2.668-.137-4.018 0-1.35.103-2.69.052-4.02 0-1.33.035-2.648.018-3.956-.006-1.307.105-2.603-.155-3.884-.01-1.283.152-2.554-.164-3.81-.015-1.256.106-2.497.162-3.724-.017-1.224 0-2.436-.327-3.632-.021-1.194.07-2.372.477-3.534-.024-1.16.126-2.303-.243-3.428-.028-1.126-.366-2.23-.019-3.316-.03-1.088-.072-2.155-.195-3.199-.034-1.045.173-2.07-.097-3.073-.04-1.002.21-1.98-.273-2.939-.037-.957-.047-1.89.03-2.799-.044-.909.494-1.794 0-2.653-.044-.43-.037-.853.046-1.27.089l-.157.014c-.057.005-.085.008-.189.01a7.674 7.674 0 0 1-.523-.007c-.342-.016-.669-.06-.917-.154a6.375 6.375 0 0 1-.679.123c-.082-.481-.061-1.098-.008-1.648l.046-.408.013-.099.012-.063.025-.12c.034-.158.066-.319.088-.475.111-.737-.162-1.448.054-2.128-.135-.341-.098-.676-.038-1.001.03-.165.063-.325.086-.483.01-.08.017-.159.02-.238a1.546 1.546 0 0 0 0-.26c.094-.34.156-.66.193-.984.068-.315.11-.636.253-.913.068-.302.21-.572.344-.831.079-.124.166-.243.252-.355.044-.055.088-.113.136-.164l.151-.145c.087-.105.173-.207.257-.31.095-.092.184-.183.276-.274.174-.186.379-.328.559-.48a6.45 6.45 0 0 1 1.645-.887 5.84 5.84 0 0 1 1.323-.284c.183-.012.343-.018.477-.022.139.01.254.022.346.034.184.023.274.055.274.089ZM47.38 29.06c0 .07-.24.15-.684.237-.223.05-.49.134-.808.211-.308.117-.67.212-1.048.399-.127.06-.265.107-.395.181l-.404.226c-.138.076-.265.186-.404.281-.134.1-.286.18-.43.282-.198.032-.295.21-.398.374-.09.18-.184.343-.429.37-.179.096-.303.255-.43.41-.135.154-.226.345-.33.53-.048.092-.116.173-.18.259-.06.087-.125.172-.19.261-.065.09-.127.18-.18.28a1.18 1.18 0 0 0-.082.33.425.425 0 0 1-.061.343c-.05.099-.135.188-.218.282a.989.989 0 0 0-.205.303.486.486 0 0 0 .05.385c-.003.122-.025.237-.037.357a3.65 3.65 0 0 1-.037.36c-.047.238-.063.487-.088.736-.164.247-.132.514-.083.77.014.066.027.131.047.194l.075.19c.048.125.093.252.125.38a.966.966 0 0 0-.067.427c.008.139.028.278.087.406a2.852 2.852 0 0 0 .363.536c.054.05.11.103.168.151a1.408 1.408 0 0 0-.034.49c.028.15.092.285.176.41.156.253.463.413.799.514.093.112.193.22.283.336.09.116.18.238.289.338.105.107.216.21.336.302.127.087.27.15.421.2l.19.127.202.102c.138.072.275.142.41.21.288.112.554.265.842.392.69-.056 1.242.06 1.868.37.168-.072.33-.117.49-.138a3 3 0 0 1 .562-.034c.38.012.762.086 1.147.169.765.179 1.548-.281 2.339-.025.79.02 1.592-.072 2.405-.02.81.132 1.633.278 2.464-.017.832-.08 1.673-.188 2.523-.016.849-.342 1.706-.189 2.572-.007.866-.058 1.738.184 2.62-.008.88.053 1.768-.15 2.662-.001.758.098 1.58.054 2.226-.386.317-.22.649-.359.997-.495.167-.08.34-.152.507-.237a3.01 3.01 0 0 0 .442-.333c.386-.112.66-.385.86-.697.05-.077.107-.152.152-.232a4.88 4.88 0 0 1 .135-.237c.096-.155.204-.297.315-.44.082-.158.204-.296.286-.455l.28-.461a6.09 6.09 0 0 0 .206-.492 1.74 1.74 0 0 0 .078-.526c.039-.17.048-.346.06-.519.012-.172.043-.342.039-.513.004-.171.02-.341.039-.511.002-.17.017-.34.044-.514a1.096 1.096 0 0 1-.087-.122.877.877 0 0 1-.172-.357 1.254 1.254 0 0 1-.03-.245c-.005-.083-.014-.164-.014-.25-.008-.167.017-.349-.01-.516a1.408 1.408 0 0 0-.15-.48 1.888 1.888 0 0 0-.405-.922c-.19-.28-.444-.502-.62-.782-.262-.21-.431-.495-.658-.737l-.164-.185a1.354 1.354 0 0 0-.19-.157 1.41 1.41 0 0 0-.435-.231 3.866 3.866 0 0 0-.416-.242c-.137-.082-.299-.12-.443-.183-.289-.13-.588-.208-.85-.412-.17.019-.324 0-.471-.044-.073-.02-.145-.052-.219-.077a3 3 0 0 1-.221-.075c-.147-.05-.295-.112-.445-.14a1.225 1.225 0 0 0-.463.011c-.077-.005-.15-.012-.23-.012h-.768c-.34-.003-.675-.011-1.007-.037-.664-.386-1.314-.067-1.947-.041-.635-.04-1.253.218-1.853-.043-.603-.03-1.19-.2-1.759-.044-.568.056-1.121-.561-1.655-.047-.534.09-1.05-.395-1.55-.052-.498.32-.976-.039-1.438-.05-.46-.02-.901-.04-1.321-.055-3.793-.168-5.968-.362-5.968-.57 0-.23 2.685-.443 7.29-.622.46-.017.94-.287 1.438-.052.499 0 1.015-.206 1.55-.051.533-.357 1.086-.064 1.654-.046.57-.017 1.156.097 1.759-.047.6-.206 1.218.105 1.853-.041.633.22 1.283.162 1.947-.04.332.107.666.097 1.006.058a51.835 51.835 0 0 1 .768-.09c.09-.002.192 0 .288.008.192.09.38.147.57.181a3.695 3.695 0 0 0 .874.095l.299.024c.201.013.407.023.613.046.399.082.796.213 1.154.419.181.102.372.184.545.3.177.106.359.21.55.302.653.515 1.402.962 1.927 1.658.674.56 1.219 1.323 1.398 2.213.449.783.58 1.704.664 2.604.046.225.073.453.088.683.001.23-.019.461-.04.691-.011.231-.068.459-.11.687-.041.23-.08.459-.138.685a2.7 2.7 0 0 1-.212.671c-.104.213-.222.42-.328.629a5.008 5.008 0 0 0-.335.619c-.087.22-.19.43-.232.686-.487.835-1.22 1.495-1.937 2.16-.802.583-1.696 1.012-2.61 1.442-.134 0-.264.01-.39.023-.13.006-.256.017-.38.034-.248.034-.488.102-.735.144-.244.045-.487.13-.736.176-.252.047-.507.098-.759.147-.894.101-1.782.05-2.662-.003a38.12 38.12 0 0 1-2.62-.007c-.866.108-1.723-.154-2.572-.01-.85.151-1.691-.164-2.523-.014-.83.107-1.653.162-2.464-.016-.813 0-1.615-.326-2.405-.022-.791.07-1.574.476-2.34-.022-.384.06-.766 0-1.146-.05a5.152 5.152 0 0 0-.565-.05 2.71 2.71 0 0 0-.636.038 3.266 3.266 0 0 0-.603-.222c-.2-.053-.404-.063-.608-.094-.201-.03-.406-.051-.61-.078a2.505 2.505 0 0 1-.592-.152c-.376-.158-.707-.393-1.052-.575a6.683 6.683 0 0 0-.764-.43 3.223 3.223 0 0 0-.263-.13 2.18 2.18 0 0 1-.499-.3 5.181 5.181 0 0 1-.405-.406c-.132-.137-.241-.292-.356-.437-.115-.15-.241-.281-.367-.416-.302-.229-.49-.554-.608-.897a5.689 5.689 0 0 0-.212-.487 1.351 1.351 0 0 0-.288-.44l-.102-.241-.088-.24-.186-.48c-.057-.158-.093-.321-.134-.484-.036-.163-.08-.324-.086-.488a.995.995 0 0 1-.285-.455 1.188 1.188 0 0 1-.044-.245c-.004-.081.008-.165.019-.247.056-.33.16-.647.21-.952.05-.306-.022-.615-.01-.918 0-.15.013-.302.054-.448a.88.88 0 0 1 .259-.392 1.023 1.023 0 0 1-.05-.462 1.38 1.38 0 0 1 .158-.4c.073-.123.159-.242.244-.354.097-.11.192-.215.275-.324.084-.107.145-.225.198-.343.062-.117.116-.234.172-.352a2.67 2.67 0 0 1 .188-.333.917.917 0 0 1 .292-.256c.043-.273.218-.452.43-.583.21-.134.409-.257.549-.435.227-.085.39-.228.54-.379.161-.136.312-.283.488-.383.141-.15.316-.245.483-.34.172-.09.342-.165.53-.193l.483-.195c.153-.063.313-.098.46-.144.444-.145.859-.188 1.205-.247.358-.02.652-.044.892-.03.483.043.723.098.723.167Z"/><path fill="#D7FE03" d="M112.741 36.678c0 .139-.422.269-1.196.393-.129.019-.269.037-.416.06-.148.036-.306.075-.473.06-.167-.184-.344.336-.527.056-.185-.083-.38-.007-.581.055-.201.062-.411-.117-.629.051-.219.354-.446-.394-.679.05-.235.096-.477.07-.725.049-.25-.27-.507-.003-.771.044-.264-.327-.536-.184-.812.042-.279-.446-.563-.378-.853.04-.291.013-.588-.16-.892.038-.304.027-.612.112-.928.034-.316.3-.636.286-.963.031-.325.322-.657.194-.995.028-.337-.18-.678.28-1.025.025-.347-.021-.699.07-1.053.02-.358-.133-.718-.28-1.082.016-.364.081-.733.188-1.104.016-.373.34-.748.19-1.13.009-.378.056-.76-.186-1.146.005-.385-.053-.774.153-1.165.002-.394-.104-.783-.202-1.167-.002-.386.221-.77-.09-1.15-.005-.378-.322-.754.105-1.124-.01-.375.03-.743-.186-1.107-.015-.364.062-.724.121-1.08-.017-.358.495-.708-.127-1.055-.02-.346-.208-.69.03-1.025-.024-.336.091-.668-.23-.995-.028-.326-.043-.648.16-.963-.031-.314.245-.625-.208-.926-.034-.304-.003-.602.016-.892-.038-.29-.384-.576-.065-.853-.04-.278-.041-.55.218-.813-.042-.265-.03-.52-.2-.77-.044-.25.056-.492-.562-.725-.049-.235.091-.462-.396-.68-.05-.218.316-.427-.04-.629-.05a35.35 35.35 0 0 0-.58-.056c-1.66-.166-2.615-.361-2.615-.57 0-.229 1.177-.443 3.195-.62.202-.02.411-.29.63-.053.217 0 .444-.206.678-.051.234-.357.477-.064.726-.048.25-.016.505.099.77-.046.263-.206.535.103.813-.042.277.22.562.163.853-.04.29.215.588-.045.892-.036.301.328.612.098.926-.034.315-.121.636.049.963-.03.327.06.659-.086.995-.03.336-.153.678-.21 1.025-.024.347-.107.698-.02 1.055-.02.356-.132.716.017 1.08-.017.364-.07.732.35 1.106-.015.371-.045.747.058 1.126-.009.379.045.763.093 1.15-.007.383.359.772.136 1.166-.002.39-.102.78-.05 1.165.002a7.227 7.227 0 0 1 1.147.007c.381-.107.756.153 1.13.01.37-.154.74.163 1.103.014.364-.105.724-.161 1.081.017.355 0 .707.326 1.054.02.347-.068.688-.476 1.025.024.338-.126.67.242.995.03.327.364.647.019.963.03.316.07.624.194.928.034.304-.175.601.096.892.037.29-.21.574.274.853.039.276.048.548-.031.812.042.264-.493.521.004.771.046.248.073.49-.327.725.048.233-.374.46-.051.679.05.217.11.428-.159.629.053.201-.264.396.146.581.055.183.174.36.008.527.056a.512.512 0 0 1 .472.058l.417.06c.774.122 1.196.256 1.196.393Zm-73.134 0c0 .139-.423.269-1.196.393-.13.019-.27.037-.416.06-.148.036-.306.075-.474.06-.168-.184-.342.336-.526.056-.186-.083-.378-.007-.58.055-.203.062-.412-.117-.631.051-.219.354-.445-.394-.679.05-.233.096-.476.07-.725.049-.25-.27-.507-.003-.77.044-.265-.327-.535-.184-.813.042-.277-.446-.561-.378-.853.04-.29.013-.59-.16-.89.038-.303.027-.614.112-.929.034-.314.3-.634.286-.962.031-.327.322-.66.194-.995.028-.339-.18-.679.28-1.025.025-.347-.021-.7.07-1.055.02-.355-.133-.716-.28-1.081.016-.364.081-.731.188-1.104.016-.372.34-.748.19-1.127.009-.38.056-.763-.186-1.147.005-.39-.053-.776.153-1.168.002-.392-.104-.78-.202-1.166-.002-.387.221-.768-.09-1.147-.005-.38-.322-.756.105-1.13-.01-.371.03-.74-.186-1.103-.015-.365.062-.726.121-1.081-.017-.356.495-.707-.127-1.053-.02-.347-.208-.69.03-1.027-.024-.335.091-.667-.23-.993-.028-.328-.043-.65.16-.964-.031-.314.245-.624-.208-.928-.034-.303-.003-.599.016-.89-.038-.291-.384-.576-.065-.855-.04-.276-.041-.548.218-.811-.042-.265-.03-.521-.2-.77-.044-.249.056-.492-.562-.725-.049-.235.091-.461-.396-.68-.05-.218.316-.428-.04-.63-.05-.202-.021-.394-.04-.579-.056-1.663-.166-2.615-.361-2.615-.57 0-.229 1.175-.443 3.194-.62.202-.02.412-.29.63-.053.219 0 .445-.206.68-.051.233-.357.476-.064.725-.048.249-.016.505.099.77-.046.263-.206.535.103.811-.042.279.22.564.163.855-.04.291.215.587-.045.89-.036.304.328.614.098.928-.034.315-.121.636.049.962-.03.328.06.66-.086.995-.03.338-.153.68-.21 1.027-.024.346-.107.697-.02 1.053-.02.355-.132.716.017 1.08-.017.365-.07.733.35 1.105-.015.373-.045.749.058 1.129-.009.379.045.76.093 1.147-.007.386.359.774.136 1.166-.002.392-.102.779-.05 1.168.002a7.228 7.228 0 0 1 1.147.007c.379-.107.755.153 1.127.01.373-.154.74.163 1.104.014.365-.105.726-.161 1.08.017.357 0 .709.326 1.056.02.346-.068.686-.476 1.025.024.336-.126.668.242.995.03.328.364.648.019.962.03.315.07.626.194.928.034.302-.175.6.096.89.037.293-.21.577.274.854.039.278.048.548-.031.814.042.262-.493.52.004.769.046.25.073.492-.327.725.048.234-.374.46-.051.679.05.219.11.428-.159.63.053.203-.264.395.146.58.055.185.174.36.008.527.056a.514.514 0 0 1 .474.058l.416.06c.773.122 1.196.256 1.196.393Z"/></svg>