<svg xmlns="http://www.w3.org/2000/svg" width="203" height="40" fill="none"><g fill="#fff" clip-path="url(#a)"><path fill-rule="evenodd" d="M25.806 11.685A10 10 0 0 0 20.25 10V0a20 20 0 1 1-20 20h10a10 10 0 1 0 15.556-8.315Z" clip-rule="evenodd"/><path fill-rule="evenodd" d="M10.25 0a10 10 0 0 1-10 10v10a20 20 0 0 0 20-20h-10Z" clip-rule="evenodd"/><path d="M125.869 14.452h-4.852v15.412h4.852V14.452Zm-4.312-2.885c.507.507 1.141.76 1.902.76.761 0 1.385-.253 1.871-.76.487-.529.73-1.163.73-1.903 0-.761-.243-1.396-.73-1.903-.486-.507-1.11-.761-1.871-.761-.761 0-1.395.254-1.902.761-.487.507-.73 1.142-.73 1.903 0 .74.243 1.374.73 1.903ZM51.406 29.865V7.475h4.98v18.013h9.925v4.377H51.406Z"/><path fill-rule="evenodd" d="M75.277 30.213c-1.585 0-3.023-.348-4.313-1.046a8.144 8.144 0 0 1-3.012-2.918c-.74-1.226-1.11-2.6-1.11-4.122 0-1.522.37-2.886 1.11-4.091a7.98 7.98 0 0 1 3.012-2.854c1.269-.72 2.707-1.079 4.313-1.079 1.607 0 3.045.35 4.313 1.047a7.903 7.903 0 0 1 3.013 2.886c.74 1.205 1.11 2.569 1.11 4.09 0 1.523-.37 2.897-1.11 4.123a8.143 8.143 0 0 1-3.013 2.918c-1.268.698-2.706 1.046-4.313 1.046Zm0-4.408c.698 0 1.311-.148 1.84-.444a3.11 3.11 0 0 0 1.205-1.3c.296-.57.444-1.215.444-1.934 0-.719-.148-1.343-.444-1.871a3.109 3.109 0 0 0-1.237-1.269c-.507-.317-1.11-.475-1.808-.475-.676 0-1.279.158-1.807.475a3.11 3.11 0 0 0-1.237 1.269c-.296.55-.444 1.184-.444 1.902 0 .698.148 1.332.444 1.903.296.55.708.983 1.237 1.3.528.296 1.13.444 1.807.444ZM87.556 35.89c1.29.593 2.78.889 4.471.889 1.65 0 3.118-.328 4.408-.984 1.29-.655 2.305-1.564 3.044-2.727.74-1.163 1.111-2.537 1.111-4.122V14.452h-4.758v1.035a5.127 5.127 0 0 0-1.204-.75c-.825-.401-1.766-.602-2.823-.602-1.416 0-2.674.338-3.774 1.014-1.1.656-1.966 1.565-2.6 2.728-.635 1.142-.951 2.431-.951 3.869 0 1.416.316 2.706.95 3.869a7.255 7.255 0 0 0 2.601 2.759c1.1.676 2.358 1.015 3.774 1.015 1.036 0 1.977-.201 2.822-.603.41-.195.78-.424 1.11-.688v.973c0 1.079-.348 1.914-1.046 2.506-.677.592-1.617.888-2.823.888-.972 0-1.807-.17-2.505-.508-.676-.338-1.29-.835-1.84-1.49l-2.98 2.98c.74 1.058 1.744 1.872 3.013 2.443Zm6.913-11.257c-.486.296-1.068.444-1.744.444-.677 0-1.269-.148-1.776-.444a3.129 3.129 0 0 1-1.142-1.206 3.592 3.592 0 0 1-.412-1.68c0-.634.137-1.205.412-1.713a3.06 3.06 0 0 1 1.174-1.205c.507-.296 1.088-.444 1.744-.444.676 0 1.258.148 1.744.444a2.85 2.85 0 0 1 1.142 1.205 3.55 3.55 0 0 1 .412 1.713c0 .634-.138 1.205-.412 1.712a2.9 2.9 0 0 1-1.142 1.174Zm16.332 5.58c-1.586 0-3.024-.348-4.313-1.046a8.141 8.141 0 0 1-3.013-2.918c-.74-1.226-1.11-2.6-1.11-4.122 0-1.522.37-2.886 1.11-4.091a7.978 7.978 0 0 1 3.013-2.854c1.268-.72 2.706-1.079 4.313-1.079 1.606 0 3.044.35 4.312 1.047a7.901 7.901 0 0 1 3.013 2.886c.74 1.205 1.11 2.569 1.11 4.09 0 1.523-.37 2.897-1.11 4.123a8.141 8.141 0 0 1-3.013 2.918c-1.268.698-2.706 1.046-4.312 1.046Zm0-4.408c.697 0 1.31-.148 1.839-.444a3.11 3.11 0 0 0 1.205-1.3c.296-.57.444-1.215.444-1.934 0-.719-.148-1.343-.444-1.871a3.107 3.107 0 0 0-1.237-1.269c-.507-.317-1.11-.475-1.807-.475-.677 0-1.28.158-1.808.475a3.107 3.107 0 0 0-1.237 1.269c-.296.55-.444 1.184-.444 1.902 0 .698.148 1.332.444 1.903.296.55.708.983 1.237 1.3.528.296 1.131.444 1.808.444Zm26.73 4.377c-1.035 0-1.987-.2-2.854-.602a6.063 6.063 0 0 1-1.236-.757v7.543h-4.789V14.453h4.852v1.064a6 6 0 0 1 1.173-.747c.867-.423 1.819-.634 2.854-.634 1.459 0 2.749.349 3.869 1.046a7.214 7.214 0 0 1 2.664 2.854c.656 1.205.983 2.58.983 4.123 0 1.543-.327 2.918-.983 4.123a7.215 7.215 0 0 1-2.664 2.854c-1.12.698-2.41 1.046-3.869 1.046Zm-.887-4.376c.697 0 1.3-.159 1.807-.476a3.32 3.32 0 0 0 1.237-1.3c.296-.55.444-1.173.444-1.871 0-.719-.148-1.353-.444-1.903a3.107 3.107 0 0 0-1.237-1.268c-.507-.317-1.099-.476-1.776-.476-.676 0-1.279.159-1.807.476a3.168 3.168 0 0 0-1.205 1.268c-.296.55-.444 1.184-.444 1.903 0 .698.137 1.321.412 1.871.296.55.708.983 1.237 1.3.528.317 1.12.476 1.776.476Z" clip-rule="evenodd"/><path d="M149.796 29.897c.888.232 1.786.349 2.695.349 1.924 0 3.446-.444 4.567-1.332 1.141-.888 1.712-2.083 1.712-3.584 0-.972-.179-1.755-.539-2.346a4.194 4.194 0 0 0-1.395-1.46 8.33 8.33 0 0 0-1.808-.856 27.898 27.898 0 0 0-1.807-.539c-.571-.148-1.036-.317-1.396-.507-.359-.19-.539-.444-.539-.761 0-.296.138-.518.412-.666.275-.17.687-.254 1.237-.254.571 0 1.152.116 1.744.349.613.233 1.163.634 1.649 1.205l2.759-2.79c-.697-.889-1.606-1.555-2.727-1.998-1.099-.466-2.304-.698-3.615-.698-1.247 0-2.336.211-3.266.634-.931.423-1.65 1.004-2.157 1.744-.507.719-.761 1.575-.761 2.569 0 .93.18 1.702.539 2.315a4.01 4.01 0 0 0 1.395 1.395 8.103 8.103 0 0 0 1.808.793l1.808.54c.57.147 1.036.327 1.395.538.381.19.571.476.571.857 0 .296-.159.528-.476.697-.296.17-.729.254-1.3.254a5.78 5.78 0 0 1-2.283-.444 5.56 5.56 0 0 1-1.808-1.3l-2.759 2.79a8.61 8.61 0 0 0 1.903 1.523c.761.422 1.575.75 2.442.983Zm17.822.316c-1.416 0-2.674-.285-3.773-.856a6.622 6.622 0 0 1-2.537-2.41c-.614-1.036-.92-2.22-.92-3.552v-8.943h4.852v8.88c0 .528.084.983.254 1.363.19.38.465.677.824.888.36.212.793.317 1.3.317.719 0 1.29-.222 1.713-.666.423-.465.634-1.099.634-1.902v-8.88h4.852v8.911c0 1.353-.306 2.548-.92 3.584a6.622 6.622 0 0 1-2.537 2.41c-1.078.57-2.325.856-3.742.856Zm14.463-15.76h-4.852v15.412h4.852V20.86c0-.529.106-.973.317-1.332.233-.36.54-.634.92-.825a2.632 2.632 0 0 1 1.3-.317c.698 0 1.279.222 1.744.666.487.423.73 1.026.73 1.808v9.006h4.852V20.86c0-.529.106-.973.317-1.332.233-.36.539-.634.92-.825a2.63 2.63 0 0 1 1.3-.317c.698 0 1.279.222 1.744.666.486.423.729 1.026.729 1.808v9.006h4.853V20.32c0-1.29-.275-2.39-.825-3.298a5.297 5.297 0 0 0-2.188-2.125c-.909-.508-1.956-.761-3.14-.761-1.205 0-2.294.264-3.266.793a5.924 5.924 0 0 0-1.657 1.303 5.392 5.392 0 0 0-1.61-1.367c-.845-.486-1.807-.73-2.885-.73-1.142 0-2.167.244-3.076.73a5.314 5.314 0 0 0-1.079.727v-1.14Z"/></g><defs><clipPath id="a"><path fill="#fff" d="M.25 0h202v40H.25z"/></clipPath></defs></svg>