<svg xmlns="http://www.w3.org/2000/svg" width="114" height="108" fill="none"><path fill="#D7FE03" d="M10.7 1.298c0 .032-.258.082-.755.14l-.197.022-.217.047c-.152.03-.318.062-.5.1-.182.026-.371.093-.575.153l-.318.092c-.055.017-.11.03-.167.05l-.165.064a9.146 9.146 0 0 0-3.03 1.802c-.254.24-.527.477-.763.767-.12.142-.259.273-.37.431l-.346.474c-.126.153-.213.339-.323.511-.103.178-.218.35-.3.545l-.273.58a47.93 47.93 0 0 0-.22.62l-.077.21-.052.218c-.035.147-.072.294-.109.442-.044.148-.062.301-.082.455-.022.156-.045.31-.066.466-.039.315-.03.64-.048.966-.002.336.008.687.011 1.041.038 1.416.078 2.921.06 4.514-.186 1.592.345 3.272.057 5.036-.082 1.764-.005 3.611.057 5.538.064 1.927-.119 3.934.052 6.02.363 2.084-.4 4.246.053 6.482.097 2.236.07 4.547.047 6.928-.276 2.38-.002 4.833.047 7.352-.334 2.52-.188 5.108.044 7.76-.458 2.65-.388 5.366.041 8.145.006 1.389-.035 2.793-.053 4.212 0 .086-.003.179 0 .263l.012.241.02.487c.006.163.048.322.068.483.03.159.05.321.086.48.17.629.384 1.253.731 1.815.076.145.144.294.226.436l.267.414.133.208c.05.068.102.13.153.195l.308.39c.103.129.226.24.34.364.118.115.22.25.352.351.256.214.493.45.777.631l.408.294.435.255.217.13c.074.04.151.07.226.109l.459.217c.153.072.317.118.474.181.16.054.315.132.482.169.33.08.653.198.996.242l.516.026.516-.023c.32 0 .734-.034 1.115-.05a49.56 49.56 0 0 1 2.335-.057 59.432 59.432 0 0 1 4.732.192c3.18-.321 6.413-.192 9.697-.026 3.283.18 6.616-.283 9.995-.025 3.38.02 6.805-.074 10.273-.02 3.47.13 6.98.28 10.53-.019 3.551-.08 7.142-.187 10.77-.013 3.628-.342 7.29-.192 10.988-.01 3.697-.058 7.428.185 11.19-.006 3.76.051 7.55-.151 11.367-.002.84.009 1.68-.089 2.495-.307a8.525 8.525 0 0 0 2.279-1.061c1.388-.943 2.474-2.332 2.946-3.89l.09-.29.045-.147.032-.147c.041-.198.083-.394.131-.59.033-.196.05-.397.082-.594.011-.098.035-.197.038-.298l.012-.3.016-.298.009-.15.003-.17.005-.686.025-1.372c.042-1.828.099-3.646.055-5.457.327-3.624-.105-7.214.011-10.766-.031-3.556.189-7.074.014-10.553-.061-3.48-.124-6.919.018-10.318-.504-3.4.129-6.755.021-10.066.213-3.31-.032-6.577.025-9.792a49.469 49.469 0 0 1-.006-2.405c.008-.784.058-1.636.025-2.306.007-.177-.029-.352-.049-.528-.027-.175-.038-.354-.076-.526-.092-.341-.148-.694-.29-1.02-.064-.166-.122-.332-.193-.494l-.245-.47c-.043-.079-.08-.157-.127-.233l-.151-.218c-.101-.144-.2-.29-.305-.429l-.316-.422-.159-.209-.178-.193-.36-.383-.398-.343-.197-.172c-.068-.053-.141-.1-.212-.152l-.427-.302c-.148-.093-.302-.174-.45-.26-.15-.089-.299-.178-.46-.242l-.471-.217c-.156-.073-.325-.116-.485-.177-.32-.132-.656-.203-.987-.293-.165-.054-.335-.07-.504-.103l-.507-.09-.512-.047c-.17-.019-.34-.04-.54-.049-3.07.246-6.088-.206-9.045-.034-2.955-.001-5.853.016-8.687-.036-2.834-.386-5.608-.066-8.313-.042-2.707-.04-5.347.22-7.919-.04-2.572-.03-5.073-.202-7.505-.045-2.428.056-4.788-.562-7.068-.05-2.284.093-4.49-.394-6.617-.048-2.127.316-4.179-.04-6.144-.052l-5.651-.055c-8.097-.084-14.47-.175-18.813-.27a223.1 223.1 0 0 1-4.963-.146c-1.123-.05-1.704-.1-1.704-.152 0-.058.717-.114 2.098-.17 1.382-.055 3.43-.109 6.091-.16C24.213.86 31.996.762 41.831.673c1.965-.017 4.017-.288 6.144-.052 2.128.003 4.333-.205 6.617-.05 2.28-.356 4.64-.065 7.068-.048 2.432-.017 4.933.098 7.505-.046 2.572-.206 5.212.104 7.919-.041 2.705.22 5.477.163 8.313-.04C88.231.61 91.13.351 94.084.36c2.957.328 5.975.098 9.045-.034.184-.012.4-.008.615-.003l.641.02c.214.022.427.053.639.085.213.032.428.052.636.114.417.103.84.2 1.241.364.202.078.41.141.604.234l.583.283c.199.088.383.203.567.32.182.111.37.22.55.339l.52.388c.087.065.175.128.259.196l.241.215.484.435.446.472.221.239.203.253.405.513.34.557.168.28c.053.095.097.195.145.293l.288.586c.086.2.158.408.236.612.174.403.26.834.383 1.255.055.213.08.431.12.648.032.217.083.432.088.653l.044.661.009.165.002.15.004.298.012 1.194c.004.8.002 1.6-.012 2.405.158 3.215.217 6.483.025 9.792.109 3.311.023 6.666.023 10.066.133 3.398-.019 6.837.017 10.318.071 3.479-.357 6.997.015 10.553.046 3.552-.059 7.142.01 10.766-.024 1.81-.049 3.63-.053 5.457v1.372l.003.687v.175l-.008.19-.018.386-.017.384c-.004.128-.032.255-.047.383-.038.255-.068.51-.116.764l-.184.754-.046.187-.064.184-.128.369c-.46.934-1.008 1.815-1.684 2.597-.156.205-.336.389-.516.573-.18.186-.35.38-.55.545-.193.169-.382.346-.581.512l-.621.465a11.89 11.89 0 0 1-2.78 1.437 11.61 11.61 0 0 1-3.134.585c-3.817.104-7.606.051-11.368 0a731.75 731.75 0 0 1-11.19-.007c-3.696.107-7.359-.154-10.987-.01-3.628.152-7.219-.164-10.77-.015-3.55.106-7.06.162-10.53-.017-3.468 0-6.893-.327-10.273-.02-3.379.068-6.712.476-9.995-.025-3.284.126-6.517-.241-9.697-.028-1.591-.183-3.167-.187-4.732-.15l-2.335.078c-.392.009-.755.032-1.2.01l-.639-.023-.633-.093c-.423-.055-.825-.192-1.234-.302-.205-.05-.394-.142-.593-.213-.194-.08-.394-.143-.582-.235l-.557-.28c-.095-.048-.188-.09-.279-.142l-.263-.163-.525-.328c-.168-.12-.33-.246-.494-.368-.337-.234-.626-.524-.931-.792-.157-.13-.282-.291-.426-.435-.136-.15-.282-.29-.408-.447l-.377-.474c-.062-.079-.126-.157-.188-.237l-.166-.252-.336-.502c-.106-.17-.197-.35-.297-.525-.405-.696-.659-1.465-.848-2.24-.041-.195-.065-.393-.096-.59-.023-.197-.066-.393-.072-.59l-.02-.592-.006-.295c-.004-.095.003-.18.004-.27.04-1.418.093-2.822.063-4.21-.215-2.78.281-5.496.042-8.146.047-2.653-.033-5.24.044-7.76-.505-2.52.001-4.971.045-7.352.072-2.381-.334-4.692.048-6.928-.382-2.236-.051-4.397.052-6.482.11-2.085-.16-4.093.052-6.02-.268-1.927.15-3.774.056-5.538.178-1.764.01-3.444.058-5.036a42.573 42.573 0 0 1 .06-4.514c.008-.355.008-.699.02-1.048.029-.359.031-.713.084-1.055.03-.174.06-.344.087-.511.028-.169.054-.336.107-.494.044-.163.09-.322.134-.48l.068-.237.088-.227.263-.665.318-.62c.096-.206.228-.39.347-.576.125-.184.228-.376.369-.54.131-.166.264-.331.393-.493.125-.166.279-.302.414-.448.268-.3.57-.541.852-.783a9.138 9.138 0 0 1 3.296-1.733c.062-.02.12-.038.178-.058.06-.013.12-.025.178-.039.114-.023.228-.048.336-.073.218-.043.418-.096.61-.107l.523-.054c.079-.009.152-.014.226-.022l.202.001c.515.01.773.03.773.066Z"/><path fill="#D7FE03" d="M10.718 8.216c.07 0 .14.877.206 2.554.068 1.678.132 4.156.194 7.363l.062 3.445c.037 1.23.077 2.533.06 3.916-.185 1.38.344 2.837.057 4.366-.083 1.528-.006 3.128.055 4.8.065 1.67-.117 3.412.055 5.218.361 1.807-.402 3.683.051 5.62.097 1.94.071 3.942.047 6.008-.276 2.062-.002 4.19.047 6.373-.333 2.185-.188 4.43.044 6.727-.458 2.3-.387 4.654.042 7.061.002.715-.01 1.436-.024 2.16l-.012.546-.006.272-.001.098-.003.05c-.006.129-.01.262-.014.398.092.001.186.001.28-.003l.138-.004.088-.004.192-.004a31.439 31.439 0 0 0 1.555-.08c2.562-.03 5.177-.113 7.84-.033 2.664-.3 5.374-.288 8.133-.032 2.756-.32 5.561-.193 8.408-.028 2.845.18 5.735-.281 8.665-.024 2.928.02 5.899-.073 8.906-.02 3.006.133 6.049.279 9.128-.018 3.08-.08 6.193-.188 9.337-.014 3.145-.342 6.321-.19 9.527-.01 3.205-.057 6.438.185 9.7-.006 1.63.025 3.266-.011 4.909-.038.821-.013 1.645-.02 2.468-.02l.619.005.31.004.154.004h.076l.008.002.181.04c.013-.045.027-.103.039-.172.01-.384.022-.767.034-1.148.022-.809.038-1.615.044-2.418a65.84 65.84 0 0 0-.116-4.81c-.222-3.196.095-6.364.007-9.505.327-3.14-.107-6.253.011-9.333-.032-3.083.188-6.133.013-9.15-.06-3.014-.124-5.998.017-8.945-.504-2.946.13-5.855.023-8.727.213-2.869-.032-5.7.024-8.487a38.392 38.392 0 0 1-.008-2.007l.012-.5.004-.125.001-.06c0-.022.002-.015.002-.023l.008-.058.032-.262a7.964 7.964 0 0 0-.274-.03l-.036-.003-.068-.003-.272-.003-.54-.006A29.65 29.65 0 0 0 99 9.201c-2.756-.043-5.468.158-8.132-.031-2.663.244-5.277-.208-7.841-.035-2.563-.002-5.075.015-7.532-.037-2.458-.384-4.862-.065-7.208-.04-2.346-.041-4.635.218-6.864-.042-2.23-.03-4.4-.2-6.507-.045-2.107.056-4.15-.562-6.128-.05-1.98.093-3.892-.394-5.737-.048-1.846.316-3.622-.04-5.327-.052-1.705-.02-3.34-.037-4.9-.054-7.02-.083-12.541-.175-16.31-.27a172.476 172.476 0 0 1-4.3-.146c-.976-.05-1.479-.1-1.479-.153 0-.058.622-.114 1.819-.17 1.198-.054 2.973-.107 5.282-.16 4.615-.105 11.363-.203 19.888-.293 1.705-.017 3.481-.288 5.327-.053 1.845.003 3.757-.205 5.737-.05 1.977-.356 4.021-.063 6.128-.046 2.108-.017 4.277.096 6.505-.046 2.23-.208 4.52.103 6.866-.043 2.346.22 4.75.163 7.208-.04 2.457.215 4.969-.045 7.532-.036 2.564.328 5.178.098 7.84-.034 2.665-.121 5.377.049 8.133-.032.716.018 1.435.02 2.156.015l3.229-.027c.008 1.002.016 2.012.026 3.023.004.665.002 1.334-.011 2.007.157 2.787.216 5.618.024 8.487.108 2.872.021 5.781.021 8.727.134 2.945-.016 5.929.018 8.945.07 3.017-.356 6.067.016 9.15.046 3.08-.06 6.193.009 9.333-.047 3.14-.096 6.309.005 9.505-.182 1.597-.218 3.2-.189 4.81.015.803.045 1.61.08 2.418.02.426.039.853.056 1.279.019.763.039 1.527.056 2.291l.001.002-3.645.05c-.823.008-1.647.01-2.468.007-1.643-.008-3.279-.034-4.91-.059-3.26.036-6.494.017-9.7-.008-3.205.106-6.38-.154-9.526-.01-3.144.153-6.256-.165-9.337-.013-3.08.105-6.122.162-9.128-.017-3.007 0-5.978-.328-8.906-.022-2.93.072-5.82.477-8.665-.024-2.847.126-5.652-.241-8.408-.027-2.759-.367-5.47-.019-8.133-.032-2.663-.07-5.278-.194-7.84-.032-.52.034-1.039.05-1.555.057h-1.204l-1.356-.013c.01-.654.02-1.302.032-1.952l.018-.692.018-.546c.02-.724.032-1.445.014-2.16-.214-2.407.281-4.761.041-7.06.049-2.299-.032-4.543.045-6.727-.506-2.185.002-4.312.046-6.375.07-2.065-.334-4.066.047-6.006-.381-1.938-.051-3.813.052-5.62.11-1.807-.16-3.549.055-5.22-.269-1.67.146-3.271.055-4.8.176-1.528.01-2.985.056-4.366a32.018 32.018 0 0 1 .06-3.913l.061-3.447c.064-3.207.13-5.685.196-7.363.066-1.677.136-2.554.206-2.554Zm55.245 92.492c0 .137-1.043.27-2.946.392l-1.025.061c-.363.035-.752.074-1.163.058-.41-.182-.841.337-1.294.057-.455-.082-.931-.006-1.427.055-.497.063-1.012-.115-1.55.051-.538.356-1.093-.392-1.669.051-.577.096-1.172.07-1.785.047-.612-.271-1.244-.001-1.892.046-.65-.327-1.316-.186-1.999.041a1.939 1.939 0 0 0-.276-.151 3.158 3.158 0 0 0-1.184-.149 3.385 3.385 0 0 0-.392-.537 5.558 5.558 0 0 0-.255-.274c-.1-.115-.168-.152-.25-.205-.33-.622-.492-1.34-1.003-1.91-.356-.643-.77-1.274-1.04-1.99-.617-.549-.953-1.248-1.073-2.067-.65-.563-.894-1.335-1.107-2.137-.203-.808-.996-1.343-1.139-2.207-.358-.756-.825-1.476-1.165-2.268-.265-.827-.52-1.67-1.19-2.326l-.035-.058-.019-.029-.03-.053-.123-.221-.255-.447-.51-.922a25.795 25.795 0 0 1-.926-1.862c.332.015.67.037 1.012.068.63-.17 1.579-.22 2.502-.201l.346.01.167.006.087.007c.116.012.233.027.349.044.23.035.464.078.697.124.932-.058 1.875.185 2.823-.005.95.05 1.904-.152 2.868-.003.962.103 1.92.202 2.868.002.95-.22 1.89.09 2.821.006.935.321 1.859-.105 2.773.01.916-.031 1.823.186 2.718.013.896-.058 1.782-.121 2.656.019.876-.496 1.741.126 2.592.02.853.208 1.695-.03 2.523.025.829-.093 1.643.226 2.446.026.803.042 1.59-.158 2.367.032a1.69 1.69 0 0 1 .577-.073c.097.002.193.01.288.022l.075.01.126.01.249.022c.663.06 1.207.129 1.926.044l1.324-.001c-.361.72-.73 1.445-1.116 2.136-.476.512-.75 1.015-.841 1.277-.121.323-.195.665-.335.97-.339.582-.395 1.283-.92 1.737-.316.557-.75 1.036-.879 1.645-.218.564-1.045.815-.831 1.548-.17.545-.86.82-.783 1.445.053.612-.501.91-.73 1.34-.238.426-.466.837-.68 1.228-1.96 3.517-3.171 5.493-3.36 5.4-.21-.102.871-2.738 2.898-7.179.204-.444.184-1.019.637-1.385.238-.473.294-1.053.69-1.489-.071-.666.457-1.06.745-1.59.255-.547.639-1.052.794-1.685.098-.662.677-1.11.843-1.774.252-.252.443-.537.585-.85.035-.08.07-.16.1-.24.04-.1.035-.121.035-.157a.282.282 0 0 0-.05-.177.485.485 0 0 0 .207-.222c.032-.074.024-.124.01-.161-.13.031-.233.06-.297.057.069-.164-.126-.188-.27-.155l-.056.016-.026.008-.07.011-.288.047c-.19.037-.385.072-.577.109-.776.12-1.564-.051-2.367.03-.803-.064-1.617.085-2.447.029-.828.154-1.669.211-2.522.024-.85.106-1.716.02-2.592.02-.873.13-1.76-.016-2.656.017-.895.07-1.801-.35-2.718.014-.914.046-1.838-.057-2.773.01-.93-.045-1.872-.095-2.821.007-.948-.359-1.906-.137-2.868.002-.964.103-1.919.05-2.868-.002a45.15 45.15 0 0 1-2.823-.006c-.233.026-.467.03-.697.023-.116-.005-.233-.01-.35-.017l-.086-.006c-.012-.003-.01-.004-.016-.008l-.024-.012c-.064-.034-.203-.063-.179.01.012.027.017.038.005.041.043.056-.175.058.087.302.492.742.935 1.494 1.159 2.342.385.77.468 1.674 1.127 2.286.44.72 1.184 1.278 1.092 2.23.48.67.505 1.551 1.054 2.16.021.869.688 1.408 1.02 2.094.276.713.5 1.437.977 2.021.489.579.566 1.34.935 1.943.142.174.137.138.156.193.01.042.01.1.012.174a.295.295 0 0 0 .15.086.259.259 0 0 0 .114-.002c.094-.01.186-.028.276-.06.683.048 1.35-.032 1.999.044.648-.494 1.28.003 1.892.044.613.072 1.208-.326 1.785.049.576-.374 1.13-.051 1.67.049.535.11 1.052-.156 1.549.054.496-.264.972.145 1.427.053.453.176.885.011 1.294.057.41-.059.8-.037 1.163.06.365.021.705.042 1.025.058 1.903.122 2.946.255 2.946.394Z"/><path fill="#D7FE03" d="M41.18 100.724c.14 0 .276.807.4 2.282.02.246.04.511.061.793.038.284.079.583.062.901a.269.269 0 0 0-.04.121.2.2 0 0 0 .01.103.419.419 0 0 0 .096.136c.074.083.135.113-.01.298a.683.683 0 0 0-.031.305 2.92 2.92 0 0 0 .428-.085c.119-.031.207-.002.319.013l.04.006.077.002c.053.003.103 0 .156-.004.104-.007.208-.027.316-.069.424-.355.865.393 1.32-.051.456-.095.925-.069 1.41-.047.485.271.985.001 1.5-.046.511.327 1.038.185 1.578-.041.54.448 1.093.378 1.657-.041.568-.014 1.146.159 1.736-.038.588-.029 1.19-.112 1.806-.032.61-.301 1.236-.288 1.87-.032.635-.321 1.279-.194 1.935-.027.655.18 1.32-.282 1.995-.025.674.02 1.357-.073 2.049-.021.69.132 1.392.281 2.101-.017.708-.08 1.426-.188 2.15-.016.722-.341 1.454-.189 2.19-.009.739-.056 1.483.187 2.234-.006.188.013.376.01.564.002l.28-.018.074-.005.03-.003.005-.001.016-.011c.045-.026.043-.04.168.034.053 0 .105-.058.117-.145.003-.01.003-.022.003-.031v-.11a3.19 3.19 0 0 0-.117-.829c-.112-.367-.088-.733-.05-1.098.022-.183.047-.364.059-.546.008-.09.012-.18.012-.271l-.001-.033-.003-.012a.04.04 0 0 0-.012-.018c.159-.092.139-.226.088-.245-.145.051-.216.135-.255.076-.008.003-.013.003-.021.003l-.083-.001a5.969 5.969 0 0 1-.27-.015l-.54-.045c-.356-.029-.712-.041-1.067.045-.71.059-1.41.122-2.101-.018-.692.495-1.375-.127-2.05-.021-.673-.209-1.34.033-1.994-.024-.655.092-1.3-.228-1.934-.027-.636-.043-1.26.158-1.873-.033-.613.246-1.215-.205-1.804-.032-.59-.003-1.17.014-1.733-.038-.567-.386-1.12-.065-1.66-.041-.54-.041-1.066.22-1.58-.041-.512-.032-1.011-.202-1.498-.046-.485.056-.954-.559-1.41-.047-.455.093-.895-.395-1.32-.051-.424.317-.835-.038-1.226-.051-.392-.021-.77-.038-1.128-.055-3.23-.167-5.084-.362-5.084-.568 0-.231 2.288-.444 6.212-.622.39-.02.802-.289 1.226-.054.425.002.865-.205 1.32-.05.456-.357.925-.065 1.41-.048.487-.017.986.098 1.498-.044.514-.208 1.04.102 1.58-.043.54.219 1.093.162 1.66-.04.564.214 1.142-.045 1.733-.036.59.329 1.19.097 1.804-.035.613-.12 1.237.05 1.873-.03.634.063 1.279-.085 1.934-.029.654-.154 1.32-.212 1.994-.025.675-.106 1.358-.02 2.05-.02.692-.13 1.392.016 2.1-.016.356-.036.712.052 1.069.103a2.5 2.5 0 0 0 .54.029c.09-.008.179-.02.27-.045l.067-.02.12-.023c.083-.016.168-.037.256-.06.703-.022 1.408-.008 2.094.005a28.27 28.27 0 0 0 .013 1.955l-.016.486-.016.271c-.01.182-.019.363-.021.546-.004.365.009.731.06 1.098a1.917 1.917 0 0 0-.197.829v.169l.007.241c.028.642.122 1.349.19 2.126-.664.052-1.406.065-2.134.058l-.273-.003-.18-.005-.281-.013-.564-.038a27.72 27.72 0 0 1-2.234-.007c-.736.106-1.468-.155-2.19-.009-.724.153-1.442-.165-2.15-.014-.71.103-1.41.16-2.101-.017-.692 0-1.375-.33-2.05-.023-.674.071-1.34.479-1.994-.023-.656.124-1.3-.24-1.935-.027-.634-.366-1.26-.02-1.87-.032-.615-.072-1.218-.193-1.806-.034-.59.174-1.168-.095-1.736-.038-.564.211-1.117-.274-1.657-.04-.54-.047-1.067.033-1.579-.041-.514.493-1.014-.004-1.498-.047-.486-.07-.955.327-1.411-.047-.455.374-.896.05-1.32-.051a.996.996 0 0 0-.316-.023 2.885 2.885 0 0 0-.156.016l-.077.009-.12.011c-.314.027-.652.041-.892-.064a1.512 1.512 0 0 1-.976.017c.056-.303.114-.567.074-.765.087-.308.09-.534.078-.766l-.026-.346-.002-.082v-.06c0-.04 0-.081.008-.121a1.722 1.722 0 0 1 .058-.901l.063-.793c.123-1.475.259-2.282.4-2.282Zm30.204-70.98c.056.126-.621.557-1.915 1.235-.216.111-.448.233-.696.36-.242.143-.5.292-.794.4-.363-.045-.459.561-.892.437-.352.06-.656.27-.982.474-.324.205-.76.196-1.07.508-.235.486-.928-.035-1.155.543-.367.26-.796.411-1.237.574-.542-.066-.878.367-1.316.605-.588-.108-1 .221-1.39.631-.662-.206-1.125.064-1.461.663-.496.224-1.083.282-1.527.684-.514.25-1.017.553-1.594.71-.424.505-.986.729-1.654.733-.122.15-.266.27-.406.361-.007.033-.012.038-.04.033-.015.001-.039 0-.072.005l-.027.004c-.001 0-.003 0-.005.003l-.018.02-.03.043-.128.167c-.414.505-.226 1.267-.718 1.758-.27.585-.436 1.22-.742 1.807-.383.558-.782 1.116-.764 1.851-.188.652-.354 1.322-.787 1.89.055.766-.36 1.35-.805 1.929-.22.669-.724 1.228-.823 1.96-.33.638-.417 1.38-.841 1.992l-.19.316-.09.158c-.012.017-.036.07-.062.119l-.072.144c-.188.388-.36.762-.517 1.165-.423.012-.833.046-1.272.112a5 5 0 0 1-.252.034c-.053.007-.056.01-.085.013l-.068.01c-.091.015-.183.02-.272.023a4.413 4.413 0 0 1-.542-.034c-.361-.04-.72-.095-1.078-.051-.716-.323-1.424.103-2.127-.012-.701.032-1.396-.184-2.083-.013-.688.059-1.366.12-2.037-.02-.29.215-.576.22-.863.166l-.025-.003-.001-.006-.004-.011-.011-.028a.374.374 0 0 0-.039-.059.29.29 0 0 0-.114-.086c-.011.008-.02.028-.018.055a.108.108 0 0 0-.117.046l-.01.013-.025.05-.05.106a3.93 3.93 0 0 0-.092.221c-.116.297-.214.599-.378.867-.192.6-.758 1.012-.844 1.642-.306.523-.385 1.145-.818 1.586-.036.632-.704.948-.795 1.528-.25.504-.48 1.006-.767 1.467-.262.14-.396.335-.482.554-.142.328-.247.702-.388 1.073-.095.02-.192.041-.292.057-1.006.092-1.298.393-1.86.205-.499.037-1.002-.069-1.444.148-.459.119-.996-.433-1.364.133-.424.15-.914-.274-1.275.122-.364.368-.805.066-1.184.104-.38.032-.743.063-1.09.09-3.129.25-4.935.296-4.965.09-.03-.227 2.136-.732 5.882-1.413.376-.068.732-.39 1.172-.21.409-.051.802-.314 1.26-.219.388-.411.882-.184 1.349-.228.464-.08.96-.03 1.433-.237.42-.266 1.175-.053 1.16-.198.032.02.068.039.104.052.086-.012.151-.105.175-.203.081-.214.132-.454.155-.706.436-.39.442-.997.698-1.497.552-.362.595-.976.731-1.558.15-.577.57-1.037.764-1.616.327-.513.464-1.128.793-1.664a4.6 4.6 0 0 1 .288-.908c.034-.073.068-.145.107-.214l.15-.26c.151-.262.311-.515.475-.74.063-.158.128-.316.196-.473.255-.013.518-.018.782-.018h.4l.378.005c.286.01.574.025.863.025.67-.132 1.35.017 2.037-.017.687-.068 1.382.35 2.083-.013.703-.047 1.41.056 2.127-.01.358.022.717.047 1.078.05.179.003.362.002.542-.006.089-.006.181-.012.272-.02l.068-.006c.017-.003.058-.007.052-.008a.063.063 0 0 0 .016-.017.29.29 0 0 0 .217.19c.035-.044.043-.131.028-.2l-.005-.026c-.003-.007-.01-.01.002-.05l.035-.182.075-.361c.184-.707.514-1.353.842-1.99.247-.672.54-1.318.838-1.956.173-.688.69-1.23.822-1.922.127-.692.691-1.199.812-1.88.166-.66.372-1.298.798-1.836.256-.608.82-1.082.781-1.791.185-.618.048-1.358.764-1.74.013-.067.033-.134.056-.198l.017-.046.027-.064.077-.168c.103-.224.215-.437.326-.64.314-.101.614-.195.897-.306.172-.064.321-.142.46-.267.712.098 1.128-.454 1.679-.674.574-.166 1.158-.278 1.62-.646.456-.383 1.078-.352 1.558-.62.42-.406 1.107-.166 1.494-.586.5-.158.937-.429 1.425-.555.257-.646.903-.378 1.35-.52.46-.117.72-.66 1.277-.488.253-.513.777-.382 1.196-.45.42-.06.677-.458 1.112-.413.242-.388.744-.153 1.026-.372.39.024.628-.255.935-.334a1.71 1.71 0 0 1 .843-.292c.266-.088.514-.171.745-.25 1.392-.454 2.177-.641 2.232-.514Z"/><path fill="#D7FE03" d="M72.89 35.755c-.14-.02-.251-.206-.333-.53a3.566 3.566 0 0 1-.038-.174c-.028-.064-.06-.132-.032-.196.192-.043-.324-.181-.03-.217.092-.064.027-.15-.024-.237-.053-.09.14-.15-.018-.26-.347-.134.422-.124-.014-.276-.085-.107-.045-.199-.01-.297.289-.062.03-.2-.003-.312.345-.061.216-.188.001-.33.468-.05.415-.173.007-.344.001-.117.193-.214.01-.36-.014-.125-.082-.26.015-.374-.285-.165-.254-.291.023-.388-.31-.173-.16-.288.024-.4.201-.111-.248-.307.032-.412.04-.134-.036-.288.036-.421.153-.126.321-.25.041-.433-.06-.157-.15-.319.046-.443a.645.645 0 0 1-.134-.103c-.01-.008-.018-.004-.026-.007-.032-.005-.04-.003-.031-.003a.862.862 0 0 0 .201-.03c-.03-.006.023-.024.056-.049.034-.023.05-.052-.054-.015.028-.023 0-.02-.027-.012-.045.015-.072.032-.007-.032.083-.08.083-.185-.064-.024-.073.091-.058.072-.05.032.034-.03-.058-.121-.136-.106-.034-.354-.33-.007-.431-.167-.155-.022-.222-.278-.421-.166-.162.003-.322.012-.41-.167-.312.413-.228-.218-.398-.166-.06-.244-.276-.066-.386-.166-.161.04-.176-.307-.373-.166-.11-.083-.305.062-.36-.16-.207.184-.167-.283-.344-.161-.117-.046-.237-.07-.33-.16.023-.402-.198-.143-.314-.157-.093-.078-.288.129-.297-.153-.091-.067-.131-.26-.28-.15-.116.019.009-.592-.264-.144-.122.052-.038-.434-.243-.144-.196.268-.15-.095-.224-.134-.07-.046-.14-.092-.204-.132-.58-.39-.879-.703-.804-.898.08-.216.61-.253 1.447-.14.085.012.262-.213.262.04.084.03.244-.131.279.048.216-.303.207.002.295.056.104.018.16.162.313.064.175-.158.17.171.328.072.03.245.159.231.343.082.036.242.24.04.356.09 0 .352.2.177.369.097.164-.07.228.134.381.106.103.103.283.01.392.112.184-.1.338-.106.403.119.172-.052.276.077.413.128.183-.076.27.114.423.132.164-.013.157.432.43.141.16.01.267.158.437.149.08.076.384.238.704.247.033.204.126.276.28.3.149.024.358.004.565.004.21.013.385.068.53.132-.029.141-.073.286-.115.427-.002.272-.062.576-.126.863.038.136-.022.285-.077.423-.027.07-.052.134-.064.205a.295.295 0 0 0-.005.048c0 .008 0 .019.002.03a.192.192 0 0 0 .03.06c.133.166-.206.272-.074.437.086.158.124.31-.076.428-.021.142-.37.238-.08.418.052.147.446.338-.078.404.106.152-.283.235-.084.393-.388.081-.054.256-.083.38-.09.115-.23.223-.085.365.16.144-.129.225-.087.349.197.145-.308.193-.087.336-.062.103.004.223-.085.318.484.17-.03.207-.088.3-.085.09.304.24-.09.282.367.143.027.19-.086.264-.121.073.137.193-.088.245.256.114-.167.137-.087.224-.185.05-.03.14-.085.202.05.075.021.135-.085.18-.028.056-.056.11-.084.16-.166.29-.322.443-.462.424Z"/></svg>