<svg xmlns="http://www.w3.org/2000/svg" width="115" height="114" fill="none"><path fill="#D7FE03" d="M66.195 13.86c-.034 0-.066-.278-.096-.825a92.742 92.742 0 0 1-.096-2.43 2088.51 2088.51 0 0 0-.091-3.971c-.025-1.474-.053-3.175-.088-5.099l-1.9.032c-1.61.017-3.34.037-5.187.061-1.848.035-3.813.076-5.893.06a12.415 12.415 0 0 0-1.48-.033l-.188.007-.124.008-.23.02c-.149.014-.29.032-.42.05.018.172.035.35.055.526l.023.236.01.444c.011.594-.007 1.2-.083 1.81-.083 2.3-.007 4.71.054 7.226l.011.465.004.527-.003 1.394c-.636.131-1.277.263-1.924.398-.238.046-.476.094-.714.144-.238.053-.472.12-.711.181-.476.127-.952.26-1.43.4-.474.156-.94.339-1.41.525-.303.151-.617.268-.928.407-.31.135-.624.259-.944.375-.32.116-.644.224-.972.332-.321.121-.647.241-.97.365-.327.123-.654.247-.982.373-.325.134-.639.29-.956.45-.316.16-.63.328-.936.51a8.13 8.13 0 0 0-.877.631l-.923.565c-.31.186-.603.403-.91.6l-1.353.888-.188.122-.096.061c-.028-.005-.053-.047-.078-.067l-.318-.317-.64-.636c-.553-.556-1.112-1.115-1.672-1.681l-1.625-1.647a35.419 35.419 0 0 0-2.424-2.593 72.73 72.73 0 0 0-1.301-1.248l-.328-.31-.059-.053-.04-.035-.079-.066-.293-.248-.344.397-.02.023-.036.038-.104.111-.21.22-.422.439c-2.561 2.089-4.845 4.58-7.127 7.192-.5.382-.99.78-1.469 1.19l-.359.311-.085.073-.05.04-.1.082c-.138.113-.28.238-.42.366.103.115.213.232.329.35l.461.46c.405.394.821.785 1.247 1.168a52.659 52.659 0 0 0 2.648 2.232c.642.638 1.281 1.29 1.921 1.945.319.33.639.657.96.988.433.443.87.885 1.305 1.33l.2.202.1.1.051.05c.005.009.02.018.021.026l-.018.03-.314.482-.621.957c-.244.387-.504.763-.728 1.164-.223.402-.445.804-.663 1.21-.105.205-.222.404-.317.616l-.287.632-.617 1.246-.556 1.28-.279.644c-.086.218-.165.438-.249.658-.165.438-.332.877-.496 1.318-.599 1.784-1.167 3.6-1.584 5.474l-.01.078-.02.12-.042.244-.088.495-.18 1.01c-1.175.042-2.353.082-3.533.122-.9.024-1.802.033-2.71.028a92.408 92.408 0 0 1-5.476-.196l-.449.035-.028.004h-.005l-.012.005-.023.007-.04.014c-.05.02-.088.038-.12.052l.052.198A87.352 87.352 0 0 1 3.499 54a205.75 205.75 0 0 1-.162 5.337c-.041.948-.049 1.898-.041 2.852.01.476.019.956.025 1.434.003.16.006.134.01.171l.01.076.02.133.183-.026.079-.012.434-.011c.586-.013 1.172-.025 1.76-.03 1.176-.01 2.356.006 3.543.078h2.797c1.222-.007 2.45-.012 3.68-.016l.588 2.656c.032.148.062.297.1.444l.124.443.242.882c.084.295.154.592.246.883l.287.875c.188.582.365 1.172.595 1.744.674 2.057 1.57 4.057 2.621 5.986.273.476.539.958.83 1.426l1.189 1.801.206.305.1.154.052.077.012.02c.004.005-.008.01-.01.016l-.031.032-.504.523-.508.53-.239.251-.144.156c-.382.419-.761.84-1.136 1.27l-3.345 3.462c-.564.576-1.127 1.152-1.695 1.73l-.786.793-.083.074.056.071.015.02.152.159.356.37c.474.495.946.995 1.413 1.498a81.627 81.627 0 0 1 4.448 4.156 119.8 119.8 0 0 1 2.139 2.192c.352.369.704.741 1.057 1.114l.13.14.017.018.002.002v.003l.003.007.015.032a.78.78 0 0 0 .041.08c.021-.006.047-.018.08-.032l.025-.014.012-.006.01-.006.038-.034.336-.314c1.651-1.69 3.363-3.337 5.07-5.002l1.278-1.254 1.798-1.79.14-.144c.013-.007.024-.039.038-.023l.042.028.085.055.34.217.681.433.956.6c.49.318 1.019.576 1.536.852l.756.444c.258.142.52.27.78.404l.786.398.393.198c.132.064.267.119.4.18l1.616.702 1.652.618.415.155.42.135.841.269.843.27.854.231.852.236.427.122.433.098c.883.206 1.767.41 2.651.614v.048c-.039 2.42-.073 4.833-.112 7.237a207.97 207.97 0 0 0-.005 3.159l.017 1.574.003.198.001.064.001.021.008.08.019.147a2.4 2.4 0 0 0 .192-.03l.041-.008.019-.005a.687.687 0 0 1 .039-.001l.058-.003.472-.019c2.404-.112 4.799-.088 7.183-.049 1.192.021 2.383.04 3.57.059l1.778.012c.812 0 .64-.004.773-.016l.03.01a.32.32 0 0 0 .045-.108.537.537 0 0 0 .02-.074l.003-.022.002-.006.002-.024.001-.05.007-.198c.017-.532.028-1.064.032-1.595.01-1.06-.003-2.119-.024-3.175-.026-1.056-.05-2.11-.074-3.161l-.028-1.575-.004-1.026v-1.46l1.127-.236.563-.116.413-.082.828-.182c.277-.056.545-.143.819-.212.542-.148 1.09-.279 1.632-.435l1.608-.504c.133-.043.269-.081.4-.128l.394-.144.788-.295c2.094-.793 4.126-1.744 5.982-2.957l.622-.372.604-.401c.667-.44 1.334-.878 1.999-1.315l2.533 2.501c.623.62 1.243 1.24 1.862 1.858 1.233 1.24 2.446 2.49 3.632 3.753l.425.347.212.177c.048.041.033.023.044.029l.016.002a.164.164 0 0 0 .081-.008l.022-.051.005-.015.004-.006c.003-.004-.013.01.044-.047.324-.328.65-.65.983-.968.661-.636 1.333-1.257 2.006-1.876 1.346-1.237 2.69-2.46 3.935-3.77a71.214 71.214 0 0 0 1.965-1.849c.318-.316.636-.629.955-.944.104-.102.171-.174.253-.26l-.182-.168-.044-.038c-.019-.019-.01-.008-.084-.08l-.334-.326a988.4 988.4 0 0 1-1.329-1.29 145.247 145.247 0 0 1-2.612-2.599 88.566 88.566 0 0 1-1.883-1.864c-.801-.825-1.602-1.645-2.398-2.465l1.437-2.15.243-.364.224-.374.442-.751.434-.753.386-.778.376-.78.182-.39.157-.403c.372-.816.755-1.625 1.05-2.468.154-.417.315-.832.462-1.25l.399-1.267c.285-.836.473-1.699.712-2.54.126-.422.204-.852.306-1.276l.483-2.103 1.015.02.942.025c1.96-.125 3.903-.072 5.826-.01.962.03 1.92.065 2.872.08.476.006.952.008 1.425.004l.124-.002.056-.002.108-.008a2.31 2.31 0 0 0 .193-.024l-.001-.01v-4.692c.001-1.852.011-3.684.037-5.496a33 33 0 0 0 .174-2.612l.014-.648.006-.628c0-.2-.004-.398-.012-.586l-.652.036-1.364.042c-.906.03-1.806.058-2.7.063-1.228-.015-2.446.008-3.654.035-.602.009-1.204.021-1.802.033l-1.018.008-1.521-.001-.251-1.218-.117-.59-.063-.347-.114-.697c-.036-.234-.091-.462-.13-.692-.774-3.126-1.761-6.154-3.297-8.803a20.525 20.525 0 0 1-.313-.61l-.15-.309-.161-.3a45.251 45.251 0 0 1-.619-1.21c-.193-.411-.417-.802-.636-1.192l-.177-.312-.248-.416-.484-.806c.31-.293.607-.582.899-.874l.36-.366.302-.322c.398-.438.772-.894 1.11-1.378.998-1.066 2.085-2.01 3.13-2.958.524-.474 1.036-.95 1.523-1.443.243-.247.48-.496.709-.753l.171-.195.083-.096.038-.057c.054-.074.099-.146.135-.214.049-.089.096-.165.141-.236a5.78 5.78 0 0 1-.337-.261l-.071-.063-.033-.03-.061-.058-.326-.322c-.43-.431-.842-.87-1.248-1.314-.806-.884-1.582-1.769-2.394-2.588l-5.07-5.149-.968-.99a21975.5 21975.5 0 0 1-8.901 8.729l-2.039-1.347c-.576-.352-1.145-.681-1.69-1.01-.271-.167-.551-.309-.823-.453l-.803-.425c-.265-.135-.517-.283-.778-.401-.263-.123-.518-.24-.768-.358a808.306 808.306 0 0 0-1.095-.512c-.121-.049-.241-.096-.359-.146-.473-.191-.928-.376-1.358-.552-.43-.188-.858-.314-1.255-.462-.399-.14-.777-.276-1.136-.402-.725-.219-1.364-.414-1.916-.58-.273-.09-.532-.154-.765-.214a89.342 89.342 0 0 0-.634-.164c-.753-.202-1.137-.324-1.129-.361.007-.039.405.01 1.179.135.19.034.409.07.648.112.241.041.504.088.786.16.564.137 1.22.289 1.963.48.367.11.755.229 1.164.353.408.132.848.241 1.29.413a198.601 198.601 0 0 0 1.765.647l.368.159c.248.105.5.214.758.325.26.11.522.223.79.339.269.112.53.254.804.385.272.132.548.268.829.408.281.139.57.273.85.437.562.318 1.151.638 1.747.986.482.3.978.61 1.486.929l3.904-3.995a14310.6 14310.6 0 0 1 5.118-5.208l6.938 6.834c.821.806 1.696 1.594 2.572 2.41.437.408.874.824 1.306 1.252l.812.824c.342.351.676.704.995 1.048-.269.25-.54.496-.809.738l-.962.972-.714.746-1.446 1.522c-.974 1.021-1.981 2.044-3.069 3.02-.36.464-.741.91-1.14 1.346-.173.187-.345.375-.521.562a3.958 3.958 0 0 1-.179.186l.097.168.05.087.161.263c.243.396.488.792.701 1.21.222.411.443.826.667 1.239l.17.312.153.32c.105.212.212.423.317.637 1.461 2.814 2.531 5.9 3.509 9.104.076.231.162.462.223.699.059.236.117.473.179.712l.114.479.047.208c.344.009.689.017 1.035.024l1.802.034c1.208.022 2.426.027 3.654-.026a66.711 66.711 0 0 0 4.064.141l2.129-.001.02 2.025.039 1.313c.03.867.07 1.736.121 2.612-.111 1.812-.099 3.644-.061 5.496l.065 2.792.025 1.408.01 2.37-.003.041c-.797-.035-1.593-.067-2.392-.1a50.57 50.57 0 0 0-1.425-.055 66.566 66.566 0 0 0-2.872-.002c-1.923.033-3.866.125-5.826.193l-.069.003-.016.001-.033.005-.062.007-.117.012-.02.144-.012.07-.059.285c-.098.448-.177.9-.308 1.34-.253.886-.469 1.785-.786 2.656-.15.438-.298.878-.446 1.318-.168.435-.336.868-.506 1.303-.319.879-.715 1.728-1.08 2.596l-.191.41-.21.4-.415.805-.414.808-.45.789-.45.793-.224.399-.245.387-.415.657-.085.15.096.087.045.044.187.182.937.926c.626.622 1.248 1.248 1.867 1.884.897.831 1.791 1.672 2.681 2.526l1.331 1.292c.727.721 1.455 1.445 2.183 2.17l-1.812 1.799-.966.933a125 125 0 0 1-1.97 1.846 223.136 223.136 0 0 1-3.815 3.888l-4.707 4.666-2.332-2.341a157.61 157.61 0 0 1-3.729-3.655l-1.847-1.873-.924-.941-.185-.19-.03-.036-.066-.07-.088.056-.4.256-.641.414-.66.386c-1.98 1.228-4.148 2.157-6.348 2.97l-.831.302-.413.152c-.139.049-.28.09-.42.136-.56.178-1.12.361-1.68.552-.563.176-1.131.333-1.698.516-.284.085-.562.189-.848.265-.286.083-.572.164-.858.248l-.155.036-.035.007-.036.012-.073.018.004.098v.541c0 .525-.003 1.049-.004 1.576-.004 1.051-.01 2.104-.013 3.16l-.008 3.176c.008 1.445.014 2.893.021 4.345l-.263.003-8.157-.053c-2.384-.006-4.779.008-7.183.058l-.472-.033-.058-.004-.079-.005-.217-.007-.43-.015-1.677-.05a764.4 764.4 0 0 1 .056-2.622 103.27 103.27 0 0 0 .004-4.733 277.88 277.88 0 0 0-.079-3.168l-.05-1.589-.012-.396-.003-.1-.001-.051c0-.007-.002-.005-.003-.008l-.005-.027a1.203 1.203 0 0 0-.024-.089v-.001l-.11-.007c.046.013-.181-.033-.32-.06l-.461-.092-.459-.095-.453-.116-.907-.238-.902-.24-.89-.288-.886-.291-.444-.147-.435-.169-1.733-.681a422.43 422.43 0 0 0-1.692-.772c-.14-.066-.282-.127-.42-.196l-.411-.215-.823-.43c-.273-.145-.549-.282-.817-.433l-.797-.469c-.534-.31-1.083-.595-1.594-.939l-.544-.346-.041-.024c-.012-.004-.025-.028-.037-.007l-.066.07-.61.611-1.267 1.267-5.053 5.019-.319.33-.573.584-1.223 1.236c-.641-.644-1.284-1.285-1.924-1.925l-1.075-1.096c-.714-.733-1.425-1.467-2.134-2.196-1.42-1.46-2.846-2.904-4.318-4.288a68.19 68.19 0 0 1-1.482-1.425 1230.01 1230.01 0 0 1-2.284-2.29 610.83 610.83 0 0 1 1.641-1.621l.939-.91 1.738-1.683a98.747 98.747 0 0 0 3.386-3.424l1.174-1.228.148-.154c.035-.036.019-.022.027-.029l.008-.01.023-.034.021-.033c-.003-.01-.017-.022-.025-.032l-.027-.03-.013-.013-.006-.008-.029-.045-.06-.091-.48-.725c-.307-.491-.588-.995-.879-1.49-1.124-2.014-2.106-4.102-2.797-6.273-.247-.6-.433-1.22-.625-1.836l-.283-.924c-.09-.308-.159-.624-.237-.935l-.23-.934-.114-.468c-.036-.155-.062-.314-.094-.47l-.16-.842-.034-.243-.186-.01h-.093l-.347-.002c-.469 0-.937.003-1.404.012-.934.017-1.869.053-2.797.121-1.187.019-2.367.064-3.543.111-.588.02-1.174.043-1.76.063l-.446.014-.867.012-1.753.018-.006-2.75c.003-.478.011-.956.03-1.434.034-.954.104-1.904.22-2.852-.056-1.792-.019-3.57.025-5.338l.059-2.642.012-1.322-.008-2.281 1.561-.023.768-.017.45-.021c1.838.168 3.665.188 5.475.161.908-.013 1.81-.04 2.71-.064l1.344-.035.289-.009.083-.007.157-.01.024-.132.037-.176c.434-1.963 1.075-3.852 1.735-5.704l.54-1.371.265-.681.294-.67.574-1.342c.204-.44.41-.879.615-1.316l.305-.658c.1-.218.223-.426.336-.638.232-.422.468-.84.708-1.255.239-.417.516-.804.775-1.204l.097-.132.052-.068c-.002-.021-.029-.041-.042-.061l-.107-.13-.455-.476-.954-.993a85.132 85.132 0 0 0-1.928-1.937 41.386 41.386 0 0 1-2.466-2.416L13.4 25.123l-.313-.337-.49-.511-.957-.999 1.127-1.096.836-.83c.442-.448.872-.906 1.282-1.379 2.482-2.412 4.811-4.857 7.191-7.13.121-.166.245-.329.372-.489l.19-.238.098-.118.024-.029.045-.048.09-.1c.478-.527.986-1.064 1.497-1.592.39.376.781.764 1.17 1.153l.553.562.313.329c.415.44.816.887 1.215 1.333.796.894 1.573 1.79 2.39 2.627.536.563 1.09 1.1 1.646 1.627l1.589 1.481.133.112.062.056c.004.003.01.01.016.012l.017-.015.036-.024c.047-.032.093-.064.14-.094l.307-.187c.325-.195.642-.4.982-.561.338-.166.68-.32 1.026-.464.298-.224.596-.454.912-.644.314-.191.634-.375.956-.55.322-.174.642-.349.972-.502.333-.147.665-.288 1-.423l.998-.397c.339-.111.676-.223 1.015-.332.335-.108.67-.216 1.001-.326.332-.11.674-.19 1.003-.29.501-.139.993-.303 1.484-.45.495-.136.985-.278 1.47-.42.245-.07.485-.146.729-.209.244-.057.488-.117.73-.172.18-.044.36-.084.538-.127.104-.024.206-.045.313-.065.005-.137.01-.273.025-.416l.006-.055.005-.113.013-.236.035-.465c-.268-2.516.148-4.926.056-7.226.048-.61.07-1.216.08-1.81 0-.356.001-.71.003-1.062-.003-.41-.007-.817-.008-1.222.689-.01 1.369-.016 2.041-.024a42.01 42.01 0 0 1 1.48.006 71.268 71.268 0 0 1 5.892.059c1.848.023 3.579.041 5.188.061.917.012 1.803.02 2.64.031l-.043 3.293c-.017.91-.03 1.76-.045 2.546l-.092 3.972a83.473 83.473 0 0 1-.095 2.429c-.029.547-.062.825-.094.825Z"/><path fill="#D7FE03" d="M58.014 31.134c.006.18-1.803.163-4.953.888-.263.056-.53.139-.81.212-.276.076-.567.144-.858.245-.292.098-.592.203-.903.309-.305.116-.62.23-.95.332-.359.018-.657.245-.967.44-.315.195-.624.412-1.03.436-.18.062-.366.126-.54.212a8.73 8.73 0 0 0-.525.278c-.174.099-.349.198-.52.31-.17.114-.34.232-.514.349-.17.118-.356.217-.538.33-.182.105-.366.212-.556.325a4.514 4.514 0 0 0-1.053.802c-.064.103-.139.19-.222.267a1.78 1.78 0 0 1-.263.217c-.187.13-.398.236-.608.344-.418.224-.825.488-1.039.97-.633.732-1.358 1.4-2.036 2.168-.89.59-1.312 1.62-1.872 2.533-.432.363-.779.8-1.025 1.301-.27.49-.436 1.043-.59 1.597-.894.826-1.317 1.978-1.262 3.24-.096.28-.178.566-.274.85-.089.287-.196.57-.266.867-.076.293-.147.59-.206.89-.044.304-.07.614-.077.926-.164 1.224-.22 2.478-.301 3.757.296 1.285.334 2.55.276 3.896.516 1.26.673 2.565.919 3.925.066.336.172.664.295.986.134.318.296.626.451.936.148.313.334.609.476.926.14.319.285.635.387.978.627 1.26 1.461 2.417 2.284 3.596.755 1.229 1.653 2.44 2.947 3.22 1.142.945 2.374 1.757 3.545 2.709 1.453.507 2.693 1.319 4.053 2.063 1.435.51 2.865 1.192 4.443 1.296 1.526.35 3.108.293 4.682.447 1.582.105 3.19.051 4.684-.447.742-.26 1.497-.412 2.246-.595.38-.077.75-.188 1.12-.296a6.95 6.95 0 0 0 1.077-.406c.19-.034.384-.073.568-.133a7.715 7.715 0 0 0 1.056-.45c.168-.092.332-.19.495-.288l.488-.298.474-.313c.16-.103.32-.203.483-.295.164-.096.322-.197.488-.285 1.247-.827 2.576-1.573 3.546-2.708 1.044-1.045 1.97-2.157 2.946-3.223.228-.728.657-1.28 1.102-1.84.231-.272.446-.553.654-.841.104-.144.207-.29.298-.442.085-.153.162-.31.231-.473.834-1.159 1.15-2.547 1.609-3.825.149-.667.397-1.299.578-1.95.05-.16.096-.325.143-.486.039-.163.073-.327.101-.492.055-.33.114-.659.096-.996.052-.327.09-.655.12-.983l.04-.978c.023-.326.01-.65.03-.972.02-.322.054-.643.088-.963a4.945 4.945 0 0 1-.102-.952 11.835 11.835 0 0 1-.008-.95c.016-.317-.005-.628-.025-.94a3.642 3.642 0 0 0-.17-.918c-.188-1.22-.52-2.387-.82-3.53a3.83 3.83 0 0 0-.12-.898 5.803 5.803 0 0 0-.32-.82 5.966 5.966 0 0 0-.193-.394l-.217-.376c-.145-.249-.279-.502-.412-.752a10.67 10.67 0 0 0-.846-1.45c-.289-.47-.589-.92-.769-1.448-.576-.905-1.073-1.868-1.872-2.533-.181-.182-.317-.4-.464-.608l-.415-.643a2.448 2.448 0 0 0-.489-.562 1.694 1.694 0 0 0-.67-.355c-.394-.28-.677-.671-.998-1.018a4.074 4.074 0 0 0-.512-.473 2.14 2.14 0 0 0-.29-.187 1.825 1.825 0 0 0-.332-.12c-.462-.128-.803-.394-1.144-.664-.166-.139-.326-.282-.489-.424a3.995 3.995 0 0 0-.513-.37l-.53-.32c-.177-.102-.354-.194-.529-.29l-.52-.282c-.173-.094-.349-.171-.52-.256a26.927 26.927 0 0 0-4.284-1.649l-.935-.251c-.3-.08-.595-.135-.873-.2-.555-.135-1.07-.206-1.529-.294a57.708 57.708 0 0 0-2.116-.293c-.481-.063-.735-.121-.735-.175 0-.058.311-.108.918-.15.15-.007.32-.022.506-.023.187.001.392.004.616.004.223.005.465.003.723.02.258.018.532.041.824.063a24.2 24.2 0 0 1 4.236.78 25.148 25.148 0 0 1 5.384 2.217c.19.106.396.192.599.292.2.1.405.197.61.302.411.206.794.478 1.111.85.196.133.394.268.592.405.202.135.406.27.61.408a5.8 5.8 0 0 1 1.118 1.005c.993.432 1.55 1.392 2.232 2.23.735.805 1.304 1.77 2.07 2.639.398.425.702.93.958 1.465.276.525.5 1.081.844 1.588.087.295.17.592.276.88.053.144.11.286.17.428.057.141.113.285.17.43.119.285.254.566.394.849.129.285.272.57.42.857.058.316.113.632.197.941.079.31.19.616.275.93.093.312.186.625.283.94.08.318.151.642.209.97a9.152 9.152 0 0 0-.01 1.01c.015.336.075.666.11 1.002.04.334.098.67.16 1.008.049.338.094.682.14 1.026.13 1.386-.102 2.79-.235 4.214-.27 1.406-.443 2.867-.94 4.27-.292 1.46-.83 2.905-1.7 4.176-.603 1.41-1.505 2.689-2.448 3.937-.839 1.339-2.03 2.424-3.182 3.535-.569.568-1.242 1.027-1.917 1.477-.33.237-.676.448-.997.696-.319.253-.64.504-.935.804-1.364.921-2.893 1.588-4.418 2.272-1.575.577-3.204 1.007-4.855 1.43-1.732-.04-3.379.347-5.117.494-1.731.102-3.455-.118-5.117-.494a22.617 22.617 0 0 1-4.854-1.43c-1.604-.525-2.961-1.522-4.419-2.272a6.883 6.883 0 0 1-1.045-.647c-.33-.245-.655-.49-.957-.763-.62-.526-1.203-1.08-1.846-1.567-1.252-1.008-2.384-2.169-3.183-3.535-.469-.63-.85-1.313-1.217-1.992-.196-.332-.37-.674-.573-.999a8.507 8.507 0 0 0-.318-.478 6.29 6.29 0 0 0-.34-.467c-.191-.332-.404-.652-.592-.984-.188-.332-.398-.655-.554-1a6.688 6.688 0 0 1-.412-1.059 4.514 4.514 0 0 1-.142-1.134c-.271-.691-.423-1.418-.525-2.14l-.09-.54a11.998 11.998 0 0 0-.08-.535c-.055-.359-.154-.704-.245-1.055a5.41 5.41 0 0 0 .024-1.077 9.855 9.855 0 0 0-.09-1.052c-.055-.348-.083-.696-.12-1.044a6.799 6.799 0 0 1-.048-1.04c.077-1.387.352-2.71.4-4.047.014-.333.055-.664.116-.99.075-.32.163-.636.256-.948.085-.315.207-.62.306-.926.103-.307.188-.615.282-.917a4.6 4.6 0 0 1 .257-.916c.123-.293.273-.57.417-.848.073-.139.146-.275.217-.413.077-.135.149-.27.215-.409.138-.274.243-.56.326-.857.298-.53.554-1.072.857-1.58.279-.521.602-1.01.946-1.474.046-.314.173-.578.317-.826.15-.247.32-.473.527-.67.404-.403.845-.754 1.225-1.143.75-.776 1.225-1.807 2.232-2.23.257-.474.628-.825 1.041-1.098.21-.135.427-.256.641-.373.107-.06.212-.12.318-.178.11-.055.216-.11.321-.17.418-.228.768-.536 1.142-.8a8.71 8.71 0 0 1 .56-.38c.194-.115.4-.2.617-.262.156-.166.332-.297.519-.405.188-.103.39-.175.59-.245.2-.07.4-.132.59-.206.192-.072.382-.142.553-.246.402-.085.752-.25 1.101-.394.35-.145.679-.325 1.028-.413.33-.144.66-.265.984-.366a7.85 7.85 0 0 1 .977-.184c.307-.085.613-.137.907-.195.293-.054.572-.12.85-.155 1.64-.273 2.93-.276 3.794-.275.867.044 1.313.103 1.313.172Z"/><path fill="#D7FE03" d="M58.937 71.501v-2.907c-1.445-.182-2.617-.504-3.525-.97-.91-.472-1.69-1.228-2.35-2.268-.66-1.047-1.04-2.316-1.151-3.822l2.901-.562c.228 1.57.625 2.717 1.197 3.45.814 1.035 1.792 1.61 2.928 1.732v-9.113c-1.189-.308-2.409-.817-3.652-1.51a5.339 5.339 0 0 1-2.129-2.14c-.5-.92-.75-1.954-.75-3.114 0-2.063.73-3.736 2.191-5.016.971-.856 2.419-1.387 4.34-1.577v-1.387h1.718v1.387c1.674.16 3.008.66 3.993 1.488 1.26 1.056 2.016 2.506 2.276 4.353l-2.97.461c-.173-1.152-.526-2.036-1.071-2.646-.54-.618-1.283-1.018-2.228-1.216v8.36c1.457.376 2.418.668 2.89.869.907.397 1.638.883 2.204 1.453a5.764 5.764 0 0 1 1.315 2.027c.3.779.452 1.636.452 2.548 0 2.007-.635 3.676-1.912 5.028-1.28 1.341-2.93 2.053-4.95 2.155V71.5h-1.717Zm0-25.41c-1.122.167-2.01.622-2.654 1.36-.65.731-.971 1.593-.971 2.594 0 .99.272 1.819.825 2.484.544.668 1.483 1.173 2.8 1.515v-7.952Zm1.718 20.063c1.126-.14 2.057-.626 2.79-1.469.734-.833 1.102-1.877 1.102-3.105 0-1.056-.258-1.9-.779-2.543-.521-.636-1.564-1.153-3.113-1.556v8.673Z"/></svg>