<svg xmlns="http://www.w3.org/2000/svg" width="474" height="970" fill="none"><g clip-path="url(#a)"><g filter="url(#b)"><rect width="4" height="106" fill="#565553" rx=".5" transform="matrix(-1 0 0 1 474 268)"/><rect width="4.5" height="106.5" x=".25" y="-.25" stroke="#000" stroke-width=".5" rx=".75" transform="matrix(-1 0 0 1 474.5 268)"/></g><g filter="url(#c)"><rect width="2.5" height="104.5" x=".25" y="-.25" stroke="#31302E" stroke-width=".5" rx=".35" transform="matrix(-1 0 0 1 473.5 269)"/></g><g filter="url(#d)"><rect width="2" height="7" fill="url(#e)" rx=".1" transform="matrix(-1 0 0 1 473 269)"/></g><g filter="url(#f)"><rect width="2" height="7" x="473" y="373" fill="url(#g)" rx=".1" transform="rotate(180 473 373)"/></g></g><g clip-path="url(#h)"><g filter="url(#i)"><rect width="4" height="31" y="181.149" fill="#565553" rx=".5"/><rect width="4.5" height="31.5" x="-.25" y="180.899" stroke="#000" stroke-width=".5" rx=".75"/></g><g filter="url(#j)"><rect width="2.5" height="29.5" x=".75" y="182.049" stroke="#31302E" stroke-width=".5" rx=".35"/></g><g filter="url(#k)"><rect width="2" height="4" x="1" y="182.299" fill="url(#l)" rx=".1"/></g><g filter="url(#m)"><rect width="2" height="4" fill="url(#n)" rx=".1" transform="matrix(1 0 0 -1 1 211.299)"/></g></g><g clip-path="url(#o)"><g filter="url(#p)"><rect width="4" height="68" y="244.149" fill="#565553" rx=".5"/><rect width="4.5" height="68.5" x="-.25" y="243.899" stroke="#000" stroke-width=".5" rx=".75"/></g><g filter="url(#q)"><rect width="2.5" height="66.5" x=".75" y="244.899" stroke="#31302E" stroke-width=".5" rx=".35"/></g><g filter="url(#r)"><rect width="3" height="7" x="1" y="245.149" fill="url(#s)" rx=".1"/></g><g filter="url(#t)"><rect width="3" height="7" fill="url(#u)" rx=".1" transform="matrix(1 0 0 -1 1 311.149)"/></g></g><g clip-path="url(#v)"><g filter="url(#w)"><rect width="4" height="68" y="330.149" fill="#565553" rx=".5"/><rect width="4.5" height="68.5" x="-.25" y="329.899" stroke="#000" stroke-width=".5" rx=".75"/></g><g filter="url(#x)"><rect width="2.336" height="66.336" x=".832" y="330.981" stroke="#31302E" stroke-width=".336" rx=".268"/></g><g filter="url(#y)"><rect width="3" height="7" x="1" y="331.149" fill="url(#z)" rx=".1"/></g><g filter="url(#A)"><rect width="3" height="7" fill="url(#B)" rx=".1" transform="matrix(1 0 0 -1 1 397.149)"/></g></g><rect width="468" height="970" x="3" fill="#000" rx="70"/><rect width="460" height="962" x="7" y="4" stroke="#565553" stroke-width="4" rx="68"/><rect width="466" height="968" x="4" y="1" stroke="#3F3E3B" stroke-width="2" rx="69"/><g filter="url(#C)" opacity=".9"><rect width="464" height="966" x="5" y="2" stroke="#31302E" stroke-width="2" rx="69"/></g><g filter="url(#D)" opacity=".8"><rect width="453" height="953" x="10.5" y="8.5" stroke="#646464" rx="64.5"/></g><g clip-path="url(#E)"><rect width="430" height="932" x="22" y="18" fill="#fff" fill-opacity=".1" rx="55.47"/><rect width="134" height="5" x="170" y="937" fill="#000" rx="2.5"/><path fill="#fff" d="M79.767 38.723c2.556 0 4.78 1.818 4.78 6.134v.017c0 4.034-1.817 6.425-4.83 6.425-2.2 0-3.843-1.303-4.225-3.138l-.017-.091h2.109l.024.083c.316.838 1.055 1.386 2.109 1.386 1.9 0 2.706-1.86 2.797-4.15 0-.092.008-.183.008-.274h-.166c-.44.946-1.485 1.784-3.129 1.784-2.3 0-3.91-1.676-3.91-3.95v-.017c0-2.433 1.852-4.209 4.45-4.209Zm-.009 6.533c1.353 0 2.39-.98 2.39-2.333v-.016c0-1.37-1.037-2.44-2.365-2.44a2.367 2.367 0 0 0-2.374 2.39v.017c0 1.386.988 2.382 2.35 2.382Zm8.558-2.017c-.755 0-1.32-.581-1.32-1.312a1.29 1.29 0 0 1 1.32-1.311c.764 0 1.32.572 1.32 1.311a1.29 1.29 0 0 1-1.32 1.312Zm0 6.159a1.29 1.29 0 0 1-1.32-1.312 1.29 1.29 0 0 1 1.32-1.311c.764 0 1.32.573 1.32 1.311 0 .74-.556 1.312-1.32 1.312ZM97.896 51v-2.3h-5.86v-1.75a159.518 159.518 0 0 1 4.88-7.928h3.03v7.91h1.61v1.769h-1.61V51h-2.05Zm-3.869-4.018h3.902v-6.25h-.125a124.04 124.04 0 0 0-3.777 6.126v.124ZM106.52 51v-9.87h-.141l-2.98 2.109v-2.017l3.129-2.2h2.134V51h-2.142Z"/><path fill="#fff" fill-rule="evenodd" d="M359.532 40.033c0-.633-.478-1.146-1.067-1.146h-1.066c-.589 0-1.067.513-1.067 1.146v9.934c0 .633.478 1.146 1.067 1.146h1.066c.589 0 1.067-.513 1.067-1.146v-9.934Zm-7.434 1.299h1.067c.589 0 1.066.526 1.066 1.174v7.433c0 .649-.477 1.174-1.066 1.174h-1.067c-.589 0-1.067-.525-1.067-1.174v-7.433c0-.648.478-1.174 1.067-1.174Zm-4.332 2.649h-1.067c-.589 0-1.066.532-1.066 1.189v4.754c0 .657.477 1.19 1.066 1.19h1.067c.589 0 1.067-.533 1.067-1.19V45.17c0-.657-.478-1.189-1.067-1.189Zm-5.301 2.445h-1.066c-.589 0-1.067.525-1.067 1.172v2.343c0 .648.478 1.172 1.067 1.172h1.066c.589 0 1.067-.524 1.067-1.172v-2.343c0-.647-.478-1.172-1.067-1.172Zm33.638-5.124c2.487 0 4.879.922 6.681 2.576a.356.356 0 0 0 .487-.004l1.297-1.263a.343.343 0 0 0 .105-.248.342.342 0 0 0-.108-.246c-4.731-4.375-12.195-4.375-16.926 0a.346.346 0 0 0-.108.246c0 .093.037.182.105.248l1.298 1.263c.133.13.351.132.486.004 1.803-1.654 4.195-2.576 6.683-2.576Zm-.004 4.22a5.43 5.43 0 0 1 3.673 1.436c.136.131.35.129.483-.006l1.287-1.32a.367.367 0 0 0-.005-.52 7.9 7.9 0 0 0-10.873.002.367.367 0 0 0-.005.519l1.287 1.319a.342.342 0 0 0 .483.006 5.43 5.43 0 0 1 3.67-1.435Zm2.525 2.794a.408.408 0 0 1-.103.28l-2.176 2.456a.324.324 0 0 1-.242.112.324.324 0 0 1-.242-.113l-2.177-2.454a.408.408 0 0 1-.102-.281.403.403 0 0 1 .113-.276c1.39-1.314 3.426-1.314 4.816 0 .07.07.111.17.113.276Z" clip-rule="evenodd"/><rect width="24" height="12" x="393.172" y="39" stroke="#fff" opacity=".35" rx="3.8"/><path fill="#fff" d="M418.672 43.281v4.076A2.211 2.211 0 0 0 420 45.319c0-.89-.523-1.693-1.328-2.038Z" opacity=".4"/><rect width="21" height="9" x="394.672" y="40.5" fill="#fff" rx="2.5"/></g><rect width="124" height="36" x="167" y="32" fill="#000" rx="18"/><g opacity=".75"><rect width="17.328" height="17.328" x="257.336" y="41.336" fill="#121212" rx="8.664"/><rect width="17.328" height="17.328" x="257.336" y="41.336" stroke="#0E0E0E" stroke-width=".672" rx="8.664"/><g filter="url(#F)"><path fill="#50A99A" d="M264 46c-3.411.889-4.548 6 0 8-1.137-2.667-1.137-5.111 0-8Z"/></g><g filter="url(#G)"><path fill="#50A99A" d="M263.25 47.846c-1.706.478-2.274 3.23 0 4.307-.569-1.435-.569-2.752 0-4.307Z"/></g><g filter="url(#H)" opacity=".4"><path fill="#D0FFF7" d="M263.954 47.151c-1.462.196-2.53 3.791-.764 4.746-.625-1.282-.313-3.846.764-4.746Z"/></g><g filter="url(#I)"><path fill="#3E518C" d="M267 46c3.411.889 4.548 6 0 8 1.137-2.667 1.137-5.111 0-8Z"/></g><g filter="url(#J)"><path fill="#26408D" d="M267.75 47.846c1.706.478 2.274 3.23 0 4.307.569-1.435.569-2.752 0-4.307Z"/></g><g filter="url(#K)" opacity=".5"><path fill="#0D308C" d="M267.046 47.151c1.462.196 2.53 3.791.764 4.746.625-1.282.313-3.846-.764-4.746Z"/></g></g><path fill="#7C7C7C" d="M3 793h7.601v5H3zM463.398 90h7.601v6h-7.601zM3 90h7.601v5H3zM374.363 0h6.515v7h-6.515zm89.035 792h7.601v6h-7.601z" opacity=".75" style="mix-blend-mode:screen"/><defs><filter id="b" width="5.672" height="107.672" x="469.164" y="267.164" color-interpolation-filters="sRGB" filterUnits="userSpaceOnUse"><feFlood flood-opacity="0" result="BackgroundImageFix"/><feBlend in="SourceGraphic" in2="BackgroundImageFix" result="shape"/><feGaussianBlur result="effect1_foregroundBlur_1601_10596" stdDeviation=".168"/></filter><filter id="c" width="3.672" height="105.672" x="470.164" y="268.164" color-interpolation-filters="sRGB" filterUnits="userSpaceOnUse"><feFlood flood-opacity="0" result="BackgroundImageFix"/><feBlend in="SourceGraphic" in2="BackgroundImageFix" result="shape"/><feGaussianBlur result="effect1_foregroundBlur_1601_10596" stdDeviation=".168"/></filter><filter id="d" width="2.672" height="7.672" x="470.664" y="268.664" color-interpolation-filters="sRGB" filterUnits="userSpaceOnUse"><feFlood flood-opacity="0" result="BackgroundImageFix"/><feBlend in="SourceGraphic" in2="BackgroundImageFix" result="shape"/><feGaussianBlur result="effect1_foregroundBlur_1601_10596" stdDeviation=".168"/></filter><filter id="f" width="2.672" height="7.672" x="470.664" y="365.664" color-interpolation-filters="sRGB" filterUnits="userSpaceOnUse"><feFlood flood-opacity="0" result="BackgroundImageFix"/><feBlend in="SourceGraphic" in2="BackgroundImageFix" result="shape"/><feGaussianBlur result="effect1_foregroundBlur_1601_10596" stdDeviation=".168"/></filter><filter id="i" width="5.672" height="32.672" x="-.836" y="180.313" color-interpolation-filters="sRGB" filterUnits="userSpaceOnUse"><feFlood flood-opacity="0" result="BackgroundImageFix"/><feBlend in="SourceGraphic" in2="BackgroundImageFix" result="shape"/><feGaussianBlur result="effect1_foregroundBlur_1601_10596" stdDeviation=".168"/></filter><filter id="j" width="3.672" height="30.672" x=".164" y="181.463" color-interpolation-filters="sRGB" filterUnits="userSpaceOnUse"><feFlood flood-opacity="0" result="BackgroundImageFix"/><feBlend in="SourceGraphic" in2="BackgroundImageFix" result="shape"/><feGaussianBlur result="effect1_foregroundBlur_1601_10596" stdDeviation=".168"/></filter><filter id="k" width="2.672" height="4.672" x=".664" y="181.963" color-interpolation-filters="sRGB" filterUnits="userSpaceOnUse"><feFlood flood-opacity="0" result="BackgroundImageFix"/><feBlend in="SourceGraphic" in2="BackgroundImageFix" result="shape"/><feGaussianBlur result="effect1_foregroundBlur_1601_10596" stdDeviation=".168"/></filter><filter id="m" width="2.672" height="4.672" x=".664" y="206.963" color-interpolation-filters="sRGB" filterUnits="userSpaceOnUse"><feFlood flood-opacity="0" result="BackgroundImageFix"/><feBlend in="SourceGraphic" in2="BackgroundImageFix" result="shape"/><feGaussianBlur result="effect1_foregroundBlur_1601_10596" stdDeviation=".168"/></filter><filter id="p" width="5.672" height="69.672" x="-.836" y="243.313" color-interpolation-filters="sRGB" filterUnits="userSpaceOnUse"><feFlood flood-opacity="0" result="BackgroundImageFix"/><feBlend in="SourceGraphic" in2="BackgroundImageFix" result="shape"/><feGaussianBlur result="effect1_foregroundBlur_1601_10596" stdDeviation=".168"/></filter><filter id="q" width="3.672" height="67.672" x=".164" y="244.313" color-interpolation-filters="sRGB" filterUnits="userSpaceOnUse"><feFlood flood-opacity="0" result="BackgroundImageFix"/><feBlend in="SourceGraphic" in2="BackgroundImageFix" result="shape"/><feGaussianBlur result="effect1_foregroundBlur_1601_10596" stdDeviation=".168"/></filter><filter id="r" width="3.672" height="7.672" x=".664" y="244.813" color-interpolation-filters="sRGB" filterUnits="userSpaceOnUse"><feFlood flood-opacity="0" result="BackgroundImageFix"/><feBlend in="SourceGraphic" in2="BackgroundImageFix" result="shape"/><feGaussianBlur result="effect1_foregroundBlur_1601_10596" stdDeviation=".168"/></filter><filter id="t" width="3.672" height="7.672" x=".664" y="303.813" color-interpolation-filters="sRGB" filterUnits="userSpaceOnUse"><feFlood flood-opacity="0" result="BackgroundImageFix"/><feBlend in="SourceGraphic" in2="BackgroundImageFix" result="shape"/><feGaussianBlur result="effect1_foregroundBlur_1601_10596" stdDeviation=".168"/></filter><filter id="w" width="5.672" height="69.672" x="-.836" y="329.313" color-interpolation-filters="sRGB" filterUnits="userSpaceOnUse"><feFlood flood-opacity="0" result="BackgroundImageFix"/><feBlend in="SourceGraphic" in2="BackgroundImageFix" result="shape"/><feGaussianBlur result="effect1_foregroundBlur_1601_10596" stdDeviation=".168"/></filter><filter id="x" width="3.344" height="67.344" x=".328" y="330.477" color-interpolation-filters="sRGB" filterUnits="userSpaceOnUse"><feFlood flood-opacity="0" result="BackgroundImageFix"/><feBlend in="SourceGraphic" in2="BackgroundImageFix" result="shape"/><feGaussianBlur result="effect1_foregroundBlur_1601_10596" stdDeviation=".168"/></filter><filter id="y" width="3.672" height="7.672" x=".664" y="330.813" color-interpolation-filters="sRGB" filterUnits="userSpaceOnUse"><feFlood flood-opacity="0" result="BackgroundImageFix"/><feBlend in="SourceGraphic" in2="BackgroundImageFix" result="shape"/><feGaussianBlur result="effect1_foregroundBlur_1601_10596" stdDeviation=".168"/></filter><filter id="A" width="3.672" height="7.672" x=".664" y="389.813" color-interpolation-filters="sRGB" filterUnits="userSpaceOnUse"><feFlood flood-opacity="0" result="BackgroundImageFix"/><feBlend in="SourceGraphic" in2="BackgroundImageFix" result="shape"/><feGaussianBlur result="effect1_foregroundBlur_1601_10596" stdDeviation=".168"/></filter><filter id="C" width="468.017" height="970.017" x="2.992" y="-.008" color-interpolation-filters="sRGB" filterUnits="userSpaceOnUse"><feFlood flood-opacity="0" result="BackgroundImageFix"/><feBlend in="SourceGraphic" in2="BackgroundImageFix" result="shape"/><feGaussianBlur result="effect1_foregroundBlur_1601_10596" stdDeviation=".504"/></filter><filter id="D" width="455.345" height="955.345" x="9.328" y="7.328" color-interpolation-filters="sRGB" filterUnits="userSpaceOnUse"><feFlood flood-opacity="0" result="BackgroundImageFix"/><feBlend in="SourceGraphic" in2="BackgroundImageFix" result="shape"/><feGaussianBlur result="effect1_foregroundBlur_1601_10596" stdDeviation=".336"/></filter><filter id="F" width="6.746" height="11.746" x="259.127" y="44.127" color-interpolation-filters="sRGB" filterUnits="userSpaceOnUse"><feFlood flood-opacity="0" result="BackgroundImageFix"/><feBlend in="SourceGraphic" in2="BackgroundImageFix" result="shape"/><feGaussianBlur result="effect1_foregroundBlur_1601_10596" stdDeviation=".936"/></filter><filter id="G" width="5.246" height="8.053" x="259.877" y="45.973" color-interpolation-filters="sRGB" filterUnits="userSpaceOnUse"><feFlood flood-opacity="0" result="BackgroundImageFix"/><feBlend in="SourceGraphic" in2="BackgroundImageFix" result="shape"/><feGaussianBlur result="effect1_foregroundBlur_1601_10596" stdDeviation=".936"/></filter><filter id="H" width="4.181" height="7.243" x="261.021" y="45.903" color-interpolation-filters="sRGB" filterUnits="userSpaceOnUse"><feFlood flood-opacity="0" result="BackgroundImageFix"/><feBlend in="SourceGraphic" in2="BackgroundImageFix" result="shape"/><feGaussianBlur result="effect1_foregroundBlur_1601_10596" stdDeviation=".624"/></filter><filter id="I" width="6.746" height="11.746" x="265.127" y="44.127" color-interpolation-filters="sRGB" filterUnits="userSpaceOnUse"><feFlood flood-opacity="0" result="BackgroundImageFix"/><feBlend in="SourceGraphic" in2="BackgroundImageFix" result="shape"/><feGaussianBlur result="effect1_foregroundBlur_1601_10596" stdDeviation=".936"/></filter><filter id="J" width="5.246" height="8.053" x="265.877" y="45.973" color-interpolation-filters="sRGB" filterUnits="userSpaceOnUse"><feFlood flood-opacity="0" result="BackgroundImageFix"/><feBlend in="SourceGraphic" in2="BackgroundImageFix" result="shape"/><feGaussianBlur result="effect1_foregroundBlur_1601_10596" stdDeviation=".936"/></filter><filter id="K" width="4.181" height="7.243" x="265.798" y="45.903" color-interpolation-filters="sRGB" filterUnits="userSpaceOnUse"><feFlood flood-opacity="0" result="BackgroundImageFix"/><feBlend in="SourceGraphic" in2="BackgroundImageFix" result="shape"/><feGaussianBlur result="effect1_foregroundBlur_1601_10596" stdDeviation=".624"/></filter><linearGradient id="e" x1="1" x2="1" y1="0" y2="7" gradientUnits="userSpaceOnUse"><stop stop-color="#2D2E2A"/><stop offset=".76" stop-color="#565553"/></linearGradient><linearGradient id="g" x1="474" x2="474" y1="373" y2="380" gradientUnits="userSpaceOnUse"><stop stop-color="#2D2E2A"/><stop offset=".76" stop-color="#565553"/></linearGradient><linearGradient id="l" x1="2" x2="2" y1="182.299" y2="186.299" gradientUnits="userSpaceOnUse"><stop stop-color="#2D2E2A"/><stop offset=".76" stop-color="#565553"/></linearGradient><linearGradient id="n" x1="1" x2="1" y1="0" y2="4" gradientUnits="userSpaceOnUse"><stop stop-color="#2D2E2A"/><stop offset=".76" stop-color="#565553"/></linearGradient><linearGradient id="s" x1="2.5" x2="2.5" y1="245.149" y2="252.149" gradientUnits="userSpaceOnUse"><stop stop-color="#2D2E2A"/><stop offset=".76" stop-color="#565553"/></linearGradient><linearGradient id="u" x1="1.5" x2="1.5" y1="0" y2="7" gradientUnits="userSpaceOnUse"><stop stop-color="#2D2E2A"/><stop offset=".76" stop-color="#565553"/></linearGradient><linearGradient id="z" x1="2.5" x2="2.5" y1="331.149" y2="338.149" gradientUnits="userSpaceOnUse"><stop stop-color="#2D2E2A"/><stop offset=".76" stop-color="#565553"/></linearGradient><linearGradient id="B" x1="1.5" x2="1.5" y1="0" y2="7" gradientUnits="userSpaceOnUse"><stop stop-color="#2D2E2A"/><stop offset=".76" stop-color="#565553"/></linearGradient><clipPath id="a"><path fill="#fff" d="M474 268.5a.5.5 0 0 0-.5-.5H471v106h2.5a.5.5 0 0 0 .5-.5v-105Z"/></clipPath><clipPath id="h"><path fill="#fff" d="M0 181.649a.5.5 0 0 1 .5-.5H4v31H.5a.5.5 0 0 1-.5-.5v-30Z"/></clipPath><clipPath id="o"><path fill="#fff" d="M0 244.649a.5.5 0 0 1 .5-.5H3v68H.5a.5.5 0 0 1-.5-.5v-67Z"/></clipPath><clipPath id="v"><path fill="#fff" d="M0 330.649a.5.5 0 0 1 .5-.5H3v68H.5a.5.5 0 0 1-.5-.5v-67Z"/></clipPath><clipPath id="E"><rect width="430" height="932" x="22" y="18" fill="#fff" rx="55.47"/></clipPath></defs></svg>