<svg xmlns="http://www.w3.org/2000/svg" width="97" height="111" fill="none"><path fill="#D7FE03" d="M48.512 12.485c0-.068.69-.117 2.023-.151 1.328.034 3.308.073 5.824.516.421.06.852.164 1.3.25.448.093.914.176 1.386.306.476.117.968.231 1.472.36.498.152 1.008.317 1.528.497.247.126.504.228.776.313.27.083.551.151.835.221.572.133 1.141.331 1.641.705.267.145.548.27.826.411.277.144.56.281.85.417.286.137.583.265.876.408l.883.444c.297.154.596.308.881.494l.86.567c.584.37 1.151.786 1.794 1.128.172.067.338.148.497.24.153.1.299.21.44.327.284.234.548.497.813.758.274.255.52.543.811.785.287.247.604.464.97.634 1.2.974 2.34 2.102 3.393 3.359.885 1.39 2.11 2.561 3.142 3.962.335.818.783 1.562 1.238 2.324.482.742.966 1.5 1.493 2.256.105.455.212.908.361 1.343.071.217.152.434.239.647.083.215.16.431.25.644.18.426.389.843.613 1.26.209.424.442.845.7 1.261.17.449.28.916.406 1.379.12.467.256.932.35 1.41.102.476.21.95.334 1.427.106.48.218.96.356 1.441.106.486.175.981.251 1.478.068.496.167.994.2 1.5.047.505.09 1.013.128 1.523.017.513.016 1.028.01 1.544.102.515.138 1.036.162 1.559.019.525.044 1.051-.008 1.578-.04.526-.096 1.056-.173 1.583-.1.525-.22 1.05-.354 1.572.007 2.167-.613 4.308-1.445 6.366-.225.51-.41 1.033-.58 1.565a801.39 801.39 0 0 0-.548 1.59l-.14.4-.159.394c-.108.26-.22.521-.336.781a9.044 9.044 0 0 1-.837 1.495c-1.079 2.012-2.255 4.029-3.737 5.866-1.547 1.793-3.262 3.426-4.848 5.264-1.738 1.68-3.654 3.267-5.862 4.432-1.926 1.604-4.294 2.627-6.724 3.38-2.35.982-4.885 1.463-7.382 2.129-2.547.43-5.144.88-7.783.736-2.633-.109-5.205-.453-7.784-.737-1.293-.135-2.553-.452-3.773-.85-.618-.177-1.214-.419-1.814-.628-.606-.202-1.194-.443-1.797-.652-.279-.154-.567-.286-.85-.43a18.931 18.931 0 0 0-.85-.414c-.285-.13-.577-.253-.865-.379l-.855-.391-.86-.386a30.988 30.988 0 0 1-.836-.428c-.277-.145-.55-.292-.824-.446-.27-.155-.525-.333-.781-.508-2.132-1.29-3.952-2.94-5.86-4.431-1.836-1.58-3.527-3.31-4.851-5.265-.913-.79-1.581-1.772-2.133-2.799-.295-.501-.534-1.034-.794-1.548-.13-.257-.268-.51-.401-.763-.13-.257-.263-.51-.41-.756-.217-.53-.462-1.043-.683-1.564a29.34 29.34 0 0 0-.354-.77l-.185-.382-.165-.387c-.22-.519-.455-1.028-.663-1.548a32.962 32.962 0 0 1-.545-1.575 19.99 19.99 0 0 1-.818-3.19l-.157-.8a83.03 83.03 0 0 1-.136-.798c-.047-.266-.1-.528-.159-.792l-.093-.393-.085-.392a43.661 43.661 0 0 0-.21-1.586 263.86 263.86 0 0 0-.161-1.58c-.063-.524-.063-1.047-.073-1.57-.006-.523 0-1.041.072-1.559a11.054 11.054 0 0 1-.032-1.542c.045-.513.113-1.02.182-1.521.06-.504.18-.998.252-1.495.079-.496.134-.991.19-1.486.088-.488.178-.975.266-1.458.114-.48.227-.955.338-1.43.102-.476.257-.938.39-1.399.146-.46.272-.923.451-1.366.25-.422.455-.85.632-1.287.19-.429.363-.862.519-1.301l.232-.656c.082-.214.168-.429.25-.645.172-.426.33-.859.531-1.266.441-.799.796-1.63 1.239-2.403.41-.79.909-1.524 1.494-2.178 1.016-1.41 2.166-2.644 3.143-3.963a6.74 6.74 0 0 1 .861-.87l.939-.763c.301-.26.61-.507.884-.783.275-.278.516-.583.71-.94a8.12 8.12 0 0 1 .883-.73c.312-.223.614-.448.936-.64.316-.203.624-.407.911-.633.144-.113.28-.233.413-.357.138-.12.267-.248.39-.384a5.905 5.905 0 0 1 1.704-1.266c.308-.163.618-.316.922-.47.306-.154.618-.289.907-.452l.867-.473c.289-.152.582-.286.869-.426l.85-.412c.282-.135.57-.248.849-.37a40.1 40.1 0 0 1 6.954-2.26c.522-.108 1.024-.21 1.507-.308.481-.096.952-.15 1.397-.22.888-.152 1.71-.202 2.44-.275 1.463-.1 2.584-.121 3.343-.076.755.032 1.144.072 1.144.123 0 .059-.48.127-1.399.205-.23.024-.488.033-.77.066-.284.035-.594.073-.93.11-.337.044-.701.072-1.088.129l-1.233.194c-1.74.296-3.873.73-6.285 1.518a40.32 40.32 0 0 0-7.879 3.552c-.276.165-.555.332-.821.528-.264.195-.534.391-.802.59-.552.377-1.096.782-1.738 1.085-.142.097-.286.201-.426.305l-.405.338-.813.695c-.28.225-.538.48-.822.712-.277.235-.572.457-.878.673-.842 1.266-2.15 2.108-3.198 3.297-1.041 1.178-2.118 2.412-2.946 3.858-.367.755-.862 1.433-1.306 2.16a13.32 13.32 0 0 0-1.238 2.267c-.251.364-.456.753-.667 1.144-.103.194-.204.394-.3.595-.095.201-.172.412-.255.62-.158.416-.314.84-.445 1.27-.12.438-.227.883-.327 1.327-.21.41-.348.848-.485 1.288-.13.443-.263.886-.343 1.347-.084.458-.169.917-.258 1.38-.067.462-.134.928-.223 1.395-.177.45-.28.918-.364 1.39-.08.475-.161.953-.17 1.44-.02.484-.027.972-.029 1.46.016.491.048.98.068 1.472.007.493.039.985.055 1.48.02.494.005.996.047 1.493.032.498.058 1.001.096 1.503.062.502.133 1.003.218 1.505.238 2.026.844 4.015 1.424 6.03.794 1.956 1.679 3.877 2.51 5.88 1.101 1.865 2.209 3.763 3.572 5.532 1.46 1.685 2.886 3.444 4.613 4.958.877.74 1.7 1.548 2.601 2.285.436.385.918.718 1.402 1.045a9.07 9.07 0 0 0 1.553.84c2.016 1.198 4.097 2.362 6.359 3.176 2.213.915 4.548 1.642 6.97 2 2.342.81 4.875.827 7.351.69 2.483-.109 4.935-.287 7.35-.689a44.855 44.855 0 0 0 6.97-1.999c2.184-.968 4.436-1.81 6.359-3.176.474-.343.97-.654 1.445-.992.477-.332.977-.632 1.443-.979.954-.662 1.866-1.376 2.669-2.196 1.628-1.614 3.112-3.299 4.615-4.958.67-.887 1.389-1.739 2.017-2.65.33-.442.61-.915.877-1.393.132-.24.262-.481.379-.727.108-.25.207-.505.299-.763.234-.488.456-.98.632-1.488.094-.25.189-.501.282-.752l.143-.374.13-.376c.173-.5.373-.99.589-1.471.201-.489.437-.96.73-1.42.244-1.023.607-2.002.874-3.002l.209-.747c.059-.251.11-.505.156-.757.047-.253.09-.504.125-.758l.047-.381c.01-.127.013-.255.016-.383.159-.491.272-.99.355-1.49.062-.503.09-1.006.109-1.508.03-.502-.007-1.005-.015-1.5-.013-.498-.013-.99-.034-1.481.068-1.967-.028-3.918-.494-5.764a17.1 17.1 0 0 1-.314-1.378 32.879 32.879 0 0 1-.287-1.37c-.077-.458-.197-.904-.308-1.35-.117-.443-.224-.89-.397-1.313a9.12 9.12 0 0 1-.49-1.266c-.149-.425-.29-.85-.424-1.275-.069-.213-.132-.428-.208-.637a16.744 16.744 0 0 0-.253-.612c-.179-.404-.364-.804-.616-1.167-.387-.781-.776-1.55-1.227-2.273-.421-.74-.894-1.437-1.317-2.153a6.655 6.655 0 0 1-.89-.89c-.26-.313-.471-.662-.703-.99-.226-.336-.435-.68-.65-1.019a8.507 8.507 0 0 0-.704-.962 8.485 8.485 0 0 0-.794-.86c-.29-.262-.579-.52-.864-.778-.276-.264-.564-.512-.828-.78a5.455 5.455 0 0 1-.71-.878 6.332 6.332 0 0 1-.952-.594c-.293-.216-.552-.469-.825-.699a21.583 21.583 0 0 1-.783-.73c-.128-.122-.254-.245-.382-.365a11.068 11.068 0 0 0-2.107-1.468 17.294 17.294 0 0 1-.852-.515c-.275-.18-.552-.349-.804-.556a4.61 4.61 0 0 1-.879-.392 13.043 13.043 0 0 1-.808-.47c-.262-.164-.521-.332-.781-.488a4.92 4.92 0 0 0-.815-.375 7.255 7.255 0 0 0-1.566-.746l-.79-.28-.764-.283a20.317 20.317 0 0 1-1.492-.464c-.485-.146-.95-.304-1.397-.48-.455-.147-.907-.247-1.341-.358-.434-.102-.851-.226-1.259-.305-4.904-1.037-7.703-.934-7.692-1.134Z"/><path fill="#D7FE03" d="M48.523 26.93c-.142 0-.276-.104-.402-.292-.021-.032-.042-.064-.061-.102-.037-.036-.077-.074-.061-.116.185-.04-.343-.082-.058-.127.086-.045.007-.094-.056-.143-.062-.049.119-.1-.052-.152-.362-.055.402-.11-.052-.167-.097-.058-.07-.115-.048-.176.276-.062.002-.123-.046-.189.333-.064.189-.13-.043-.198.457-.068.387-.136-.041-.21-.015-.068.164-.142-.039-.215-.028-.074-.115-.149-.035-.227-.305-.078-.29-.155-.03-.235-.328-.079-.2-.16-.028-.243.182-.081-.288-.165-.027-.25.021-.083-.073-.17-.02-.256.135-.089.285-.176-.017-.265-.083-.089-.192-.179-.016-.269-.348-.09-.194-.183-.01-.276-.057-.091.19-.186-.005-.28.055-.093-.156-.187-.001-.285.105-.094.205-.19.001-.283-.225-.095.092-.189.005-.28.328-.095-.108-.185.01-.276-.032-.092.192-.18.016-.27-.062-.09-.124-.176.017-.263-.504-.089.128-.174.02-.259.215-.083-.03-.167.027-.25-.094-.08.232-.163.028-.241.042-.081-.164-.16.03-.237-.25-.075.212-.152.035-.226.001-.073-.015-.146.039-.216.393-.072.068-.141.04-.208.042-.07-.222-.135.044-.199.032-.065.205-.126.046-.188-.057-.061.572-.12.048-.177-.093-.058.403-.113.052-.166-.325-.054.04-.105.052-.155.02-.048.04-.094.056-.14.17-.406.37-.638.582-.638.234 0 .452.287.634.778.018.05.294.101.054.155 0 .053.209.108.05.166.364.057.067.116.05.177.017.062-.1.123.046.188.21.064-.106.13.042.199-.223.067-.164.136.041.208-.219.07.048.143.039.216-.336.074-.1.15.034.226.123.078-.05.156.032.237-.065.078.084.16.027.242.159.082.217.166.027.25.108.084.021.17.021.258.133.087-.019.174.017.262.07.09-.357.18.015.27.047.092-.059.182.01.277-.047.091-.097.185.006.28-.367.093-.141.189.001.283.106.098.052.192-.001.286.037.093.017.188-.007.28.108.092-.158.185-.01.275.157.09-.166.18-.014.27.106.088.164.175-.017.264 0 .085-.335.173-.021.256.07.085.486.169-.027.25.13.082-.245.164-.027.243-.374.08-.02.157-.032.235-.073.078-.197.153-.034.227.178.073-.098.147-.039.216.216.073-.281.141-.041.209-.048.068.034.134-.042.198.504.066-.004.127-.046.189-.074.061.333.118-.05.176.383.058.052.112-.05.167-.111.051.16.103-.054.152.27.05-.15.098-.056.143-.177.045-.01.088-.057.127.06.042.039.08-.06.116-.021.038-.043.07-.061.102-.124.188-.26.292-.4.292Zm12.516 3.295c-.122-.07-.187-.224-.2-.45v-.118c-.014-.05-.029-.102.006-.128.183.054-.255-.242.017-.142.095.003.052-.075.023-.149-.03-.075.155-.028.034-.159-.286-.223.404.103.04-.168-.056-.1-.003-.136.049-.178.27.082.064-.106.054-.186.322.107.23-.02.065-.193.429.166.405.07.072-.2.022-.07.214-.044.077-.208.012-.078-.023-.185.085-.213-.224-.216-.173-.277.092-.218-.241-.23-.087-.236.1-.224.203.018-.164-.285.108-.229.06-.064.021-.184.112-.234.161-.008.337-.01.12-.236-.024-.118-.075-.25.126-.24-.256-.252-.076-.254.132-.244-.003-.108.258-.068.137-.247.093-.055-.036-.239.145-.247.139-.032.276-.064.147-.245-.147-.192.176-.118.148-.24.33.08.001-.212.15-.233.017-.093.255-.064.15-.226-.008-.107-.019-.214.15-.22-.393-.323.2-.087.149-.212.227.03.058-.161.15-.206-.041-.116.286-.027.148-.196.079-.047-.06-.216.147-.188-.176-.188.261-.028.147-.179.038-.062.06-.134.144-.17.376.131.129-.088.14-.16.073-.038-.124-.225.14-.15.06-.04.243-.01.135-.142-.018-.08.558.178.134-.129-.053-.094.405.1.128-.117-.252-.206.088-.071.125-.108.043-.032.082-.064.12-.094.355-.268.645-.373.83-.269.2.115.243.47.15.985-.01.053.202.233-.032.162-.028.045.125.195-.04.166.287.229-.002.136-.05.18-.015.06-.148.057-.055.183.15.161-.157.062-.064.194-.228-.051-.214.039-.07.2-.226-.046-.034.147-.08.207-.329-.1-.162.081-.085.213.067.128-.123.11-.093.22-.096.038-.007.181-.099.224.095.148.104.251-.106.23.052.126-.07.156-.114.232.073.14-.104.143-.118.237.014.111-.402-.02-.127.24-.004.104-.143.13-.13.244-.089.057-.18.113-.138.245-.365-.098-.219.094-.144.247.043.135-.053.191-.148.246-.015.1-.08.172-.148.242.045.131-.23.082-.15.232.089.156-.235.075-.15.226.048.13.053.234-.15.221-.045.074-.377-.016-.149.213.019.106.335.383-.15.204.068.132-.297.02-.148.196-.366-.117-.1.126-.148.186-.102.032-.251.037-.146.18.116.151-.16.08-.144.17.148.166-.315-.015-.14.16-.078.034-.043.132-.141.151.404.304-.067.108-.135.14-.096.017.227.267-.133.13.301.235-.014.122-.13.117-.12-.008.087.17-.123.109.206.173-.18.009-.122.094-.176-.047-.052.07-.116.083.032.066-.005.088-.11.07a.925.925 0 0 1-.106.058c-.204.105-.373.127-.494.058ZM70.2 39.21c-.07-.118-.045-.285.059-.487a1.42 1.42 0 0 1 .058-.102c.012-.05.028-.103.072-.108.13.137-.098-.334.086-.112.08.047.084-.042.096-.12.013-.08.148.05.11-.122-.134-.334.298.288.122-.127.001-.11.068-.119.132-.13.192.205.11-.06.142-.132.224.25.21.095.154-.135.288.354.314.259.162-.14.056-.048.208.068.174-.14.052-.062.076-.172.184-.143-.086-.298-.008-.325.19-.144-.092-.32.046-.248.203-.147.164.115.003-.326.208-.145.084-.025.113-.15.216-.148.144.07.299.154.224-.148.037-.112.064-.25.232-.145-.095-.342.064-.258.239-.147.053-.094.258.068.242-.145.111 0 .092-.225.252-.144.136.042.272.08.252-.141-.028-.237.212-.015.25-.136.248.234.112-.18.25-.127.063-.074.255.07.246-.122.048-.097.093-.195.24-.118-.174-.472.217.023.24-.11.181.139.133-.112.234-.104.024-.12.259.115.227-.098.092-.004.06-.217.225-.09-.057-.25.239.103.218-.085.066-.034.12-.087.209-.076.26.298.159-.013.205-.07.082.002.007-.255.198-.062.073-.005.214.11.189-.054.025-.08.39.424.181-.048.003-.107.3.285.172-.04-.114-.301.111-.019.163-.03l.152-.025c.444-.06.748-.007.855.173.117.2-.028.528-.372.928-.035.04.058.3-.108.124-.05.025.008.231-.123.125.132.339-.07.115-.133.131-.043.044-.158-.022-.142.132.048.212-.168-.023-.152.136-.173-.156-.205-.072-.165.14-.172-.152-.104.11-.173.14-.234-.249-.183-.01-.183.143-.007.144-.163.034-.192.144-.103-.015-.099.153-.2.145.007.176-.037.266-.21.146-.02.135-.14.103-.215.148-.011.157-.163.073-.226.147-.042.104-.336-.214-.23.147-.058.085-.191.042-.238.145-.106.009-.213.012-.245.147-.267-.265-.236-.026-.25.143-.031.138-.142.14-.253.142-.065.077-.157.107-.25.135-.028.138-.244-.043-.248.128-.003.177-.244-.052-.246.123-.028.134-.076.227-.244.117-.074.043-.32-.198-.236.11-.041.103.094.498-.234.103-.01.15-.267-.127-.23.098-.256-.277-.148.064-.222.092-.104-.024-.235-.093-.218.084.023.187-.18-.01-.212.075.044.218-.265-.167-.204.07-.085-.007-.102.093-.197.062.193.461-.115.063-.19.055-.089-.032.06.342-.18.047.14.353-.073.1-.171.039-.103-.067-.012.19-.163.031.09.254-.161-.077-.153.025-.13-.128-.084.037-.143.016-.005.07-.05.072-.132.006a1.886 1.886 0 0 1-.121 0c-.228-.011-.388-.075-.459-.194Zm3.35 12.264c0-.137.107-.269.3-.392.031-.02.066-.04.104-.06.037-.035.076-.074.118-.057.04.181.085-.34.13-.058.046.081.094.005.145-.055.05-.063.103.115.156-.052.055-.354.11.393.17-.05.058-.096.118-.07.18-.048.062.272.127.004.192-.046.064.33.132.184.202-.041.07.448.138.378.213-.04.072-.015.144.16.221-.036.076-.03.152-.114.231-.036.079-.299.159-.287.24-.03.08-.322.164-.193.248-.028.084.18.168-.283.255-.025.085.02.173-.073.262-.02.088.13.178.28.268-.018.091-.08.183-.187.275-.013.093-.342.187-.192.281-.012.095-.056.191.187.287-.005.095.052.19-.15.29-.001.097.103.194.202.289 0 .098-.219.193.092.286.006.095.323.19-.103.282.012.093-.033.184.184.274.013.092-.059.18-.122.268.018.091-.495.176.127.264.02.087.207.172-.032.255.025.085-.092.167.227.248.027.081.042.162-.158.239.031.08-.244.156.207.232.036.074 0 .148-.017.221.036.073.384.144.066.212.038.07.043.137-.217.203.043.066.032.13.202.19.046.064-.057.124.562.182.048.058-.091.115.395.168.05.055-.316.108.04.157.052.05.021.099.038.145.055.414.167.651.36.651.567 0 .23-.293.446-.796.623-.05.019-.102.288-.157.054-.053-.003-.11.204-.168.048-.058.357-.118.067-.182.05-.06.017-.124-.098-.19.044-.066.207-.134-.103-.203.042-.068-.22-.139-.162-.212.04-.073-.214-.147.046-.221.037-.076-.33-.152-.098-.232.035-.078.12-.158-.05-.239.03-.081-.064-.162.085-.248.028-.083.155-.168.213-.255.026-.088.106-.173.02-.264.02-.088.13-.176-.017-.268.017-.09.069-.18-.35-.274.014-.092.046-.187-.058-.282.01-.093-.045-.188-.095-.286.006-.095-.358-.192-.138-.288 0-.1.105-.196.053-.29 0a.465.465 0 0 1-.288-.007c-.094.107-.188-.153-.28-.01-.093.154-.185-.162-.276-.013-.09.104-.18.162-.268-.017-.089 0-.177-.328-.262-.02-.087.068-.17.474-.255-.026-.084.127-.168-.24-.248-.028-.081-.367-.161-.02-.24-.03-.079-.072-.155-.194-.23-.035-.078.176-.15-.094-.222-.036-.075.21-.144-.275-.213-.041-.07-.046-.138.031-.202-.042-.065.493-.13-.002-.192-.044-.062-.072-.122.324-.18-.05-.06.374-.115.052-.17-.048-.053-.11-.107.157-.156-.054-.05.264-.099-.145-.144-.055-.046-.173-.09-.01-.13-.056-.043.059-.082.038-.12-.059a1.287 1.287 0 0 1-.104-.058c-.192-.124-.298-.255-.298-.395Zm-3.367 12.265c.07-.12.229-.183.46-.192a.9.9 0 0 1 .12-.003c.05-.013.104-.029.132.007-.058.177.245-.251.142.015-.001.094.078.051.152.024.078-.03.03.15.163.031.228-.28-.105.396.173.04.098-.054.138-.003.18.048-.085.265.108.064.19.054-.111.315.021.225.197.062-.17.422-.073.397.204.07.07.023.045.21.21.076.08.012.191-.022.218.084.22-.221.284-.169.224.091.235-.239.241-.087.23.098-.02.198.289-.162.233.103.065.06.188.023.238.112.008.156.01.329.242.116.118-.025.253-.073.245.123.255-.251.259-.075.248.129.11-.003.07.253.252.136.056.091.243-.037.252.138.032.139.065.272.25.147.195-.144.12.172.245.143-.082.326.217.003.238.147.095.018.064.252.23.147.109-.006.22-.017.226.147.328-.384.087.197.215.149-.03.22.165.056.21.145.12-.04.029.278.2.144.049.076.22-.058.193.146.193-.174.029.254.182.142.064.038.138.059.174.141-.135.368.09.127.164.139.038.07.229-.122.153.137.04.059.01.236.143.132.082-.019-.18.544.13.129.099-.051-.1.398.123.127.208-.247.072.086.11.123l.095.117c.274.346.38.632.275.811-.117.199-.48.24-1.008.15-.05-.01-.233.198-.161-.032-.047-.028-.202.123-.174-.04-.23.282-.134 0-.18-.048-.061-.014-.058-.146-.188-.053-.162.146-.064-.156-.198-.063.053-.223-.039-.21-.204-.07.048-.22-.15-.032-.211-.076.103-.323-.081-.16-.219-.084-.13.067-.11-.121-.222-.09-.038-.095-.186-.01-.23-.098-.15.091-.253.1-.233-.103-.128.048-.163-.068-.237-.111-.146.068-.147-.103-.242-.118-.114.015.022-.393-.246-.124-.104-.004-.132-.14-.248-.128-.06-.086-.118-.175-.251-.134.1-.358-.097-.213-.252-.141-.139.041-.195-.052-.25-.144-.103-.016-.175-.079-.247-.145-.135.046-.084-.226-.238-.148-.157.088-.076-.231-.23-.146-.132.045-.24.052-.226-.148-.076-.042.015-.368-.216-.146-.109.02-.392.328-.208-.145-.136.065-.022-.29-.201-.148.119-.356-.13-.094-.19-.142-.033-.1-.037-.246-.185-.144-.154.114-.08-.157-.172-.141-.17.148.015-.308-.165-.137-.036-.077-.133-.04-.153-.137-.308.395-.111-.067-.142-.135-.018-.091-.273.224-.133-.13-.24.296-.125-.011-.123-.126.01-.119-.17.085-.108-.12-.177.201-.009-.175-.097-.12.05-.173-.073-.051-.084-.113-.067.03-.09-.006-.072-.108a1.16 1.16 0 0 1-.059-.103c-.106-.2-.13-.366-.058-.486Zm-9.167 8.979c.123-.068.292-.046.497.056.034.017.07.038.104.058.05.014.104.027.11.071-.14.126.342-.095.116.083-.048.08.041.083.121.096.081.01-.05.144.125.108.342-.132-.293.29.128.117.115.001.122.067.134.13-.21.188.06.108.134.14-.256.219-.096.204.14.15-.361.283-.266.308.142.161.048.054-.068.203.142.17.064.049.178.072.146.178.305-.084.333-.008.148.19.324-.093.253.041.148.195-.116.161.334.003.149.204.025.084.152.111.15.213-.071.141-.16.291.15.22.116.036.256.061.15.226.347-.093.262.062.149.233.098.053-.07.254.148.24 0 .108.23.088.148.245-.044.135-.082.267.142.248.242-.028.015.207.138.245-.236.241.188.108.132.244.072.063-.072.25.126.24.096.049.196.093.118.237.481-.171-.024.213.112.234-.14.177.113.13.106.228.124.026-.117.256.1.224.004.091.222.058.092.22.255-.056-.104.236.084.212.039.065.09.119.079.208-.303.253.015.155.072.2-.003.08.261.006.064.192.005.073-.113.213.056.186.08.024-.436.383.048.177.11.004-.293.295.039.168.308-.112.02.111.032.16l.024.15c.061.434.008.733-.176.836-.204.115-.54-.026-.948-.364-.04-.033-.304.057-.124-.106-.027-.047-.238.008-.13-.119-.345.128-.117-.067-.132-.13-.046-.044.024-.155-.136-.14-.216.05.024-.165-.138-.15.16-.168.073-.2-.142-.16.154-.17-.114-.102-.144-.17.255-.23.01-.179-.145-.179-.147-.006-.035-.16-.148-.188.016-.102-.156-.098-.15-.196-.177.005-.27-.038-.147-.205-.14-.02-.106-.137-.15-.213-.16-.01-.074-.158-.15-.218-.106-.043.218-.33-.15-.229-.088-.055-.042-.185-.149-.232-.005-.102-.012-.207-.15-.24.273-.262.027-.232-.146-.245-.139-.03-.141-.14-.141-.248-.082-.063-.112-.153-.14-.244-.14-.028.044-.238-.131-.245-.18-.001.053-.238-.125-.24-.136-.025-.232-.072-.119-.237-.044-.076.201-.313-.113-.232-.104-.04-.507.091-.106-.23-.15-.01.13-.261-.098-.224.282-.252-.064-.147-.094-.22.024-.101.096-.228-.084-.212-.193.023.01-.175-.078-.208-.223.043.17-.258-.072-.2.006-.083-.095-.1-.063-.193-.47.19-.063-.111-.055-.185.03-.088-.35.06-.05-.177-.358.137-.102-.072-.04-.168.07-.101-.191-.014-.031-.16-.257.09.079-.156-.024-.15.13-.127-.036-.082-.016-.14-.073-.005-.073-.05-.007-.13-.001-.04 0-.079.002-.117.01-.224.076-.38.197-.45Zm-12.523 3.277c.142 0 .278.103.402.291a2 2 0 0 1 .061.103c.037.035.077.075.06.115-.185.04.345.084.057.128-.082.046-.006.092.056.143.064.048-.118.099.054.154.362.052-.403.107.052.164.098.057.07.117.048.178-.276.06-.003.122.045.187-.333.065-.187.13.045.198-.457.068-.388.138.039.21.016.07-.163.142.039.216.03.074.116.15.036.226.305.079.29.156.03.236.328.08.198.16.028.243-.182.082.288.165.026.25-.022.085.076.17.021.258-.135.086-.285.174.017.264.083.087.192.177.015.269.35.09.196.181.01.274.058.093-.19.187.006.28-.053.094.155.19.004.286-.107.094-.21.19-.004.285.225.092-.093.186-.005.28-.328.092.106.182-.011.273.033.093-.19.182-.015.27.06.09.126.179-.017.265.504.086-.13.172-.021.257-.212.084.03.169-.026.251.095.081-.232.162-.028.242-.041.08.163.158-.03.235.249.077-.214.151-.036.226-.002.073.016.148-.039.218-.392.07-.065.141-.039.208-.044.068.223.134-.045.197-.03.065-.204.128-.045.19.057.06-.572.118-.048.176.092.057-.404.112-.052.166.324.053-.04.104-.054.154-.02.048-.036.095-.056.141-.169.405-.368.639-.58.639-.233 0-.452-.288-.634-.78-.019-.05-.295-.1-.054-.154.002-.054-.209-.109-.05-.166-.366-.058-.067-.117-.048-.177-.019-.061.098-.124-.048-.189-.212-.063.106-.13-.043-.197.224-.067.165-.139-.04-.208.217-.07-.047-.145-.037-.218.334-.075.1-.149-.036-.226-.124-.077.049-.156-.032-.235.065-.08-.086-.16-.028-.242-.158-.082-.216-.167-.024-.25-.11-.086-.022-.172-.022-.258-.134-.086.016-.175-.018-.264-.07-.089.357-.178-.014-.27-.046-.092.059-.182-.01-.275.045-.093.094-.187-.008-.28.366-.095.142-.19-.002-.284-.104-.097-.05-.192.002-.286a.445.445 0 0 1 .008-.28c-.108-.093.157-.184.01-.274-.156-.092.168-.182.014-.27-.107-.09-.164-.177.018-.263 0-.088.334-.173.022-.258-.072-.085-.487-.168.024-.25-.127-.083.245-.164.028-.243.374-.08.02-.157.032-.236.072-.075.197-.153.036-.226-.18-.074.096-.146.037-.216-.213-.072.28-.142.04-.21.048-.067-.032-.133.043-.198-.502-.065.002-.127.048-.187.072-.061-.334-.121.048-.178-.38-.057-.052-.112.05-.164.112-.055-.161-.106.054-.154-.267-.051.149-.097.056-.143.178-.044.01-.089.058-.128-.061-.04-.038-.08.059-.115.02-.036.041-.07.061-.103.124-.188.26-.291.4-.291Zm-12.514-3.292c.122.069.185.224.197.45l.001.117c.015.05.03.104-.006.13-.18-.057.256.24-.016.139-.095-.002-.054.077-.024.15.03.075-.152.03-.031.16.285.223-.404-.102-.041.168.056.098 0 .135-.048.178-.271-.083-.066.106-.056.185-.322-.108-.23.02-.064.192-.43-.164-.404-.069-.071.201-.024.067-.216.045-.076.207-.012.078.024.185-.087.213.226.215.174.278-.093.22.244.228.09.234-.1.221-.199-.018.167.285-.105.229-.06.064-.022.186-.113.234-.16.01-.337.012-.118.238.025.116.075.248-.125.24.256.248.076.253-.132.243.004.107-.26.068-.14.246-.092.054.04.239-.14.245-.14.033-.276.066-.148.247.146.19-.175.116-.148.24-.332-.08-.002.212-.15.232-.017.095-.256.065-.15.228.008.106.018.213-.15.219.394.322-.198.086-.15.213-.226-.032-.058.16-.148.203.04.118-.284.028-.148.196-.078.05.058.217-.147.188.177.19-.261.029-.148.18-.037.062-.059.135-.143.17-.376-.132-.13.088-.14.159-.07.039.126.225-.138.151-.062.04-.245.01-.136.14.017.08-.558-.178-.134.13.052.095-.405-.1-.128.118.254.204-.088.07-.126.107-.042.031-.08.063-.12.096-.352.266-.645.37-.826.266-.204-.114-.246-.469-.153-.985.01-.052-.204-.23.033-.16.026-.044-.128-.195.039-.168-.285-.227.003-.132.05-.178.014-.06.147-.057.055-.184-.152-.16.156-.061.062-.192.229.05.214-.039.072-.201.225.046.033-.148.077-.206.33.1.164-.081.085-.213-.066-.128.124-.11.092-.219.098-.037.008-.181.1-.224-.094-.15-.104-.25.106-.23-.051-.127.069-.158.113-.233-.07-.14.103-.142.119-.237-.016-.112.402.022.126-.24.006-.101.143-.13.132-.244.087-.056.178-.114.136-.244.367.098.219-.096.143-.248-.041-.134.053-.19.148-.246.017-.1.08-.17.148-.24-.047-.134.23-.081.15-.232-.089-.155.235-.075.149-.227-.046-.13-.051-.234.149-.22.045-.074.377.015.15-.211-.018-.108-.337-.384.149-.204-.068-.134.296-.022.149-.197.365.115.097-.127.147-.187.104-.033.25-.035.146-.18-.116-.152.16-.08.143-.17-.15-.166.316.016.143-.16.077-.035.038-.133.138-.15-.404-.304.068-.11.136-.14.094-.018-.228-.267.13-.13-.298-.237.014-.123.132-.119.122.01-.086-.169.124-.106-.207-.173.178-.011.12-.095.177.048.056-.072.117-.082-.033-.066.005-.09.11-.072.037-.021.07-.04.105-.058.205-.103.373-.127.496-.057Zm-9.163-8.983c.07.118.047.284-.059.485a1.76 1.76 0 0 1-.058.102c-.016.05-.03.103-.075.108-.128-.137.1.336-.083.114-.081-.047-.084.042-.098.118-.01.08-.147-.051-.11.123.136.334-.296-.287-.12.126-.001.113-.066.118-.132.13-.192-.206-.11.058-.145.132-.223-.25-.208-.093-.152.137-.288-.354-.313-.261-.163.138-.056.047-.208-.066-.174.141-.051.062-.074.173-.182.143.084.298.008.325-.192.143.092.318-.044.25-.2.145-.165-.113-.002.327-.21.147-.084.025-.112.149-.215.147-.144-.07-.297-.155-.225.148-.038.111-.064.25-.23.146.094.341-.065.256-.238.145-.055.097-.262-.068-.246.145-.11.002-.089.226-.25.144-.138-.04-.27-.078-.254.141.03.238-.212.014-.249.135-.248-.23-.11.184-.25.129-.065.072-.254-.07-.243.123-.051.095-.096.194-.244.116.176.472-.218-.023-.239.11-.179-.137-.132.11-.232.104-.027.12-.261-.115-.228.098-.092.003-.059.216-.224.09.056.25-.241-.103-.217.084-.068.037-.123.086-.212.077-.259-.298-.159.012-.206.068-.08-.001-.006.257-.196.063-.072.005-.216-.11-.189.055-.027.08-.392-.425-.181.047-.004.108-.3-.285-.171.039.115.302-.113.018-.165.031a4.599 4.599 0 0 0-.152.025c-.444.058-.747.005-.852-.175-.119-.199.026-.528.37-.927.035-.041-.057-.3.111-.123.048-.024-.01-.232.12-.126-.13-.337.068-.115.132-.13.045-.045.16.023.143-.132-.048-.212.17.023.153-.138.172.157.204.074.164-.138.173.15.104-.111.173-.141.235.25.182.012.183-.141.007-.144.164-.035.193-.145.103.016.098-.153.199-.145-.005-.175.039-.267.21-.147.02-.134.14-.103.217-.147.01-.156.161-.072.224-.147.044-.104.337.215.232-.144.056-.087.19-.044.237-.148.105-.007.21-.01.244-.145.267.264.239.025.25-.144.031-.137.143-.14.254-.14.064-.08.157-.11.25-.135.027-.138.242.041.247-.13.004-.176.243.052.247-.121.025-.135.073-.229.241-.118.079-.043.32.197.239-.11.04-.103-.096-.496.235-.104.008-.15.266.128.228-.097.256.277.149-.063.222-.09.104.022.235.093.218-.084-.023-.188.178.01.213-.077-.045-.218.264.169.203-.069.084.007.101-.095.197-.063-.195-.46.113-.061.19-.053.089.031-.062-.344.18-.049-.14-.352.071-.099.173-.039.102.068.01-.19.161-.031-.09-.252.16.077.153-.022.13.126.084-.037.143-.016.007-.073.05-.073.133-.008.04 0 .083 0 .12.002.23.011.388.074.459.194Zm-3.34-12.272c0 .139-.105.27-.3.395a1.89 1.89 0 0 1-.103.059c-.038.036-.077.075-.118.058-.042-.181-.086.337-.131.057-.048-.081-.095-.006-.145.054-.051.063-.103-.114-.158.054-.053.354-.11-.395-.168.048-.058.098-.121.07-.182.05-.062-.27-.126-.004-.191.044-.065-.326-.133-.185-.203.042-.068-.447-.141-.379-.213.04-.072.015-.145-.16-.221.037-.076.029-.152.113-.232.036-.078.299-.159.286-.238.03-.082.321-.165.194-.25.027-.082-.179-.168.282-.255.026-.087-.02-.173.072-.263.02-.088-.132-.178-.28-.27.017-.091.08-.18.188-.275.014-.092.342-.185.19-.28.01-.093.057-.19-.185-.287.006-.094-.053-.192.151-.289.001-.1-.103-.196-.2-.292-.001-.095.22-.19-.09-.287-.005-.093-.322-.188.105-.28-.01-.092.032-.184-.186-.274-.015-.091.058-.182.121-.271-.017-.088.494-.176-.127-.26-.02-.088-.21-.172.03-.257-.026-.084.092-.167-.227-.247-.027-.081-.042-.163.159-.24-.03-.08.244-.156-.208-.233-.036-.074-.001-.15.016-.222-.036-.072-.384-.141-.067-.212-.04-.068-.041-.136.217-.202-.043-.066-.03-.13-.2-.192-.044-.062.056-.124-.562-.18-.05-.06.093-.115-.394-.17-.048-.054.316-.108-.04-.157-.054-.05-.018-.099-.035-.145-.054-.415-.165-.65-.361-.65-.569 0-.228.291-.443.795-.622.05-.017.103-.287.157-.052.055 0 .11-.205.17-.05.056-.357.118-.063.18-.046.062-.017.126.096.192-.046.066-.208.134.103.202-.045.071.222.14.165.212-.038.072.215.148-.045.222-.036.077.328.153.098.233-.034.077-.122.159.048.24-.033.08.064.163-.083.247-.029.085-.151.169-.211.257-.022.084-.107.172-.02.26-.022.09-.13.18.016.27-.017.091-.068.183.35.275-.013.092-.046.187.056.28-.012.096.047.192.096.287-.005.096.36.192.139.292-.001.097-.104.195-.051.29.001a.477.477 0 0 1 .286.005c.095-.104.188.156.28.012.095-.153.184.165.275.013.092-.104.182-.16.27.017.09 0 .176.327.263.022.087-.069.173-.478.255.022.085-.122.168.243.25.03.079.365.16.019.238.032.08.07.156.192.232.034.076-.176.149.095.221.037.072-.21.145.274.213.037.07.05.138-.031.203.045.065-.493.13.002.19.046.062.071.125-.327.183.047.058-.373.115-.051.168.05.055.108.107-.159.158.051.05-.26.097.145.145.055.045.174.09.01.13.058.042-.06.08-.038.12.057.034.02.07.04.102.06.195.123.3.255.3.392Zm3.357-12.263c-.07.12-.23.183-.457.195-.04 0-.08.002-.121 0-.051.014-.106.028-.132-.007.054-.178-.247.25-.144-.016.002-.094-.08-.05-.154-.022-.076.03-.03-.151-.161-.032-.23.28.104-.396-.173-.04-.1.055-.14.003-.18-.048.084-.264-.108-.063-.191-.055.112-.313-.02-.225-.196-.061.17-.422.072-.396-.204-.07-.07-.022-.047-.21-.21-.075-.082-.012-.191.022-.218-.084-.221.22-.285.17-.223-.093-.236.24-.244.09-.23-.098.018-.194-.291.162-.235-.103-.064-.059-.187-.022-.237-.108-.008-.16-.012-.332-.242-.12-.12.026-.253.074-.246-.122-.254.252-.26.075-.247-.128-.11.003-.07-.255-.253-.135-.055-.094-.243.034-.251-.14-.03-.14-.066-.271-.25-.144-.197.142-.12-.174-.245-.147.082-.322-.217-.001-.238-.146-.096-.018-.064-.252-.232-.146-.108.006-.218.015-.223-.148-.33.384-.088-.197-.217-.146.033-.224-.166-.058-.208-.147-.122.038-.028-.278-.2-.146-.05-.074-.222.059-.194-.144-.19.173-.028-.256-.184-.143-.062-.038-.136-.06-.172-.141.135-.369-.092-.127-.164-.139-.038-.068-.23.123-.153-.134-.041-.062-.01-.24-.143-.135-.082.018.182-.545-.132-.13-.097.052.1-.398-.121-.126-.21.25-.07-.086-.11-.122a2.174 2.174 0 0 0-.097-.118c-.273-.347-.378-.631-.273-.812.119-.198.479-.24 1.007-.149.053.01.237-.198.162.032.047.027.2-.123.172.039.235-.278.136.004.182.05.062.014.058.145.188.054.163-.149.064.153.198.062-.052.223.038.209.203.069-.047.22.15.033.212.076-.103.323.082.16.217.083.13-.064.112.122.223.093.04.094.185.007.23.097.15-.093.257-.102.234.104.13-.05.161.067.237.11.144-.07.146.102.243.118.112-.015-.02.392.245.122.104.004.132.142.248.128.059.087.116.176.25.135-.1.36.097.214.253.141.137-.042.195.052.252.145a.47.47 0 0 1 .244.146c.135-.045.084.225.237.145.159-.086.078.232.234.147.13-.046.237-.05.222.147.078.045-.014.37.218.147.109-.019.39-.328.208.146.136-.067.02.29.2.146-.118.357.129.094.19.144.034.1.039.244.184.144.155-.115.08.155.174.14.17-.145-.016.31.164.14.034.074.133.039.153.134.31-.393.11.066.144.135.016.09.272-.224.13.129.242-.295.127.013.122.127-.008.119.173-.085.11.121.178-.203.01.175.097.119-.05.172.073.05.085.112.067-.03.09.008.07.11a.737.737 0 0 1 .06.103c.106.199.13.366.06.485Zm9.166-8.973c-.12.069-.29.045-.495-.058-.033-.017-.07-.035-.104-.057-.052-.014-.107-.027-.112-.07.141-.126-.341.096-.115-.082.047-.081-.042-.084-.12-.098-.082-.01.05-.144-.126-.106-.34.13.293-.29-.128-.119-.115 0-.121-.065-.135-.13.21-.187-.06-.106-.133-.14.255-.218.096-.205-.139-.15.361-.283.265-.309-.141-.16-.05-.053.068-.204-.144-.17-.064-.05-.176-.073-.147-.18-.303.084-.332.01-.147-.187-.324.092-.253-.043-.149-.196.119-.16-.333-.002-.148-.205-.025-.083-.152-.112-.15-.213.073-.14.16-.29-.15-.218-.115-.036-.257-.063-.15-.227-.349.091-.26-.063-.149-.234-.096-.051.071-.255-.149-.24 0-.108-.228-.088-.147-.246.043-.133.084-.264-.14-.247-.245.029-.017-.208-.14-.245.238-.24-.185-.106-.132-.244-.073-.062.074-.248-.125-.24-.097-.048-.197-.091-.119-.236-.48.17.024-.215-.112-.234.142-.177-.114-.13-.106-.229-.123-.026.118-.256-.099-.224-.004-.09-.221-.058-.093-.219-.255.054.104-.236-.085-.213-.035-.066-.09-.12-.078-.207.304-.254-.013-.156-.07-.2 0-.08-.263-.008-.065-.195-.005-.07.112-.21-.056-.184-.08-.025.435-.384-.048-.178-.109-.004.292-.294-.04-.168-.308.112-.018-.11-.032-.16l-.024-.149c-.06-.435-.006-.733.177-.836.202-.116.538.025.947.362.04.035.308-.055.126.109.025.047.238-.01.128.12.344-.13.117.065.133.13.047.04-.023.153.135.138.217-.047-.024.164.14.151-.16.167-.075.199.141.158-.153.17.113.105.143.171-.254.23-.01.18.145.18.148.006.036.159.148.188-.015.1.155.098.15.195.177-.005.271.038.147.206.138.02.106.137.151.211.16.01.075.16.15.22.105.043-.22.33.149.227.088.055.044.187.15.232.007.105.01.21.148.24-.269.262-.026.233.147.248.14.03.141.138.143.247.08.064.11.152.136.245.142.026-.04.235.133.243.183.003-.053.238.127.24.136.026.23.074.117.238.044.075-.2.313.112.233.105.04.507-.093.108.229.15.009-.13.262.099.224-.284.252.062.147.092.218-.023.104-.093.23.085.215.192-.024-.008.175.077.206.222-.043-.172.259.072.2-.008.082.096.1.063.193.47-.192.063.111.056.186-.032.089.35-.059.05.176.357-.136.1.072.037.169-.068.1.194.012.033.16.259-.088-.08.157.024.15-.13.125.037.082.017.14.072.004.074.05.006.129v.117c-.012.225-.076.38-.2.45ZM28.54 55.13c0-.138.455-.27 1.29-.392.14-.02.29-.037.449-.06.161-.035.33-.075.512-.058.178.181.368-.339.566-.058.2.083.41.007.627-.055.217-.063.443.115.677-.05.236-.355.482.394.734-.05.253-.098.512-.072.782-.049.267.27.543.003.828-.045.286.326.579.185.876-.044.3.449.607.38.92-.037.314-.015.634.158.963-.038.327-.03.659-.114 1-.034.337-.3.684-.288 1.036-.033.353-.32.71-.192 1.073-.027.364.18.731-.281 1.106-.024.374.02.752-.073 1.134-.02.386.133.774.279 1.167-.018.39-.08.79-.188 1.19-.014.403-.342.806-.19 1.217-.01.101-.015.204-.01.305 0l.156.024c.02.003.063.008.064.012l.015.012c.038.029.105.043.086-.055.046.026.058-.005.055-.031-.03-.058-.05-.076.03-.065a.134.134 0 0 0 .12-.087 1.165 1.165 0 0 0-.106-.613c-.219-.41.103-.81.023-1.213.333-.395-.096-.797.026-1.19-.026-.394.202-.78.031-1.166-.055-.387-.113-.768.035-1.142-.498-.382.14-.746.037-1.111.217-.365-.019-.73.041-1.085-.089-.356.243-.703.046-1.049.046-.343-.155-.687.045-1.018-.247-.335.219-.655.048-.978.005-.32-.007-.635.05-.942.4-.302.077-.606.055-.899.047-.292-.214-.582.056-.858.035-.277.212-.546.058-.813-.055-.264.581-.51.06-.765-.09-.248.409-.48.062-.716-.32-.234.047-.452.062-.665l.065-.611c.196-1.754.407-2.757.619-2.753.234.004.436 1.247.586 3.382.016.215.288.44.044.665-.005.232.203.473.04.719.363.252.062.504.04.768.012.262-.108.532.034.813.206.282-.114.563.029.858-.227.291-.172.59.03.901-.225.306.037.622.023.942-.341.316-.11.647.022.981.117.333-.062.67.016 1.017-.07.345.076.696.013 1.051.153.358.207.72.01 1.085.103.366.01.737.003 1.111.131.38-.026.755.003 1.142.064.386-.37.768-.004 1.167.044.394-.068.79-.005 1.19-.054.401-.11.805-.011 1.214a.711.711 0 0 0-.199.612c.024.354.11.74.175 1.167.05.442.055.882.037 1.29a26.45 26.45 0 0 1-1.166-.058c-.382.018-.775.022-1.167.02l-.236-.006-.156-.005-.305-.016c-.41.106-.814-.154-1.216-.009-.402.152-.8-.164-1.191-.015-.393.105-.781.162-1.167-.017-.382 0-.76-.327-1.134-.02-.375.07-.742.476-1.106-.025-.364.126-.72-.24-1.073-.027-.352-.367-.699-.02-1.036-.032-.341-.07-.673-.194-1-.035-.33.176-.65-.094-.963-.036-.313.209-.62-.275-.92-.04-.297-.048-.59.032-.876-.043-.285.494-.561-.001-.828-.044-.27-.072-.529.326-.782-.049-.252.374-.498.051-.734-.05-.234-.109-.46.159-.677-.051-.217.262-.427-.147-.627-.055-.198-.175-.388-.01-.566-.058a.599.599 0 0 1-.512-.057 17.199 17.199 0 0 0-.448-.06c-.836-.123-1.291-.255-1.291-.394Z"/><path fill="#D7FE03" d="M48.512 5.425c0-.07.815-.116 2.388-.144 1.565.051 3.9.109 6.868.642.248.034.5.087.753.14l.78.162c.526.11 1.078.21 1.632.367.56.137 1.138.278 1.731.433a55.84 55.84 0 0 1 1.801.587c.295.138.599.26.915.363.319.102.647.187.98.278.672.165 1.336.412 1.933.827.32.169.651.314.978.481.328.166.661.33.998.491.34.165.688.315 1.032.486.343.175.688.353 1.038.53.348.184.701.367 1.037.585l1.012.663c.693.434 1.363.924 2.11 1.34.2.084.39.185.575.297.18.12.352.249.52.386.334.274.65.576.968.878l.242.226.236.235c.158.155.32.307.488.452.338.291.706.55 1.126.767a31.4 31.4 0 0 1 3.988 3.962c1.082 1.606 2.488 3.016 3.696 4.672.208.471.444.93.703 1.375l.195.334.19.34c.127.224.26.446.398.668.566.878 1.12 1.778 1.724 2.68.141.525.277 1.052.462 1.56.091.255.187.509.29.76.1.252.192.508.3.758.206.504.45.998.704 1.494.236.502.497 1 .782 1.497.198.528.331 1.078.48 1.623.144.548.306 1.096.416 1.656.123.56.252 1.12.395 1.682.121.564.248 1.132.404 1.7.123.57.203 1.154.29 1.74.08.583.193 1.17.231 1.766.055.593.104 1.191.147 1.79.023.604.023 1.21.02 1.817.105.607.137 1.22.16 1.835.016.614.04 1.236-.021 1.855-.047.62-.11 1.24-.195 1.862a38.774 38.774 0 0 1-.39 1.851c-.047 2.544-.754 5.061-1.707 7.49a21.958 21.958 0 0 0-.675 1.843l-.66 1.867c-.053.156-.107.314-.165.47l-.192.46c-.13.306-.26.613-.399.917a11.908 11.908 0 0 1-.97 1.765c-1.269 2.37-2.665 4.732-4.4 6.9-1.8 2.122-3.805 4.064-5.706 6.19-2.056 1.967-4.319 3.814-6.897 5.212-2.298 1.834-5.063 3.058-7.908 3.975-2.77 1.146-5.74 1.75-8.684 2.505-2.995.512-6.054 1.006-9.155.86-3.097-.106-6.127-.495-9.153-.864-1.519-.18-2.999-.546-4.436-1.007-.727-.208-1.427-.485-2.139-.73-.35-.131-.71-.236-1.057-.378a37.64 37.64 0 0 0-1.052-.39c-.332-.175-.674-.326-1.007-.49a24.99 24.99 0 0 0-1.003-.482c-.337-.155-.678-.297-1.018-.446l-1.004-.47c-.336-.152-.67-.306-1.008-.458a69.677 69.677 0 0 1-.979-.508c-.324-.174-.648-.348-.967-.53-.317-.18-.62-.388-.922-.594-2.504-1.52-4.67-3.432-6.895-5.21-2.152-1.865-4.13-3.908-5.705-6.192-1.04-.958-1.83-2.105-2.492-3.303-.35-.589-.639-1.208-.952-1.81a40.923 40.923 0 0 0-.478-.895 16.875 16.875 0 0 0-.477-.891c-.133-.311-.27-.617-.413-.92-.147-.3-.266-.613-.406-.914a50.9 50.9 0 0 0-.417-.907l-.213-.448-.196-.459c-.258-.608-.531-1.21-.774-1.82a44.972 44.972 0 0 1-.642-1.855 25.137 25.137 0 0 1-.97-3.753l-.192-.938c-.053-.314-.105-.627-.16-.94a31.111 31.111 0 0 0-.184-.932l-.105-.463-.096-.463a53.238 53.238 0 0 0-.245-1.866C.684 55.68.624 55.06.564 54.444.491 53.828.492 53.21.48 52.596c-.01-.614-.008-1.227.07-1.833a14.022 14.022 0 0 1-.023-1.817c.05-.601.126-1.197.201-1.79.039-.297.077-.59.136-.883.052-.293.101-.586.147-.877.09-.584.153-1.168.228-1.748.104-.575.21-1.147.314-1.717l.398-1.683c.12-.56.3-1.103.458-1.647.167-.543.318-1.088.526-1.61.277-.5.508-1.009.712-1.524.22-.51.426-1.017.613-1.532.096-.256.179-.516.277-.77l.303-.759c.205-.5.393-1.007.633-1.488.518-.939.943-1.913 1.468-2.82.13-.23.256-.457.386-.683.064-.114.13-.226.2-.336l.217-.323c.295-.427.605-.84.94-1.232 1.193-1.663 2.524-3.139 3.695-4.67.316-.37.64-.724 1.005-1.03.367-.31.728-.618 1.09-.92.35-.312.709-.607 1.034-.93.325-.325.619-.678.863-1.081.326-.318.682-.595 1.04-.864.362-.265.713-.535 1.088-.77.37-.241.73-.485 1.07-.75.168-.132.331-.274.49-.417.161-.139.32-.284.468-.44a7.978 7.978 0 0 1 2.018-1.475c.36-.195.723-.38 1.078-.569.356-.185.72-.349 1.061-.542.345-.187.685-.373 1.021-.558.34-.179.687-.338 1.024-.505.338-.166.671-.327 1.003-.488.33-.159.67-.29.999-.436a47.48 47.48 0 0 1 8.188-2.689l1.774-.367c.57-.115 1.124-.181 1.647-.266 1.05-.183 2.016-.243 2.876-.335 1.725-.124 3.052-.162 3.944-.117.892.027 1.352.068 1.352.12 0 .058-.565.128-1.652.21-.273.023-.577.034-.913.072-.335.037-.702.077-1.1.123-.396.047-.828.078-1.286.144l-1.46.222c-2.06.338-4.586.844-7.444 1.767a47.598 47.598 0 0 0-9.336 4.182c-.329.194-.66.39-.978.617l-.958.688c-.66.44-1.302.921-2.052 1.295-.168.116-.336.238-.502.36-.164.13-.323.264-.484.396-.32.27-.643.543-.97.817-.333.264-.638.566-.976.839a16.6 16.6 0 0 1-1.033.806c-1.044 1.454-2.556 2.49-3.796 3.9-1.237 1.396-2.495 2.868-3.499 4.57-.449.881-1.03 1.688-1.553 2.553a17.694 17.694 0 0 0-1.468 2.689c-.285.433-.524.899-.77 1.362-.12.233-.237.47-.35.709-.112.239-.204.485-.301.732-.19.494-.378.995-.539 1.504a37.873 37.873 0 0 0-.41 1.563c-.24.49-.398 1.01-.56 1.532-.153.525-.311 1.05-.409 1.595-.105.54-.212 1.084-.317 1.63-.085.55-.168 1.103-.27 1.656-.197.537-.31 1.095-.406 1.655-.047.28-.09.562-.125.847a7.308 7.308 0 0 0-.074.855 53.238 53.238 0 0 0-.05 1.733c.012.578.044 1.161.062 1.744.002.582.036 1.167.055 1.755.024.587.007 1.178.06 1.77.037.59.07 1.187.117 1.783.072.593.155 1.188.254 1.784.294 2.399.985 4.765 1.685 7.151.91 2.33 1.95 4.619 2.97 6.98 1.289 2.22 2.618 4.466 4.234 6.564 1.712 2.016 3.427 4.084 5.47 5.886 1.035.88 2.022 1.827 3.097 2.695.521.452 1.092.845 1.666 1.234.571.397 1.19.727 1.83 1.02 2.384 1.427 4.862 2.794 7.542 3.77 2.63 1.08 5.4 1.933 8.271 2.373 2.788.897 5.781.96 8.72.823 2.945-.108 5.86-.332 8.721-.819a52.177 52.177 0 0 0 8.272-2.372c2.6-1.132 5.25-2.173 7.544-3.77.567-.404 1.156-.77 1.72-1.172.564-.395 1.158-.754 1.704-1.17 1.128-.791 2.207-1.644 3.168-2.607 1.944-1.9 3.716-3.896 5.47-5.884.797-1.053 1.637-2.071 2.374-3.154.39-.528.718-1.09 1.036-1.657.159-.283.314-.567.458-.857.13-.295.253-.594.368-.897.282-.578.55-1.158.768-1.757.114-.298.23-.593.344-.89l.174-.44.158-.447c.21-.594.446-1.173.698-1.747.232-.58.504-1.145.828-1.697.3-1.21.72-2.374 1.027-3.564.081-.296.161-.591.244-.888a25.962 25.962 0 0 0 .332-1.796l.06-.45c.012-.15.019-.303.024-.454.17-.584.296-1.177.392-1.77.07-.596.104-1.193.132-1.788.039-.594.001-1.187-.005-1.778-.008-.588-.006-1.174-.03-1.755.002-.584.014-1.166.01-1.745-.026-.574-.054-1.15-.087-1.723-.021-.575-.117-1.139-.193-1.702-.082-.56-.17-1.12-.323-1.663a22.366 22.366 0 0 1-.363-1.638 46.77 46.77 0 0 1-.346-1.62c-.094-.545-.242-1.072-.374-1.6-.144-.527-.27-1.055-.474-1.555a13.6 13.6 0 0 1-.57-1.507 58.937 58.937 0 0 1-.517-1.507c-.085-.251-.163-.503-.256-.749a21.71 21.71 0 0 0-.303-.725c-.214-.478-.432-.95-.72-1.385-.46-.926-.924-1.838-1.457-2.695l-.384-.649-.19-.324-.205-.315c-.268-.42-.532-.837-.788-1.26-.18-.174-.365-.347-.538-.524a8.201 8.201 0 0 1-.482-.553c-.306-.375-.558-.787-.84-1.172-.272-.395-.529-.796-.789-1.193l-.195-.295-.213-.283c-.143-.186-.287-.37-.44-.55-.299-.357-.601-.71-.941-1.023-.339-.311-.678-.622-1.01-.93-.168-.153-.325-.314-.493-.464-.167-.15-.33-.305-.487-.461a7.59 7.59 0 0 1-.86-1.02 8.976 8.976 0 0 1-1.606-1.137l-.239-.21-.244-.208c-.323-.277-.63-.565-.939-.85l-.46-.425c-.16-.134-.32-.263-.48-.392a14.433 14.433 0 0 0-2.02-1.345 22.952 22.952 0 0 1-1.008-.61c-.326-.213-.656-.41-.958-.645a6.68 6.68 0 0 1-1.032-.478c-.33-.18-.651-.358-.963-.549-.313-.19-.621-.383-.932-.564a6.8 6.8 0 0 0-.964-.443 9.744 9.744 0 0 0-1.861-.872c-.315-.113-.627-.223-.932-.334-.306-.112-.604-.227-.906-.334a27.85 27.85 0 0 1-1.765-.554 25.948 25.948 0 0 1-1.656-.554c-.539-.173-1.076-.288-1.588-.417l-.759-.188a9.914 9.914 0 0 0-.734-.167c-2.892-.644-5.186-.826-6.732-1.009-1.552-.103-2.367-.19-2.367-.26Z"/><path fill="#D7FE03" d="M22.24.929c0 .07-.16.144-.46.225a7.9 7.9 0 0 1-.55.124c-.214.061-.46.132-.734.204-.09.026-.187.043-.284.075l-.297.106c-.2.09-.412.175-.647.229-.29-.09-.343.486-.692.31-.283.012-.497.22-.73.391-.117.087-.263.123-.397.191-.136.063-.27.14-.357.29-.036.227-.221.22-.4.248-.179.024-.361.063-.356.336-.05.067-.108.127-.167.186a2.08 2.08 0 0 1-.177.18c-.121.115-.257.218-.395.325-.234.013-.344.16-.441.314-.093.16-.159.342-.259.495a.665.665 0 0 0-.49.33 1.062 1.062 0 0 0-.107.273 1.61 1.61 0 0 0-.028.326c-.29.041-.483.166-.576.343-.09.182-.059.426.044.694-.18.347-.461.685-.423 1.133-.05.2-.065.409-.105.614a3.616 3.616 0 0 1-.075.305c-.024.1-.042.204-.082.306.12.235.157.45.129.658-.007.212-.085.417-.23.633.297.444.205.86.08 1.334-.057.232.04.454.15.665.101.213.212.416.144.672.113.452.353.865.508 1.313.08.481.192 1.008.727 1.25.082.092.177.174.262.264l.258.264a2.722 2.722 0 0 1 .332.443l-.02.059c.14-.103.134-.182.133-.155a.293.293 0 0 0 .06.206c.012-.03.025-.037.05-.042l.038-.006c.005-.003 0 .006.017-.008l.044-.033.09-.065c.24-.178.465-.367.618-.64.486-.35.82-.88 1.382-1.153a7.58 7.58 0 0 0 .773-.483c.248-.168.472-.366.648-.623.35-.527 1.005-.642 1.435-1.043.676-.06.913-.731 1.458-.955.458-.355 1.072-.449 1.463-.884.457-.33.897-.687 1.456-.823.245-.687 1.035-.396 1.456-.737.288-.027.515-.166.745-.3.228-.131.447-.284.696-.367.436-.3 1.035-.223 1.412-.615.24-.078.46-.203.682-.316.11-.055.225-.106.342-.143a1.55 1.55 0 0 1 .183-.044c.023.003.037.018.068.032-.012-.127.037-.092.161-.075.059.01.13.017.183.012.016 0 .015-.009.012-.017a.077.077 0 0 0-.01-.026.213.213 0 0 0-.065-.064c-.02-.06-.041-.128-.064-.18a.475.475 0 0 1-.028-.088c-.028-.082-.064-.187-.088-.28.083-.257.002-.446-.122-.603-.116-.165-.311-.273-.42-.428a1.109 1.109 0 0 0-.164-.234c-.066-.07-.142-.13-.208-.195-.136-.132-.24-.28-.252-.502-.218-.287-.326-.683-.7-.806-.148-.096-.166-.326-.248-.493-.076-.172-.196-.302-.487-.206-.153-.07-.232-.23-.323-.38-.096-.143-.204-.273-.433-.205-.22.056-.341-.025-.443-.144-.05-.058-.094-.126-.142-.189a.627.627 0 0 0-.168-.146c-.252-.138-.488-.286-.734-.387a13.12 13.12 0 0 0-2.652-.921c-.646-.148-1.01-.244-1.01-.354 0-.058.113-.109.334-.156.22-.043.552-.1.984-.086.862-.005 2.155.15 3.655.795.076.03.161.05.247.065.082.02.17.04.253.063.17.05.328.133.415.321.153.087.325.155.496.23.168.083.34.17.436.354.524-.037.654.435.92.733.318.26.496.65.892.878.22.099.328.295.436.488.05.1.106.195.164.29a.9.9 0 0 0 .214.262c.066.492.312.855.723 1.188a1.01 1.01 0 0 0 .065.366c.062.17.138.335.227.505.09.165.179.342.259.523.082.182.16.37.22.553a1.273 1.273 0 0 0-.03.233c0 .039.004.078.007.117l.004.059c.01.012-.004.017-.017.018l-.04.01c-.2.058-.366.129-.523.211-.312.16-.601.376-.956.593a3.3 3.3 0 0 1-.276.15c-.05.026-.104.051-.159.073a4.134 4.134 0 0 1-.334.12c-.23.071-.463.134-.67.266-.466.142-.85.48-1.328.637a2.886 2.886 0 0 1-.62.438c-.228.111-.461.212-.734.243-.402.332-.903.497-1.371.74a3.29 3.29 0 0 1-.665.43c-.238.12-.482.233-.704.383-.423.333-1.132.245-1.382.867-.43.342-.95.561-1.378.926-.487.278-.963.589-1.36 1.003a1.32 1.32 0 0 0-.804.363c-.207.203-.37.458-.547.693-.373.45-.856.761-1.319 1.096-.197.204-.402.398-.61.586l-.189.165-.302.259c-.203.17-.403.34-.604.51a6.21 6.21 0 0 1-.59.552c-.198.322-.393-.079-.583-.229-.387-.388-.723-.74-1.138-1.042a3.437 3.437 0 0 1-.458-.43c-.1-.12-.176-.255-.26-.386-.082-.129-.154-.265-.24-.391a1.936 1.936 0 0 0-.296-.35c-.432-.438-.778-.958-.866-1.567a2.427 2.427 0 0 1-.136-.42l-.08-.434c-.062-.284-.134-.554-.37-.787-.104-.265-.3-.516-.398-.789a.862.862 0 0 1 .092-.871c-.09-.268-.058-.55-.016-.823.04-.275.07-.539-.018-.808.2-.261.217-.514.192-.78-.003-.258-.048-.527-.002-.782.039-.124.075-.247.12-.369.05-.118.102-.236.143-.356.084-.237.13-.481.128-.741.012-.521.415-.896.585-1.333.01-.257.17-.445.344-.614.18-.166.352-.324.37-.577.072-.089.132-.184.196-.276.065-.088.13-.179.196-.267.132-.18.262-.353.42-.5-.054-.318.104-.479.296-.589.2-.107.425-.175.597-.288.176-.109.268-.302.387-.465a.723.723 0 0 1 .209-.21.56.56 0 0 1 .332-.053c.079-.516.568-.502.93-.581.183-.045.309-.165.44-.276.131-.114.277-.201.474-.175.085-.187.25-.224.416-.237.165-.013.33-.01.455-.098.342.063.546-.185.816-.23.234-.134.493-.17.742-.135.119-.017.23-.036.339-.054.11-.013.217-.014.32-.02.308-.017.579-.027.813-.026.235.019.432.042.592.067.318.05.479.11.479.179ZM74.776.928c0 .07-.16.144-.459.222-.3.067-.734.18-1.284.325l-.582.182c-.202.077-.406.192-.642.24-.3-.112-.346.48-.694.306-.284.01-.502.213-.732.39a.805.805 0 0 1-.191.103c-.065.03-.135.058-.203.09-.137.061-.273.137-.361.283-.036.228-.21.24-.395.258-.18.022-.374.047-.36.33-.19.284-.474.463-.734.698-.459.042-.496.51-.702.806a.66.66 0 0 0-.492.329.937.937 0 0 0-.104.277 2.303 2.303 0 0 0-.026.323c-.606.074-.743.505-.543 1.033a1.92 1.92 0 0 1-.13.261c-.025.028-.053.058-.077.092-.05.061-.072.163.027.193.003.026-.01.058.016.07l.116.015c.07.012.112.027.152.085.035-.025.055-.054.084-.072a1.382 1.382 0 0 1 .567.088c.233.091.441.24.622.456.591-.084 1.011.248 1.412.615.198.188.468.235.735.291.27.052.527.143.704.376.467.267.995.437 1.457.737.215.18.412.388.644.542.231.157.491.267.811.28.525.222 1.087.41 1.464.884.67.033 1.077.485 1.457.955.519.29.836.847 1.435 1.044.224.199.488.346.745.506.251.167.491.351.676.6.399.467.799.914 1.382 1.152.294.12.498.337.69.565l.07.087.036.044c.014.018.004.01.006.018 0 .013.004.03.007.042.008.025.027.047.05.038-.007.105.015.171.04.204.025.055.053-.025.071-.07.042-.11.019-.202.082-.182a.06.06 0 0 1 .021-.027c.044-.044.09-.086.137-.129.094-.083.183-.17.275-.256a1.63 1.63 0 0 0 .243-.282.978.978 0 0 0 .158-.338c.23-.437.392-.88.726-1.248a.546.546 0 0 1-.035-.397.76.76 0 0 1 .176-.302c.163-.188.35-.378.368-.614.33-.4.18-.907.29-1.34-.025-.23.058-.446.109-.668.053-.222.092-.448-.03-.666.01-.218-.042-.434-.073-.647-.053-.21-.092-.418-.027-.644a.568.568 0 0 1-.124-.298 1.25 1.25 0 0 1-.016-.316c.003-.214.027-.44-.12-.61l-.422-1.134a.595.595 0 0 0-.111-.61c-.136-.152-.313-.272-.424-.427a.914.914 0 0 0-.161-.233c-.071-.066-.144-.13-.212-.196-.135-.13-.244-.273-.25-.5-.108-.146-.194-.31-.297-.461-.105-.145-.212-.293-.401-.346-.151-.095-.182-.31-.256-.49a.424.424 0 0 0-.155-.212c-.077-.04-.184-.043-.33.01-.162-.061-.231-.235-.322-.386-.085-.154-.207-.265-.435-.199-.218.055-.338-.027-.438-.147-.1-.125-.186-.27-.316-.334-.252-.133-.487-.287-.73-.392-1.07-.537-2.016-.73-2.654-.923-.647-.127-1.01-.244-1.011-.349 0-.057.113-.108.333-.153.111-.022.25-.043.414-.061.165-.019.356-.042.572-.029a25 25 0 0 1 .724.03c.268.017.55.08.861.128.316.04.637.146.985.243.356.088.707.246 1.086.396.15.059.336.068.501.125.167.053.324.136.41.326.307.167.717.239.933.582a.643.643 0 0 1 .334.049.72.72 0 0 1 .223.193c.13.154.225.345.368.486.165.12.272.302.412.456.132.16.284.303.48.42.213.105.327.298.432.492.055.098.105.197.167.29.061.093.122.185.214.261.026.25.106.461.239.65.124.193.276.374.475.542.029.504.412.862.585 1.332-.084.286-.055.53.044.762.047.117.11.232.177.347.062.116.116.235.172.357.099.247.128.507.148.768-.004.265-.014.53.04.794-.026.533.079 1.083-.034 1.63.089.566.034 1.158-.304 1.661-.059.581-.332 1.11-.584 1.642-.134.59-.554 1.055-.867 1.568-.065.139-.172.25-.281.36-.108.11-.227.212-.347.313-.117.1-.223.21-.313.332a1.04 1.04 0 0 0-.122.198c-.068.106-.13.221-.19.35-.356.38-.746.72-1.139 1.05-.39.634-.772-.088-1.176-.327l-1.039-.992a4.26 4.26 0 0 0-.665-.529c-.184-.643-.787-.835-1.32-1.095a4.635 4.635 0 0 1-.701-.501c-.226-.175-.438-.366-.65-.555-.482-.308-.913-.668-1.358-1.005-.527-.222-.84-.742-1.379-.926-.535-.186-.837-.716-1.381-.865-.522-.18-.994-.417-1.371-.815-.464-.242-.77-.774-1.37-.74-.246-.084-.52-.106-.771-.166-.252-.06-.467-.184-.584-.514-.506-.093-.799-.632-1.328-.638-.148-.261-.372-.351-.61-.404-.118-.025-.241-.04-.36-.06a2.348 2.348 0 0 1-.177-.036 3.128 3.128 0 0 1-.29-.106c-.369-.191-.702-.378-1.042-.538a5.854 5.854 0 0 0-.536-.223l-.037-.011c-.011-.005-.027-.007-.018-.02l.015-.067.027-.128a2.08 2.08 0 0 0 .034-.254c.011-.17.056-.358.12-.545.06-.19.143-.375.236-.551l.267-.52c.064-.118.115-.215.15-.333.013-.254.187-.434.355-.607.162-.177.351-.325.367-.58.07-.089.135-.181.196-.275.063-.093.13-.18.195-.27.13-.176.257-.356.425-.496-.053-.317.095-.483.287-.596.188-.116.445-.155.604-.282.173-.112.25-.316.381-.471.123-.157.275-.29.54-.262.027-.269.187-.38.364-.45.181-.066.387-.09.567-.134.181-.043.309-.162.442-.271.067-.055.135-.105.211-.141a.533.533 0 0 1 .261-.036c.179-.376.634-.153.872-.33.343.057.539-.208.815-.23.239-.127.488-.194.741-.147l.659-.075c.617-.032 1.09-.02 1.408.044.316.054.476.114.476.183ZM34.519 95.275c.117.077.117.315.014.686a2.523 2.523 0 0 1-.058.196c-.008.077-.018.16-.075.217-.199-.037.197.321-.092.238-.119.027-.105.143-.107.256 0 .113-.208.098-.124.274.246.282-.452-.043-.137.294.021.146-.064.225-.15.31-.298-.053-.135.197-.165.326-.35-.078-.3.107-.18.341-.454-.14-.47.01-.192.356-.064.12-.292.14-.204.368-.056.136-.066.302-.217.381.17.29.076.408-.23.394.189.307-.007.365-.238.403-.243.034.06.422-.252.416-.11.124-.121.313-.261.422-.206.066-.426.126-.27.433-.03.187-.036.391-.282.439.193.336-.035.398-.29.447-.052.179-.36.195-.297.451-.148.121-.079.387-.31.457-.19.097-.377.193-.309.455.083.271-.281.251-.31.445-.374-.03-.111.353-.306.435-.073.162-.356.188-.305.425-.045.174-.088.35-.3.411.325.415-.296.208-.296.4-.27.021-.157.286-.295.388-.01.183-.369.137-.286.374-.122.106-.036.341-.282.36.124.258-.34.13-.276.343-.08.117-.144.243-.266.328-.403-.1-.208.188-.26.311-.108.086.041.334-.252.295-.096.085-.307.092-.242.274-.017.129-.606-.118-.232.257.016.143-.457-.037-.221.238.21.262-.147.145-.212.218-.07.067-.139.134-.201.196-.582.558-.999.822-1.175.707-.196-.127-.065-.705.317-1.591.038-.089-.137-.321.123-.277.059-.084-.057-.287.137-.291-.241-.29.07-.224.15-.31.053-.108.218-.144.166-.327-.106-.218.23-.152.179-.341.26.013.287-.13.193-.355.258.004.118-.255.203-.37.361.064.247-.185.216-.38-.016-.191.212-.222.23-.394.14-.093.102-.305.24-.403-.043-.218 0-.385.25-.415.001-.195.168-.285.263-.423-.019-.212.204-.272.27-.434.039-.179.492-.092.282-.439.058-.17.245-.26.289-.446.139-.122.283-.245.299-.452.408.049.321-.226.308-.457.014-.209.164-.333.31-.455.071-.169.19-.309.308-.445.011-.206.332-.208.308-.434-.032-.23.336-.198.303-.424.01-.201.056-.373.304-.412.093-.14.464-.097.297-.402.031-.173-.224-.532.29-.387-.015-.2.381-.128.288-.372.398.074.188-.243.282-.36.143-.084.328-.137.274-.343-.068-.216.241-.183.266-.328-.1-.23.388-.073.263-.312.113-.083.117-.233.248-.294-.35-.375.143-.201.245-.275.126-.06-.149-.373.232-.258-.256-.298.079-.208.223-.237.15-.026-.02-.256.212-.218-.17-.225.227-.074.199-.197.197.025.102-.135.189-.174-.008-.098.052-.148.173-.153.056-.047.11-.09.162-.13.308-.233.533-.326.652-.25Zm27.951.02c.117-.077.342.015.651.25.05.04.105.083.161.13.07.038.147.077.175.151-.11.166.377-.052.19.177-.022.116.093.15.198.195.107.044.01.224.21.218.362-.111-.214.392.224.237.144.038.186.148.233.258-.164.247.133.198.243.274-.21.286-.015.314.25.295-.306.356-.173.429.262.311.089.106.02.32.268.328.106.103.258.178.274.345.339-.043.41.089.282.358.358-.05.338.15.288.374-.064.231.418.108.29.388.076.145.25.231.298.4-.018.211-.047.433.302.411.164.099.352.183.304.425.39-.045.36.186.307.435.15.117.045.401.31.445.058.18.334.22.311.455.015.21.035.418.308.457.288.029.126.35.298.451-.172.325.289.238.29.447.126.128.038.393.282.44.145.109.294.217.27.432.515-.136.08.346.263.422-.085.251.208.252.25.416.169.079-.015.386.24.403.051.151.307.165.23.394.29-.014-.01.357.217.381.079.119.172.226.204.368-.25.327.096.262.192.356.039.132.332.094.179.341.044.121-.032.315.167.326.114.067-.347.503.152.31.14.04-.215.398.137.294.325-.09.08.188.121.274.038.09.075.175.108.256.299.744.386 1.223.21 1.338-.195.127-.689-.214-1.375-.904-.07-.069-.355-.003-.21-.217-.058-.087-.295-.061-.225-.239-.366.106-.183-.15-.232-.256-.082-.089-.05-.252-.242-.277-.247.012-.055-.266-.252-.294.113-.23-.011-.309-.26-.311.105-.232-.195-.204-.268-.328.2-.3-.08-.294-.275-.343-.186-.056-.125-.277-.283-.36-.03-.162-.244-.21-.285-.373-.221-.046-.361-.147-.293-.387-.183-.077-.204-.26-.298-.4-.205-.066-.177-.29-.3-.414-.156-.103.104-.478-.305-.422-.138-.121-.15-.324-.307-.436-.062-.173-.121-.35-.31-.446.202-.348-.087-.377-.311-.454-.192-.097-.25-.276-.308-.456a1.684 1.684 0 0 1-.299-.454c-.19-.09-.07-.38-.29-.445-.228-.061-.056-.38-.282-.439-.185-.085-.328-.195-.27-.432-.094-.14.09-.459-.262-.424-.15-.098-.588-.005-.25-.414-.196-.061.026-.394-.242-.405.226-.329-.154-.262-.228-.392-.024-.163 0-.351-.217-.381-.228-.024-.076-.289-.205-.371-.255.004.08-.375-.191-.356-.033-.133-.172-.195-.179-.34-.49.172-.137-.204-.165-.326-.007-.136-.41-.012-.155-.31-.378.117-.164-.15-.136-.292.034-.146-.248-.081-.121-.276-.277.067.017-.234-.108-.257.099-.169-.087-.145-.092-.238-.095-.031-.117-.104-.075-.215a4.93 4.93 0 0 1-.06-.198c-.101-.37-.101-.608.016-.684Z"/></svg>