<svg xmlns="http://www.w3.org/2000/svg" width="96" height="112" fill="none"><path fill="#D7FE03" d="M45.087 19.579c.006.181-2.024.145-5.564.928-.296.06-.595.15-.91.228-.313.083-.638.158-.966.268-.327.105-.664.218-1.015.334-.344.125-.699.25-1.07.364-.4.03-.738.272-1.089.479-.357.205-.705.436-1.157.48a5.49 5.49 0 0 0-.605.236c-.198.095-.394.196-.59.304-.194.11-.394.217-.588.338-.19.126-.382.253-.58.38-.192.13-.401.24-.605.36l-.621.363a5.537 5.537 0 0 0-1.19.878 1.713 1.713 0 0 1-.257.285c-.092.086-.19.167-.296.239-.21.143-.443.265-.676.39-.465.251-.917.55-1.173 1.061-.72.796-1.535 1.538-2.298 2.386-.973.67-1.472 1.784-2.112 2.788a4.96 4.96 0 0 0-1.132 1.446c-.304.538-.498 1.142-.688 1.746a5.102 5.102 0 0 0-.879 1.175 4.274 4.274 0 0 0-.194.445 5.833 5.833 0 0 0-.267.942c-.05.33-.076.667-.082 1.008-.111.31-.2.627-.306.94-.101.315-.22.629-.297.955-.085.324-.164.653-.23.984a8.257 8.257 0 0 0-.1 1.018c-.186 1.35-.26 2.733-.345 4.146.06.354.128.706.175 1.06.053.352.065.708.104 1.064.03.356.039.714.035 1.076.016.36.012.725-.006 1.097.54 1.395.735 2.837 1.032 4.332.08.37.199.732.336 1.087.148.351.33.691.498 1.036.165.346.37.677.529 1.026.157.35.324.7.447 1.073.706 1.39 1.638 2.675 2.572 3.972.861 1.347 1.885 2.669 3.317 3.557 1.279 1.048 2.661 1.957 3.992 2.99 1.613.598 3.028 1.48 4.567 2.28 1.614.57 3.234 1.291 5.005 1.43 1.723.381 3.501.344 5.277.497 1.78.1 3.588.03 5.278-.496.838-.272 1.686-.444 2.533-.65.427-.088.843-.214 1.259-.334.416-.116.82-.273 1.213-.448.216-.043.43-.089.635-.155a10.678 10.678 0 0 0 1.19-.5c.186-.104.372-.21.558-.317l.553-.324.537-.342c.179-.111.36-.221.544-.324.183-.105.363-.217.55-.315 1.406-.91 2.886-1.756 3.993-2.99 1.18-1.149 2.23-2.374 3.317-3.56.282-.786.766-1.398 1.255-2.02.257-.304.493-.62.725-.94.114-.159.227-.32.33-.488.096-.17.184-.344.262-.523.914-1.29 1.299-2.808 1.808-4.222.175-.734.447-1.434.647-2.153.052-.179.105-.356.156-.535.044-.182.079-.362.113-.545.06-.365.128-.727.118-1.098.057-.36.098-.723.134-1.084.018-.36.032-.722.048-1.082.028-.356.016-.714.038-1.07.017-.354.056-.708.086-1.062a5.891 5.891 0 0 1-.104-1.051 13.55 13.55 0 0 1-.016-1.047c.014-.349-.016-.695-.041-1.037-.03-.344-.072-.685-.185-1.011-.212-1.349-.583-2.633-.93-3.896a4.53 4.53 0 0 0-.154-.982 6.995 6.995 0 0 0-.359-.905c-.07-.145-.137-.29-.215-.432-.078-.14-.158-.28-.238-.42-.163-.275-.307-.555-.456-.832-.275-.563-.6-1.094-.946-1.602-.324-.522-.661-1.017-.877-1.59-.653-.998-1.228-2.042-2.112-2.788-.201-.203-.357-.438-.524-.667-.161-.233-.321-.466-.481-.695a2.987 2.987 0 0 0-.555-.616 2.136 2.136 0 0 0-.733-.408c-.442-.312-.77-.734-1.135-1.11a5.35 5.35 0 0 0-.58-.518 2.744 2.744 0 0 0-.323-.206 2.368 2.368 0 0 0-.366-.141c-.507-.158-.895-.452-1.279-.742-.19-.15-.373-.306-.557-.459a4.445 4.445 0 0 0-.58-.4c-.202-.118-.399-.236-.595-.35-.199-.113-.401-.214-.597-.32l-.588-.31c-.19-.1-.392-.185-.584-.279a30.392 30.392 0 0 0-4.818-1.8l-1.052-.273c-.338-.086-.668-.145-.981-.214-.624-.147-1.203-.221-1.719-.315a51.497 51.497 0 0 0-2.376-.305c-.54-.064-.822-.121-.822-.173 0-.057.346-.105 1.025-.144.168-.007.36-.024.57-.021.209.003.44.005.689.01.249.007.52.007.809.024.288.025.595.048.921.076 1.302.13 2.908.364 4.736.872a28.608 28.608 0 0 1 6.018 2.445c.213.117.442.214.665.325.223.111.45.22.677.34a4.16 4.16 0 0 1 1.247.922l1.337.898c.448.314.876.674 1.255 1.097 1.079.504 1.725 1.531 2.49 2.446.818.881 1.466 1.932 2.307 2.892.435.473.778 1.023 1.066 1.608.313.572.569 1.178.944 1.738.102.32.2.644.321.956.061.158.124.313.192.469.064.155.127.314.19.469.131.314.28.622.434.933.141.315.293.628.456.943.07.345.135.69.228 1.028.09.341.213.674.304 1.02.103.34.204.684.31 1.029.087.348.165.704.229 1.063-.011.371-.016.738.006 1.104.022.366.087.728.124 1.095.044.365.106.734.17 1.105.052.371.097.746.141 1.123.048.377.047.758.04 1.14-.01.382-.016.766-.063 1.15l-.113 1.155c-.052.386-.099.775-.128 1.166-.296 1.539-.504 3.131-1.053 4.669-.344 1.592-.951 3.165-1.899 4.566-.687 1.536-1.684 2.94-2.737 4.304-.95 1.455-2.263 2.653-3.554 3.865-.638.62-1.381 1.129-2.13 1.625-.366.261-.751.494-1.112.764-.358.276-.718.545-1.055.865-1.524 1.004-3.225 1.743-4.932 2.482-1.755.64-3.57 1.113-5.416 1.565-1.927 0-3.772.396-5.71.54-1.931.1-3.857-.133-5.71-.54a25.924 25.924 0 0 1-5.417-1.565c-1.787-.585-3.315-1.647-4.932-2.482a8.3 8.3 0 0 1-1.164-.71c-.368-.268-.735-.532-1.072-.831-.696-.571-1.35-1.176-2.063-1.713-1.388-1.112-2.644-2.383-3.552-3.865-.521-.688-.957-1.431-1.37-2.17-.223-.363-.42-.736-.643-1.092-.112-.179-.23-.352-.352-.525a8.16 8.16 0 0 0-.371-.517c-.21-.362-.444-.715-.648-1.08-.207-.365-.439-.72-.61-1.1a8.12 8.12 0 0 1-.46-1.154 5.303 5.303 0 0 1-.18-1.233c-.3-.76-.474-1.551-.595-2.341l-.103-.588a11.165 11.165 0 0 0-.21-1.167l-.147-.572c.042-.403.041-.793.009-1.179a11.29 11.29 0 0 0-.101-1.15c-.058-.382-.084-.764-.124-1.144a7.772 7.772 0 0 1-.05-1.138c.08-1.518.371-2.969.444-4.427.022-.366.068-.728.138-1.083.081-.351.18-.696.28-1.04.093-.346.226-.678.336-1.014.114-.333.206-.671.316-1.004.061-.346.168-.678.29-1.002.136-.318.299-.625.459-.928l.235-.454c.085-.15.164-.3.24-.45.15-.3.269-.614.368-.935.332-.582.62-1.175.957-1.731.316-.57.675-1.104 1.052-1.615.068-.336.213-.62.376-.891a3.94 3.94 0 0 1 .587-.734c.444-.447.926-.842 1.348-1.267.832-.855 1.397-1.95 2.49-2.446.302-.504.716-.887 1.176-1.189.232-.15.471-.285.708-.42.119-.065.238-.131.354-.198.118-.061.237-.125.352-.19.465-.254.858-.588 1.278-.873.208-.147.415-.288.63-.414.214-.127.446-.223.682-.298.178-.178.378-.316.587-.434.208-.114.433-.193.655-.273.222-.081.442-.153.657-.236.212-.081.425-.159.617-.27.443-.102.838-.282 1.23-.439.39-.159.76-.351 1.149-.452a11.49 11.49 0 0 1 1.104-.397c.37-.093.732-.163 1.088-.213.344-.091.687-.15 1.015-.215.328-.062.638-.135.949-.174 1.839-.307 3.281-.319 4.247-.324.969.04 1.472.097 1.472.165Z"/><path fill="#D7FE03" d="M45.087 5.013c0 .068-.76.155-2.204.257-1.44.173-3.575.348-6.263.951-.453.085-.908.218-1.39.33-.475.122-.974.232-1.474.393-.503.156-1.02.317-1.552.484-.527.187-1.068.373-1.633.55a3.133 3.133 0 0 0-.852.281c-.276.127-.55.273-.824.418-.558.28-1.106.602-1.76.738-.307.115-.618.23-.918.375-.298.145-.598.3-.9.463-.3.16-.606.318-.905.497-.295.185-.593.371-.896.558-.299.192-.619.357-.925.545l-.944.564a11.43 11.43 0 0 0-1.836 1.312c-.13.148-.27.277-.42.4a5.521 5.521 0 0 1-.456.36c-.316.228-.656.43-.999.64-.35.2-.668.442-.981.698a4.272 4.272 0 0 0-.831.902c-1.135 1.18-2.373 2.325-3.525 3.628a8.71 8.71 0 0 0-.495.441c-.163.15-.313.308-.453.48-.286.338-.556.69-.822 1.051-.273.354-.498.747-.745 1.128-.239.386-.5.757-.736 1.15a10.343 10.343 0 0 0-1.647 2.262c-.474.817-.817 1.714-1.16 2.614-.322.379-.585.792-.84 1.214-.126.21-.246.427-.358.645-.11.222-.2.452-.291.682-.175.463-.336.934-.457 1.422-.107.49-.19.991-.254 1.497-.172.473-.302.959-.46 1.442-.148.483-.321.967-.434 1.466-.126.497-.246.998-.355 1.505a18.7 18.7 0 0 0-.195 1.552c-.097.512-.145 1.034-.202 1.558-.051.526-.134 1.048-.152 1.578-.036.532-.071 1.065-.116 1.598-.026.536-.043 1.075-.078 1.616.05.544.128 1.086.179 1.628.059.545.07 1.09.127 1.637.044.546.066 1.097.08 1.654.04.553.06 1.109.069 1.675.655 2.167 1.027 4.384 1.57 6.647.145.56.33 1.113.534 1.661.22.541.477 1.07.724 1.605l.187.4.202.394c.136.261.264.526.391.794.241.543.505 1.073.723 1.63 1.094 2.126 2.481 4.126 3.936 6.102 1.386 2.026 3.002 3.99 5.086 5.47 1.932 1.637 4.03 3.085 6.127 4.596 2.379 1.074 4.612 2.37 7.01 3.505 2.474.908 4.993 1.889 7.689 2.202 2.645.557 5.372.612 8.104.763 2.736.1 5.492-.061 8.105-.763 1.299-.36 2.605-.64 3.899-.976.652-.146 1.286-.348 1.922-.542.315-.103.638-.186.944-.313a24 24 0 0 0 .922-.374c.321-.085.646-.166.956-.282.31-.115.614-.24.92-.371.301-.13.602-.263.898-.409l.866-.469.857-.475.835-.51 1.676-.986c2.174-1.388 4.368-2.774 6.128-4.598 1.834-1.739 3.477-3.604 5.086-5.468.539-1.128 1.272-2.087 1.99-3.068.374-.475.714-.974 1.053-1.475.167-.25.333-.503.487-.759.142-.264.281-.53.406-.8.326-.506.63-1.02.875-1.562.128-.268.252-.537.372-.806l.181-.405.158-.414c.202-.553.416-1.1.61-1.65.18-.554.366-1.104.567-1.649.292-1.12.68-2.202.964-3.309l.225-.827c.059-.275.112-.555.166-.834.05-.277.097-.556.136-.835l.056-.42c.01-.14.017-.28.022-.42.082-.556.15-1.11.212-1.663l.092-1.657c.046-.55.034-1.099.06-1.642.032-.547.06-1.088.091-1.633a14.307 14.307 0 0 1-.12-1.612 32.155 32.155 0 0 1-.06-1.602c.005-.534-.056-1.06-.103-1.586-.052-.525-.117-1.046-.266-1.552-.095-.513-.188-1.024-.284-1.532-.116-.503-.235-1.004-.352-1.501-.104-.502-.26-.985-.392-1.475-.14-.486-.255-.979-.418-1.454a10.2 10.2 0 0 0-.322-1.474 15.13 15.13 0 0 0-.55-1.38c-.101-.226-.198-.45-.309-.67-.116-.217-.23-.434-.347-.648-.234-.428-.445-.863-.67-1.288a23.864 23.864 0 0 0-1.418-2.47c-.481-.804-1.001-1.567-1.389-2.405-1.015-1.52-1.963-3.06-3.25-4.252-.303-.312-.553-.666-.823-.998l-.79-1.012a6.016 6.016 0 0 0-.865-.917 4.722 4.722 0 0 0-1.048-.7 10.689 10.689 0 0 1-.915-.805c-.294-.277-.558-.583-.858-.844a12.14 12.14 0 0 0-.902-.763 5.61 5.61 0 0 0-.482-.332 5.48 5.48 0 0 0-.53-.256c-.725-.306-1.321-.754-1.926-1.176-.298-.217-.587-.441-.878-.66a9.795 9.795 0 0 0-.901-.585c-.308-.177-.61-.354-.913-.529-.303-.17-.612-.321-.914-.48l-.896-.466c-.296-.153-.601-.28-.896-.418a45.597 45.597 0 0 0-7.368-2.683l-1.606-.397c-.515-.127-1.018-.21-1.494-.31-.952-.212-1.833-.312-2.618-.441-1.574-.206-2.792-.332-3.616-.387-.823-.07-1.248-.133-1.248-.184 0-.058.526-.102 1.552-.131.254-.004.541-.02.856-.012.318.012.664.022 1.042.036.376.018.784.024 1.218.058l1.389.134c1.96.22 4.376.602 7.124 1.39a43.6 43.6 0 0 1 9.024 3.744c.319.179.657.332.987.51.329.178.66.359.998.54.678.36 1.314.81 1.894 1.356.161.113.325.225.493.335l.49.347c.33.234.663.467 1 .703.34.23.65.504.97.77.316.275.63.557.921.864 1.496.887 2.564 2.318 3.722 3.688 1.224 1.33 2.244 2.875 3.446 4.355.61.74 1.131 1.556 1.578 2.424.482.85.886 1.751 1.418 2.604.178.47.34.948.534 1.412.096.235.194.467.297.7.096.233.192.468.287.706.196.47.41.935.625 1.408.197.478.407.957.627 1.433.13.51.237 1.026.381 1.532.139.509.313 1.012.443 1.528.142.516.286 1.033.432 1.555.122.525.23 1.056.328 1.595.025.546.041 1.096.088 1.643.041.549.137 1.092.184 1.644.061.551.136 1.104.214 1.66.06.558.11 1.12.159 1.684.057.567.048 1.137.035 1.71-.019.571-.019 1.147-.087 1.722-.05.575-.104 1.151-.156 1.732-.079.576-.15 1.157-.205 1.742-.41 2.31-.796 4.68-1.59 6.984-.589 2.362-1.518 4.691-2.854 6.83-1.072 2.273-2.524 4.39-4.1 6.435-1.471 2.134-3.378 3.972-5.32 5.776-.967.91-2.051 1.706-3.155 2.47-.54.4-1.113.757-1.659 1.157-.537.406-1.09.795-1.617 1.234-2.292 1.48-4.81 2.633-7.376 3.71-2.615.974-5.33 1.708-8.099 2.335-2.852.175-5.645.661-8.538.807-2.888.098-5.762-.226-8.539-.807a40.794 40.794 0 0 1-8.1-2.336c-2.644-.92-4.992-2.397-7.375-3.709a15.497 15.497 0 0 1-1.73-1.08c-.548-.396-1.104-.783-1.615-1.22-1.052-.842-2.045-1.731-3.084-2.561-2.043-1.704-3.893-3.615-5.321-5.776-.78-1.03-1.466-2.116-2.107-3.213-.34-.537-.639-1.094-.97-1.63-.163-.27-.337-.534-.51-.798a17.608 17.608 0 0 0-.515-.794c-.308-.546-.64-1.082-.926-1.636-.148-.275-.299-.551-.447-.824l-.219-.415c-.069-.14-.132-.283-.196-.422-.25-.569-.497-1.138-.685-1.724a11.92 11.92 0 0 1-.381-1.808 20.431 20.431 0 0 1-.908-3.497l-.172-.878-.146-.878c-.05-.29-.108-.581-.172-.869l-.101-.43-.092-.433a13.699 13.699 0 0 0-.064-1.756c-.03-.58-.08-1.155-.145-1.727-.078-.57-.103-1.144-.148-1.714-.04-.572-.083-1.14-.052-1.705.033-.568.064-1.13.105-1.69.063-.557.124-1.114.176-1.663.041-.556.137-1.1.192-1.648.06-.547.101-1.093.17-1.634a18.13 18.13 0 0 1 .235-1.612 41.69 41.69 0 0 1 .406-1.565c.128-.519.316-1.02.474-1.524.164-.504.3-1.012.468-1.507.119-.511.282-1.008.463-1.492.197-.481.427-.945.648-1.407.112-.231.217-.464.332-.691.12-.225.233-.452.344-.68.224-.452.408-.92.584-1.39.485-.875.919-1.762 1.427-2.597.473-.854 1.016-1.654 1.568-2.432.15-.47.394-.878.646-1.275.266-.394.54-.773.868-1.11.316-.342.646-.671.968-1 .159-.165.323-.326.49-.484.162-.158.322-.318.474-.486 1.224-1.31 2.212-2.811 3.723-3.688.253-.347.544-.655.85-.943.307-.28.617-.559.963-.784.342-.232.688-.45 1.032-.666l.514-.324c.172-.098.345-.197.516-.302.681-.406 1.284-.893 1.925-1.307.313-.216.627-.425.948-.618.32-.194.661-.344 1.004-.481a6.08 6.08 0 0 1 .903-.613c.314-.17.646-.302.972-.435.328-.132.652-.256.968-.39.316-.134.633-.254.93-.412.648-.19 1.239-.464 1.834-.695l.87-.362c.287-.118.571-.23.864-.31.564-.216 1.12-.412 1.666-.582a21.917 21.917 0 0 1 1.626-.363c.518-.145 1.031-.238 1.523-.343.495-.095.964-.21 1.428-.275 2.764-.493 4.94-.543 6.399-.587 1.462.029 2.224.078 2.224.148Z"/><path fill="#D7FE03" d="M45.087 34.552c.002.157-.952.213-2.58.64-.27.076-.558.157-.86.26-.151.061-.303.123-.462.18a3.98 3.98 0 0 1-.49.173c-.203-.03-.344.122-.491.254-.15.13-.293.266-.533.217-.198.04-.38.127-.558.235-.178.105-.345.237-.513.369-.172.128-.372.22-.568.325-.2.1-.387.234-.525.433-.084.27-.32.34-.567.414-.241.08-.48.188-.515.51-.293.403-.673.728-1.03 1.107-.562.214-.676.818-.943 1.287-.584.273-.761.858-.808 1.463-.657.319-.852.935-.625 1.628-.164.564-.503 1.123-.402 1.77-.07.617-.056 1.241-.136 1.879.302.644.31 1.253.156 1.94.423.604.434 1.249.482 1.953.012.174.062.338.132.495.074.157.173.305.264.452.194.295.38.584.432.95.309.63.772 1.18 1.165 1.782.328.646.741 1.314 1.501 1.595.608.439 1.258.793 1.802 1.339.825.107 1.396.566 2.054 1.017.731.228 1.426.681 2.247.642.773.2 1.577.073 2.37.222.798.102 1.63.123 2.371-.222.366-.183.744-.247 1.13-.317.193-.03.384-.074.572-.12a2.23 2.23 0 0 0 .546-.205c.211.01.403-.04.584-.113.183-.07.348-.17.507-.282.161-.107.313-.225.47-.337.158-.109.32-.206.493-.287.62-.42 1.364-.71 1.8-1.337.509-.541.949-1.11 1.5-1.595.016-.435.242-.694.5-.95.136-.124.266-.251.388-.384.124-.135.225-.28.28-.448.518-.535.57-1.275.828-1.897.052-.34.208-.644.322-.964a2.47 2.47 0 0 0 .143-.485c.028-.166.05-.332.017-.503.143-.653-.034-1.306.155-1.943a1.211 1.211 0 0 1-.088-.471 2.854 2.854 0 0 1 .028-.476 2.85 2.85 0 0 0 .025-.474 1.03 1.03 0 0 0-.104-.456c-.093-.611-.27-1.189-.4-1.77a1.12 1.12 0 0 0 .02-.477 1.506 1.506 0 0 0-.162-.414c-.14-.261-.352-.485-.483-.738-.224-.532-.73-.872-.81-1.462-.28-.463-.471-.998-.942-1.287-.188-.178-.263-.453-.381-.694-.115-.243-.294-.43-.648-.413-.218-.122-.33-.356-.476-.556-.148-.196-.31-.38-.606-.368-.284-.002-.454-.139-.616-.296-.156-.16-.29-.355-.476-.462a8.137 8.137 0 0 0-.54-.32 7.047 7.047 0 0 0-.533-.284 14.76 14.76 0 0 0-2.197-.899 18.543 18.543 0 0 0-1.727-.443c-.957-.195-1.49-.27-1.49-.382-.002-.105.66-.254 1.915-.2 1.244.061 3.115.363 5.21 1.451.21.105.45.169.681.268.233.093.445.234.584.476.41.29.961.467 1.268.943.652.112.864.722 1.225 1.17.407.422.67.965 1.14 1.39.258.199.412.476.538.767.136.289.242.592.457.847.08.68.393 1.241.797 1.828-.002.708.435 1.303.54 2.015-.218.748.096 1.416.234 2.16.13.74-.078 1.49-.112 2.253-.18.746-.204 1.542-.503 2.29-.09.803-.365 1.598-.919 2.24-.286.78-.817 1.447-1.33 2.116-.416.755-1.12 1.296-1.738 1.901-.301.316-.696.534-1.078.755-.382.225-.744.461-1.024.848-.74.513-1.598.828-2.42 1.225-.871.292-1.764.5-2.66.771-.976-.181-1.847.124-2.804.267-.948.102-1.902-.04-2.806-.267a11.03 11.03 0 0 1-2.658-.77c-.903-.241-1.59-.881-2.42-1.226-.424-.17-.768-.46-1.096-.758-.327-.298-.632-.608-1.008-.844-.718-.507-1.364-1.12-1.735-1.902-.257-.337-.433-.726-.619-1.097-.096-.183-.188-.369-.302-.538a2.834 2.834 0 0 0-.411-.48c-.227-.343-.505-.669-.713-1.028a2.068 2.068 0 0 1-.226-.571 1.496 1.496 0 0 1 .019-.641c-.177-.364-.233-.762-.264-1.153-.024-.194-.043-.388-.073-.578a2.365 2.365 0 0 0-.164-.557c.068-.205.092-.398.088-.585.002-.19-.02-.375-.055-.56-.04-.186-.07-.37-.101-.556a2.515 2.515 0 0 1-.046-.555c.076-.74.282-1.435.232-2.158-.061-.741.394-1.358.542-2.016.005-.177.053-.341.118-.497.072-.152.17-.296.263-.439.183-.286.385-.548.415-.893.334-.555.586-1.143.996-1.615-.032-.39.15-.648.393-.846.244-.195.535-.344.747-.544.428-.385.558-1.067 1.225-1.17.079-.313.279-.505.517-.634.244-.124.511-.21.752-.308.24-.101.419-.28.614-.429.192-.154.39-.294.652-.316.137-.23.358-.312.588-.358.229-.052.458-.078.637-.201.46-.02.773-.314 1.156-.4.172-.09.348-.16.524-.205.179-.04.359-.061.537-.059.335-.07.652-.116.947-.157 1.777-.206 2.737.014 2.735.13Z"/><path fill="#D7FE03" d="M87.868 7.31c.099.098-.165.544-.735 1.274-.096.12-.198.25-.31.388-.1.15-.204.308-.36.435-.272.01-.046.524-.406.48-.216.095-.325.31-.453.52-.125.214-.432.26-.497.561.07.433-.662.093-.54.6-.13.264-.354.446-.58.639-.407.014-.432.418-.622.67-.46-.012-.588.315-.658.707-.56-.085-.752.2-.697.738-.237.25-.614.376-.73.767-.235.273-.439.589-.763.795-.052.476-.333.732-.796.825-.044.497-.417.683-.822.846-.416.152-.374.765-.854.87-.31.275-.54.633-.881.891-.396.203-.808.398-.901.912-.254.358-.49.74-.93.928-.068.552-.498.758-.95.946-.282.355-.782.501-.97.96-.368.28-.55.75-.99.97-.407.253-.808.505-.99.969-.17.475-.72.576-.98.95-.553.09-.565.702-.964.93-.293.334-.763.485-.948.911-.268.344-.528.688-.93.885.054.645-.691.499-.91.863-.444.141-.561.594-.886.835-.222.345-.734.395-.867.809-.307.241-.435.65-.84.777-.09.437-.677.374-.812.749-.256.25-.497.51-.783.714-.524-.03-.536.434-.752.681-.266.201-.31.611-.721.647-.247.197-.587.29-.685.608-.171.249-.822.012-.651.57-.133.259-.676.105-.613.528.044.406-.392.33-.574.488l-.53.443c-1.531 1.265-2.48 1.92-2.63 1.774-.166-.163.679-1.293 2.262-3.097.158-.18.142-.547.497-.562.188-.181.23-.515.541-.6-.057-.448.358-.441.582-.637.198-.22.5-.352.62-.672.076-.367.529-.372.66-.706.394-.076.594-.353.693-.737.403-.09.468-.521.73-.768.497-.019.594-.44.766-.796.18-.349.575-.495.793-.823.323-.226.498-.606.824-.846.175-.39.424-.715.854-.872.217-.363.578-.594.88-.89.208-.389.62-.584.905-.913.26-.351.873-.36.928-.927.281-.343.676-.582.95-.946.354-.282.714-.567.97-.96.585-.066.756-.545.988-.971.259-.399.627-.684.992-.968.301-.345.641-.65.977-.95.247-.392.755-.52.966-.931.205-.417.746-.5.948-.91.234-.376.5-.717.929-.884.303-.297.837-.358.91-.864.246-.337.242-.91.89-.836.195-.367.74-.384.862-.808.544-.01.563-.524.84-.776.32-.215.671-.383.814-.749.13-.377.579-.432.784-.716.095-.39.687-.285.752-.68.27-.2.443-.48.72-.647-.132-.568.444-.43.688-.608.263-.158.18-.64.65-.57-.071-.458.354-.417.611-.53.264-.103.25-.466.574-.486-.02-.354.44-.227.53-.444.283-.031.314-.294.49-.398a.708.708 0 0 1 .444-.353c.14-.106.272-.209.396-.302.746-.559 1.2-.818 1.3-.72ZM59.42 88.387c-.045-.131.625-.524 1.875-1.121.205-.104.437-.196.668-.328.228-.141.468-.292.746-.397.348.045.412-.553.834-.431.336-.06.62-.263.905-.492.288-.22.705-.234.968-.56.165-.491.9-.013 1.037-.605.154-.149.326-.27.508-.383l.172-.102.227-.13.459-.256c.28-.032.509-.15.772-.334.257-.181.546-.427.85-.655.036.077.07.16.103.25-.01.594.037.953.15 1.274.113.32.289.606.506.962l-.037.168c-.012.038-.027.076-.04.111-.023.07-.038.139-.047.204a.883.883 0 0 0 .036.38c.081.24.268.455.544.648.15.495.117 1.05.452 1.517.172.51.4 1.019.47 1.58.443.46.58 1.013.48 1.638.47.475.5 1.075.494 1.695-.02.622.596 1.089.504 1.75.144.597.4 1.174.515 1.797.036.643.058 1.298.524 1.844.248.602.528 1.206.53 1.886.51.55.538 1.232.538 1.927.233.635.173 1.354.544 1.964.064.335.192.659.308.985.058.162.113.326.157.494.021.083.04.168.055.254.02.136.044.272.069.412.128.677.237 1.291.399 1.911a9.549 9.549 0 0 0-1.6.541c-.714.3-.908.328-1.28.384-.346.05-.692.082-1.012.209-.748-.134-1.292.448-1.974.508-.64.2-1.341.161-1.933.493-.62.225-1.233.449-1.89.478-.029.031-.031.053-.083.085-.048.031-.1.06-.15.089a3.1 3.1 0 0 1-.317.147 3.893 3.893 0 0 1-.66.188c-.437.088-.827.101-1.192.139-.05-.35-.108-.657-.21-.924a5.817 5.817 0 0 0-.142-.84 8.8 8.8 0 0 0-.104-.384l-.056-.181-.04-.108c-.105-.286-.23-.563-.283-.859-.246-.553-.086-1.203-.438-1.71-.112-.569-.46-1.066-.42-1.655-.387-.475-.087-1.121-.4-1.597-.14-.519-.296-1.023-.382-1.535.246-.597-.204-1.002-.36-1.47-.088-.486-.47-.882-.336-1.401-.094-.46-.048-.942-.317-1.33-.172-.412.323-.984-.292-1.252-.2-.377.173-.891-.27-1.174-.413-.293-.16-.744-.24-1.093-.078-.351-.15-.687-.22-1.008-.613-2.885-.867-4.566-.662-4.62.225-.058.987 1.897 2.108 5.306.112.34.475.63.345 1.064.103.374.412.709.368 1.149.46.308.288.798.387 1.23.133.421.14.89.405 1.304.328.397.148.944.422 1.38-.088.533.104 1.004.438 1.449-.074.554.32.994.455 1.516-.184.605.188 1.074.465 1.58.27.508.25 1.101.483 1.638.09.575.392 1.104.495 1.696.153.268.286.545.374.835l.034.109c.005.021 0 .012 0 .019 0 .007-.003.015-.01.027-.013.025-.037.06-.07.125.032.003.05.008.06.024.036-.018.057-.017.086-.016l.048.003.028-.003.014-.002.07-.017c.587-.29 1.255-.313 1.883-.512.617-.234 1.372.002 1.925-.52.639-.216 1.322-.288 1.967-.527.337-.064.676-.129 1.012-.211.3-.074.805-.219.696-.243.127.139.292.139.35.105a.563.563 0 0 0-.277-.261l-.02-.012c-.005-.008-.002.009-.013-.015l-.024-.06-.087-.247a7.402 7.402 0 0 1-.142-.498c-.087-.335-.151-.673-.215-1.01a22.554 22.554 0 0 1-.53-1.966c-.283-.622-.202-1.331-.52-1.931-.325-.597-.183-1.31-.503-1.894-.274-.597-.5-1.2-.49-1.854-.165-.609-.01-1.295-.472-1.81-.23-.573-.792-1.054-.456-1.76-.281-.544-.077-1.206-.438-1.71.208-.652-.286-1.112-.422-1.654-.077-.558-.101-1.12-.4-1.597-.314-.474-.186-1.053-.381-1.535-.17-.222-.17-.486-.172-.746a2.098 2.098 0 0 0-.027-.382.76.76 0 0 0-.1-.258.14.14 0 0 0-.042-.02c0-.085-.03-.164-.052-.236a.652.652 0 0 1-.043-.27c-.044.062-.079.117-.113.168-.107.19-.096.138-.126.07-.021-.069-.081-.154-.153-.132-.041.003-.079.038-.108.08a.836.836 0 0 0-.036.067c-.01.013 0 .016-.024.038l-.06.057c-.168.15-.355.27-.633.217-.184.537-.723.439-1.124.536-.406.087-.623.501-1.048.484-.203.413-.714.187-.98.404-.384-.02-.606.259-.904.341a1.608 1.608 0 0 1-.812.294c-.252.1-.502.157-.728.223-1.37.382-2.13.523-2.175.394Zm-28.43-.033c-.046.13-.806-.012-2.171-.392-.227-.067-.478-.125-.73-.223a4.378 4.378 0 0 1-.812-.297c-.198-.287-.714.054-.9-.338-.274-.21-.63-.28-.982-.404-.356-.114-.612-.45-1.046-.483-.528.124-.53-.712-1.124-.536a3.214 3.214 0 0 1-.594-.277l-.108-.064-.056-.04-.115-.087c-.064-.195-.193-.274-.276-.278a.192.192 0 0 0-.107.026c-.014.012-.032.004-.037.03v.105c-.136-.141-.21-.04-.223.1a.682.682 0 0 0 .118.445.407.407 0 0 0-.084.011c-.03.016-.063.045-.09.068-.056.05-.104.102-.145.156a.86.86 0 0 0-.161.346c-.055.246-.002.524.138.827-.124.502-.436.965-.382 1.535-.112.526-.175 1.078-.4 1.596.148.617-.015 1.163-.422 1.656.166.641-.116 1.175-.438 1.708-.335.53-.038 1.235-.456 1.763-.182.588-.254 1.212-.472 1.81-.298.573-.61 1.151-.487 1.85-.096.646-.16 1.303-.507 1.896.166.725-.16 1.329-.517 1.931-.121.664-.54 1.255-.53 1.966-.118.323-.171.665-.235 1.003-.035.17-.07.34-.119.506a2.47 2.47 0 0 1-.083.247l-.024.061c-.01.024-.009.009-.014.017l-.028.013a.514.514 0 0 0-.19.237.318.318 0 0 0 .28-.046c-.04-.124.436.025.732.142.324.127.643.268.984.314.58.483 1.348.247 1.967.528.66.141 1.244.518 1.925.518.652.111 1.3.217 1.883.514l.05-.021c.018-.005.04-.011.038-.021.007-.013.012-.029.02-.042a.323.323 0 0 0 .019-.06c.008-.025.008-.027.016-.01.01.03.064.132.145.211.039.024.07.008.055-.049.052.014.084-.012.101-.046a.143.143 0 0 0 .016-.058c.004-.014 0-.013.005-.039l.02-.112c.054-.299.088-.601.195-.882.067-.601.536-1.086.493-1.696.194-.548.146-1.149.482-1.639-.095-.602.494-1.017.466-1.578.144-.52.266-1.032.454-1.516.517-.398.334-.969.44-1.451.17-.463.041-.994.421-1.379.155-.442.443-.838.404-1.305.063-.441.784-.695.388-1.229.019-.424.604-.686.367-1.148-.21-.456.238-.724.346-1.065.112-.342.222-.668.326-.978.941-2.8 1.578-4.38 1.782-4.327.228.06-.113 2.127-.88 5.626-.078.35.091.779-.244 1.094-.104.372-.004.812-.27 1.174.245.492-.156.831-.29 1.253-.1.43-.333.84-.317 1.329.083.504-.35.89-.339 1.402-.345.418-.422.919-.357 1.468-.35.444-.233 1.02-.381 1.536-.468.434-.384 1.023-.4 1.597-.03.571-.348 1.076-.422 1.655-.216.542-.225 1.148-.438 1.71-.002.307-.03.613-.099.907l-.03.109-.054.2c-.044.14-.088.28-.135.416-.093.27-.197.529-.31.761-.058.321-.128.641-.208.951a33.05 33.05 0 0 1-1.25-.337c-.208-.06-.418-.117-.626-.178l-.566-.155c-.656-.036-1.246-.345-1.892-.478-.654-.1-1.186-.675-1.933-.494-.663-.125-1.292-.397-1.972-.507a20.369 20.369 0 0 0-.987-.312c-.366-.102-.533-.133-1.314-.286-.499-.303-.962-.466-1.53-.599.143-.599.202-1.195.31-1.887l.046-.24.026-.11.01-.064a6.576 6.576 0 0 1 .18-.758c.098-.33.215-.656.328-.978.148-.671.344-1.32.544-1.964.074-.675.507-1.251.54-1.927.023-.675.508-1.224.528-1.886.068-.65.182-1.28.524-1.844.168-.608.655-1.126.515-1.799.093-.61-.148-1.3.505-1.748.034-.607.55-1.081.494-1.694.514-.464.32-1.104.48-1.64.217-.52.482-1.019.47-1.578-.032-.564.375-1.003.452-1.517-.036-.275.1-.504.23-.73.065-.113.13-.226.172-.343a.68.68 0 0 0 .044-.182c.004-.034.004-.059.005-.1.003-.05.005-.104.005-.159.132-.389.23-.778.332-1.17.103-.39.21-.781.335-1.103a4.26 4.26 0 0 1-.013-.495l.001-.027c-.001-.013.001-.019.007-.015l.026.003c.02.002.036.008.056.012.038.011.08.026.12.044.171.076.362.21.548.362.378.304.707.658 1.007.864.152.112.305.189.467.26l.246.105c.04.013.092.04.118.047l.076.025c.206.072.388.174.47.443.548-.121.744.333 1.038.604.293.274.748.209.968.56.432-.063.563.44.905.49.226.293.583.27.832.432.296.067.544.199.747.395.23.133.46.226.666.33 1.25.598 1.92.988 1.874 1.12Z"/><path fill="#D7FE03" d="M84.87 1.026c0-.07.067-.134.207-.192.072-.03.159-.062.264-.08.107-.016.23-.029.37-.038.096-.003.196.004.304.01.114-.011.237-.015.344.045.042.21.369-.231.38.089.086.136.25.117.409.147.164.024.197.246.424.208.173-.094.185.037.196.156.01.12.016.232.235.125.204.043.314.201.424.355-.038.157.014.229.106.282.087.053.218.083.292.155-.172.351.053.422.352.52-.31.386-.192.513.292.598.046.106.03.228.044.342a.546.546 0 0 0 .044.169.383.383 0 0 0 .115.156c.033.115.087.233.11.353a.812.812 0 0 1-.007.371c.16.122.218.256.215.39 0 .131-.085.26-.236.37.292.309.087.575-.15.78-.132.098-.112.244-.104.398.004.15-.017.3-.195.368-.15.234-.22.53-.445.725-.14.078-.287.14-.396.231-.11.094-.179.22-.19.426-.082.128-.165.267-.282.366a.635.635 0 0 1-.43.188c-.078.456-.471.48-.828.425-.137.077-.3.096-.463.106-.162.009-.311.04-.448.162-.164-.004-.316.062-.475.103-.16.036-.327.059-.49-.012-.16-.058-.316-.115-.473-.137a.796.796 0 0 0-.487.042c-.18.08-.337.013-.478-.066-.145-.077-.27-.19-.433-.202-.088-.2-.226-.247-.388-.264-.165-.014-.335-.038-.44-.162-.14-.063-.234-.197-.335-.307-.108-.107-.205-.213-.376-.25a1.503 1.503 0 0 1-.364-.267 1.026 1.026 0 0 1-.14-.173.696.696 0 0 1-.079-.215c-.29.032-.362-.111-.366-.28-.006-.169.029-.345-.078-.447.033-.172-.037-.286-.113-.403-.075-.115-.167-.23-.187-.366-.082-.115-.06-.263-.05-.4.005-.135.028-.267-.098-.38a.592.592 0 0 0-.033-.19 5.11 5.11 0 0 0-.048-.19c-.024-.126-.043-.256.063-.38-.12-.126-.06-.253.008-.368.073-.119.166-.222.096-.354.016-.119.038-.234.073-.346.033-.112.067-.223.132-.323.225-.045.277-.134.281-.248.002-.113-.022-.243.01-.347.125-.171.022-.486.354-.52.15-.148.393-.199.401-.435.043-.09.212-.064.334-.07.122-.006.203-.036.09-.284.037-.093.166-.081.275-.079.11.004.196-.014.158-.2-.055-.363.297-.147.426-.21.133-.064.279-.1.407-.144.596-.173 1.08-.158 1.397-.104.318.072.472.17.472.272 0 .121-.188.223-.492.368-.302.14-.725.338-1.15.686-.089.077-.027.346-.254.225-.099.068-.055.294-.244.26.155.334-.124.206-.23.295-.072.098-.24.145-.203.33.116.222-.239.171-.163.37-.27.024-.27.201-.123.395-.13.032-.131.112-.115.19.016.08.06.161.05.233-.176.043-.218.121-.19.201.03.081.12.163.182.238.055.074.055.146.04.223a.8.8 0 0 0-.018.114.219.219 0 0 0 .04.11c-.047.166.146.28.127.441.105.05.182.1.216.166.037.067.046.142-.007.259a.396.396 0 0 1 .165.179c.03.074.064.149.115.213.05.011.086.035.116.064.03.026.053.057.076.092.042.071.077.155.156.194.084.029.084.154.128.243.04.087.104.163.282.05.164.048.27.216.46.22.074.047.147.107.23.134a.442.442 0 0 0 .272.005c.052.187.146.239.244.224.097-.026.196-.11.285-.173a.435.435 0 0 1 .261-.072c.087-.003.175.006.267.023.163-.071.33-.098.499-.138.11-.158.389-.003.463-.22.034-.102.117-.122.211-.138.096-.013.187-.042.199-.154.03-.09.055-.175.103-.24.052-.06.125-.096.245-.108.048-.065.17-.08.248-.132.077-.048.141-.116.032-.261.001-.089-.07-.206-.087-.29-.021-.089.023-.137.295-.133-.039-.093.036-.15.108-.212.072-.063.115-.14.021-.23.2-.05.213-.134.175-.217-.04-.08-.113-.158-.112-.231.032-.073.079-.152.093-.229.019-.077-.01-.152-.101-.21-.048-.029-.07-.06-.074-.095-.01-.034-.002-.07.005-.109.02-.075.058-.162.006-.22-.125-.03-.083-.114-.045-.204.043-.092.059-.18-.076-.192-.012-.147-.163-.216-.164-.369-.244.084-.279.043-.262-.045.02-.09.091-.228.06-.285-.017-.07-.12-.062-.191-.076-.071-.016-.122-.04-.038-.22-.172.098-.218.071-.232 0-.014-.069.005-.185-.01-.26-.03-.164-.275.012-.254-.224-.217.17-.118-.224-.253-.19-.017-.207-.181-.085-.248-.159-.107.02-.179-.025-.236-.135a9.9 9.9 0 0 1-.216-.116 4.76 4.76 0 0 1-.283-.134c-.082-.044-.156-.075-.216-.113-.121-.072-.188-.142-.188-.211Z"/><path fill="#D7FE03" d="M90.71 14.002c0 .07-.069.134-.21.193-.068.027-.159.06-.264.08-.104.015-.23.03-.37.039-.094.003-.194-.007-.303-.012a.576.576 0 0 1-.343-.044c-.043-.21-.37.231-.381-.092-.084-.132-.247-.115-.406-.143-.165-.027-.201-.247-.425-.21-.175.095-.184-.037-.196-.155-.012-.119-.017-.231-.236-.124-.203-.044-.312-.202-.423-.358.038-.155-.014-.229-.106-.282-.088-.051-.218-.082-.294-.152.175-.351-.052-.422-.35-.52.309-.386.193-.513-.295-.597-.045-.107-.028-.23-.043-.345a.48.48 0 0 0-.158-.323c-.031-.116-.084-.232-.11-.353a.783.783 0 0 1 .007-.369c-.16-.122-.219-.258-.217-.39a.402.402 0 0 1 .061-.195.75.75 0 0 1 .175-.175c-.292-.308-.087-.576.149-.78.133-.098.11-.246.104-.398-.005-.15.017-.302.193-.37.151-.234.222-.53.444-.726l.21-.112a.979.979 0 0 0 .189-.118c.107-.096.175-.221.185-.426.083-.127.166-.267.284-.366.115-.102.247-.187.43-.19.077-.454.47-.482.825-.427.139-.077.303-.094.464-.106a.68.68 0 0 0 .45-.163c.162.004.313-.061.473-.104.158-.036.326-.058.489.011.163.058.317.117.473.139a.8.8 0 0 0 .487-.046c.18-.078.336-.009.48.067.145.08.27.192.433.202.087.201.226.249.39.266.164.014.334.037.436.161.144.063.237.196.34.308.105.107.202.214.373.248.136.074.26.162.365.269.054.053.102.11.139.172a.776.776 0 0 1 .08.216c.288-.033.361.11.364.28.005.17-.027.344.079.448-.035.172.036.287.113.402.072.115.165.23.184.366.084.115.06.264.05.4-.005.135-.026.266.1.378a.6.6 0 0 0 .03.192c.017.063.032.126.05.188.025.127.04.258-.063.38.12.126.06.253-.008.368-.071.117-.166.222-.095.353a2.137 2.137 0 0 1-.072.346c-.033.112-.065.224-.13.322-.226.046-.278.136-.282.251-.001.111.023.242-.01.345-.122.173-.02.486-.351.521-.151.15-.394.198-.4.438-.043.089-.214.063-.332.068-.122.01-.204.038-.091.287-.036.093-.167.079-.275.077-.112 0-.194.016-.157.203.055.363-.297.148-.425.209-.136.067-.278.102-.408.145-.596.175-1.083.162-1.396.106-.32-.07-.474-.17-.474-.273 0-.12.19-.222.492-.367.303-.14.727-.339 1.148-.689.087-.074.028-.343.252-.223.1-.067.055-.294.246-.26-.158-.335.122-.208.228-.295.072-.1.241-.145.201-.332-.116-.221.239-.171.161-.369.27-.023.272-.205.124-.398.13-.032.132-.113.115-.19-.016-.08-.063-.16-.05-.23.174-.046.218-.124.189-.205-.03-.08-.12-.162-.183-.236a.244.244 0 0 1-.037-.223c.005-.038.014-.079.014-.115a.195.195 0 0 0-.04-.11c.048-.167-.142-.282-.126-.443-.104-.05-.18-.1-.216-.167-.036-.066-.044-.141.009-.256-.17-.087-.173-.266-.28-.394a.244.244 0 0 1-.116-.065.331.331 0 0 1-.075-.091c-.042-.072-.078-.153-.157-.194-.084-.028-.083-.154-.127-.241-.038-.09-.104-.166-.28-.05-.165-.051-.272-.218-.462-.22-.072-.047-.143-.11-.23-.133a.42.42 0 0 0-.269-.006c-.053-.187-.148-.24-.245-.224-.098.026-.196.111-.283.175a.43.43 0 0 1-.263.07 1.417 1.417 0 0 1-.265-.021c-.165.07-.33.096-.501.138-.11.158-.388.003-.462.222-.033.1-.116.123-.212.139-.094.012-.185.042-.197.151-.03.092-.053.18-.101.24a.252.252 0 0 1-.102.073.375.375 0 0 1-.145.039c-.05.064-.17.078-.248.13-.079.049-.14.117-.032.262-.001.088.07.206.088.29.021.086-.023.138-.295.133.04.091-.037.148-.106.213-.074.061-.115.14-.023.23-.099.022-.15.057-.179.095-.02.037-.013.079.006.12.037.081.112.157.112.232-.032.074-.078.151-.095.228-.016.079.012.152.101.212.095.057.086.125.07.202-.02.076-.06.162-.006.219.128.034.083.114.046.206-.042.089-.058.178.077.19.01.15.16.217.163.37.245-.085.28-.043.26.047-.018.09-.087.225-.06.285.02.07.124.06.196.075.069.014.12.04.034.22.174-.099.218-.07.232 0 .016.068-.004.186.014.26.028.164.272-.011.252.225.216-.171.117.222.253.19.017.207.18.083.247.158.106-.021.18.023.236.134.074.042.149.08.217.115.104.047.197.093.281.137.083.043.158.074.216.111.12.072.188.143.188.21Z"/></svg>