<svg xmlns="http://www.w3.org/2000/svg" width="350" height="460" fill="none"><path fill="#000" d="M0 0h350v460H0z"/><path stroke="#B1B1B1" stroke-width=".5" d="M20.984 361.979V101.381m186.107 260.598V101.381M83.02 361.979V101.381" opacity=".5"/><path stroke="#B1B1B1" stroke-width=".5" d="M269.127 361.979V101.381"/><path stroke="#B1B1B1" stroke-width=".5" d="M145.055 361.979V101.381m186.107 260.598V101.381" opacity=".5"/><path fill="url(#a)" d="M20.925 125.792v234.136H330.68V170.234c-6.721-14.814-21.811-46.392-28.41-54.189-8.248-9.747-10.997 15.387-24.744 54.189-10.997 31.042-23.521 12.935-28.409 0l-23.827-23.08c-4.888 12.287-16.13 31.363-21.995 9.366-5.865-21.997-20.161-29.651-26.576-30.728-7.831 9.239-26.116 31.062-36.608 44.442-13.115 16.726-17.322-1.672-28.705-23.08-11.383-21.409-23.756 4.348-31.427 9.366-7.67 5.017-15.342-19.401-17.074-25.088-1.732-5.687-11.878 1.672-17.075 0-4.157-1.338-5.685-18.317-11.515-17.441l-13.39 11.801Z"/><path fill="url(#b)" d="M330.68 230.957v128.971H20.925v-104.49c6.72-8.161 21.81-25.555 28.41-29.85 8.247-5.369 10.996 8.476 24.743 29.85 10.997 17.099 23.522 7.124 28.409 0l23.828-12.714c4.887 6.768 16.129 17.276 21.994 5.159 5.865-12.117 20.162-16.333 26.577-16.926 7.831 5.089 26.116 17.11 36.608 24.481 13.115 9.212 17.322-.922 28.704-12.714 11.383-11.793 23.756 2.395 31.427 5.159 7.671 2.764 15.342-10.687 17.075-13.819 1.732-3.133 11.877.921 17.074 0 4.157-.737 5.686-10.09 11.516-9.608l13.39 6.501Z"/><path stroke="#8478F0" d="m20.925 125.792 13.39-11.801c5.83-.876 7.358 16.103 11.515 17.441 5.197 1.672 15.343-5.687 17.075 0 1.732 5.687 9.403 30.105 17.074 25.088 7.671-5.018 20.044-30.775 31.427-9.366 11.383 21.408 15.59 39.806 28.705 23.08 10.492-13.38 28.777-35.203 36.608-44.442 6.415 1.077 20.711 8.731 26.576 30.728 5.865 21.997 17.107 2.921 21.995-9.366l23.827 23.08c4.888 12.935 17.412 31.042 28.409 0 13.747-38.802 16.496-63.936 24.744-54.189 6.599 7.797 21.689 39.375 28.41 54.189"/><path stroke="#D7FE03" d="m330.68 230.957-13.39-6.501c-5.83-.482-7.359 8.871-11.516 9.608-5.197.921-15.342-3.133-17.074 0-1.733 3.132-9.404 16.583-17.075 13.819-7.671-2.764-20.044-16.952-31.427-5.159-11.382 11.792-15.589 21.926-28.704 12.714-10.492-7.371-28.777-19.392-36.608-24.481-6.415.593-20.712 4.809-26.577 16.926-5.865 12.117-17.107 1.609-21.994-5.159l-23.828 12.714c-4.887 7.124-17.412 17.099-28.41 0-13.746-21.374-16.495-35.219-24.743-29.85-6.598 4.295-21.689 21.689-28.41 29.85"/><path fill="#fff" d="M115.84 44.915v-9.8h3.759c.532 0 1.013.133 1.442.4.429.265.77.622 1.022 1.07.252.444.378.936.378 1.477 0 .444-.082.852-.245 1.225a2.84 2.84 0 0 1-.672.96c-.285.27-.614.475-.987.615l2.345 4.053h-1.967l-2.268-3.899h-1.099v3.9h-1.708Zm1.708-5.607h1.855c.243 0 .464-.06.665-.182.201-.121.362-.284.483-.49.121-.205.182-.434.182-.686a1.34 1.34 0 0 0-.182-.693 1.382 1.382 0 0 0-.483-.49 1.26 1.26 0 0 0-.665-.182h-1.855v2.723Zm9.274 5.79a3.27 3.27 0 0 1-1.764-.498 3.718 3.718 0 0 1-1.267-1.337 3.747 3.747 0 0 1-.469-1.855c0-.508.091-.985.273-1.428.182-.448.432-.84.749-1.176a3.52 3.52 0 0 1 1.12-.798 3.27 3.27 0 0 1 1.358-.287c.546 0 1.046.117 1.498.35.458.229.845.544 1.162.945.318.401.549.859.693 1.372.145.514.178 1.05.098 1.61h-5.117c.066.261.173.497.322.707.15.205.339.371.567.497.229.121.488.184.777.19.299.004.57-.066.812-.21.248-.15.453-.35.616-.603l1.743.406a3.734 3.734 0 0 1-1.274 1.526 3.248 3.248 0 0 1-1.897.588Zm-1.722-4.383h3.444a1.772 1.772 0 0 0-.329-.756 1.837 1.837 0 0 0-.609-.546 1.581 1.581 0 0 0-.784-.203c-.28 0-.539.068-.777.203-.238.13-.441.31-.609.54a1.988 1.988 0 0 0-.336.762Zm10.317 4.2h-2.205l-2.548-7.007h1.82l1.834 5.04 1.827-5.04h1.82l-2.548 7.007Zm6.39.182a3.27 3.27 0 0 1-1.764-.497 3.702 3.702 0 0 1-1.267-1.337 3.737 3.737 0 0 1-.469-1.855c0-.508.091-.985.273-1.428.182-.448.431-.84.749-1.176.322-.34.695-.607 1.12-.798a3.263 3.263 0 0 1 1.358-.287 3.22 3.22 0 0 1 1.498.35c.457.229.844.544 1.162.945a3.897 3.897 0 0 1 .791 2.982h-5.117c.065.261.172.497.322.707.149.205.338.371.567.497.228.121.487.184.777.19.298.004.569-.066.812-.21.247-.15.452-.35.616-.603l1.743.406a3.75 3.75 0 0 1-1.274 1.526 3.25 3.25 0 0 1-1.897.588Zm-1.722-4.382h3.444a1.785 1.785 0 0 0-.329-.756 1.856 1.856 0 0 0-.609-.546 1.584 1.584 0 0 0-.784-.203c-.28 0-.539.068-.777.203-.238.13-.441.31-.609.54a1.959 1.959 0 0 0-.336.762Zm12.724-.224v4.424h-1.708V40.94a1.485 1.485 0 0 0-.749-1.288 1.42 1.42 0 0 0-.749-.203 1.489 1.489 0 0 0-1.295.742 1.456 1.456 0 0 0-.196.75v3.975h-1.708l-.007-7h1.708l.007.623c.238-.252.522-.45.854-.595.331-.15.688-.224 1.071-.224.508 0 .973.126 1.393.378.42.247.753.581 1.001 1.001.252.416.378.88.378 1.393Zm1.114 1.834v-4.41h1.708v3.962c0 .276.068.527.203.756.136.224.315.404.539.54.229.13.479.195.749.195.28 0 .532-.065.756-.196.224-.135.404-.315.539-.539a1.45 1.45 0 0 0 .203-.756v-3.962h1.708l.007 7h-1.708l-.007-.637a2.63 2.63 0 0 1-1.925.819c-.508 0-.973-.123-1.393-.37a2.916 2.916 0 0 1-1.008-1.002 2.71 2.71 0 0 1-.371-1.4Zm10.784 2.772a3.27 3.27 0 0 1-1.764-.497 3.71 3.71 0 0 1-1.736-3.192c0-.508.091-.985.273-1.428.182-.448.432-.84.749-1.176.322-.34.695-.607 1.12-.798a3.267 3.267 0 0 1 1.358-.287 3.22 3.22 0 0 1 1.498.35c.457.229.845.544 1.162.945a3.897 3.897 0 0 1 .791 2.982h-5.117c.065.261.173.497.322.707.149.205.338.371.567.497.229.121.488.184.777.19a1.51 1.51 0 0 0 .812-.21c.247-.15.453-.35.616-.603l1.743.406a3.742 3.742 0 0 1-1.274 1.526 3.25 3.25 0 0 1-1.897.588Zm-1.722-4.382h3.444a1.772 1.772 0 0 0-.329-.756 1.837 1.837 0 0 0-.609-.546 1.584 1.584 0 0 0-.784-.203c-.28 0-.539.068-.777.203-.238.13-.441.31-.609.54a1.988 1.988 0 0 0-.336.762Zm14.389 4.382c-.662 0-1.285-.13-1.869-.392a4.935 4.935 0 0 1-1.54-1.099 5.162 5.162 0 0 1-1.421-3.591 5.188 5.188 0 0 1 1.421-3.591 4.86 4.86 0 0 1 1.54-1.092 4.456 4.456 0 0 1 1.869-.399 4.45 4.45 0 0 1 1.876.4 4.816 4.816 0 0 1 1.54 1.091 5.065 5.065 0 0 1 1.036 1.624 5.11 5.11 0 0 1 .378 1.967c0 .7-.126 1.358-.378 1.974a5.086 5.086 0 0 1-1.036 1.617 4.912 4.912 0 0 1-1.54 1.1 4.533 4.533 0 0 1-1.876.391Zm0-1.708c.43 0 .833-.089 1.211-.266.378-.177.71-.42.994-.728.29-.313.514-.672.672-1.078.164-.406.245-.84.245-1.302 0-.462-.081-.896-.245-1.302a3.366 3.366 0 0 0-.679-1.078 3.173 3.173 0 0 0-.994-.728 2.766 2.766 0 0 0-1.204-.266c-.429 0-.833.089-1.211.266a3.219 3.219 0 0 0-1.001.735 3.495 3.495 0 0 0-.672 1.071c-.158.406-.238.84-.238 1.302 0 .467.082.903.245 1.31.164.405.388.764.672 1.077.29.308.621.55.994.728.378.173.782.26 1.211.26Zm10.283 1.526h-2.205l-2.548-7.007h1.82l1.834 5.04 1.827-5.04h1.82l-2.548 7.007Zm6.39.182a3.27 3.27 0 0 1-1.764-.497 3.71 3.71 0 0 1-1.736-3.192c0-.508.091-.985.273-1.428.182-.448.432-.84.749-1.176.322-.34.695-.607 1.12-.798a3.267 3.267 0 0 1 1.358-.287 3.22 3.22 0 0 1 1.498.35c.457.229.845.544 1.162.945a3.897 3.897 0 0 1 .791 2.982h-5.117c.065.261.173.497.322.707.149.205.338.371.567.497.229.121.488.184.777.19a1.51 1.51 0 0 0 .812-.21c.247-.15.453-.35.616-.603l1.743.406a3.742 3.742 0 0 1-1.274 1.526 3.25 3.25 0 0 1-1.897.588Zm-1.722-4.382h3.444a1.772 1.772 0 0 0-.329-.756 1.837 1.837 0 0 0-.609-.546 1.584 1.584 0 0 0-.784-.203c-.28 0-.539.068-.777.203-.238.13-.441.31-.609.54a1.988 1.988 0 0 0-.336.762Zm6.319 4.2-.007-7h1.708l.007.623c.238-.252.523-.45.854-.595.331-.15.688-.224 1.071-.224.257 0 .513.038.77.112l-.672 1.722a1.458 1.458 0 0 0-1.288.098c-.224.13-.404.31-.539.54a1.456 1.456 0 0 0-.196.748v3.976h-1.708Zm9.713 0h-2.205l-2.548-7.007h1.82l1.834 5.04 1.827-5.04h1.82l-2.548 7.007Zm3.583-7h1.708v7h-1.708v-7Zm.868-.903a.89.89 0 0 1-.637-.245.842.842 0 0 1-.259-.63c0-.247.086-.455.259-.623a.868.868 0 0 1 .63-.252c.247 0 .455.084.623.252a.837.837 0 0 1 .259.623.855.855 0 0 1-.252.63.86.86 0 0 1-.623.245Zm5.438 8.085a3.27 3.27 0 0 1-1.764-.497 3.718 3.718 0 0 1-1.267-1.337 3.747 3.747 0 0 1-.469-1.855c0-.508.091-.985.273-1.428.182-.448.432-.84.749-1.176a3.52 3.52 0 0 1 1.12-.798 3.27 3.27 0 0 1 1.358-.287c.546 0 1.046.117 1.498.35.458.229.845.544 1.162.945.318.401.549.859.693 1.372.145.514.178 1.05.098 1.61h-5.117c.066.261.173.497.322.707.15.205.339.371.567.497.229.121.488.184.777.19.299.004.57-.066.812-.21.248-.15.453-.35.616-.603l1.743.406a3.734 3.734 0 0 1-1.274 1.526 3.248 3.248 0 0 1-1.897.588Zm-1.722-4.382h3.444a1.772 1.772 0 0 0-.329-.756 1.837 1.837 0 0 0-.609-.546 1.581 1.581 0 0 0-.784-.203c-.28 0-.539.068-.777.203-.238.13-.441.31-.609.54a1.988 1.988 0 0 0-.336.762Zm9.596 4.2h-1.694l-2.338-7h1.673l1.519 4.53 1.512-4.53h1.687l1.512 4.53 1.519-4.53h1.673l-2.338 7h-1.694l-1.519-4.55-1.512 4.55ZM141.945 60h.87l2.55 7h-.745l-.545-1.5h-3.385l-.545 1.5h-.745l2.545-7Zm-1 4.8h2.87l-1.435-3.94-1.435 3.94Zm5.976 4.7h-.7V62h.7v.934c.173-.317.41-.573.71-.77.3-.197.657-.295 1.07-.295a2.605 2.605 0 0 1 1.86.775c.24.24.428.518.565.835.137.317.205.657.205 1.02s-.068.705-.205 1.025a2.71 2.71 0 0 1-.565.845c-.24.24-.52.428-.84.565a2.548 2.548 0 0 1-1.02.205c-.413 0-.77-.098-1.07-.295a2.126 2.126 0 0 1-.71-.77V69.5Zm1.775-6.95c-.35 0-.655.087-.915.264a1.717 1.717 0 0 0-.595.7c-.14.293-.21.622-.21.985 0 .357.068.683.205.98.14.297.338.533.595.71.26.177.567.265.92.265.347 0 .665-.087.955-.26.293-.173.528-.407.705-.7.177-.297.265-.628.265-.995 0-.357-.087-.682-.26-.975a1.995 1.995 0 0 0-.695-.71 1.827 1.827 0 0 0-.97-.265Zm3.482 4.45v-5h.7v.69a1.93 1.93 0 0 1 .69-.606c.283-.15.592-.225.925-.225.193 0 .38.025.56.075l-.285.695a1.444 1.444 0 0 0-1.155.135 1.523 1.523 0 0 0-.535.535c-.133.223-.2.472-.2.745V67h-.7Zm7.832.13c-.427 0-.802-.094-1.125-.28a2.07 2.07 0 0 1-.76-.76 2.088 2.088 0 0 1-.27-1.05h.7c0 .252.058.486.175.7.12.21.288.377.505.504.216.123.475.185.775.185.253 0 .49-.062.71-.185.223-.127.403-.295.54-.505.14-.213.21-.447.21-.7 0-.317-.08-.58-.24-.79a1.412 1.412 0 0 0-.66-.475c-.28-.107-.6-.16-.96-.16v-.58c.496 0 .895-.105 1.195-.315.303-.213.455-.525.455-.935 0-.223-.062-.427-.185-.61a1.345 1.345 0 0 0-.475-.44 1.218 1.218 0 0 0-.625-.17 1.32 1.32 0 0 0-.645.17c-.204.11-.37.257-.5.44-.127.183-.19.387-.19.61h-.7c0-.263.055-.51.165-.74.11-.233.26-.438.45-.615s.406-.315.65-.415a1.99 1.99 0 0 1 1.74.11c.303.173.548.405.735.695.186.29.28.612.28.965 0 .343-.089.653-.265.93a1.43 1.43 0 0 1-.715.585c.26.087.478.218.655.395.176.173.31.375.4.605.09.23.135.477.135.74 0 .383-.1.733-.3 1.05-.2.317-.465.57-.795.76-.327.187-.682.28-1.065.28Zm5.442 0c-.42 0-.795-.094-1.125-.28a2.624 2.624 0 0 1-.845-.786 3.77 3.77 0 0 1-.535-1.155 5.34 5.34 0 0 1-.18-1.41c0-.5.06-.97.18-1.41a3.7 3.7 0 0 1 .535-1.155c.233-.333.515-.593.845-.78.33-.19.705-.285 1.125-.285.416 0 .79.095 1.12.285.33.187.61.447.84.78.23.33.405.715.525 1.155.123.44.185.91.185 1.41 0 .5-.062.97-.185 1.41-.12.437-.295.822-.525 1.155-.23.333-.51.595-.84.785-.33.187-.704.28-1.12.28Zm0-.7c.44 0 .808-.136 1.105-.406.3-.27.525-.627.675-1.07.15-.447.225-.932.225-1.455a4.44 4.44 0 0 0-.235-1.49c-.154-.443-.38-.793-.68-1.05-.297-.26-.66-.39-1.09-.39-.34 0-.637.078-.89.235a1.903 1.903 0 0 0-.63.645 3.188 3.188 0 0 0-.375.94c-.084.35-.125.72-.125 1.11 0 .527.076 1.013.23 1.46.153.443.38.8.68 1.07.3.267.67.4 1.11.4Zm5.974-2.78h3.2v.7h-3.2v-.7Zm6.807 3.35 1.355-7h.51l1.96 5.15 1.95-5.15h.51l1.36 7h-.715l-1.035-5.356-1.85 4.895h-.45l-1.85-4.895L178.943 67h-.71Zm12.557-5h.7v5h-.7l-.025-.93a2.035 2.035 0 0 1-.685.77c-.293.192-.643.29-1.05.29a2.593 2.593 0 0 1-1.875-.78 2.673 2.673 0 0 1-.57-.846 2.589 2.589 0 0 1-.205-1.03 2.595 2.595 0 0 1 1.59-2.41 2.534 2.534 0 0 1 1.015-.205c.417 0 .78.1 1.09.3.31.197.557.455.74.775L190.79 62Zm-1.775 4.45c.357 0 .663-.088.92-.26.257-.178.453-.414.59-.71.14-.298.21-.624.21-.98 0-.368-.07-.698-.21-.99a1.71 1.71 0 0 0-.595-.706 1.598 1.598 0 0 0-.915-.26c-.353 0-.677.088-.97.265a1.95 1.95 0 0 0-.695.705c-.17.297-.255.625-.255.985 0 .363.088.693.265.99.177.293.41.527.7.7.293.173.612.26.955.26Zm6.783-4.45h.74l-2.735 7.5h-.745l.91-2.5-1.795-5h.765l1.38 4.034 1.48-4.035Zm5.999 5.13c-.427 0-.802-.094-1.125-.28a2.07 2.07 0 0 1-.76-.76 2.088 2.088 0 0 1-.27-1.05h.7c0 .252.058.486.175.7.12.21.288.377.505.504.216.123.475.185.775.185.253 0 .49-.062.71-.185.223-.127.403-.295.54-.505.14-.213.21-.447.21-.7 0-.317-.08-.58-.24-.79a1.412 1.412 0 0 0-.66-.475c-.28-.107-.6-.16-.96-.16v-.58c.496 0 .895-.105 1.195-.315.303-.213.455-.525.455-.935 0-.223-.062-.427-.185-.61a1.345 1.345 0 0 0-.475-.44 1.218 1.218 0 0 0-.625-.17 1.32 1.32 0 0 0-.645.17c-.204.11-.37.257-.5.44-.127.183-.19.387-.19.61h-.7c0-.263.055-.51.165-.74.11-.233.26-.438.45-.615s.406-.315.65-.415a1.99 1.99 0 0 1 1.74.11c.303.173.548.405.735.695.186.29.28.612.28.965 0 .343-.089.653-.265.93a1.43 1.43 0 0 1-.715.585c.26.087.478.218.655.395.176.173.31.375.4.605.09.23.135.477.135.74 0 .383-.1.733-.3 1.05-.2.317-.465.57-.795.76-.327.187-.682.28-1.065.28Zm5.442 0c-.42 0-.795-.094-1.125-.28a2.624 2.624 0 0 1-.845-.786 3.794 3.794 0 0 1-.535-1.155 5.34 5.34 0 0 1-.18-1.41c0-.5.06-.97.18-1.41.123-.44.302-.825.535-1.155.233-.333.515-.593.845-.78.33-.19.705-.285 1.125-.285.417 0 .79.095 1.12.285.33.187.61.447.84.78.23.33.405.715.525 1.155.123.44.185.91.185 1.41 0 .5-.062.97-.185 1.41-.12.437-.295.822-.525 1.155-.23.333-.51.595-.84.785a2.23 2.23 0 0 1-1.12.28Zm0-.7c.44 0 .808-.136 1.105-.406.3-.27.525-.627.675-1.07.15-.447.225-.932.225-1.455 0-.553-.078-1.05-.235-1.49-.153-.443-.38-.793-.68-1.05-.297-.26-.66-.39-1.09-.39-.34 0-.637.078-.89.235a1.921 1.921 0 0 0-.63.645 3.188 3.188 0 0 0-.375.94c-.083.35-.125.72-.125 1.11 0 .527.077 1.013.23 1.46.153.443.38.8.68 1.07.3.267.67.4 1.11.4Z"/><circle cx="81" cy="410.897" r="5" fill="#8478F0"/><path fill="#fff" d="M91.9 414.897v-8.4h1.464v8.4H91.9Zm8.586-3.792v3.792h-1.465v-3.408a1.265 1.265 0 0 0-.642-1.104 1.217 1.217 0 0 0-.641-.174 1.279 1.279 0 0 0-1.11.636 1.25 1.25 0 0 0-.168.642v3.408h-1.464l-.006-6h1.464l.006.534c.204-.216.448-.386.732-.51.284-.128.59-.192.918-.192.436 0 .834.108 1.194.324.36.212.645.498.858.858.216.356.324.754.324 1.194Zm4.798 1.986 1.32.714a3.147 3.147 0 0 1-1.038.906c-.416.228-.87.342-1.362.342a2.803 2.803 0 0 1-1.512-.426 3.194 3.194 0 0 1-1.086-1.14 3.206 3.206 0 0 1-.402-1.59c0-.44.078-.85.234-1.23.156-.384.37-.72.642-1.008.276-.292.596-.52.96-.684a2.8 2.8 0 0 1 1.164-.246c.492 0 .946.114 1.362.342.416.228.762.534 1.038.918l-1.32.708a1.467 1.467 0 0 0-1.08-.504c-.288 0-.548.08-.78.24a1.67 1.67 0 0 0-.552.624 1.762 1.762 0 0 0-.204.84c0 .3.068.58.204.84.136.256.32.462.552.618.232.156.492.234.78.234.208 0 .406-.044.594-.132.188-.092.35-.214.486-.366Zm4.849 1.962a2.803 2.803 0 0 1-1.512-.426 3.194 3.194 0 0 1-1.086-1.14 3.206 3.206 0 0 1-.402-1.59c0-.44.078-.85.234-1.23.156-.384.37-.72.642-1.008.276-.292.596-.52.96-.684a2.8 2.8 0 0 1 1.164-.246c.552 0 1.054.142 1.506.426.456.284.818.666 1.086 1.146a3.18 3.18 0 0 1 .408 1.596c0 .436-.078.844-.234 1.224a3.25 3.25 0 0 1-.648 1.008c-.272.288-.59.514-.954.678-.36.164-.748.246-1.164.246Zm0-1.464c.292 0 .554-.078.786-.234.232-.156.414-.362.546-.618.136-.256.204-.536.204-.84 0-.312-.07-.596-.21-.852a1.604 1.604 0 0 0-.558-.618 1.347 1.347 0 0 0-.768-.234c-.288 0-.548.078-.78.234a1.67 1.67 0 0 0-.552.624c-.136.26-.204.542-.204.846 0 .316.07.602.21.858.14.256.326.46.558.612.236.148.492.222.768.222Zm3.935 1.308v-6h1.464v.534c.204-.216.448-.386.732-.51.284-.128.59-.192.918-.192.416 0 .798.098 1.146.294.352.196.632.458.84.786.212-.328.492-.59.84-.786.348-.196.73-.294 1.146-.294.44 0 .838.108 1.194.324.36.212.646.498.858.858.216.356.324.754.324 1.194v3.792h-1.464v-3.402c0-.232-.058-.444-.174-.636a1.28 1.28 0 0 0-.456-.468c-.188-.12-.4-.18-.636-.18s-.45.058-.642.174a1.31 1.31 0 0 0-.456.456 1.24 1.24 0 0 0-.174.654v3.402h-1.464v-3.402a1.246 1.246 0 0 0-.624-1.11 1.217 1.217 0 0 0-.642-.174c-.232 0-.444.06-.636.18a1.328 1.328 0 0 0-.462.468 1.24 1.24 0 0 0-.168.636v3.402h-1.464Zm13.187.156a2.803 2.803 0 0 1-1.512-.426 3.18 3.18 0 0 1-1.488-2.736c0-.436.078-.844.234-1.224.156-.384.37-.72.642-1.008.276-.292.596-.52.96-.684a2.8 2.8 0 0 1 1.164-.246c.468 0 .896.1 1.284.3.392.196.724.466.996.81a3.332 3.332 0 0 1 .678 2.556h-4.386c.056.224.148.426.276.606.128.176.29.318.486.426.196.104.418.158.666.162.256.004.488-.056.696-.18.212-.128.388-.3.528-.516l1.494.348a3.207 3.207 0 0 1-1.092 1.308 2.785 2.785 0 0 1-1.626.504Zm-1.476-3.756h2.952a1.523 1.523 0 0 0-.282-.648 1.58 1.58 0 0 0-.522-.468 1.358 1.358 0 0 0-.672-.174c-.24 0-.462.058-.666.174a1.597 1.597 0 0 0-.522.462c-.14.192-.236.41-.288.654Z"/><circle cx="218.386" cy="410.897" r="5" fill="#D7FE03"/><path fill="#fff" d="M229.106 414.897v-8.4h5.268v1.464h-3.804v1.704h3.018v1.464h-3.018v2.304h3.804v1.464h-5.268Zm6.006 0 2.196-3.012-2.178-2.994h1.806l1.272 1.746 1.278-1.746h1.806l-2.178 2.994 2.196 3.012h-1.806l-1.296-1.776-1.29 1.776h-1.806Zm8.595 3h-1.464v-9h1.464v.762c.196-.272.436-.492.72-.66a1.928 1.928 0 0 1 1.008-.258c.44 0 .85.082 1.23.246.38.164.714.392 1.002.684.292.288.518.622.678 1.002.164.38.246.788.246 1.224 0 .436-.082.846-.246 1.23-.16.384-.386.722-.678 1.014a3.192 3.192 0 0 1-1.002.678 3.07 3.07 0 0 1-1.23.246c-.384 0-.72-.084-1.008-.252a2.433 2.433 0 0 1-.72-.666v3.75Zm1.71-7.746c-.304 0-.576.08-.816.24-.24.156-.428.366-.564.63a1.884 1.884 0 0 0-.204.876c0 .32.068.614.204.882.136.264.324.476.564.636.24.156.512.234.816.234.308 0 .59-.078.846-.234a1.744 1.744 0 0 0 .84-1.518 1.744 1.744 0 0 0-.84-1.506 1.545 1.545 0 0 0-.846-.24Zm6.778 4.902a2.803 2.803 0 0 1-1.512-.426 3.18 3.18 0 0 1-1.488-2.736c0-.436.078-.844.234-1.224.156-.384.37-.72.642-1.008.276-.292.596-.52.96-.684a2.8 2.8 0 0 1 1.164-.246c.468 0 .896.1 1.284.3.392.196.724.466.996.81a3.332 3.332 0 0 1 .678 2.556h-4.386c.056.224.148.426.276.606.128.176.29.318.486.426.196.104.418.158.666.162.256.004.488-.056.696-.18.212-.128.388-.3.528-.516l1.494.348a3.207 3.207 0 0 1-1.092 1.308 2.785 2.785 0 0 1-1.626.504Zm-1.476-3.756h2.952a1.523 1.523 0 0 0-.282-.648 1.58 1.58 0 0 0-.522-.468 1.358 1.358 0 0 0-.672-.174c-.24 0-.462.058-.666.174a1.597 1.597 0 0 0-.522.462c-.14.192-.236.41-.288.654Zm10.906-.192v3.792h-1.464v-3.408a1.265 1.265 0 0 0-.642-1.104 1.217 1.217 0 0 0-.642-.174 1.279 1.279 0 0 0-1.11.636 1.25 1.25 0 0 0-.168.642v3.408h-1.464l-.006-6h1.464l.006.534c.204-.216.448-.386.732-.51.284-.128.59-.192.918-.192.436 0 .834.108 1.194.324.36.212.646.498.858.858.216.356.324.754.324 1.194Zm2.966 3.9a3.32 3.32 0 0 1-.906-.186 2.684 2.684 0 0 1-.768-.438 1.876 1.876 0 0 1-.516-.66l1.236-.528c.048.08.126.166.234.258.108.088.236.162.384.222.152.06.318.09.498.09.152 0 .296-.02.432-.06a.775.775 0 0 0 .336-.198.463.463 0 0 0 .132-.342.406.406 0 0 0-.156-.342.957.957 0 0 0-.384-.186 12.51 12.51 0 0 0-.444-.12 4.362 4.362 0 0 1-1.062-.354 2.263 2.263 0 0 1-.786-.618 1.475 1.475 0 0 1-.294-.924c0-.396.104-.738.312-1.026a2.1 2.1 0 0 1 .822-.666c.34-.156.706-.234 1.098-.234.476 0 .912.1 1.308.3.4.196.716.474.948.834l-1.158.684a.96.96 0 0 0-.234-.264 1.271 1.271 0 0 0-.342-.204 1.16 1.16 0 0 0-.402-.096 1.608 1.608 0 0 0-.492.048.761.761 0 0 0-.36.204.546.546 0 0 0-.132.384c0 .152.06.266.18.342.12.072.264.128.432.168.172.04.336.084.492.132.352.116.682.258.99.426.312.168.562.374.75.618.188.244.278.536.27.876 0 .388-.116.728-.348 1.02a2.219 2.219 0 0 1-.9.66 2.496 2.496 0 0 1-1.17.18Zm5.991.048a2.803 2.803 0 0 1-1.512-.426 3.18 3.18 0 0 1-1.488-2.736c0-.436.078-.844.234-1.224.156-.384.37-.72.642-1.008.276-.292.596-.52.96-.684a2.8 2.8 0 0 1 1.164-.246c.468 0 .896.1 1.284.3.392.196.724.466.996.81a3.332 3.332 0 0 1 .678 2.556h-4.386c.056.224.148.426.276.606.128.176.29.318.486.426.196.104.418.158.666.162.256.004.488-.056.696-.18.212-.128.388-.3.528-.516l1.494.348a3.207 3.207 0 0 1-1.092 1.308 2.785 2.785 0 0 1-1.626.504Zm-1.476-3.756h2.952a1.523 1.523 0 0 0-.282-.648 1.58 1.58 0 0 0-.522-.468 1.358 1.358 0 0 0-.672-.174c-.24 0-.462.058-.666.174a1.597 1.597 0 0 0-.522.462c-.14.192-.236.41-.288.654Z"/><path stroke="#000" d="M20.881 363.358v7.605"/><path stroke="#8A8A8A" d="M36.39 363.358v7.605m62.039-7.605v7.605m62.038-7.605v7.605m62.039-7.605v7.605m62.039-7.605v7.605M51.9 363.358v7.605m62.038-7.605v7.605m62.039-7.605v7.605m62.039-7.605v7.605m62.038-7.605v7.605m-232.645-7.605v7.605m62.039-7.605v7.605m62.039-7.605v7.605m62.038-7.605v7.605m62.039-7.605v7.605"/><path stroke="#000" d="M82.919 363.358v7.605m62.039-7.605v7.605m62.038-7.605v7.605m62.039-7.605v7.605m62.039-7.605v7.605"/><defs><linearGradient id="a" x1="175.802" x2="175.802" y1="113.94" y2="359.928" gradientUnits="userSpaceOnUse"><stop stop-color="#8478F0"/><stop offset="1" stop-color="#8478F0" stop-opacity="0"/></linearGradient><linearGradient id="b" x1="175.802" x2="175.802" y1="224.429" y2="359.928" gradientUnits="userSpaceOnUse"><stop stop-color="#D7FE03"/><stop offset="1" stop-color="#D7FE03" stop-opacity="0"/></linearGradient></defs></svg>