<svg xmlns="http://www.w3.org/2000/svg" width="64" height="64" fill="none"><path fill="url(#a)" d="M54.84 26.241c.532-1.013.972-2.39.507-3.793-.54-1.627-2.035-2.715-4.433-3.213l-15.247-3.187L20.11 7.862C19.94 7.772 18.429 7 16.765 7c-1.232 0-2.295.422-3.073 1.211-.726.748-1.165 1.777-1.298 3.073-.145-.008-.287-.018-.43-.018-2.355 0-3.564.971-4.162 1.786-.938 1.26-1.049 2.962-.355 5.061l5.723 17.251.55 14.95c.092 2.59 1.554 5.386 4.533 5.386a5.6 5.6 0 0 0 1.772-.314C20.733 56.564 22.009 58 24.05 58c1.434 0 2.864-.754 4.229-2.257l11.042-12.112 14.654-9.097c.32-.2 3.123-2.017 3.021-4.739-.04-1.362-.784-2.55-2.16-3.552l.003-.002ZM22.054 49.848 17.02 34.69l-.674-18.8 17.99 3.768 14.63 7.694L36.804 40.69l-14.75 9.158Zm28.06-26.885c1.173.24 1.528.588 1.554.663.04.134-.044.416-.186.732l-3.513-1.843 2.145.448ZM16.768 10.811c.584 0 1.318.307 1.52.406l3.758 1.976-5.827-1.219c.034-.68.177-1.031.26-1.114.027-.024.139-.05.29-.05Zm-5.639 6.126c-.42-1.27-.202-1.645-.194-1.653.044-.05.355-.205 1.03-.205.178 0 .338.008.473.024l.238 6.483-1.546-4.649Zm6.458 33.234-.058-1.69 1.103 3.345a1.968 1.968 0 0 1-.377.065c-.323 0-.634-1.063-.668-1.72Zm7.807 3.022c-.894.988-1.333.996-1.342.996-.124 0-.395-.282-.648-.67l3.934-2.442-1.944 2.116Zm26.527-21.88-3.123 1.942 3.663-4.016c.531.365.674.631.674.697.008.282-.624.996-1.214 1.377Z"/><defs><linearGradient id="a" x1="7.554" x2="40.267" y1="7" y2="44.704" gradientUnits="userSpaceOnUse"><stop/><stop offset=".4" stop-color="#8478F0"/><stop offset="1" stop-color="#C6E332"/></linearGradient></defs></svg>