<svg xmlns="http://www.w3.org/2000/svg" width="111" height="112" fill="none"><path fill="#D7FE03" d="M54.603 82.867c.141 0 .276.206.401.582.023.063.043.131.061.203.036.075.079.15.062.231-.187.083.345.168.057.258-.084.088-.007.184.055.282.065.098-.118.201.054.307.363.106-.402.217.051.33.097.114.072.232.048.354-.275.12-.001.246.047.374-.334.13-.19.261.044.396-.458.136-.387.276.04.417.014.142-.163.286.037.433.03.148.115.298.037.452.304.154.291.31.03.47.328.157.198.32.029.483-.183.164.287.332.024.5-.02.17.075.341.023.514-.136.173-.287.35.016.526.081.178.192.358.016.538.348.182.193.365.009.549.057.185-.19.371.007.56-.055.188.153.377.001.569-.105.19-.207.38-.001.568.222.187-.094.374-.007.558-.327.184.107.37-.01.55.031.181-.189.36-.015.538.061.178.124.353-.016.525.504.174-.131.346-.023.515-.212.17.032.334-.024.499.093.165-.233.327-.03.485-.042.158.163.314-.029.469.248.153-.213.303-.037.452-.001.149.017.292-.037.435-.392.14-.068.28-.04.414-.043.136.222.268-.044.396-.032.128-.206.253-.047.375.059.121-.57.24-.048.352.093.115-.404.225-.05.332.322.106-.04.21-.055.307l-.055.284c-.17.808-.37 1.273-.581 1.273-.235 0-.452-.573-.635-1.557-.017-.098-.293-.201-.052-.307 0-.107-.212-.217-.052-.332-.365-.112-.068-.23-.048-.352-.017-.122.1-.247-.048-.375-.21-.128.107-.26-.043-.396.226-.135.167-.273-.04-.414.219-.143-.045-.286-.038-.435.337-.15.101-.3-.034-.452-.122-.154.05-.311-.032-.47.064-.157-.085-.32-.03-.484-.156-.165-.215-.33-.023-.499-.11-.169-.023-.341-.023-.515-.133-.172.016-.347-.017-.525-.07-.178.357-.357-.013-.538-.048-.18.057-.366-.012-.55.048-.184.097-.371-.006-.558.367-.188.142-.379-.001-.568-.105-.192-.05-.38.001-.57a1.786 1.786 0 0 1 .006-.56c-.107-.183.16-.366.012-.548-.155-.18.168-.36.013-.538-.107-.176-.164-.353.017-.526 0-.173.335-.344.023-.514-.072-.168-.488-.336.023-.5-.126-.164.248-.326.03-.484.374-.16.019-.314.032-.469.071-.154.198-.304.034-.452-.178-.147.098-.291.038-.433-.214-.141.28-.281.04-.417.05-.135-.033-.267.043-.396-.501-.128.004-.253.048-.374.072-.122-.335-.24.048-.354-.38-.113-.05-.224.052-.33.11-.106-.161-.21.052-.307-.267-.098.15-.194.056-.282.179-.09.01-.175.059-.258-.062-.08-.039-.156.058-.231l.063-.203c.123-.376.259-.582.399-.582Z"/><path fill="#D7FE03" d="M54.62 101.503c0 .069-.073.141-.208.213-.068.039-.15.069-.244.114-.093.047-.2.094-.317.141-.076.039-.16.08-.247.123-.041.028-.083.058-.125.082a.391.391 0 0 1-.14.061c-.17-.13-.072.379-.284.173-.135-.021-.22.087-.29.208-.066.117-.286.027-.29.246.056.183-.054.14-.166.112-.11-.028-.214-.031-.114.18-.04.157-.148.239-.264.33-.158-.036-.204.028-.218.111-.012.087.002.19-.018.264-.355-.049-.342.178-.191.418-.488-.058-.496.173-.144.451-.023.077-.073.148-.115.223a.27.27 0 0 0-.032.121.252.252 0 0 0 .067.139c.005.085.015.169.024.254a.39.39 0 0 1-.036.251c.145.087.233.162.236.243a.2.2 0 0 1-.044.128.612.612 0 0 1-.127.142c.344.124.259.282.144.51-.054.112.047.177.134.237.093.06.18.111.1.252.028.089.105.153.162.227.058.073.124.137.16.228.002.056.003.116.01.173a.431.431 0 0 0 .057.145c.053.085.153.135.332.087.1.035.197.065.285.105.088.041.146.116.186.233.348-.188.41.012.532.258.105.002.178.09.269.141.092.051.19.095.31.02.094.037.2.02.305.006.104-.023.202-.031.304.05.102.045.212.09.317.099a.347.347 0 0 0 .292-.155c.08-.126.172-.135.28-.117.108.015.219.024.299-.044.157.119.24.035.308-.05.072-.083.106-.211.224-.208.08-.057.177-.084.277-.117.099-.031.181-.095.195-.221.053-.082.094-.172.152-.245a.408.408 0 0 1 .105-.092.467.467 0 0 1 .141-.07c-.145-.221-.066-.262.044-.3.112-.032.288-.044.275-.155a.225.225 0 0 0 .183-.218c.006-.097-.006-.196.053-.269-.021-.1.055-.169.12-.245.075-.074.105-.166.021-.265.019-.042.022-.086.019-.129-.008-.045-.023-.089-.032-.132-.02-.086-.01-.167.081-.252-.13-.084-.081-.164-.022-.254.056-.087.105-.183.009-.252a1.576 1.576 0 0 0-.052-.239 1.134 1.134 0 0 1-.028-.243c.16-.135.143-.225.083-.287-.06-.067-.184-.1-.228-.165-.027-.169-.34-.149-.19-.417-.062-.133-.012-.369-.236-.375-.07-.032-.012-.18-.002-.292.013-.113-.035-.181-.263-.039-.081-.011-.061-.131-.073-.226-.012-.092-.051-.164-.207-.065-.284.179-.187-.165-.29-.246-.094-.084-.198-.14-.29-.209-.872-.565-1.572-.677-1.568-.906 0-.057.053-.11.16-.16a1.44 1.44 0 0 1 .485-.122c.427-.052 1.09-.014 1.85.32.144.067.458-.072.462.231.074.054.178.068.274.098.094.034.174.093.194.213.195-.065.29-.012.338.085.049.098.06.225.122.307.158.144.183.384.432.48.298.079.156.427.382.569-.092.302.033.48.316.651-.064.147-.03.261.04.373.072.111.162.224.174.354-.145.155-.145.277-.104.403.042.123.142.248.215.384.07.133.041.273.02.41-.013.067-.028.137-.035.205a.694.694 0 0 0-.01.211c-.098.266-.026.577-.163.846.025.161.024.322-.021.469a.697.697 0 0 1-.306.365c-.013.163-.101.292-.186.423-.087.131-.202.239-.296.366a.662.662 0 0 1-.103.219c-.05.062-.107.118-.17.171-.118.109-.25.203-.362.32-.097.134-.276.178-.44.229-.163.055-.288.14-.335.374-.258.218-.61.274-.896.462-.17.034-.334.078-.501.116a2.053 2.053 0 0 0-.49.177c-.205-.15-.37-.158-.534-.111-.165.036-.332.136-.508.213a1.568 1.568 0 0 1-.532.031c-.176-.026-.347-.082-.515-.133a3.06 3.06 0 0 1-.51-.103c-.166-.046-.322-.122-.48-.19-.18-.005-.316-.125-.455-.225-.137-.096-.257-.215-.44-.236-.188-.017-.297-.158-.405-.286-.11-.127-.198-.264-.371-.316a1.212 1.212 0 0 1-.413-.273.824.824 0 0 1-.148-.194.787.787 0 0 1-.074-.244c-.094-.125-.122-.297-.161-.449a.444.444 0 0 0-.32-.34c-.097-.12-.283-.206-.385-.331-.102-.128-.135-.288.057-.503-.104-.122-.079-.283-.065-.432.005-.149.034-.291-.098-.414a.414.414 0 0 0 .13-.223.366.366 0 0 0-.023-.203c-.045-.131-.145-.264-.132-.4.043-.136.099-.265.127-.392.028-.128.045-.253-.016-.393a.314.314 0 0 1-.03-.204.636.636 0 0 1 .083-.18c.073-.115.15-.221.164-.345-.06-.15.05-.247.156-.332.101-.091.217-.163.159-.32.137-.191.2-.42.378-.569-.146-.229-.07-.323.05-.37.124-.05.294-.05.384-.109.097-.053.104-.181.142-.288.036-.106.118-.177.318-.105-.056-.201.012-.282.117-.305.107-.021.248.007.35-.003.2-.021.21-.328.463-.234.01-.321.356-.018.444-.165.203.093.27-.099.415-.103a.365.365 0 0 1 .172-.093.403.403 0 0 1 .204.04c.119-.009.23-.02.332-.019.153.007.29.019.405.033.115.017.215.052.29.078.154.059.229.122.229.191ZM2.15 3.377c0-.139 2.415-.27 6.833-.392.734-.02 1.528-.04 2.373-.06a44.39 44.39 0 0 1 2.695-.06c.952.184 1.956-.338 3.008-.055 1.053.08 2.156.005 3.308-.055 1.15-.063 2.35.115 3.594-.051 1.244-.356 2.536.392 3.872-.053 1.335-.095 2.716-.069 4.138-.047 1.422.272 2.886.003 4.39-.045 1.506.326 3.051.184 4.635-.043 1.583.449 3.205.38 4.864-.038 1.659-.016 3.355.16 5.085-.038 1.73-.03 3.494-.114 5.291-.034 1.799-.3 3.63-.288 5.49-.032 1.862-.322 3.754-.193 5.675-.028 1.922.181 3.87-.282 5.85-.022 1.976.02 3.981-.076 6.01-.023 2.03.132 4.084.281 6.162-.017 2.078-.08 4.18-.188 6.302-.013 2.123-.342 4.266-.192 6.431-.011 2.163-.057 4.345.186 6.548-.006a36.43 36.43 0 0 0 1.653.002l.828-.019.416-.009.207-.006.053-.002h.012l.007-.001v.056-.001l-.001.003c-.059-.072.096.074-.111-.01l.111.03h-.026l-.026-.002-.051-.003-.107-.005-.208-.01-.417-.019-.836-.032a54.693 54.693 0 0 0-1.667-.044 31.818 31.818 0 0 0-3.313.113c-2.2.218-4.384-.092-6.547-.007-2.164-.32-4.308.105-6.43-.01-2.123.031-4.224-.186-6.303-.012-2.077.058-4.132.12-6.161-.02-2.03.494-4.035-.126-6.012-.02-1.978-.208-3.928.03-5.848-.024-1.923.093-3.815-.227-5.675-.029-1.861-.04-3.692.16-5.49-.03-1.798.245-3.56-.205-5.291-.035-1.731-.001-3.426.017-5.086-.035-1.658-.386-3.281-.067-4.865-.04-1.584-.043-3.128.217-4.632-.044-1.505-.031-2.97-.201-4.392-.046-1.423.058-2.801-.56-4.137-.047-1.336.093-2.626-.393-3.87-.05-1.248.317-2.445-.038-3.597-.053-1.15-.018-2.253-.038-3.307-.055-4.738-.083-8.465-.172-11.009-.266-.156-.007-.321-.017-.453-.016-.055.007-.114-.001-.167.012-.052.017-.108.022-.159.043a.87.87 0 0 0-.456.397c-.03.04-.034.079-.054.116-.01.02-.019.037-.027.058l-.013.082-.014.081-.005.04-.003.01c.003-.038.002-.01.003-.018V2.3l.004.128a.935.935 0 0 0 .16.431c.347.477.779.446.756.518 0 .014-.03.026-.083.035-.056.005-.126.029-.244.001a1.166 1.166 0 0 1-.408-.147c-.068-.05-.156-.095-.221-.172l-.11-.115-.091-.14a.65.65 0 0 1-.08-.161c-.019-.062-.054-.12-.06-.186a7.338 7.338 0 0 1-.03-.202l-.004-.013.003-.034V2.22l.003-.044.002-.09c-.002-.054.027-.148.047-.227a.823.823 0 0 1 .095-.233.87.87 0 0 1 .137-.213c.05-.07.115-.133.187-.192.066-.064.148-.111.233-.158.08-.055.177-.081.273-.114C1.892.91 2 .911 2.103.894c.104-.01.173-.009.265-.013l1.1-.04C6.583.738 11.136.637 16.892.55c1.152-.02 2.35-.289 3.596-.054 1.245.002 2.535-.206 3.87-.05C25.696.09 27.074.38 28.497.398c1.421-.017 2.887.098 4.392-.044C34.392.147 35.936.457 37.52.31c1.584.22 3.207.162 4.865-.039 1.66.214 3.355-.044 5.086-.038 1.73.33 3.493.1 5.29-.032 1.799-.122 3.63.048 5.491-.03 1.86.062 3.752-.085 5.675-.03 1.92-.156 3.87-.212 5.848-.024 1.977-.106 3.982-.022 6.012-.022 2.029-.13 4.084.018 6.161-.017 2.079-.067 4.18.351 6.303-.015 2.122-.045 4.266.058 6.43-.007 2.163.045 4.347.094 6.547-.007 1.099.18 2.205.213 3.313.186a44.574 44.574 0 0 0 1.667-.08l.836-.054.417-.027.208-.013.107-.01.051-.002.026-.001.014-.002h.012l.12.006.209.011.012.002.035.004.066.013.135.031c.089.02.177.046.263.075.156.057.268.121.397.192.124.072.235.164.344.254.424.377.704.93.74 1.504l.007.108.002.028-.008.136-.001.025-.009.103-.006.05-.002.026-.012.062c-.016.09-.04.18-.067.27a1.973 1.973 0 0 1-.089.249c-.032.065-.067.13-.102.192-.036.061-.072.125-.113.186-.043.054-.088.112-.136.167a2.33 2.33 0 0 1-1.496.797c-.361.038-.409.015-.567.02l-.416-.006-.828-.014-1.653-.036a242.07 242.07 0 0 1-6.548-.007c-2.165.107-4.308-.155-6.43-.01-2.123.153-4.225-.163-6.303-.014-2.078.105-4.132.162-6.162-.017-2.029 0-4.034-.328-6.01-.02-1.98.068-3.928.475-5.85-.026-1.921.124-3.813-.241-5.676-.027-1.86-.367-3.69-.018-5.489-.03-1.797-.072-3.561-.196-5.29-.035-1.731.175-3.427-.094-5.086-.037-1.659.21-3.281-.276-4.864-.04-1.584-.049-3.13.03-4.635-.044-1.504.495-2.968-.001-4.39-.045-1.422-.07-2.803.326-4.138-.047-1.336.373-2.626.05-3.872-.049-1.244-.11-2.444.157-3.594-.053-1.152.264-2.255-.145-3.308-.055-1.052-.174-2.056-.01-3.008-.056-.95.058-1.85.038-2.694-.06-.846-.02-1.64-.04-2.374-.06-4.418-.122-6.832-.254-6.832-.392Zm0 80.595c0-.139 2.415-.27 6.833-.394l2.373-.06c.845-.035 1.745-.074 2.696-.057.95.181 1.956-.339 3.007-.058 1.054.083 2.156.007 3.308-.053 1.152-.064 2.35.115 3.596-.054 1.244-.354 2.534.393 3.872-.05 1.334-.096 2.714-.069 4.136-.048 1.422.272 2.888.004 4.392-.043 1.505.327 3.05.183 4.634-.044 1.583.448 3.207.38 4.864-.04 1.659-.015 3.354.16 5.084-.036 1.731-.03 3.496-.114 5.295-.035 1.797-.3 3.628-.287 5.488-.032 1.863-.321 3.756-.192 5.676-.027 1.92.18 3.87-.282 5.85-.025 1.977.02 3.98-.073 6.01-.02 2.03.131 4.085.28 6.163-.018 2.077-.08 4.178-.187 6.301-.013 2.123-.342 4.267-.192 6.43-.01 2.166-.058 4.347.185 6.549-.006.55.012 1.101.01 1.653.002l.829-.019.415-.01.209-.004.051-.003h.015c.001-.05.001.067.001.055v-.001c-.001-.001-.001 0-.001.003.004.006-.022-.036-.014-.02l.008.007h.003c.001 0 .005.002.009.006 0 .005-.012.029-.012.044a.152.152 0 0 0 .003.057s.003.015.003.005v-.205l-.002-.007v-.005c.027.225.007.061.014.112h-.003c.024-.006-.043.021-.033.023l.008-.008c.006.001-.002-.02.021-.017a.15.15 0 0 0 .056.006c.009 0 .02-.001.028-.004l.016-.006.007-.001h-.014l-.209-.017c.223.086.06.024.111.044h-.012l-.014-.003-.026-.001-.051-.001-.107-.005-.208-.01-.417-.018-.836-.035a71.613 71.613 0 0 0-1.667-.043 32.197 32.197 0 0 0-3.313.113c-2.2.22-4.384-.091-6.548-.006-2.164-.322-4.307.104-6.43-.01-2.122.03-4.223-.186-6.303-.014-2.076.06-4.131.12-6.162-.017-2.029.494-4.034-.126-6.012-.022-1.977-.208-3.928.033-5.848-.023-1.922.091-3.814-.229-5.674-.028-1.862-.042-3.692.158-5.491-.032-1.797.245-3.563-.206-5.293-.033-1.73-.001-3.424.014-5.084-.037-1.658-.385-3.28-.066-4.866-.042-1.582-.04-3.129.22-4.633-.04-1.504-.033-2.97-.203-4.392-.047-1.421.057-2.8-.56-4.136-.047-1.336.093-2.625-.395-3.87-.051-1.247.317-2.446-.038-3.597-.051a3708.4 3708.4 0 0 0-3.308-.055c-4.738-.084-8.465-.175-11.008-.269-.156-.004-.322-.016-.452-.014a.926.926 0 0 0-.325.058.87.87 0 0 0-.456.398c-.03.041-.033.08-.053.116-.01.02-.02.036-.027.059l-.013.082-.014.08-.005.041-.001.004.001-.017v.028c.003.043.003.086.004.128a.95.95 0 0 0 .16.432c.347.477.779.444.756.518 0 .014-.03.026-.083.034-.056.006-.126.027-.244 0a1.064 1.064 0 0 1-.408-.147c-.068-.05-.156-.094-.221-.17-.035-.039-.07-.075-.108-.115a8.939 8.939 0 0 1-.093-.142.635.635 0 0 1-.08-.162c-.019-.057-.052-.118-.06-.184a7.081 7.081 0 0 1-.03-.2l-.004-.014v-.004c0 .018.002-.03.002-.025v-.005l.001-.024.003-.044.002-.09c-.002-.054.027-.148.046-.23a.89.89 0 0 1 .094-.23c.019-.036.036-.075.06-.11l.076-.103c.03-.033.055-.07.086-.102l.1-.089a.986.986 0 0 1 .232-.16c.082-.054.176-.083.273-.117.093-.04.203-.04.307-.056.104-.012.173-.008.264-.013.346-.015.71-.026 1.1-.04 3.117-.105 7.67-.203 13.426-.292 1.151-.02 2.35-.289 3.596-.054 1.246.002 2.535-.206 3.871-.048 1.336-.358 2.715-.067 4.136-.048 1.423-.019 2.888.096 4.392-.046 1.504-.206 3.05.103 4.633-.043 1.586.22 3.207.163 4.866-.04 1.66.214 3.354-.045 5.084-.037 1.73.33 3.496.1 5.293-.034 1.799-.12 3.63.05 5.49-.03 1.86.063 3.753-.084 5.675-.029 1.92-.154 3.871-.212 5.848-.023 1.978-.108 3.983-.021 6.012-.021 2.03-.131 4.084.015 6.162-.017 2.08-.07 4.181.348 6.304-.015 2.122-.047 4.265.058 6.429-.01 2.164.046 4.348.094 6.548-.007 1.099.18 2.205.216 3.313.186.555-.013 1.11-.042 1.667-.077l.836-.055.417-.029.208-.012.107-.008.051-.002.026-.003.014-.001h.012l.12.006.21.012h.012l.035.005.067.013.134.03c.09.023.18.048.266.078.156.059.266.121.397.192.121.072.231.164.34.254.421.377.701.925.74 1.503l.007.108.002.028-.006.134-.003.026-.009.104-.004.05-.004.025-.01.06a2.886 2.886 0 0 1-.156.52 6.643 6.643 0 0 1-.1.19c-.037.061-.072.125-.11.184a3.94 3.94 0 0 1-.136.169 2.335 2.335 0 0 1-1.496.804c-.359.038-.416.017-.571.02l-.415-.004-.829-.014-1.653-.038a242.13 242.13 0 0 1-6.548-.005c-2.164.107-4.308-.155-6.43-.01-2.124.152-4.225-.164-6.302-.014-2.078.105-4.134.162-6.163-.018-2.03 0-4.033-.327-6.01-.02-1.98.068-3.93.476-5.85-.025-1.92.126-3.813-.241-5.676-.028-1.86-.366-3.69-.019-5.488-.03-1.799-.071-3.564-.195-5.295-.036-1.73.177-3.425-.094-5.084-.035-1.657.21-3.281-.276-4.864-.04-1.584-.047-3.129.03-4.634-.044-1.504.493-2.97-.002-4.392-.044-1.422-.072-2.802.327-4.136-.048-1.338.372-2.626.05-3.872-.05-1.246-.11-2.444.157-3.596-.052-1.152.262-2.254-.147-3.308-.056-1.051-.173-2.056-.01-3.007-.057-.95.06-1.85.038-2.695-.057l-2.374-.06c-4.418-.123-6.832-.255-6.832-.393Zm27.34-35.164c.142 0 .278.533.402 1.51l.063.523c.036.187.077.387.06.596-.187.21.344.432.057.665-.084.232-.008.475.055.73.065.255-.118.52.054.793.363.276-.401.56.051.856.099.295.07.6.048.914-.276.314-.001.638.045.97-.332.333-.188.674.046 1.022-.458.35-.388.709.04 1.077.014.364-.163.74.038 1.122.03.383.115.77.034 1.17.308.395.292.8.033 1.212.327.411.197.83.028 1.254-.184.423.287.854.024 1.292-.019.436.075.88.023 1.327-.068.225-.14.45-.156.676a1.238 1.238 0 0 0-.002.172c.004.052.012.13.026.128.026.03.073.054.149.05.05.039.116.015.108.044.01.004-.003.03-.013.093.144-.17.125-.22.128-.201 0 0-.003.005.001.009l.092.017c.06.01.121.025.18.042.124.035.244.078.367.123.488-.057.978.186 1.476-.006.058.007.129.01.178.008a.055.055 0 0 0 .028-.006c.018-.01.03-.027.039-.038.021-.026.015-.04.125.035.052.017.102-.005.116-.059a.109.109 0 0 0-.014-.086.109.109 0 0 0-.038-.04c-.017-.05-.038-.12-.064-.178-.224-.486.094-.967.007-1.446.328-.478-.108-.953.01-1.42-.033-.468.19-.933.015-1.393-.062-.46-.124-.912.018-1.361-.506-.448.129-.891.02-1.328.213-.437-.031-.867.026-1.292-.093-.424.232-.841.027-1.253.044-.413-.161-.815.032-1.212-.25-.397.212-.788.036-1.17.001-.382-.017-.756.037-1.123.392-.367.067-.723.04-1.075.043-.349-.221-.691.044-1.023.031-.333.204-.654.046-.97-.03-.156.114-.315.2-.46.085-.083.112-.222-.15-.203-.046-.047.048-.148.118-.272.066-.117.108-.258-.044-.181l-.032.023c-.227.158-.248.15-.271.098-.017-.052-.04-.143-.11-.151a6.864 6.864 0 0 1-.2-.028l-.051-.005-.083-.006-.181-.015c-2.136-.166-3.362-.362-3.362-.568 0-.115.379-.225 1.082-.33.35-.054.782-.102 1.289-.152l.815-.072.457-.034.708-.035c.193-.008.432-.08.676-.12.24-.041.487-.05.588.069h.03c.003.201.055.368.086.572.03.203.041.438-.036.694.181.172.199.45.168.707-.032.163-.11.31-.12.468.017.317-.099.638.047.971.212.332-.106.674.044 1.023-.226.352-.167.708.038 1.075-.217.367.048.741.039 1.124-.335.381-.1.772.035 1.169.124.397-.05.8.033 1.212-.065.412.085.829.028 1.253.156.425.216.855.024 1.292.11.437.021.88.021 1.328.135.449-.016.901.018 1.36.07.46-.358.926.014 1.394.047.467-.058.941.01 1.42-.046.48-.095.96.008 1.446a.818.818 0 0 0-.112.188c-.03.11-.05.214-.063.32a3.19 3.19 0 0 0-.016.635c.03.434.12.93.192 1.468a10.31 10.31 0 0 1-1.39.058 26.146 26.146 0 0 1-.726-.021l-.357-.02-.192-.018c-.498.037-.988.017-1.476-.005a1.442 1.442 0 0 1-.367.022 2.165 2.165 0 0 1-.18-.018l-.092-.01-.165-.015c-.454-.033-.862-.061-1.35.01a4.16 4.16 0 0 1-.982.026l.072-.892a3.157 3.157 0 0 0-.031-.805c-.027-.203-.05-.418-.068-.635-.01-.13-.015-.164-.021-.223a2.533 2.533 0 0 1-.01-.172 1.657 1.657 0 0 1 .118-.676c0-.448.333-.89.021-1.327-.072-.438-.487-.869.024-1.292-.127-.425.247-.843.03-1.254.373-.412.017-.817.03-1.213.072-.398.199-.786.036-1.169-.179-.381.096-.758.036-1.122-.215-.368.281-.727.041-1.077.05-.348-.032-.69.044-1.023-.504-.331.003-.655.047-.969.072-.313-.335-.62.047-.914-.38-.296-.05-.58.053-.856.11-.273-.161-.538.053-.793-.269-.255.148-.498.056-.73.176-.233.008-.455.058-.665a.77.77 0 0 1 .06-.596c.02-.187.041-.362.061-.524.123-.976.259-1.509.399-1.509Z"/><path fill="#D7FE03" d="M99.843 77.181c-.07 0-.14-.849-.206-2.473a352.212 352.212 0 0 1-.194-7.133l-.062-3.339c-.037-1.189-.077-2.453-.06-3.791.184-1.337-.345-2.748-.057-4.229.081-1.48.005-3.03-.056-4.65-.064-1.618.117-3.303-.052-5.053-.364-1.752.4-3.569-.053-5.446-.098-1.879-.071-3.818-.048-5.818.275-1.998 0-4.059-.047-6.174.333-2.116.188-4.289-.043-6.515.457-2.226.387-4.508-.04-6.84-.008-1.167.034-2.347.05-3.538.009-.596.012-1.195 0-1.796a29.329 29.329 0 0 0-.03-.907l-.025-.453-.016-.216-.019-.067-.014-.287-.228.013-.107.008h-.028l-.09.003-.203.004c-.54.005-1.08.014-1.624.02a83.95 83.95 0 0 1-3.29-.03c-2.581.3-5.206.286-7.876.032-2.672.321-5.388.193-8.146.027-2.756-.179-5.555.282-8.394.025-2.837-.02-5.713.073-8.624.02-2.915-.131-5.862-.279-8.844.018-2.982.08-5.997.188-9.044.014-3.046.343-6.124.19-9.228.01-3.104.056-6.237-.186-9.396.007-1.578-.027-3.165.01-4.755.037-.796.012-1.593.022-2.39.02l-.6-.006-.299-.004-.15-.002-.032-.002h-.003l-.01-.001-.175-.04a1.22 1.22 0 0 0-.04.165l-.002.012-.002.008v.031l-.006.148-.01.294-.015.587c-.02.782-.037 1.562-.043 2.342a62.28 62.28 0 0 0 .115 4.659c.223 3.095-.094 6.163-.007 9.207-.326 3.043.107 6.056-.01 9.04.032 2.986-.188 5.938-.012 8.86.058 2.923.122 5.812-.02 8.668.504 2.853-.128 5.67-.022 8.45-.212 2.78.032 5.523-.022 8.225.045 1.328-.011 2.648-.055 3.958a60.02 60.02 0 0 0-.043 1.957c-.004.85.012.8.059.964l.039-.008c.075.006.156.007.237.006l.848-.01c.662-.011 1.32-.024 1.977-.036 1.314-.021 2.615-.022 3.905.072 2.58-.245 5.111.206 7.595.032 2.483.003 4.916-.014 7.296.038 2.38.384 4.71.067 6.982.04 2.272.043 4.49-.219 6.649.043 2.16.03 4.262.2 6.303.045 2.038-.057 4.02.56 5.936.047 1.915-.091 3.77.396 5.557.051 1.788-.316 3.508.04 5.159.052l4.745.054c6.8.084 12.15.175 15.799.27 1.823.047 3.224.096 4.166.147.945.048 1.43.1 1.43.151 0 .06-.6.115-1.76.169-1.16.056-2.88.11-5.115.162-4.47.104-11.007.202-19.265.293-1.651.016-3.371.287-5.16.053-1.786-.002-3.64.205-5.556.048-1.916.358-3.898.066-5.936.047-2.04.019-4.143-.095-6.303.046-2.159.208-4.377-.103-6.65.045-2.271-.221-4.6-.164-6.98.037-2.38-.214-4.814.047-7.297.038-2.484-.329-5.016-.098-7.595.034-1.29.062-2.591.049-3.905.032l-1.977-.023c-.382.002-.764.002-1.148.003-.595.005-1.192.013-1.79.02-.073 0-.146-.002-.22-.004.027-2.76.006-3.49-.017-4.915-.02-1.31-.044-2.63-.014-3.958-.16-2.702-.218-5.444-.026-8.224-.11-2.782-.021-5.598-.021-8.451-.135-2.855.017-5.745-.018-8.667-.072-2.923.358-5.875-.015-8.86-.047-2.985.058-5.998-.01-9.04.047-3.045.096-6.113-.006-9.208.184-1.547.218-3.1.189-4.66a86.37 86.37 0 0 0-.079-2.341l-.026-.587-.015-.294-.007-.148-.008-.244c-.02-.74-.038-1.483-.056-2.222v-.001c1.192-.016 2.38-.033 3.567-.051.797-.008 1.595-.01 2.39-.006 1.59.006 3.177.032 4.755.058 3.159-.034 6.292-.016 9.396.006 3.104-.104 6.181.156 9.228.01 3.047-.15 6.062.165 9.044.015 2.982-.104 5.93-.16 8.844.019 2.91 0 5.787.326 8.624.02 2.839-.07 5.638-.478 8.394.024 2.758-.125 5.474.242 8.146.027 2.67.367 5.295.02 7.876.032 1.106.031 2.201.064 3.29.092a73.657 73.657 0 0 0 2.784.014l1.37-.02c.015.584.031 1.17.055 1.77l.047 1.091c.009.303.013.605.013.907 0 .6-.016 1.2-.036 1.796-.037 1.191-.092 2.371-.061 3.538.214 2.332-.282 4.614-.043 6.84-.048 2.226.033 4.399-.041 6.515.504 2.115-.004 4.176-.047 6.174-.073 2 .333 3.94-.049 5.818.38 1.877.052 3.693-.051 5.446-.111 1.748.161 3.435-.053 5.053.266 1.62-.15 3.17-.056 4.65-.178 1.481-.011 2.892-.058 4.229a29.348 29.348 0 0 1-.06 3.791l-.061 3.34a372.96 372.96 0 0 1-.195 7.132c-.067 1.624-.136 2.473-.206 2.473Z"/><path fill="#D7FE03" d="M42.01 44.263c.14 0 .275.633.402 1.793.017.194.037.402.06.623.037.222.077.458.06.708-.185.25.344.512.057.789-.084.277-.005.567.056.869.066.303-.117.616.055.944.361.326-.403.665.05 1.017.098.351.071.712.047 1.084-.274.375-.001.759.048 1.153-.333.396-.189.801.043 1.217-.457.416-.387.841.041 1.277.014.435-.164.88.038 1.334.029.455.114.919.036 1.39.305.473.292.953.03 1.441.327.489.199.987.028 1.49-.182.504.288 1.016.027 1.536-.021.52.072 1.044.02 1.577-.135.534-.285 1.072.017 1.617.022.137.042.275.062.41l.025.208.004.051c.004.017.005.008.007.012l.006.01c.016.025-.001.034-.089.141a.773.773 0 0 0 .147-.095c.081-.068.062-.073.052-.04a.172.172 0 0 0-.011.073.218.218 0 0 0 .01.048l.01.026c.013.01.053.018.08.028.579-.057 1.165.186 1.755-.006.145.012.294.01.442.002.027-.002.022-.003.024-.006l.008-.004.014-.009a.107.107 0 0 0 .022-.02c.031-.025.027-.04.142.036.052.01.104-.025.117-.09a.2.2 0 0 0 .001-.05.083.083 0 0 0-.006-.026l-.004-.013c-.002-.007-.003-.004-.007-.028a2.132 2.132 0 0 0-.099-.433c-.225-.579.092-1.151.006-1.718.326-.568-.107-1.131.01-1.688-.032-.558.19-1.11.014-1.655-.06-.546-.124-1.086.017-1.618-.504-.533.13-1.059.023-1.578.212-.518-.031-1.032.025-1.535-.095-.504.23-1.002.027-1.49.042-.488-.163-.968.032-1.44-.25-.473.21-.935.034-1.39.003-.456-.014-.899.038-1.334.394-.436.068-.863.041-1.278.041-.416-.223-.823.044-1.217.032-.395.204-.78.045-1.152-.057-.374.572-.736.05-1.087-.047-.174.053-.348.122-.515.034-.102.06-.139.056-.188-.005-.049-.04-.093-.126-.106-.152-.027-.154-.06-.11-.153.044-.086.131-.23.156-.332-.008-.004-.016-.005-.024-.006a55.95 55.95 0 0 1-.589-.07 1.805 1.805 0 0 0-.168-.016c-.152-.01-.296-.021-.439-.032-.282-.025-.548-.046-.794-.067a23.74 23.74 0 0 1-1.254-.14c-.682-.093-1.046-.195-1.046-.298 0-.115.449-.224 1.285-.33.417-.053.93-.102 1.532-.151l.47-.037c.171-.011.293-.023.574-.035a272.666 272.666 0 0 0 1.736-.075c.021.19.09.357.124.573a1.34 1.34 0 0 1-.077.746c0 .125.013.248.03.376l.028.193.006.051.009.032.012.065c.032.167.047.34-.033.515.365.351.066.713.046 1.087.02.372-.097.757.048 1.152.211.394-.105.8.044 1.217-.225.415-.166.842.042 1.278-.22.435.045.878.036 1.334-.336.455-.1.917.036 1.39.122.472-.052.952.03 1.44-.065.488.086.986.03 1.49.157.503.217 1.017.022 1.535.11.519.023 1.045.023 1.578.133.532-.016 1.072.02 1.618.068.545-.36 1.097.012 1.655.047.557-.059 1.12.01 1.688-.046.567-.097 1.14.007 1.718a1.22 1.22 0 0 0-.174.434c-.03.227-.031.493-.016.744.028.51.121 1.084.192 1.71-.512.052-1.092.066-1.666.058l-.429-.008-.41-.013-.443-.038c-.59.037-1.176.017-1.755-.005-.032.004-.05.008-.096.013l-.165.009c-.112.003-.224.003-.335.003a12.936 12.936 0 0 1-.652-.026c-.428-.027-.824-.06-1.255-.054a4.475 4.475 0 0 0-.044-.548c-.08-.467-.037-1.04.006-1.553l.014-.193.008-.089.007-.05c.01-.07.016-.14.019-.209a1.267 1.267 0 0 0-.04-.41c-.108-.545-.166-1.083.017-1.617 0-.533.333-1.057.023-1.577-.071-.52-.488-1.032.022-1.536-.126-.503.247-1.001.03-1.49.373-.488.02-.968.032-1.44.072-.472.197-.936.036-1.39-.179-.454.097-.9.036-1.335-.214-.436.281-.86.04-1.277.05-.416-.032-.82.044-1.217-.504-.394.002-.778.046-1.153.074-.372-.334-.733.05-1.084-.382-.352-.052-.691.052-1.017.109-.328-.163-.641.052-.944-.268-.302.148-.592.056-.87.177-.276.009-.537.057-.788-.06-.25-.039-.486.06-.708.023-.221.043-.429.061-.623.124-1.16.259-1.793.4-1.793Zm12.517-4.52c.14 0 .276.733.4 2.077.02.224.04.464.064.72.036.257.076.53.058.82-.184.29.344.594.058.914-.083.321-.007.655.056 1.006.064.348-.12.714.053 1.09.363.38-.401.773.052 1.179.097.405.07.825.048 1.258-.275.431-.001.875.045 1.334-.332.456-.188.926.044 1.408-.457.48-.386.973.04 1.478.016.504-.162 1.02.04 1.545.028.527.115 1.062.035 1.608.305.546.292 1.103.03 1.669.329.565.2 1.14.029 1.724-.184.584.288 1.176.024 1.778-.02.601.076 1.21.022 1.827-.134.616-.285 1.24.019 1.871.04.317.087.634.104.953.007.16.007.319-.007.48-.006.08-.016.161-.03.241-.014.112-.031.076-.054.102.202.029.235-.061.192-.008-.03.03-.072.102-.054.177a.098.098 0 0 1 .038-.01l.019.006.01.002s.003.003.03.004c.168.014.337.03.505.047.34.029.68.04 1.022-.055.17.012.34.01.513.002l.127-.01.065-.004.033-.003c.01 0 .004-.002.008-.002l.03-.02c.04-.025.034-.04.157.036.052.004.104-.044.117-.123a.284.284 0 0 0 .002-.057l-.006-.107-.01-.126a2.774 2.774 0 0 0-.102-.501c-.224-.67.092-1.333.006-1.991.328-.658-.106-1.308.01-1.955-.03-.644.19-1.284.015-1.914-.06-.63-.123-1.255.017-1.872-.504-.618.13-1.227.023-1.828.212-.6-.033-1.194.024-1.778-.093-.584.232-1.158.03-1.724.04-.564-.165-1.122.029-1.668-.248-.545.212-1.083.036-1.609.002-.525-.016-1.04.038-1.544.392-.503.067-.996.039-1.479.043-.482-.221-.95.044-1.408.033-.457.207-.901.048-1.334-.059-.434.57-.852.048-1.257-.095-.406.401-.8.052-1.177a.54.54 0 0 1-.132-.282.62.62 0 0 1 .015-.206c.004-.021.01-.022.017-.036.052-.073.145-.192.153-.29l.038-.41c-.058-.008-.111-.011-.162-.018-.216-.02-.421-.044-.614-.063a95.073 95.073 0 0 0-.92-.066 32.145 32.145 0 0 1-1.452-.14c-.787-.094-1.21-.195-1.21-.3 0-.106.45-.21 1.294-.306.42-.05.94-.1 1.55-.145.152-.01.31-.021.474-.034l.249-.016.345-.018c.516-.02 1.063-.04 1.64-.064.01.325.024.66.038 1.007.009.255.08.506.124.794l.022.173a.606.606 0 0 1 .002.138.598.598 0 0 1-.095.282c-.001.378.21.771.05 1.177.365.405.069.823.05 1.257.017.433-.1.877.047 1.334.21.459-.106.926.042 1.408-.222.483-.165.976.042 1.48-.22.503.045 1.018.037 1.543-.336.526-.101 1.064.035 1.609.122.546-.051 1.104.032 1.668-.066.566.085 1.14.028 1.724.158.584.217 1.179.025 1.778.108.601.023 1.21.023 1.828.132.617-.02 1.241.016 1.872.069.63-.356 1.27.014 1.914.048.647-.058 1.297.01 1.955-.046.658-.095 1.322.008 1.99a1.525 1.525 0 0 0-.175.502c-.008.042-.012.084-.017.126l-.004.064-.003.082c-.003.146.001.291.008.439.03.586.121 1.237.192 1.95-.601.052-1.273.066-1.937.058l-.498-.008-.09-.004-.064-.003-.127-.006-.513-.038c-.342.017-.682.022-1.022.018-.476-.007-.954-.017-1.428-.023-.548.044-1.086.023-1.58-.005.04-.756.095-1.436.01-2.115-.02-.138-.032-.339-.04-.386a2.074 2.074 0 0 1-.003-.24 4.46 4.46 0 0 1 .05-.481c.04-.319.082-.636.006-.953-.108-.63-.165-1.255.017-1.872 0-.616.334-1.225.023-1.826-.073-.602-.488-1.194.023-1.778-.126-.584.246-1.159.029-1.724.373-.566.02-1.123.033-1.669.07-.546.196-1.081.034-1.608-.178-.525.098-1.041.037-1.545-.213-.505.281-.997.04-1.478.05-.482-.032-.952.044-1.408-.504-.459.004-.903.048-1.334.072-.433-.335-.853.047-1.258-.38-.407-.05-.798.053-1.179.11-.376-.163-.742.052-1.09-.267-.35.15-.685.056-1.006.179-.32.01-.625.057-.913-.06-.29-.038-.564.06-.821.022-.256.042-.496.063-.72.123-1.344.257-2.077.399-2.077Zm12.518-4.665c.142 0 .278.836.402 2.367.02.256.04.53.06.823.038.294.078.605.06.934-.186.33.345.678.058 1.044-.082.364-.005.746.056 1.146.066.398-.117.814.054 1.246.364.431-.402.878.05 1.342.099.462.074.94.05 1.433-.276.494-.002 1.002.046 1.522-.334.521-.189 1.057.044 1.607-.457.547-.386 1.11.04 1.685.015.574-.162 1.163.038 1.762.03.6.114 1.211.034 1.835.306.623.292 1.258.032 1.902.328.645.198 1.3.03 1.966-.184.666.286 1.343.024 2.027-.022.686.074 1.381.022 2.083-.136.704-.286 1.416.016 2.136.082.72.192 1.449.014 2.184a2.033 2.033 0 0 1 .186.613l.007.061c.003.007.005.003.008.005.005 0 .01-.002.008-.002 0 0-.06.023-.136.136a.188.188 0 0 0-.023.058c.04-.012.06-.009.086.003l.04.022c.026.008-.002.016.129.025.387.029.773.04 1.163-.055.194.012.389.01.584.002l.294-.019.147-.009c.019-.004.015-.008.024-.01.048-.026.045-.04.173.035.054-.003.104-.065.118-.157 0-.011.002-.016.002-.038l-.001-.143a3.356 3.356 0 0 0-.016-.287 3.408 3.408 0 0 0-.1-.574c-.224-.763.092-1.518.007-2.268.326-.75-.108-1.495.009-2.23-.032-.736.19-1.463.013-2.183-.061-.721-.124-1.432.019-2.136-.505-.703.13-1.398.02-2.084.215-.686-.03-1.36.025-2.028-.093-.665.234-1.322.03-1.966.042-.644-.163-1.279.032-1.902-.251-.622.21-1.236.034-1.834.002-.601-.016-1.188.038-1.761.393-.576.066-1.138.041-1.687.041-.55-.224-1.085.043-1.607.032-.52.204-1.03.045-1.522-.057-.492.573-.97.05-1.434-.095-.461.402-.91.05-1.34-.323-.433.04-.847.055-1.247l.005-.149.005-.057.003-.04c.004-.053.01-.108.013-.161.011-.114.02-.224.028-.33.007-.073.014-.143.019-.211-.228-.022-.444-.042-.645-.063l-.083-.008-.1-.008c-.084-.003-.168-.01-.25-.015-.162-.012-.322-.024-.474-.032-.61-.044-1.13-.09-1.548-.136-.84-.092-1.29-.189-1.29-.288 0-.1.45-.197 1.29-.29.419-.046.939-.092 1.548-.135.152-.01.312-.02.475-.033l.249-.016.34-.015 1.612-.063c.023.642.047 1.327.075 2.05.016.4.29.814.052 1.247-.002.43.209.879.052 1.34.362.464.065.942.048 1.434.017.493-.1 1.001.045 1.522.21.522-.104 1.057.044 1.607-.225.549-.167 1.11.041 1.687-.22.573.046 1.16.036 1.76-.336.6-.098 1.213.036 1.835.123.623-.05 1.258.032 1.902-.065.644.086 1.301.028 1.966.156.668.218 1.342.026 2.028.108.686.02 1.38.02 2.084.133.703-.016 1.415.018 2.136.07.72-.358 1.447.015 2.183.047.735-.06 1.48.01 2.23-.046.75-.097 1.505.005 2.268-.091.19-.146.381-.172.575a2.648 2.648 0 0 0-.024.43l.006.244c.03.666.122 1.395.192 2.198a26.55 26.55 0 0 1-2.217.058l-.276-.003-.147-.005-.294-.013-.584-.038c-.39.017-.776.022-1.163.018-.697-.007-1.39-.017-2.08-.023-.176.011-.348.018-.519.022-.013-.617.028-1.276.055-1.888l.02-.456.004-.172.001-.123c0-.164-.013-.326-.045-.49-.155-.735.168-1.463.016-2.184-.108-.72-.165-1.432.016-2.136 0-.702.333-1.397.021-2.083-.07-.684-.485-1.36.024-2.027-.126-.665.248-1.32.03-1.966.373-.644.02-1.28.03-1.902.074-.624.2-1.235.038-1.835-.18-.6.096-1.188.037-1.762-.215-.575.279-1.138.039-1.685.049-.55-.031-1.086.045-1.607-.504-.52.001-1.028.045-1.522.074-.493-.333-.97.05-1.433-.382-.464-.052-.91.05-1.342.112-.432-.16-.848.055-1.246-.27-.4.148-.782.055-1.146.178-.366.01-.715.057-1.044-.06-.33-.037-.64.061-.934l.06-.823c.124-1.531.26-2.367.4-2.367Zm12.518-5.323c.141 0 .277.956.4 2.703l.062.938c.036.334.076.688.06 1.064-.185.377.346.774.058 1.19-.083.417-.007.852.056 1.307.064.455-.118.929.052 1.421.362.493-.402 1.002.052 1.531.097.527.072 1.074.048 1.635-.276.562-.002 1.142.046 1.736-.333.596-.186 1.206.043 1.832-.456.627-.387 1.268.043 1.924.013.656-.164 1.325.037 2.01.03.684.115 1.381.035 2.092.306.71.292 1.433.032 2.17.326.734.197 1.483.026 2.243-.181.76.288 1.531.027 2.313-.02.78.073 1.574.02 2.376-.135.803-.284 1.615.019 2.436.081.822.19 1.653.014 2.492.175.418.223.841.206 1.264a8.522 8.522 0 0 1-.024.319c-.008.076-.014.042-.022.052-.008.004-.017.007-.025.012a.424.424 0 0 0-.124.122c.008.013.01.028.007.05.044.007.077.049.152.067l.026.007.023.001.07.001c.094.002.189 0 .283-.004.187-.009.378-.03.564-.07.444.027.891-.01 1.338-.037.04-.002.026-.004.032-.005l.01-.005.016-.005a.07.07 0 0 1 .035-.004c.023 0 .053.017.121.054.028-.006.054-.026.076-.06a.265.265 0 0 0 .027-.06l.01-.036.002-.019c.003-.009.004 0 .004-.037a4.948 4.948 0 0 0-.115-1.31c-.225-.87.094-1.734.006-2.589.328-.855-.107-1.703.01-2.543-.032-.84.191-1.669.015-2.49-.06-.82-.124-1.635.019-2.436-.504-.803.128-1.595.02-2.377.212-.78-.031-1.552.025-2.313-.095-.759.232-1.507.028-2.243.043-.735-.163-1.459.032-2.17-.25-.71.212-1.41.035-2.091 0-.685-.016-1.356.038-2.01.392-.657.066-1.297.04-1.925.043-.625-.222-1.236.044-1.83.031-.596.204-1.175.046-1.737-.058-.561.573-1.108.049-1.635-.093-.528.403-1.039.05-1.53-.323-.493.04-.968.054-1.423l.03-.667.011-.324.004-.079.004-.046.007-.092.052-.66a73.87 73.87 0 0 1-.677-.059l-.086-.006-.102-.01a15.64 15.64 0 0 1-.252-.014c-.163-.012-.322-.02-.474-.03a47.21 47.21 0 0 1-1.548-.128c-.838-.086-1.284-.175-1.284-.27 0-.093.446-.184 1.284-.27.42-.044.939-.088 1.548-.128l.474-.032.252-.013.333-.016 1.588-.06c.017.507.036 1.037.053 1.595l.054 1.31c.018.454.294.93.053 1.422-.001.491.21 1.002.05 1.53.366.527.069 1.074.05 1.635.017.562-.1 1.14.048 1.736.21.595-.107 1.206.041 1.83-.224.63-.165 1.27.042 1.925-.219.655.045 1.326.038 2.01-.337.683-.102 1.383.034 2.092.124.711-.05 1.435.032 2.17-.064.736.085 1.484.028 2.243.158.76.217 1.53.024 2.313.109.782.021 1.574.022 2.377.135.801-.017 1.614.019 2.436.068.821-.359 1.65.012 2.49.05.84-.057 1.688.01 2.543-.045.855-.094 1.72.009 2.588-.184.435-.219.873-.191 1.31.03.716.121 1.563.192 2.462-.399.026-.819.043-1.245.05l-.646.01-.622-.003a30.174 30.174 0 0 1-1.338-.059c-.188.007-.377.011-.564.017-.249 0-.497.002-.744.003-.706-.005-1.409-.01-2.108-.017l.011-.73a13.11 13.11 0 0 1-.024-1.197l.008-.303c.003-.093.005-.225.01-.256l.025-.319c.036-.423.064-.846-.01-1.264-.156-.839.167-1.67.014-2.492-.106-.821-.164-1.633.018-2.436 0-.802.335-1.595.023-2.377-.073-.78-.488-1.552.024-2.312-.128-.76.245-1.509.028-2.243.375-.737.019-1.46.032-2.17.072-.71.196-1.408.033-2.093-.177-.684.099-1.353.039-2.01-.213-.655.281-1.296.041-1.923.048-.626-.032-1.236.043-1.832-.504-.594.003-1.175.047-1.736.072-.56-.334-1.108.049-1.635-.381-.529-.053-1.038.05-1.53.111-.493-.162-.967.054-1.422-.268-.455.148-.89.056-1.308.176-.415.01-.812.057-1.189-.06-.376-.038-.73.06-1.064.022-.336.043-.647.06-.938.126-1.747.262-2.703.402-2.703Z"/></svg>