<svg xmlns="http://www.w3.org/2000/svg" width="110" height="113" fill="none"><path fill="#D7FE03" d="M.916 1.708c.072 0 .14.636.208 1.86.065 1.22.13 3.027.193 5.363.018.72.04 1.49.062 2.318.01.146.017.295.028.453.234-.012.46-.022.685-.027l.172-.006h.276l.561.002c1.028.184 2.11-.337 3.246-.054 1.137.08 2.326.005 3.568-.055 1.241-.064 2.534.115 3.878-.053 1.343-.357 2.736.393 4.18-.051 1.44-.095 2.927-.07 4.462-.047 1.534.27 3.112.001 4.737-.046 1.625.327 3.29.186 5-.043 1.707.448 3.457.38 5.247-.04 1.792-.014 3.62.16 5.488-.037 1.865-.029 3.77-.111 5.708-.033 1.94-.3 3.916-.286 5.922-.03 2.008-.322 4.051-.197 6.123-.03 2.073.18 4.176-.28 6.31-.023 2.133.02 4.297-.073 6.486-.023 2.19.134 4.407.281 6.648-.015 2.243-.08 4.51-.188 6.799-.013 2.29-.344 4.604-.194 6.937-.01 2.335-.058 4.69.185 7.064-.007 1.189.026 2.38-.012 3.576-.037a68.812 68.812 0 0 1 1.797-.02l.451.003.041.003.012.002.027.006c.036.009.08.02.144.04a.765.765 0 0 0 .039-.115l.008-.038.004-.02c.001-.011.002.005.004-.046l.018-.442c.02-.588.036-1.176.044-1.761a35.544 35.544 0 0 0-.116-3.503 19.355 19.355 0 0 1-.08-1.716V3l.006-.039.024-.098a.34.34 0 0 0-.086-.032l-.029-.01-.015-.002-.006-.003-.027-.001-.447-.013a29.879 29.879 0 0 0-1.778.005c-2.336-.321-4.648.105-6.938-.01-2.292.031-4.557-.187-6.8-.016-2.241.061-4.458.123-6.649-.017-2.19.495-4.352-.125-6.484-.02-2.133-.209-4.239.03-6.31-.024-2.073.092-4.115-.23-6.122-.028-2.008-.042-3.984.16-5.924-.031-1.939.244-3.844-.208-5.71-.034-1.866 0-3.697.015-5.485-.038-1.79-.384-3.54-.065-5.248-.04-1.709-.041-3.376.218-5-.042-1.624-.03-3.202-.2-4.737-.045-1.535.056-3.023-.562-4.464-.048-1.44.091-2.835-.395-4.177-.05-1.343.316-2.638-.039-3.878-.05-1.242-.022-2.432-.04-3.569-.056-5.112-.085-9.135-.175-11.877-.27-2.744-.095-4.208-.196-4.208-.3 0-.114 1.808-.225 5.17-.33 3.362-.106 8.274-.202 14.484-.291 1.24-.018 2.535-.289 3.878-.052 1.342.001 2.737-.207 4.177-.05 1.441-.358 2.93-.065 4.464-.05 1.535-.015 3.113.1 4.737-.044 1.624-.208 3.291.103 5-.042 1.708.22 3.458.162 5.248-.039 1.788.213 3.62-.046 5.486-.038 1.865.328 3.77.1 5.709-.034 1.94-.121 3.916.048 5.924-.031 2.007.062 4.05-.085 6.121-.029 2.072-.153 4.178-.21 6.311-.024 2.132-.105 4.293-.02 6.484-.02 2.19-.132 4.408.017 6.65-.017 2.242-.068 4.507.35 6.8-.013 2.289-.047 4.601.056 6.937-.01.592.01 1.184.02 1.778.032.419.002.835.006 1.252.012l1.64.006c.003.523.003 1.045.003 1.568l.007 1.224c.01.572.026 1.143.052 1.716-.184 1.164-.219 2.33-.191 3.503.013.585.045 1.173.08 1.761l.028.442.028.786c.02.56.037 1.121.056 1.683v.001c-.992.017-1.981.033-2.971.051-.601.008-1.2.01-1.797.007-1.196-.007-2.387-.036-3.576-.06-2.373.035-4.73.016-7.064-.007-2.333.107-4.647-.154-6.937-.01-2.29.152-4.556-.164-6.799-.014-2.241.105-4.457.162-6.648-.015-2.19 0-4.353-.328-6.485-.024-2.135.07-4.238.477-6.31-.022-2.073.123-4.116-.243-6.124-.03-2.006-.365-3.982-.017-5.922-.03-1.939-.07-3.843-.195-5.708-.035-1.868.175-3.696-.095-5.488-.036-1.79.21-3.54-.275-5.247-.039-1.71-.05-3.375.03-5-.044-1.625.494-3.203-.003-4.737-.046-1.535-.07-3.023.328-4.463-.046-1.443.373-2.836.049-4.179-.052-1.342-.108-2.637.158-3.878-.052-1.242.264-2.43-.143-3.568-.055-1.136-.173-2.218-.008-3.246-.056-.188.01-.374.02-.558.026l-.276.005-.386.001c-.516 0-1.022-.008-1.489-.03.015-.361.036-.714.061-1.05l.032-1.505.031-1.21c.061-2.335.128-4.14.193-5.362.067-1.224.136-1.86.207-1.86Zm39.5 87.224c-.01.138-.73.229-2.037.276l-.702.02c-.25.023-.518.046-.798.014-.268-.199-.594.304-.888.005-.306-.1-.634-.042-.976-.001-.343.044-.686-.155-1.063-.01-.388.335-.723-.433-1.141-.014-.4.074-.803.024-1.222-.022a.806.806 0 0 0-.296-.132.27.27 0 0 0-.157.009c-.1.033-.156.11-.221.13l-.052-.045c-.131-.059-.195.048-.202.17a.472.472 0 0 0 .036.19c.007.015.012.03.02.045.007.018.008.056.012.082l.034.178c-.566.32-.627.791-.344 1.366-.118.464-.424.891-.367 1.424-.107.49-.163 1.004-.383 1.484.154.58-.005 1.087-.401 1.535.168.605-.108 1.098-.421 1.588-.33.488-.027 1.155-.438 1.635-.173.545-.241 1.128-.453 1.679-.29.531-.596 1.064-.468 1.721-.087.601-.145 1.213-.484 1.758.17.685-.15 1.24-.496 1.793-.059.31-.188.599-.303.896a4.26 4.26 0 0 0-.152.45l-.024.118a1.073 1.073 0 0 0-.008.05l.006.011c.008.019.02.034.044.046-.044.051-.015.097.009.111.07-.006.084-.013.085.062.006.014.011.03.022.047.008.005.004.011.02.022l.114.048c.152.063.304.122.46.17.314.098.634.158.974.146.685-.04 1.22.428 1.858.512.53.476 1.254.232 1.824.507.612.134 1.151.505 1.788.499.094-.018.106-.061.176-.009.014-.005.036-.001.078.005-.094-.133-.14-.168-.152-.18-.004-.008 0-.006.009-.006l.021.004c.007-.006.007.009.018-.011l.028-.05c.158-.257.364-.499.388-.787.362-.495.278-1.103.484-1.623.062-.559.526-1.001.477-1.573.187-.507.133-1.071.461-1.519-.097-.567.484-.938.452-1.466.139-.482.255-.958.436-1.406.51-.358.324-.896.422-1.344.168-.428.032-.929.409-1.278.148-.411.432-.773.39-1.21.057-.412.771-.63.374-1.141.015-.395.592-.625.352-1.064-.212-.43.23-.67.333-.986l.316-.907c.91-2.595 1.53-4.056 1.734-4 .226.062-.092 1.987-.824 5.24-.072.323.1.73-.231 1.014-.1.346.003.762-.256 1.09.247.47-.15.775-.28 1.166-.093.4-.323.778-.3 1.233.085.476-.343.823-.324 1.303-.34.381-.412.85-.343 1.365-.342.406-.22.947-.365 1.427-.46.393-.37.947-.383 1.483-.024.531-.334.995-.402 1.535-.208.501-.214 1.068-.42 1.588.001.576-.095 1.134-.436 1.634-.026.29-.1.57-.187.846-.075.239-.147.479-.223.72-.078.257-.156.513-.23.773a9.472 9.472 0 0 1-.206.929c-.393-.102-.804-.229-1.2-.35-.4-.123-.794-.243-1.192-.337-.61-.096-1.09-.661-1.796-.473-.614-.12-1.196-.386-1.828-.488-.602-.213-1.21-.427-1.862-.499-.264-.258-.568-.377-.891-.436a4.029 4.029 0 0 0-.496-.054l-.127-.005-.22-.032-.47-.068a20.399 20.399 0 0 1-1.806-.433c.183-.618.384-1.237.58-1.827l.188-.727c.039-.154.084-.306.128-.457.09-.302.184-.602.282-.901.066-.63.49-1.157.517-1.788.017-.631.495-1.132.51-1.752.06-.604.167-1.192.503-1.708.159-.566.642-1.036.494-1.669.089-.57-.159-1.221.485-1.622.03-.567.539-.996.476-1.573.507-.42.308-1.023.463-1.52.21-.482.47-.94.45-1.464-.036-.528.364-.929.439-1.406-.077-.52.528-.84.421-1.343.022-.053.039-.104.056-.156l.028-.083.038-.13.14-.52c.094-.345.19-.692.306-.993l.106.015c.193-.236.649-.21 1.041-.12.2.045.39.107.567.163.052.014.072.027.098.037l.078.033a.74.74 0 0 0 .154.043c.415.094.846-.278 1.216.118.415-.35.776-.006 1.136.116.36.128.731-.118 1.056.113.354-.244.655.182.97.109.3.193.605.044.882.108a1.36 1.36 0 0 1 .79.103c.248.036.48.068.696.101 1.292.196 1.996.368 1.989.507Zm28.187.036c-.007-.139.694-.31 1.989-.508.216-.032.448-.066.695-.1.246-.05.509-.104.79-.104.29.166.555-.37.883-.106.313.063.635-.031.97-.11.334-.085.698.076 1.055-.113.344-.377.77.35 1.136-.117.388-.118.796-.116 1.215-.117a.695.695 0 0 0 .333.095 2.45 2.45 0 0 0 .484-.045c.33-.06.71-.16 1.09-.204.025.015.05.03.076.041-.012.454.037.752.149 1.037.107.269.3.619.45.752-.315.56-.12.994.423 1.344.146.456.107.978.436 1.406.165.473.387.943.45 1.465.437.42.569.934.464 1.519.462.434.485.995.473 1.574-.024.583.584 1.003.485 1.621.136.557.387 1.09.495 1.669.03.602.047 1.213.501 1.711.242.558.514 1.116.51 1.751.504.501.525 1.138.517 1.789.113.294.152.609.21.92.029.157.06.311.109.463l.04.113.06.16c.05.136.108.273.173.414.135.586.347 1.174.55 1.799-.54.171-1.134.345-1.746.436l-.456.085-.221.042-.123.015a6.238 6.238 0 0 0-.485.088 2.92 2.92 0 0 0-.911.366c-.565.381-1.27.251-1.863.499-.701-.14-1.194.434-1.83.488-.594.194-1.25.147-1.795.473-.764.253-1.597.526-2.368.703a11.12 11.12 0 0 1-.19-.943c-.173-.149-.3-.397-.391-.665a3.61 3.61 0 0 1-.108-.415l-.04-.212c-.004-.03-.014-.082-.014-.094v-.056c0-.301.05-.612-.081-.874.05-.605-.341-1.085-.437-1.635-.244-.509-.078-1.122-.422-1.586-.105-.531-.448-.986-.401-1.537-.383-.435-.079-1.047-.387-1.483-.132-.482-.284-.95-.362-1.425.248-.565-.194-.932-.344-1.367-.086-.45-.463-.812-.326-1.3-.086-.427-.036-.882-.301-1.234-.168-.382.33-.93-.279-1.166-.196-.347.179-.836-.257-1.092-.408-.261-.154-.69-.232-1.013-.07-.326-.14-.638-.207-.937-.584-2.681-.821-4.247-.618-4.304.226-.061.966 1.75 2.049 4.907.108.315.47.578.336.987.097.349.401.652.355 1.064.457.276.278.739.372 1.14.13.391.133.83.392 1.21.322.364.14.877.408 1.278-.092.501.092.938.422 1.345-.078.52.31.921.438 1.405-.187.571.18 1 .45 1.465.26.469.239 1.024.464 1.519.084.536.379 1.024.475 1.574.304.494.515 1.021.487 1.622.129.26.213.537.282.817l.015.054c.007.022.003.009.004.017l-.001.017v.035a.26.26 0 0 0 .008.071c.035-.009.052-.009.06.005.025-.013.038.001.066.008.023.008.06.009.087-.012.572-.226 1.284.016 1.787-.5.589-.209 1.228-.275 1.825-.506.628-.123 1.26-.245 1.859-.512.36.088.684.035.993-.077a4.17 4.17 0 0 0 .452-.204l.11-.059a.266.266 0 0 0 .02-.09c.007-.055.005-.068.035-.07 0-.017.024-.032.041-.071l-.017-.026-.005-.004-.015-.053-.036-.114a15.56 15.56 0 0 1-.13-.456 29.678 29.678 0 0 1-.232-.916c-.275-.573-.188-1.241-.496-1.794-.32-.55-.172-1.22-.484-1.757-.266-.551-.483-1.109-.467-1.723-.16-.563.004-1.21-.452-1.677-.225-.532-.779-.967-.439-1.637-.272-.5-.061-1.125-.418-1.588.216-.615-.274-1.033-.402-1.536-.072-.52-.09-1.042-.382-1.483-.308-.433-.176-.98-.364-1.425-.34-.407.012-.988-.344-1.365-.011-.055-.02-.109-.032-.16l-.023-.092a.997.997 0 0 0-.033-.1.544.544 0 0 1-.04-.223l-.018-.01c-.246.26-.23.26-.268.193-.017-.033-.041-.081-.076-.124a.883.883 0 0 0-.308-.077c-.424-.047-.805.372-1.22.022-.373.395-.772.095-1.145.016-.37-.088-.71.198-1.06.007-.324.281-.673-.107-.977.003-.32-.157-.606.025-.888-.006a1.384 1.384 0 0 1-.8-.014 191.09 191.09 0 0 1-.7-.02c-1.31-.046-2.028-.139-2.036-.276ZM52.315 51.973c0-.136 1.845-.27 5.225-.39.561-.02 1.168-.04 1.813-.06.648-.037 1.336-.077 2.063-.058.727.18 1.493-.34 2.3-.058.805.08 1.648.005 2.528-.055.88-.064 1.797.115 2.748-.052.952-.354 1.941.393 2.961-.05 1.022-.096 2.076-.07 3.164-.047.135.034.271.06.408.077l.206.024.104.006.153.007c.408.012.82.003 1.256-.017l.672-.035c.028.179.023.396.036.6.017.417.033.858.033 1.311-.053.243-.101.349-.138.5a5.01 5.01 0 0 0-.098.433c-.026.145-.044.291-.062.436-.023.146-.04.293-.054.44-.029.297-.032.598-.041.9-.013.304-.016.612-.013.925-.7 1.115-.932 2.293-.979 3.647-.437 1.221-1.139 2.345-1.612 3.616-.633 1.191-1.339 2.395-2.281 3.453-.638 1.288-1.662 2.37-2.934 3.157-.877 1.218-2.188 2.045-3.565 2.706a8.465 8.465 0 0 0-.507.268 9.352 9.352 0 0 0-.497.285c-.163.1-.325.203-.487.31-.161.104-.329.202-.494.304-.331.2-.664.405-1.024.56-.358.158-.719.315-1.115.388-1.463.563-2.975 1.116-4.576 1.38-1.62.189-3.233.207-4.88.522-1.65.097-3.365.07-5.007-.4-1.737.037-3.402-.586-4.932-1.382-1.637-.58-3.066-1.58-4.636-2.36-1.432-.986-2.954-1.931-4.118-3.278-1.19-1.315-2.214-2.71-3.348-4.035-.578-.66-1.008-1.417-1.374-2.196-.181-.39-.364-.777-.522-1.174-.167-.393-.346-.779-.518-1.17a6.424 6.424 0 0 0-.152-.621c-.061-.201-.112-.406-.18-.605a13.265 13.265 0 0 0-.212-.594c-.076-.196-.138-.396-.21-.595l-.215-.592c-.07-.197-.125-.398-.184-.6a10.672 10.672 0 0 1-.159-.607 5.35 5.35 0 0 1-.098-.616c-.34-1.639-.255-3.289-.415-4.905-.043-1.622.064-3.253.528-4.782a4.105 4.105 0 0 1 .081-1.204c.087-.389.234-.761.379-1.127.316-.732.699-1.422.947-2.154.786-1.345 1.284-2.797 2.156-4.042.188-.328.39-.645.629-.935.235-.292.461-.59.717-.862.254-.273.49-.556.734-.832.244-.274.47-.563.678-.866 1.022-1.039 1.971-2.16 3.223-2.877.121-.13.25-.253.383-.372a7.539 7.539 0 0 1 1.333-.848c.313-.157.62-.321.925-.48.31-.159.603-.331.882-.536 1.206-.64 2.434-1.193 3.689-1.582.344-.014.667-.064.981-.144a9.37 9.37 0 0 0 .927-.262c.299-.107.601-.206.903-.3.304-.094.602-.203.91-.256.31-.044.615-.106.918-.174.302-.063.605-.113.908-.166.15-.027.302-.052.452-.072.152-.018.304-.024.456-.03.149-.005.3-.005.452.003.16.005.268.02.514.04.464-.005.919 0 1.358.007.213.004.428.008.642.01 0 .216-.014.443-.017.66-.015.431-.021.85-.015 1.262l.003.156.003.102.014.202c.008.135.024.27.046.402.057 1.065-.574 2.099-.051 3.098.093 1-.403 1.967-.05 2.9.323.933-.042 1.83-.053 2.694-.021.864-.038 1.688-.056 2.48-.085 3.55-.177 6.34-.276 8.246-.097 1.905-.198 2.922-.304 2.922-.117 0-.23-1.255-.338-3.59-.107-2.333-.207-5.745-.3-10.058-.015-.863-.291-1.761-.051-2.694.001-.933-.21-1.9-.05-2.9-.366-1-.067-2.033-.05-3.098v-.402l.001-.202.002-.098.004-.04c.005-.11.013-.222.018-.334.002-.058.006-.119.002-.17a2.131 2.131 0 0 0-.179.012 1.427 1.427 0 0 0-.35.073c-.034.029-.218.06-.345.082a6.47 6.47 0 0 1-.416.049c-.141.013-.282.017-.422.026l-.424.031c-.286.021-.574.03-.858.072a6.25 6.25 0 0 0-.852.187c-1.186.014-2.362.37-3.438.968-1.228.21-2.276.95-3.39 1.532-1.284.313-2.27 1.231-3.22 2.125-.958.887-2.07 1.647-2.932 2.696-.968.949-1.697 2.12-2.496 3.25-.62 1.247-1.213 2.49-1.936 3.729-.442 1.348-.952 2.69-1.248 4.116-.164 1.441-.468 2.888-.45 4.38.03.744-.038 1.493-.02 2.25-.007.38.036.756.097 1.13.055.377.168.746.33 1.102.323 1.477.654 2.988 1.306 4.401.54 1.449 1.241 2.876 2.21 4.134.58 1.518 1.811 2.657 3.057 3.68 1.225 1.049 2.441 2.084 3.756 2.992a29.138 29.138 0 0 0 4.221 2.162c.187.058.372.122.556.19l.557.19.55.201c.184.065.37.121.556.183l.557.18c.187.055.379.098.567.144.189.043.378.086.569.121.192.034.387.051.579.068.388.032.768.09 1.149.135.381.053.759.128 1.14.168.759.11 1.527.17 2.285.09 1.519-.121 2.986-.329 4.471-.441.363-.08.724-.144 1.09-.2a32.61 32.61 0 0 0 1.087-.214c.714-.171 1.412-.403 2.024-.815.331-.138.639-.332.948-.51.312-.172.607-.374.911-.553.15-.091.305-.17.46-.256a5.168 5.168 0 0 1 .963-.43c.168-.057.34-.11.522-.15.28-.211.576-.394.864-.586.29-.19.599-.354.882-.552.284-.193.58-.374.841-.595.26-.222.513-.45.728-.714.31-.163.592-.359.853-.577.252-.223.476-.474.695-.725.424-.517.799-1.062 1.203-1.572.865-.973 1.696-1.984 2.166-3.155.444-1.173 1.196-2.172 1.56-3.325.047-.301.135-.583.243-.858.101-.278.212-.552.327-.825.12-.27.218-.548.29-.829.072-.283.14-.563.126-.857.062-.278.117-.558.169-.837.048-.28.073-.56.108-.835.019-.14.035-.277.053-.414l.035-.414c.015-.136.028-.275.044-.41.013-.13.035-.3.047-.337-.124-.093-.188-.115-.208-.155-.011-.02-.011-.043-.007-.073-.021-.004-.036-.02-.055-.035-.036-.033-.085-.085-.17-.13l-.036-.015-.104-.017-.206-.026a4.892 4.892 0 0 0-.408-.035c-1.088-.071-2.142.325-3.164-.049-1.02.374-2.008.051-2.961-.05-.95-.108-1.868.157-2.748-.052-.88.263-1.723-.145-2.528-.055-.807-.175-1.573-.01-2.3-.056a9.096 9.096 0 0 1-2.061-.058l-1.815-.06c-3.38-.125-5.225-.254-5.225-.395Z"/><path fill="#D7FE03" d="M81.576 48.515c0 .137-.983.272-2.779.393-.301.017-.624.038-.968.062-.342.034-.71.073-1.094.057-.388-.181-.798.337-1.225.058-.428-.082-.876-.005-1.345.055-.468.062-.956-.117-1.462.052-.507.353-1.032-.396-1.575.048-.544.098-1.104.07-1.684.049-.578-.27-1.174-.003-1.787.044-.612-.326-1.24-.184-1.884.042-.644-.447-1.304-.378-1.978.04-.675.015-1.364-.159-2.069.038-.702.03-1.42.113-2.153.034a2.963 2.963 0 0 1-1.386.213l-.14-.016a1.562 1.562 0 0 0-.11-.009l-.132-.011a9.297 9.297 0 0 1-.982-.144c-.422.089-.87.144-1.304.171a11.631 11.631 0 0 1 0-1.539c.016-.264.037-.528.062-.78.014-.153.026-.193.042-.268l.044-.203c.184-.766-.288-1.545-.026-2.332.02-.79-.075-1.588-.02-2.396.133-.81.285-1.63-.02-2.458-.08-.827-.19-1.666-.012-2.51-.35-.849-.196-1.702-.01-2.564-.058-.86.189-1.73-.007-2.61.055-.877-.153-1.76-.003-2.65.106-.892.207-1.775.003-2.654a2.893 2.893 0 0 1-.082-.656c0-.11 0-.217.008-.327l.011-.163.008-.08.007-.138c.021-.4.041-.8.063-1.198.005-.195.011-.39.011-.59l-.003-.298-.005-.155-.002-.077-.001-.02h.016l.037-.002c.485.093.886.136 1.273.153.384.017.77.004 1.142-.006l.13-.002.085-.005.172-.01c.114-.003.228-.008.34-.008.229 0 .457.005.677.06.45.043.89.134 1.325.231.433.108.87.184 1.317.192.436.072.875.127 1.297.238.42.115.84.236 1.226.439.484-.097.895.057 1.261.286.37.232.716.491 1.118.611.338.267.722.416 1.102.576.378.164.77.296 1.11.518.377.16.703.4 1.02.644.31.25.63.48 1.013.611.308.242.65.429.978.634.32.218.624.45.862.754.37.143.621.432.861.714.242.284.45.592.778.774.267.243.51.506.76.759.118.129.242.254.357.386.11.136.219.27.323.41.08.385.294.643.526.888.236.243.522.441.725.7.178.278.411.51.624.756.206.248.375.519.435.847.163.268.27.559.399.832.124.277.282.526.484.754.162.247.168.568.222.853.054.29.135.551.493.696.329.463.046 1.138.569 1.484.482.371.298.963.43 1.407.111.46.233.895.313 1.317.38 1.9.458 3.418.42 4.447 0 .256-.02.484-.04.68-.02.194-.042.359-.063.492-.045.263-.093.398-.147.398-.058 0-.12-.167-.185-.484-.063-.322-.123-.79-.233-1.397a29.517 29.517 0 0 0-1.28-5.086c-.155-.424-.564-.772-.506-1.302-.185-.45-.548-.84-.63-1.365-.278-.162-.394-.392-.486-.644-.096-.249-.15-.523-.27-.77l-.394-.743c-.136-.25-.285-.498-.512-.7-.248-.186-.382-.45-.525-.714-.147-.26-.29-.53-.53-.736-.197-.613-.637-1.089-1.228-1.431a1.65 1.65 0 0 0-.255-.417 2.584 2.584 0 0 0-.362-.337c-.257-.209-.524-.413-.772-.639a1.695 1.695 0 0 0-.64-.803c-.286-.196-.608-.355-.92-.524-.316-.167-.584-.39-.852-.62-.281-.219-.561-.44-.88-.612-.282-.226-.606-.397-.928-.576-.324-.172-.662-.325-.97-.536-.363-.113-.727-.22-1.064-.385-.342-.16-.68-.328-.989-.575a9.667 9.667 0 0 1-1.094-.379 18.258 18.258 0 0 0-1.099-.406 6.99 6.99 0 0 1-1.152-.284c-.379-.12-.766-.224-1.162-.3-.402-.051-.785-.196-1.18-.321-.397-.113-.809-.166-1.238-.04-.204-.014-.41-.02-.617-.041l-.31-.028-.154-.015-.078-.008-.027-.006c-.075-.014-.144-.023-.172.008-.032.021-.05.084-.058.154v.273l.01.327c.009.22.024.438.049.656-.367.88-.14 1.762.004 2.653.105.891.05 1.774-.004 2.65.036.88.017 1.75-.005 2.611.108.862-.158 1.715-.011 2.563.155.846-.168 1.684-.014 2.511.106.828.164 1.648-.018 2.458 0 .808-.333 1.606-.021 2.396.07.787.486 1.566-.026 2.331a1.746 1.746 0 0 1 .027.351c-.003.023-.016.048-.03.082a.777.777 0 0 0-.093.246c.048.009.127-.006.204-.067-.007.093.046.138.107.16l.023.005c.006 0 .01.002.04.002.046.003.093.003.14.002.094-.003.188-.01.28-.017.372-.042.74-.126 1.106-.12.732.071 1.45.194 2.154.035.704-.177 1.393.095 2.068.038.674-.21 1.334.273 1.978.039.644.047 1.272-.033 1.884.041.614-.492 1.21.003 1.787.046.58.072 1.14-.327 1.684.047.543-.372 1.068-.05 1.575.05.506.11.994-.158 1.462.052.47-.261.917.148 1.345.055.427.175.837.01 1.224.057.386-.06.753-.036 1.095.058.344.022.667.043.968.06 1.796.123 2.779.256 2.779.393Z"/><path fill="#D7FE03" d="M101.817 13.32c.07 0 .139.898.206 2.623.068 1.723.132 4.268.193 7.561l.061 3.54c.038 1.261.079 2.602.06 4.02-.184 1.418.346 2.914.058 4.483-.082 1.57-.006 3.215.056 4.932.065 1.715-.118 3.502.053 5.358.363 1.857-.401 3.784.051 5.774.1 1.992.073 4.048.049 6.169-.277 2.118-.003 4.303.048 6.545-.333 2.244-.189 4.547.043 6.91-.459 2.359-.387 4.78.04 7.251.008 1.237-.032 2.488-.05 3.75a54.972 54.972 0 0 0 0 1.906c.006.318.015.64.028.96.02.364.042.73.059 1.099.007.633.011 1.266.017 1.907-1.45.014-2.912.031-4.388.048-1.154.01-2.317.005-3.49-.03-2.736.3-5.522.288-8.354.031-2.832.322-5.712.195-8.634.028-2.924-.179-5.89.282-8.9.025-3.008-.021-6.058.072-9.144.02-3.09-.131-6.216-.279-9.379.018-3.163.08-6.359.188-9.588.014-3.23.342-6.492.19-9.784.012-3.292.056-6.615-.188-9.963.005-1.674-.027-3.354.01-5.042.035-.843.013-1.688.023-2.535.02a287.37 287.37 0 0 1-3.675-.053l.039-2.32c.01-.427.023-.855.035-1.281.021-.831.038-1.66.044-2.486a70.07 70.07 0 0 0-.115-4.94c-.223-3.282.092-6.536.007-9.761.326-3.225-.108-6.421.01-9.587-.032-3.163.188-6.297.012-9.394-.058-3.098-.122-6.161.018-9.188-.502-3.026.132-6.014.024-8.962.212-2.946-.032-5.854.022-8.72-.045-1.406.01-2.807.054-4.193.024-.695.041-1.386.044-2.073l-.002-.516-.009-.708c-.01-.59-.024-1.186-.048-1.808l.235-.01 1.869.006 1.145-.01c.702-.011 1.403-.024 2.098-.036 1.392-.02 2.773-.024 4.142.07 2.735-.244 5.42.208 8.052.034 2.632.002 5.212-.014 7.735.04 2.524.384 4.993.064 7.403.039 2.41.04 4.761-.218 7.05.042 2.29.031 4.52.2 6.683.044 2.163-.055 4.261.562 6.295.05 2.032-.093 3.996.393 5.89.05 1.896-.318 3.72.039 5.47.05 1.753.02 3.43.037 5.033.057 7.21.08 12.881.173 16.75.269 1.934.045 3.42.095 4.419.145 1 .05 1.516.102 1.516.154 0 .056-.636.112-1.868.168-1.23.056-3.053.107-5.421.161-4.743.105-11.67.203-20.43.293-1.749.018-3.573.288-5.469.052-1.894 0-3.858.205-5.89.05-2.034.356-4.132.065-6.295.047-2.164.018-4.393-.097-6.683.047-2.289.206-4.64-.105-7.05.04-2.41-.218-4.878-.162-7.403.042-2.523-.214-5.103.044-7.735.035-2.632-.328-5.317-.098-8.052.034-1.369.06-2.75.05-4.142.033-.695-.01-1.395-.014-2.096-.024-.32.002-.642.003-.963.003a2.1 2.1 0 0 0-.223.02l-.032-.002a3.53 3.53 0 0 0-.012.216c0 .273 0 .548.002.823.01.687.018 1.378.026 2.073.022 1.386.044 2.787.016 4.194.159 2.865.218 5.773.026 8.719.11 2.948.021 5.936.021 8.962.132 3.025-.017 6.089.017 9.188.071 3.097-.357 6.231.015 9.394.048 3.166-.057 6.362.01 9.587-.047 3.225-.098 6.48.006 9.761-.183 1.641-.217 3.288-.19 4.94.015.827.045 1.655.082 2.486.016.4.036.803.055 1.204a.692.692 0 0 0 .056.145v.002l.15-.033c.408-.005.819-.012 1.227-.02.847-.007 1.692-.009 2.535-.005 1.688.005 3.368.033 5.042.059 3.348-.037 6.671-.017 9.963.007 3.292-.106 6.553.155 9.784.009 3.23-.153 6.425.163 9.588.014 3.163-.104 6.288-.16 9.379.017 3.086 0 6.136.328 9.144.022 3.01-.07 5.976-.478 8.9.023 2.922-.125 5.802.243 8.634.03 2.832.364 5.618.018 8.354.03l3.49.092c.576.012 1.15.021 1.723.021l.403-.002.134-.006c.091-.004.175-.01.252-.02a3.13 3.13 0 0 0-.054-.34l-.007-.034-.005-.013-.003-.056-.013-.243-.019-.481c-.009-.32-.013-.642-.013-.96 0-.64.017-1.273.034-1.905.042-1.263.094-2.514.064-3.75-.214-2.473.28-4.893.04-7.253.05-2.362-.032-4.665.044-6.91-.504-2.241.003-4.425.047-6.544.072-2.12-.333-4.177.048-6.17-.38-1.99-.051-3.916.052-5.773.109-1.856-.161-3.643.052-5.358-.267-1.717.148-3.362.056-4.932.179-1.57.011-3.065.057-4.484a33.363 33.363 0 0 1 .062-4.018c.021-1.261.041-2.442.061-3.54.061-3.294.128-5.839.193-7.562.068-1.725.138-2.623.208-2.623Z"/></svg>