<svg xmlns="http://www.w3.org/2000/svg" width="1154" height="833" fill="none"><g clip-path="url(#a)"><path fill="#000" d="M3.5 63.814C3.5 30.504 30.508 3.5 63.824 3.5H1093.18c33.31 0 60.32 27.004 60.32 60.314v708.372c0 33.31-27.01 60.314-60.32 60.314H63.824C30.508 832.5 3.5 805.496 3.5 772.186V63.814Z"/><path fill="#434142" d="M137.884.5c.709 0 1.284.575 1.284 1.284v1.284H92.945V1.784c0-.71.575-1.284 1.284-1.284h43.655ZM.5 62.772c0-.71.575-1.284 1.284-1.284h1.314l-.03 55.851H1.784c-.71 0-1.284-.574-1.284-1.284V62.772ZM195.663 1.784c0-.71-.575-1.284-1.284-1.284h-43.655c-.709 0-1.284.575-1.284 1.284v1.284h46.223V1.784Z"/><path fill="#434142" fill-rule="evenodd" d="M3.068 63.414c0-33.328 27.018-60.346 60.346-60.346H1093.15c33.33 0 60.35 27.018 60.35 60.346v708.74c0 33.328-27.02 60.346-60.35 60.346H63.414c-33.328 0-60.346-27.018-60.346-60.346V63.414ZM63.414 6.278H1093.15c31.56 0 57.14 25.58 57.14 57.136v708.74c0 31.556-25.58 57.136-57.14 57.136H63.414c-31.555 0-57.136-25.58-57.136-57.136V63.414c0-31.555 25.58-57.136 57.136-57.136Z" clip-rule="evenodd"/><path fill="#202021" d="M30 371.5a7 7 0 1 1-14 0 7 7 0 0 1 14 0Z"/><path fill="#202021" fill-rule="evenodd" d="M23 418.5a5.5 5.5 0 1 0 0-11 5.5 5.5 0 0 0 0 11Zm0-2a3.5 3.5 0 1 0 0-7 3.5 3.5 0 0 0 0 7Z" clip-rule="evenodd"/><path fill="#202021" d="M23 447.5a7 7 0 1 0 0-14 7 7 0 0 0 0 14Zm5 16a5 5 0 1 1-10 0 5 5 0 0 1 10 0Zm-5-68a1 1 0 1 0 0-2 1 1 0 0 0 0 2Z"/><path fill="#26295F" d="M23 410.5a2.5 2.5 0 1 1 0 5 2.5 2.5 0 0 1 0-5Z"/></g><defs><clipPath id="a"><path fill="#fff" d="M.5.5h1153v832H.5z"/></clipPath></defs></svg>