<svg xmlns="http://www.w3.org/2000/svg" width="114" height="68" fill="none"><path fill="#D7FE03" d="M9.556 50.27c0 .07-.228.148-.648.234-.42.097-1.035.251-1.776.539a80.23 80.23 0 0 1-.377.168c-.13.058-.264.114-.394.192-.26.163-.532.324-.821.494-.192.014-.305.162-.399.331-.098.165-.202.314-.44.313-.33.183-.588.486-.801.828a1.4 1.4 0 0 1-.196.23c-.076.07-.14.15-.21.227a1.795 1.795 0 0 0-.195.247 1.18 1.18 0 0 0-.079.14 1.084 1.084 0 0 0-.044.163c.044.278-.163.395-.344.552-.173.158-.353.337-.24.63a3.271 3.271 0 0 1-.176.668 9.394 9.394 0 0 1-.201.677c-.175.208-.211.46-.211.708.02.253.095.509.101.758-.337.554-.189 1.13.043 1.716-.459.588-.388 1.19.041 1.806.015.614-.165 1.245.036 1.887l.059.971.01.246v.227a.483.483 0 0 1-.033.133c.116.019.186-.009.215-.009.085-.044.024.021.125.18.004-.005.002-.01.011-.015l.033-.014.067-.026c.044-.018.088-.032.132-.046a2.41 2.41 0 0 1 .803-.095c.356.011.717.085 1.08.168.729.18 1.466-.282 2.214-.024.75.019 1.508-.074 2.278-.022.769.134 1.546.281 2.332-.018.788-.079 1.584-.186 2.385-.012.805-.342 1.616-.192 2.437-.01.819-.058 1.646.185 2.479-.008.835.054 1.673-.15 2.519-.002.845.105 1.684.203 2.518.002.834-.218 1.66.093 2.48.008.408.16.818.133 1.223.08l.303-.04.077-.01c.015-.003.01-.007.019-.01l.02-.015c.03-.02.048-.025.097.005.023-.007.05-.002.085.005.019-.03.055-.066.07-.131.005-.018.005-.032.005-.05l-.005-.128a2.6 2.6 0 0 0-.063-.46c-.059-.77-.124-1.533.019-2.285-.504-.755.129-1.499.02-2.231.213-.733-.03-1.459.026-2.17-.05-.357.011-.71.055-1.062.02-.171.027-.304.02-.46a.905.905 0 0 0-.117-.434c-.011-.295-.14-.568-.232-.837a2.86 2.86 0 0 1-.16-.397c-.035-.138-.091-.268-.108-.418a1.017 1.017 0 0 1-.148-.164 1.12 1.12 0 0 1-.123-.172c-.073-.119-.11-.261-.176-.387-.061-.13-.119-.261-.192-.384a1.02 1.02 0 0 0-.313-.288c-.088-.108-.199-.193-.302-.286-.104-.091-.201-.188-.316-.265-.109-.083-.218-.164-.324-.252a7.02 7.02 0 0 1-.334-.231.726.726 0 0 0-.28-.34 1.004 1.004 0 0 0-.374-.17c-.136-.03-.273-.047-.408-.065-.132-.025-.27-.02-.396-.049-.248-.096-.516-.063-.768-.08-.124-.008-.25.006-.372-.016-.129-.018-.236-.065-.385-.128-.57-.029-1.125-.199-1.663-.044-.538.056-1.061-.562-1.568-.047-.505.091-.993-.395-1.465-.05-.472.316-.925-.04-1.361-.053-.435-.02-.854-.037-1.251-.054-3.59-.167-5.648-.362-5.648-.569 0-.23 2.543-.445 6.899-.624.436-.016.889-.285 1.36-.052.473.002.961-.205 1.466-.05.507-.356 1.03-.064 1.568-.047.538-.017 1.092.097 1.663-.045.132-.054.315-.06.475-.056.164.01.329.023.492.063.325.085.646.158.99.184.604.366 1.222.564 1.95.735.124.135.261.247.412.346.14.108.29.204.445.295.163.089.31.196.459.302.149.108.304.215.422.356.066.194.158.359.26.51.094.158.206.302.332.44.13.132.242.284.376.424l.199.214c.059.075.117.153.175.232.11.16.22.326.288.508.073.182.134.37.193.557l.267 1.159c.017.198.044.397.052.598l.05.59c.024.353.047.706.019 1.063.159.712.217 1.436.024 2.17.11.732.023 1.476.023 2.231.132.752-.019 1.513.018 2.285a2.62 2.62 0 0 1-.008.46l-.013.13-.016.211-.035.412c-.048.55-.093 1.044-.054 1.627a3.817 3.817 0 0 0-.787.138c-.368.011-.748.014-1.127.011l-.498-.005-.303-.01a10.597 10.597 0 0 0-1.223.014c-.82-.046-1.646-.096-2.48.005-.834-.36-1.673-.138-2.518.001-.846.105-1.684.052-2.52-.001-.832.037-1.66.017-2.478-.005-.821.104-1.632-.154-2.437-.01-.801.152-1.597-.165-2.385-.015-.786.104-1.563.16-2.332-.017-.77 0-1.527-.327-2.278-.021-.748.07-1.485.477-2.214-.025-.363.063-.724.002-1.08-.047a4.713 4.713 0 0 0-.538-.048 1.787 1.787 0 0 0-.265.013c-.044.005-.088.013-.132.02l-.067.017-.033.009-.056.009a4.068 4.068 0 0 0-1.073-.167c-.351-.008-.723.02-1.119.053-.043-.398-.09-.823-.088-1.276.021-.294.043-.588.06-.88l.028-.266.017-.246a3.092 3.092 0 0 0-.069-.971c-.177-.642.099-1.273.037-1.887-.213-.615.282-1.218.042-1.806.049-.589-.035-1.157.044-1.721-.235-.31-.223-.633-.128-.93.114-.294.293-.566.364-.846.108-.273.1-.568.132-.856.056-.279.15-.55.424-.733-.064-.32.053-.576.212-.791.165-.215.408-.377.58-.566a1.1 1.1 0 0 0 .12-.145c.041-.047.078-.098.113-.15.07-.102.13-.208.192-.312.065-.105.125-.21.213-.294a.965.965 0 0 1 .302-.208c.058-.258.242-.407.456-.508.208-.107.416-.196.552-.364.449-.113.664-.49 1.029-.635.15-.12.299-.238.47-.3.169-.07.34-.118.513-.148.156-.067.314-.113.465-.156.152-.043.299-.084.439-.125.86-.197 1.538-.228 1.992-.195.452.042.681.098.681.169Zm41.705 0c0 .07-.228.148-.65.234a12.69 12.69 0 0 0-1.776.539l-.378.168c-.129.058-.264.114-.393.192-.259.163-.53.324-.821.494-.191.014-.304.162-.398.331-.1.165-.202.314-.441.313-.33.183-.587.486-.8.828-.056.085-.123.16-.199.23-.073.07-.137.15-.208.227-.07.077-.138.158-.196.247a.887.887 0 0 0-.077.14 1.074 1.074 0 0 0-.045.163c.045.278-.163.395-.343.552-.173.158-.353.337-.241.63-.031.232-.095.45-.176.668-.055.224-.127.448-.199.677-.177.208-.212.46-.212.708.02.253.093.509.101.758-.336.554-.189 1.13.043 1.716-.459.588-.388 1.19.04 1.806.016.614-.164 1.245.039 1.887.017.32.038.645.058.971l.006.246.001.227a.44.44 0 0 1-.032.133c.117.019.188-.009.215-.009.088-.044.024.021.125.18.007-.005.004-.01.012-.015l.033-.014.067-.026c.044-.018.088-.032.13-.046a1.9 1.9 0 0 1 .269-.061c.176-.033.356-.042.534-.035.358.012.719.086 1.083.169.727.18 1.464-.282 2.215-.024.748.019 1.506-.074 2.276-.022.768.134 1.545.281 2.333-.018.787-.079 1.583-.186 2.387-.012.802-.342 1.614-.192 2.433-.01.82-.058 1.647.185 2.479-.008.834.054 1.673-.15 2.52-.002.846.105 1.686.203 2.52.002.832-.218 1.658.093 2.478.008.408.16.816.133 1.222.08l.305-.04.075-.01c.016-.003.013-.007.018-.01l.022-.015c.03-.02.048-.025.098.005.02-.007.048-.002.084.005.018-.03.055-.066.07-.131.002-.018.005-.032.005-.05l-.005-.128a3.02 3.02 0 0 0-.063-.46c-.06-.77-.124-1.533.019-2.285-.504-.755.128-1.499.02-2.231.213-.734-.031-1.459.025-2.17-.047-.357.012-.71.056-1.062.021-.171.025-.306.021-.46a.92.92 0 0 0-.117-.434c-.01-.295-.141-.568-.233-.837a2.86 2.86 0 0 1-.159-.397c-.037-.138-.093-.268-.107-.418a1.083 1.083 0 0 1-.15-.164 1.038 1.038 0 0 1-.123-.172c-.073-.12-.11-.261-.175-.387-.061-.13-.121-.261-.194-.384a.996.996 0 0 0-.311-.288c-.09-.108-.2-.193-.304-.287-.104-.09-.2-.19-.315-.264a9.16 9.16 0 0 1-.322-.252 5.445 5.445 0 0 1-.335-.231.745.745 0 0 0-.281-.34 1.023 1.023 0 0 0-.374-.17c-.136-.03-.273-.047-.406-.068-.134-.022-.272-.016-.399-.046-.245-.096-.516-.063-.764-.08-.127-.008-.253.006-.376-.016-.13-.018-.232-.065-.384-.128-.57-.029-1.125-.199-1.664-.044-.539.056-1.061-.562-1.565-.047-.506.091-.996-.395-1.467-.05-.472.316-.925-.04-1.363-.053-.434-.02-.85-.037-1.25-.054-3.588-.167-5.646-.362-5.646-.569 0-.23 2.54-.445 6.896-.624.438-.016.891-.285 1.363-.052.47.002.961-.205 1.467-.05.504-.356 1.026-.064 1.565-.047.539-.017 1.095.097 1.664-.045.132-.056.316-.06.475-.056.164.01.328.023.492.063.324.085.644.158.989.184.605.366 1.221.564 1.95.735.125.135.263.247.413.345.138.11.289.203.446.296.162.087.308.196.459.302.15.108.303.215.423.356.065.194.154.359.257.509.093.159.205.303.332.441.132.132.244.284.376.422l.199.216c.061.075.12.153.177.232.108.16.22.326.287.508.072.182.134.37.193.557.087.383.176.767.267 1.159.016.198.044.397.05.597.019.196.036.394.054.592.022.352.046.705.016 1.062.158.712.217 1.436.026 2.17.108.732.02 1.476.02 2.231.135.752-.016 1.513.019 2.285a2.44 2.44 0 0 1-.008.46l-.013.13-.014.211-.036.412c-.048.55-.093 1.044-.054 1.627a3.817 3.817 0 0 0-.787.138c-.367.011-.748.014-1.127.011l-.497-.005-.305-.01a10.575 10.575 0 0 0-1.222.014c-.82-.046-1.646-.096-2.478.005-.834-.36-1.674-.138-2.52.001-.847.105-1.686.052-2.52-.001-.832.037-1.659.017-2.479-.005-.819.104-1.63-.154-2.433-.01-.804.152-1.6-.165-2.387-.015-.788.104-1.565.16-2.333-.017-.77 0-1.528-.327-2.276-.021-.751.07-1.488.477-2.215-.025-.364.063-.725.002-1.083-.047a4.692 4.692 0 0 0-.534-.048 1.813 1.813 0 0 0-.268.013c-.043.005-.087.013-.131.02l-.067.017-.033.009-.056.009a4.05 4.05 0 0 0-1.073-.167 10.97 10.97 0 0 0-1.12.053c-.043-.398-.09-.823-.087-1.276l.06-.88.027-.266.02-.246a3.08 3.08 0 0 0-.071-.971c-.179-.642.096-1.273.037-1.887-.214-.615.28-1.218.042-1.806.05-.589-.035-1.157.044-1.721-.235-.31-.223-.633-.13-.93.115-.294.295-.566.367-.846.107-.273.1-.568.13-.856.055-.279.151-.55.425-.733-.063-.32.053-.576.213-.791.164-.215.405-.377.577-.566a.889.889 0 0 0 .122-.145c.04-.047.08-.098.113-.15.07-.102.13-.208.193-.312.063-.105.124-.21.211-.294a.96.96 0 0 1 .301-.207c.06-.26.244-.408.456-.51.208-.106.418-.195.552-.364.451-.112.664-.488 1.03-.634.15-.12.298-.238.469-.3.17-.07.341-.118.515-.147.154-.068.313-.114.465-.157l.44-.125c.859-.197 1.537-.228 1.99-.195.454.042.683.098.683.169Zm41.714 0c0 .07-.228.148-.65.234-.421.097-1.034.251-1.776.539a31.22 31.22 0 0 1-.377.168c-.13.058-.265.112-.396.192-.257.163-.53.324-.82.494-.19.014-.305.162-.4.33-.1.164-.201.314-.441.314-.33.181-.587.483-.799.827-.113.167-.276.294-.41.456a1.955 1.955 0 0 0-.194.247 1.06 1.06 0 0 0-.08.14.898.898 0 0 0-.043.161c.044.279-.162.396-.345.553-.175.158-.353.336-.241.63-.034.233-.096.45-.178.667a9.31 9.31 0 0 1-.201.677c-.175.208-.21.459-.212.71.023.253.093.506.103.757-.339.55-.191 1.13.04 1.717-.456.587-.386 1.189.042 1.804.014.614-.162 1.245.038 1.886.02.322.037.646.058.973l.008.247.002.228a.397.397 0 0 1-.035.132c.117.02.19-.007.216-.008.085-.043.024.024.124.18.004-.004.004-.01.01-.014l.031-.014.067-.026c.044-.018.09-.032.133-.046.09-.026.178-.049.267-.061.176-.033.356-.042.535-.035.358.012.717.086 1.082.169.73.18 1.467-.282 2.215-.024.75.019 1.51-.074 2.277-.022.768.134 1.547.281 2.334-.018.786-.079 1.582-.186 2.385-.012.805-.342 1.616-.192 2.436-.01.82-.058 1.647.185 2.48-.008.832.054 1.673-.15 2.519-.002.845.105 1.685.203 2.518.002.834-.218 1.66.093 2.479.008.411.16.82.133 1.224.08.569-.05.396-.127.524-.07.023-.007.049-.002.085.007.02-.032.056-.068.07-.132.005-.017.006-.033.008-.049l-.007-.125a2.541 2.541 0 0 0-.063-.456c-.06-.772-.124-1.535.018-2.287-.504-.754.13-1.498.022-2.232.214-.734-.032-1.456.026-2.17-.048-.355.009-.71.053-1.06a2.46 2.46 0 0 0 .021-.463 1.038 1.038 0 0 0-.028-.222 1.354 1.354 0 0 0-.088-.212c-.012-.295-.14-.565-.232-.835a2.828 2.828 0 0 1-.158-.397c-.036-.14-.094-.269-.107-.42a.885.885 0 0 1-.152-.162.977.977 0 0 1-.121-.173c-.075-.119-.11-.261-.176-.388-.062-.128-.12-.26-.195-.383a1.008 1.008 0 0 0-.311-.288 8.44 8.44 0 0 0-1.276-1.036.736.736 0 0 0-.28-.34.982.982 0 0 0-.374-.17c-.136-.031-.274-.048-.407-.067-.133-.024-.271-.019-.397-.049-.246-.095-.516-.065-.767-.081-.125-.01-.252.005-.375-.017-.128-.018-.233-.064-.381-.128-.571-.029-1.125-.199-1.664-.044-.539.056-1.061-.562-1.567-.047-.506.091-.993-.395-1.466-.05-.471.316-.924-.04-1.36-.053-.438-.02-.855-.037-1.255-.054-3.587-.167-5.645-.362-5.645-.569 0-.23 2.54-.445 6.9-.624.436-.016.889-.285 1.36-.052.473.002.96-.205 1.466-.05.506-.356 1.028-.064 1.567-.047.539-.017 1.093.097 1.664-.045.135-.054.317-.06.475-.056.165.01.329.021.49.066.327.082.648.16.991.184.604.368 1.221.564 1.949.737a2.2 2.2 0 0 0 .411.346c.141.108.292.205.448.297.161.087.307.196.459.301.15.106.302.216.422.357.064.193.155.355.256.51.096.157.208.301.334.44.13.133.242.282.378.423l.196.214.176.232c.11.163.222.326.288.509.071.183.134.369.192.556.09.383.176.767.267 1.16.008.099.019.198.031.297.012.1.013.201.021.3.016.197.035.394.052.592.021.35.045.706.016 1.061.159.714.217 1.436.025 2.17.108.734.022 1.478.022 2.232.133.752-.018 1.515.017 2.287.016.15.009.305-.007.456l-.006.059c-.002.018-.004.034-.006.075l-.016.211-.036.411c-.046.547-.092 1.039-.056 1.618-.274.02-.533.061-.798.139-.371.011-.75.014-1.128.011l-.49-.005-.305-.01a10.63 10.63 0 0 0-1.224.014c-.819-.046-1.645-.096-2.479.005-.833-.36-1.673-.138-2.518.001-.846.105-1.687.052-2.519-.001a34.98 34.98 0 0 1-2.48-.005c-.82.104-1.63-.154-2.436-.01-.803.152-1.599-.165-2.385-.015-.787.104-1.566.16-2.334-.017-.768 0-1.528-.327-2.277-.021-.748.07-1.485.477-2.215-.025-.365.063-.724.002-1.082-.047a4.696 4.696 0 0 0-.535-.048 1.806 1.806 0 0 0-.267.013c-.044.005-.089.013-.133.02l-.067.017-.03.009-.06.009a4.033 4.033 0 0 0-1.071-.167c-.35-.01-.721.02-1.116.05-.041-.397-.09-.824-.087-1.28.022-.294.04-.588.059-.88l.028-.261.019-.247a3.06 3.06 0 0 0-.071-.972c-.176-.642.099-1.273.04-1.887-.215-.615.28-1.217.039-1.804.049-.59-.034-1.157.045-1.726-.235-.308-.223-.63-.13-.927.117-.297.294-.569.369-.849.108-.271.1-.567.13-.854.056-.28.152-.552.426-.734-.063-.319.054-.573.213-.79.167-.216.41-.377.583-.566.045-.044.082-.093.118-.143.043-.048.079-.097.114-.15.069-.101.129-.209.193-.314.12-.214.276-.399.515-.5.06-.258.242-.408.453-.51.212-.105.42-.194.555-.36.449-.112.664-.49 1.029-.636.29-.257.639-.39.984-.446a3.48 3.48 0 0 1 .467-.156c.15-.044.297-.086.438-.125.859-.197 1.538-.228 1.991-.195.453.042.683.098.683.169ZM71.001 24.69c0 .069-.228.148-.649.236a11.83 11.83 0 0 0-1.775.538l-.377.167c-.132.058-.265.114-.396.193-.259.161-.53.325-.82.495-.192.011-.307.16-.4.33-.099.164-.203.312-.44.311-.33.182-.59.486-.801.83-.114.167-.276.294-.408.454-.07.077-.138.158-.196.247a1.03 1.03 0 0 0-.079.14 1.203 1.203 0 0 0-.044.163c.044.277-.163.397-.345.553-.172.155-.354.336-.24.631-.035.23-.096.45-.176.666-.056.224-.128.447-.202.677-.176.207-.213.459-.213.708.021.253.095.507.103.757-.338.553-.19 1.13.041 1.717-.459.588-.387 1.19.04 1.805.015.616-.163 1.246.037 1.887.02.32.042.644.06.973l.008.245v.23a.426.426 0 0 1-.032.13c.12.021.186-.006.215-.006.085-.043.023.022.125.18.004-.007.003-.01.01-.017l.034-.013.066-.026a1.915 1.915 0 0 1 .398-.109c.178-.03.355-.039.535-.033.357.012.72.087 1.083.168.728.18 1.466-.282 2.216-.023.748.019 1.506-.073 2.276-.021.769.132 1.546.28 2.333-.017.787-.08 1.581-.188 2.388-.014.803-.343 1.615-.19 2.435-.01.817-.056 1.644.184 2.477-.006.835.053 1.675-.15 2.521-.003.846.103 1.684.202 2.518.003.833-.221 1.661.09 2.481.006.408.16.816.132 1.223.08.57-.051.392-.128.521-.07a.206.206 0 0 1 .087.006c.018-.032.054-.067.069-.132a.209.209 0 0 0 .005-.048l-.005-.126a2.722 2.722 0 0 0-.063-.458c-.06-.771-.124-1.533.02-2.287-.508-.752.128-1.497.02-2.23.212-.733-.03-1.46.024-2.17-.048-.356.012-.71.056-1.062.02-.172.024-.307.02-.46-.005-.074-.006-.15-.028-.222a1.18 1.18 0 0 0-.089-.212c-.01-.297-.139-.567-.232-.837a2.942 2.942 0 0 1-.159-.398c-.034-.139-.092-.268-.108-.418a.925.925 0 0 1-.149-.164 1.144 1.144 0 0 1-.123-.172c-.073-.12-.109-.263-.176-.386-.06-.13-.12-.262-.192-.385a1.043 1.043 0 0 0-.313-.289 8.357 8.357 0 0 0-1.276-1.036.732.732 0 0 0-.28-.339 1.006 1.006 0 0 0-.373-.17c-.135-.03-.274-.046-.407-.067-.133-.023-.272-.017-.397-.048-.246-.097-.516-.065-.767-.081-.124-.006-.25.005-.375-.017-.129-.017-.232-.064-.382-.127-.57-.03-1.126-.2-1.664-.044-.538.056-1.062-.56-1.567-.047-.507.091-.993-.396-1.464-.051-.473.317-.928-.04-1.363-.052l-1.252-.055c-3.589-.166-5.648-.362-5.648-.568 0-.232 2.542-.443 6.9-.623.435-.016.89-.287 1.363-.052.47 0 .957-.206 1.464-.052.505-.355 1.03-.064 1.567-.045.538-.018 1.093.098 1.662-.046.135-.055.316-.06.476-.056.166.01.331.022.492.065.326.082.647.158.991.183.604.367 1.221.565 1.95.738.125.136.263.245.41.346.141.109.29.204.448.295.161.087.307.196.459.302.148.107.302.217.421.358.065.192.156.354.259.508.093.16.205.303.332.44.13.134.241.283.377.424l.196.214.176.234c.11.16.223.325.288.508.073.181.135.368.195.555.086.384.176.769.265 1.16.008.098.019.199.03.297.011.1.013.203.022.302l.05.59c.025.352.046.706.02 1.063.157.71.217 1.436.023 2.17.108.732.022 1.477.022 2.23.133.753-.018 1.515.02 2.286a2.76 2.76 0 0 1-.008.458l-.007.058a.888.888 0 0 0-.007.077l-.017.209-.033.412c-.048.547-.095 1.04-.056 1.619a3.99 3.99 0 0 0-.798.137 26.23 26.23 0 0 1-1.128.014l-.492-.007-.302-.01a10.824 10.824 0 0 0-1.223.014c-.82-.044-1.648-.094-2.481.008-.834-.361-1.672-.139-2.518.001-.846.103-1.686.05-2.521-.001-.833.034-1.66.014-2.477-.008-.82.107-1.632-.153-2.435-.01-.807.152-1.601-.164-2.388-.014-.787.105-1.564.162-2.333-.017-.77 0-1.528-.327-2.276-.02-.75.069-1.488.475-2.216-.025-.363.061-.726.002-1.083-.049a4.65 4.65 0 0 0-.535-.048c-.09 0-.177.002-.266.013l-.132.02-.066.018-.034.008-.056.01a4.02 4.02 0 0 0-1.074-.167c-.35-.008-.72.02-1.117.052-.041-.397-.09-.823-.087-1.279.02-.294.042-.588.06-.879l.027-.265.021-.245c.018-.329.01-.653-.073-.973-.177-.641.099-1.27.039-1.887-.215-.616.28-1.217.04-1.805.052-.589-.034-1.157.046-1.723-.237-.311-.222-.632-.13-.93.116-.296.294-.565.366-.845.108-.273.1-.567.132-.856.056-.28.152-.551.424-.735-.062-.32.055-.574.214-.79.168-.215.408-.376.582-.564.046-.046.084-.095.12-.145.042-.047.078-.1.114-.15.07-.1.13-.21.192-.312.12-.215.276-.402.514-.502.06-.259.244-.408.455-.508.21-.106.419-.195.555-.362.449-.113.662-.492 1.028-.637.15-.118.298-.237.47-.299.17-.07.342-.119.515-.146.155-.069.313-.115.464-.157.153-.043.3-.084.44-.126.86-.196 1.539-.226 1.992-.194.452.042.681.098.681.168Zm-39.634 0c0 .069-.23.148-.652.236-.419.094-1.032.248-1.776.538l-.375.167c-.13.058-.267.114-.396.193-.257.161-.53.325-.82.495-.19.011-.305.16-.399.33-.1.165-.2.314-.442.312-.328.182-.586.485-.798.83a1.464 1.464 0 0 1-.198.228c-.074.07-.138.15-.21.23a2.147 2.147 0 0 0-.196.245c-.028.044-.056.09-.078.138a.966.966 0 0 0-.042.162c.044.278-.164.397-.344.555-.174.156-.354.336-.24.63a3.35 3.35 0 0 1-.177.667 11.68 11.68 0 0 1-.2.679c-.175.206-.212.457-.213.707.021.253.093.508.102.757-.336.553-.188 1.132.042 1.718-.456.587-.386 1.188.04 1.803.016.615-.162 1.246.04 1.888.018.32.038.645.058.972l.008.245v.227a.418.418 0 0 1-.032.134c.118.018.188-.008.214-.009.088-.043.024.022.126.18.004-.007 0-.01.012-.017l.032-.013.067-.026a2.123 2.123 0 0 1 .399-.109c.177-.03.354-.039.533-.033.36.012.72.087 1.085.168.727.18 1.466-.282 2.215-.023.747.019 1.507-.073 2.275-.021.768.132 1.546.28 2.334-.017.786-.08 1.582-.188 2.386-.014.802-.343 1.616-.19 2.434-.01.82-.056 1.646.184 2.478-.006.833.053 1.673-.15 2.52-.003.846.103 1.686.202 2.52.003.832-.221 1.658.09 2.477.006.412.16.817.132 1.223.08l.305-.04.076-.01c.015-.004.012-.006.017-.01l.024-.015c.028-.02.047-.025.096.005a.172.172 0 0 1 .084.006c.018-.032.055-.068.07-.133a.279.279 0 0 0 .005-.049l-.005-.13a2.684 2.684 0 0 0-.062-.456c-.06-.773-.124-1.535.018-2.288-.504-.754.13-1.497.02-2.229.216-.735-.03-1.459.026-2.172-.046-.355.011-.711.055-1.061.023-.17.025-.304.021-.461a.931.931 0 0 0-.117-.434c-.01-.294-.141-.566-.233-.834a2.714 2.714 0 0 1-.158-.398c-.038-.138-.094-.267-.108-.42a1.006 1.006 0 0 1-.15-.161 1.15 1.15 0 0 1-.123-.173c-.073-.12-.108-.262-.175-.39-.06-.127-.12-.259-.194-.382a1.034 1.034 0 0 0-.31-.288c-.09-.107-.2-.194-.304-.285-.105-.092-.2-.19-.316-.268a8.162 8.162 0 0 1-.322-.25 7.347 7.347 0 0 1-.335-.23.749.749 0 0 0-.28-.34.997.997 0 0 0-.375-.17c-.136-.032-.273-.047-.406-.067-.134-.022-.27-.02-.399-.047-.244-.098-.515-.065-.764-.081-.127-.006-.253.005-.376-.017-.13-.017-.232-.064-.383-.127-.57-.03-1.124-.2-1.664-.044-.538.056-1.06-.56-1.566-.047-.506.091-.995-.396-1.467-.051-.47.317-.925-.04-1.36-.052l-1.253-.055c-3.588-.166-5.644-.362-5.644-.568 0-.232 2.537-.443 6.897-.623.435-.016.89-.287 1.36-.052.472 0 .961-.206 1.467-.052.505-.355 1.028-.064 1.566-.045.54-.018 1.094.098 1.662-.046.134-.055.317-.06.476-.056.164.01.33.022.49.063.326.084.647.16.99.183.606.367 1.222.563 1.95.736.127.136.266.247.412.345.14.11.294.205.45.296.16.09.305.195.458.3.15.109.303.218.423.359.065.193.152.356.255.51.096.158.208.3.333.44.132.133.244.282.379.421l.196.216c.062.076.118.153.177.231.108.161.22.327.288.51.07.183.133.368.192.555.09.383.177.768.267 1.16.016.199.045.398.052.597.017.198.036.395.052.592.022.35.045.706.017 1.06.156.714.217 1.438.025 2.173.108.732.02 1.475.02 2.23.135.752-.014 1.514.02 2.287.012.151.007.305-.008.457l-.014.13-.015.212-.036.414c-.047.549-.092 1.042-.053 1.624a3.94 3.94 0 0 0-.787.137c-.367.014-.747.016-1.127.014l-.497-.007-.305-.01a11.11 11.11 0 0 0-1.223.014c-.819-.044-1.645-.094-2.477.008-.834-.361-1.674-.139-2.52.001-.847.103-1.687.05-2.52-.001-.832.034-1.659.014-2.478-.008-.818.107-1.632-.153-2.434-.01-.804.152-1.6-.164-2.386-.014-.788.105-1.566.162-2.334-.017-.768 0-1.528-.327-2.275-.02-.75.069-1.488.475-2.215-.025-.365.061-.725.002-1.085-.049a4.602 4.602 0 0 0-.533-.048 2.19 2.19 0 0 0-.399.034l-.067.017-.032.008-.054.01a4.022 4.022 0 0 0-1.076-.167c-.352-.008-.723.02-1.12.052-.04-.396-.09-.82-.084-1.275.017-.294.037-.588.058-.88l.026-.266.021-.245c.02-.327.01-.65-.07-.972-.18-.642.095-1.273.035-1.888-.212-.615.282-1.216.043-1.803.048-.59-.035-1.159.045-1.724-.237-.308-.224-.633-.132-.928.116-.297.296-.568.367-.848.11-.272.1-.567.132-.854.053-.28.15-.552.424-.734-.064-.32.052-.574.21-.792.169-.216.41-.376.582-.564.045-.046.084-.095.12-.146.043-.048.077-.098.112-.149.07-.101.13-.21.195-.313.064-.103.124-.212.21-.294a.925.925 0 0 1 .303-.206c.059-.259.241-.41.453-.51.212-.105.42-.196.555-.363.45-.113.661-.491 1.028-.638.15-.117.297-.237.47-.299.167-.07.34-.119.514-.146.152-.069.312-.115.464-.157.153-.043.297-.084.44-.126.859-.196 1.537-.226 1.99-.194.455.042.685.098.685.168ZM52.06 1.766c0 .07-.23.149-.65.236-.42.094-1.033.25-1.777.539l-.376.168c-.13.056-.266.114-.394.19-.259.164-.532.326-.822.496-.192.013-.306.16-.398.33-.099.165-.202.314-.442.313-.329.183-.586.484-.8.83a1.409 1.409 0 0 1-.196.228c-.074.072-.138.151-.21.229a2.144 2.144 0 0 0-.195.246.783.783 0 0 0-.079.139.9.9 0 0 0-.042.162c.044.278-.164.397-.346.554-.173.158-.353.337-.238.63a3.46 3.46 0 0 1-.176.667c-.056.223-.128.447-.203.677-.173.209-.21.458-.212.708.023.253.095.51.103.759-.338.551-.188 1.129.041 1.718-.455.586-.384 1.187.041 1.803.015.615-.161 1.245.038 1.886.021.322.04.644.058.973l.01.245v.227a.444.444 0 0 1-.032.133c.116.02.188-.008.214-.009.086-.043.023.022.126.18-.002-.01.021-.02.045-.03l.065-.026a1.21 1.21 0 0 1 .134-.044c.088-.029.177-.048.264-.063.178-.032.356-.04.536-.035.357.013.718.087 1.082.17.728.179 1.467-.283 2.216-.025.748.02 1.507-.072 2.275-.021.77.133 1.548.28 2.333-.017.787-.08 1.583-.187 2.386-.014.804-.343 1.616-.191 2.437-.01.817-.056 1.644.185 2.477-.006.835.053 1.674-.152 2.52-.001.844.103 1.684.2 2.518.001.833-.22 1.66.09 2.48.006.408.16.817.132 1.222.081l.303-.04.077-.01c.015-.004.012-.007.018-.01l.022-.015c.03-.02.047-.025.096.004a.177.177 0 0 1 .087.008c.016-.033.053-.068.068-.135a.185.185 0 0 0 .005-.048l-.005-.128a2.57 2.57 0 0 0-.061-.459c-.06-.772-.124-1.535.017-2.286-.504-.754.13-1.497.02-2.23.213-.736-.03-1.458.028-2.172-.048-.356.01-.709.053-1.06.02-.171.027-.306.02-.462-.004-.074-.006-.148-.028-.222a1.263 1.263 0 0 0-.089-.211c-.01-.295-.139-.567-.232-.836a3.178 3.178 0 0 1-.159-.397c-.036-.139-.092-.268-.106-.421a.819.819 0 0 1-.151-.16 1.114 1.114 0 0 1-.123-.175c-.074-.117-.109-.26-.174-.386-.062-.128-.122-.26-.194-.383a1.056 1.056 0 0 0-.312-.29 8.413 8.413 0 0 0-1.277-1.033.716.716 0 0 0-.28-.339.953.953 0 0 0-.375-.17c-.134-.031-.273-.047-.406-.066-.132-.024-.271-.02-.396-.049-.246-.096-.516-.065-.767-.08-.125-.007-.252.005-.376-.018-.128-.017-.232-.064-.383-.125-.57-.03-1.125-.2-1.662-.044-.539.056-1.062-.562-1.568-.049-.506.092-.994-.396-1.464-.05-.474.317-.927-.04-1.362-.053-.436-.018-.856-.037-1.252-.055-3.589-.164-5.645-.362-5.645-.568 0-.231 2.539-.444 6.897-.622.435-.017.888-.287 1.362-.052.47 0 .958-.205 1.464-.05.506-.357 1.029-.064 1.568-.048.537-.016 1.092.098 1.662-.046.135-.055.315-.059.475-.055.165.01.33.021.492.064.325.082.647.158.99.184.605.366 1.222.562 1.95.735.125.137.264.246.41.344.142.11.293.206.449.297.161.086.306.196.46.3.149.109.301.217.42.357.065.196.157.357.258.51.094.159.207.303.334.44.129.134.241.285.377.422l.196.217.176.231c.11.162.221.325.288.51.073.181.135.368.195.555.086.382.176.767.265 1.159.008.099.019.198.03.297.013.1.013.2.022.3.019.197.035.394.053.593.023.351.046.704.016 1.06.159.714.218 1.436.024 2.172.11.733.023 1.476.023 2.23.133.751-.017 1.514.019 2.286.012.152.006.306-.008.459l-.014.13-.014.21-.036.415c-.048.547-.095 1.04-.054 1.626a3.82 3.82 0 0 0-.788.135c-.366.011-.748.015-1.126.011l-.499-.005-.303-.009a10.84 10.84 0 0 0-1.222.014c-.82-.045-1.647-.094-2.48.007-.834-.36-1.674-.139-2.518.001-.846.104-1.685.05-2.52-.001-.833.035-1.66.016-2.477-.007-.821.106-1.633-.154-2.437-.011-.803.153-1.599-.164-2.386-.013-.785.106-1.564.162-2.333-.016-.768 0-1.527-.327-2.275-.022-.749.069-1.488.476-2.216-.024-.364.06-.725.002-1.082-.05-.18-.022-.358-.045-.536-.048a2.01 2.01 0 0 0-.264.015c-.046.006-.09.011-.134.02l-.065.015c-.021.006-.043.014-.09.02a4.06 4.06 0 0 0-1.074-.168c-.35-.008-.723.021-1.119.053-.041-.396-.092-.82-.086-1.277.02-.293.04-.586.058-.878l.028-.266.02-.245c.02-.329.01-.651-.07-.973-.179-.641.097-1.271.038-1.886-.214-.616.279-1.217.039-1.803.048-.59-.033-1.159.045-1.726-.236-.307-.222-.63-.129-.926.116-.297.293-.568.364-.85.11-.27.1-.566.133-.854.055-.28.15-.551.423-.734-.064-.32.053-.573.212-.792.167-.215.408-.375.581-.564.044-.046.083-.094.122-.144.04-.048.074-.096.11-.15.071-.1.131-.209.194-.313.065-.104.124-.21.21-.293.087-.084.184-.157.304-.21.059-.258.242-.407.455-.507.21-.106.417-.196.553-.364.45-.11.663-.49 1.028-.636.151-.119.299-.236.471-.3.167-.07.34-.118.515-.145.152-.07.31-.115.462-.16.154-.041.299-.082.44-.121.859-.2 1.538-.23 1.991-.197.455.043.684.099.684.167Z"/></svg>