<svg xmlns="http://www.w3.org/2000/svg" width="350" height="460" fill="none"><path fill="#000" d="M0 0h350v460H0z"/><path fill="#fff" d="M28.28 109v-5.78h-.88l.33-1.22h1.77v7h-1.22Zm5.046.13c-.407 0-.777-.093-1.11-.28a2.763 2.763 0 0 1-.865-.785 3.82 3.82 0 0 1-.555-1.155c-.13-.44-.195-.91-.195-1.41 0-.5.065-.968.195-1.405.13-.44.315-.827.555-1.16a2.71 2.71 0 0 1 .865-.78 2.2 2.2 0 0 1 1.11-.285c.406 0 .776.095 1.11.285.333.187.618.447.855.78.24.333.425.72.555 1.16.133.437.2.905.2 1.405s-.067.97-.2 1.41a3.82 3.82 0 0 1-.555 1.155 2.663 2.663 0 0 1-.855.785 2.23 2.23 0 0 1-1.11.28Zm0-1.22c.356 0 .651-.113.885-.34.233-.227.406-.523.52-.89.113-.367.17-.76.17-1.18 0-.443-.06-.847-.18-1.21-.12-.367-.297-.658-.53-.875a1.222 1.222 0 0 0-.865-.325c-.27 0-.505.067-.705.2a1.55 1.55 0 0 0-.49.535c-.13.227-.227.485-.29.775a4.162 4.162 0 0 0-.095.9c0 .417.056.81.17 1.18a2.1 2.1 0 0 0 .525.89c.236.227.531.34.885.34ZM22.875 84.446l1.36-7h1.01l1.705 4.485 1.705-4.485h1.01l1.36 7H29.78l-.84-4.33-1.575 4.17h-.835l-1.575-4.17-.835 4.33h-1.245Zm11.018.13c-.46 0-.88-.118-1.26-.355a2.663 2.663 0 0 1-.905-.95 2.672 2.672 0 0 1-.335-1.325c0-.366.065-.708.195-1.025.13-.32.308-.6.535-.84a2.51 2.51 0 0 1 .8-.57c.303-.136.627-.205.97-.205.46 0 .878.119 1.255.355.38.237.682.555.905.955.227.4.34.844.34 1.33 0 .364-.065.704-.195 1.02a2.71 2.71 0 0 1-.54.84c-.227.24-.492.429-.795.565-.3.137-.623.205-.97.205Zm0-1.22c.243 0 .462-.065.655-.195a1.36 1.36 0 0 0 .455-.515 1.47 1.47 0 0 0 .17-.7c0-.26-.058-.496-.175-.71a1.337 1.337 0 0 0-.465-.515 1.122 1.122 0 0 0-.64-.195c-.24 0-.457.065-.65.195s-.347.304-.46.52c-.113.217-.17.452-.17.705 0 .264.058.502.175.715.117.214.272.384.465.51.197.124.41.185.64.185Zm7.858-2.07v3.16h-1.22v-2.84a1.053 1.053 0 0 0-.535-.92 1.015 1.015 0 0 0-.535-.145 1.066 1.066 0 0 0-.925.53c-.093.16-.14.339-.14.535v2.84h-1.22l-.005-5h1.22l.006.445c.17-.18.373-.321.61-.425.236-.106.491-.16.765-.16.363 0 .695.09.995.27.3.177.538.415.714.715.18.297.27.629.27.995Zm21.273 320.263v1.464h-2.568v6.936h-1.464v-6.936h-2.568v-1.464h6.6Zm2.925 8.556a2.803 2.803 0 0 1-1.512-.426 3.194 3.194 0 0 1-1.086-1.14 3.206 3.206 0 0 1-.402-1.59c0-.44.078-.85.234-1.23.156-.384.37-.72.642-1.008.276-.292.596-.52.96-.684a2.8 2.8 0 0 1 1.164-.246c.552 0 1.054.142 1.506.426.456.284.818.666 1.086 1.146a3.18 3.18 0 0 1 .408 1.596c0 .436-.078.844-.234 1.224a3.25 3.25 0 0 1-.648 1.008c-.272.288-.59.514-.954.678-.36.164-.748.246-1.164.246Zm0-1.464c.292 0 .554-.078.786-.234.232-.156.414-.362.546-.618.136-.256.204-.536.204-.84 0-.312-.07-.596-.21-.852a1.604 1.604 0 0 0-.558-.618 1.347 1.347 0 0 0-.768-.234c-.288 0-.548.078-.78.234a1.67 1.67 0 0 0-.552.624c-.136.26-.204.542-.204.846 0 .316.07.602.21.858.14.256.326.46.558.612.236.148.492.222.768.222Zm8.493-7.692h1.465v9h-1.465v-.75a2.28 2.28 0 0 1-.725.654 2 2 0 0 1-1.014.252 3.06 3.06 0 0 1-1.225-.246 3.265 3.265 0 0 1-1.007-.678 3.265 3.265 0 0 1-.678-1.008 3.056 3.056 0 0 1-.247-1.224c0-.436.082-.844.246-1.224a3.214 3.214 0 0 1 1.686-1.686c.38-.164.788-.246 1.225-.246.383 0 .721.084 1.013.252.293.164.535.382.727.654v-3.75Zm-1.721 7.746c.311 0 .587-.078.828-.234a1.62 1.62 0 0 0 .563-.63 1.92 1.92 0 0 0 .205-.882c0-.324-.068-.618-.204-.882a1.596 1.596 0 0 0-.57-.636 1.475 1.475 0 0 0-.823-.234c-.308 0-.59.08-.846.24a1.76 1.76 0 0 0-.605.63 1.772 1.772 0 0 0-.223.882 1.76 1.76 0 0 0 .834 1.512c.257.156.537.234.84.234Zm9.057-4.746h1.464v6h-1.464l-.066-.744a1.966 1.966 0 0 1-.654.654 1.792 1.792 0 0 1-.954.246c-.444 0-.86-.084-1.248-.252-.388-.168-.73-.4-1.026-.696a3.333 3.333 0 0 1-.69-1.026 3.172 3.172 0 0 1-.246-1.248c0-.428.078-.83.234-1.206a3.124 3.124 0 0 1 1.65-1.656c.372-.16.772-.24 1.2-.24.396 0 .75.088 1.062.264.316.176.584.4.804.672l-.066-.768Zm-1.71 4.746c.312 0 .588-.078.828-.234.24-.156.428-.366.564-.63a1.92 1.92 0 0 0 .204-.882c0-.324-.068-.618-.204-.882a1.596 1.596 0 0 0-.57-.636 1.475 1.475 0 0 0-.822-.234c-.308 0-.59.08-.846.24a1.76 1.76 0 0 0-.606.63 1.772 1.772 0 0 0-.222.882 1.76 1.76 0 0 0 .834 1.512c.256.156.536.234.84.234Zm8.158-4.746h1.554l-3.282 9h-1.554l1.086-3-2.16-6h1.602l1.29 3.996 1.464-3.996Zm172.342-1.074a2.198 2.198 0 0 0-.81.138 1.667 1.667 0 0 0-.618.378.759.759 0 0 0-.24.552c0 .268.074.47.222.606.152.136.354.236.606.3.252.06.532.116.84.168.56.088 1.078.236 1.554.444.476.208.858.486 1.146.834.288.344.432.766.432 1.266 0 .456-.118.862-.354 1.218-.236.352-.554.64-.954.864a3.536 3.536 0 0 1-1.32.426v1.224h-1.002v-1.224a4 4 0 0 1-1.14-.306 3.183 3.183 0 0 1-.93-.612 2.345 2.345 0 0 1-.576-.882l1.374-.504c.056.16.17.306.342.438.172.132.382.238.63.318.248.08.514.12.798.12.292 0 .564-.044.816-.132.256-.092.462-.218.618-.378a.802.802 0 0 0 .234-.57c0-.22-.082-.4-.246-.54a1.786 1.786 0 0 0-.63-.342 5.2 5.2 0 0 0-.792-.192 7.139 7.139 0 0 1-1.602-.426c-.472-.192-.846-.458-1.122-.798-.272-.34-.408-.78-.408-1.32 0-.456.118-.862.354-1.218.24-.356.558-.644.954-.864a3.59 3.59 0 0 1 1.326-.426v-1.23h1.002v1.23c.396.048.772.15 1.128.306.356.156.666.362.93.618.268.252.464.548.588.888l-1.38.498a.964.964 0 0 0-.342-.438 1.975 1.975 0 0 0-.63-.312 2.585 2.585 0 0 0-.798-.12Zm7.686 7.074v-2.034h-3.576v-1.47l3.234-4.896h1.806v4.902h.708v1.464h-.708v2.034h-1.464Zm-1.878-3.504 1.878.006-.006-2.904-1.872 2.898Zm8.071 3.66c-.54 0-1.028-.13-1.464-.39a2.966 2.966 0 0 1-1.038-1.05 2.815 2.815 0 0 1-.378-1.434h1.464c0 .26.064.498.192.714.128.212.298.382.51.51.216.124.454.186.714.186.26 0 .496-.062.708-.186.212-.128.382-.298.51-.51.128-.216.192-.454.192-.714 0-.26-.056-.498-.168-.714a1.165 1.165 0 0 0-.534-.522c-.244-.132-.568-.198-.972-.198h-2.16l.888-4.248h4.128v1.464h-2.94l-.27 1.32.594.006c.568.02 1.07.158 1.506.414a2.831 2.831 0 0 1 1.392 2.478c0 .392-.074.762-.222 1.11a2.879 2.879 0 0 1-.618.918c-.264.264-.57.472-.918.624a2.794 2.794 0 0 1-1.116.222Zm4.821 0a.738.738 0 0 1-.75-.756c0-.204.072-.38.216-.528a.728.728 0 0 1 .534-.222c.208 0 .386.074.534.222a.721.721 0 0 1 .222.528.735.735 0 0 1-.222.54.738.738 0 0 1-.534.216Zm5.107 0a2.68 2.68 0 0 1-1.332-.336 3.312 3.312 0 0 1-1.038-.942c-.288-.4-.51-.862-.666-1.386a5.944 5.944 0 0 1-.234-1.692c0-.6.078-1.162.234-1.686.156-.528.378-.992.666-1.392.292-.4.638-.712 1.038-.936.4-.228.844-.342 1.332-.342.488 0 .932.114 1.332.342.4.224.742.536 1.026.936.288.4.51.864.666 1.392.16.524.24 1.086.24 1.686 0 .6-.08 1.164-.24 1.692a4.594 4.594 0 0 1-.666 1.386 3.19 3.19 0 0 1-1.026.942 2.68 2.68 0 0 1-1.332.336Zm0-1.464c.428 0 .782-.136 1.062-.408.28-.272.488-.628.624-1.068a4.77 4.77 0 0 0 .204-1.416c0-.532-.072-1.016-.216-1.452-.144-.44-.356-.79-.636-1.05s-.626-.39-1.038-.39c-.324 0-.606.08-.846.24-.236.156-.432.37-.588.642a3.252 3.252 0 0 0-.348.93 4.994 4.994 0 0 0-.114 1.08c0 .5.068.972.204 1.416.14.44.35.796.63 1.068.284.272.638.408 1.062.408Zm6.984 1.464a2.68 2.68 0 0 1-1.332-.336 3.312 3.312 0 0 1-1.038-.942c-.288-.4-.51-.862-.666-1.386a5.944 5.944 0 0 1-.234-1.692c0-.6.078-1.162.234-1.686.156-.528.378-.992.666-1.392.292-.4.638-.712 1.038-.936.4-.228.844-.342 1.332-.342.488 0 .932.114 1.332.342.4.224.742.536 1.026.936.288.4.51.864.666 1.392.16.524.24 1.086.24 1.686 0 .6-.08 1.164-.24 1.692a4.594 4.594 0 0 1-.666 1.386 3.19 3.19 0 0 1-1.026.942 2.68 2.68 0 0 1-1.332.336Zm0-1.464c.428 0 .782-.136 1.062-.408.28-.272.488-.628.624-1.068a4.77 4.77 0 0 0 .204-1.416c0-.532-.072-1.016-.216-1.452-.144-.44-.356-.79-.636-1.05s-.626-.39-1.038-.39c-.324 0-.606.08-.846.24-.236.156-.432.37-.588.642a3.252 3.252 0 0 0-.348.93 4.994 4.994 0 0 0-.114 1.08c0 .5.068.972.204 1.416.14.44.35.796.63 1.068.284.272.638.408 1.062.408Z"/><mask id="a" width="312" height="49" x="19.966" y="334.92" fill="#000" maskUnits="userSpaceOnUse"><path fill="#fff" d="M19.966 334.92h312v49h-312z"/><path d="M19.966 334.92h311.957v47.353H19.966V334.92Z"/></mask><path fill="#242424" d="M331.923 381.273H19.966v2h311.957v-2Z" mask="url(#a)"/><path fill="#fff" d="M58.164 362.596v-8.4h3.06c.444 0 .844.092 1.2.276.36.18.644.44.852.78.212.336.318.734.318 1.194 0 .204-.03.41-.09.618-.06.208-.152.396-.276.564a1.12 1.12 0 0 1-.48.366c.26.064.472.18.636.348.164.168.292.366.384.594a2.8 2.8 0 0 1 .186.69c.036.232.054.448.054.648 0 .444-.11.84-.33 1.188a2.482 2.482 0 0 1-2.112 1.134h-3.402Zm1.464-1.254h1.788c.24 0 .456-.058.648-.174a1.3 1.3 0 0 0 .462-.48c.116-.204.174-.436.174-.696 0-.224-.058-.436-.174-.636-.116-.2-.27-.362-.462-.486a1.169 1.169 0 0 0-.648-.186h-1.788v2.658Zm0-3.894h1.428c.296 0 .548-.092.756-.276a.921.921 0 0 0 .318-.732c0-.324-.106-.568-.318-.732a1.165 1.165 0 0 0-.756-.252h-1.428v1.992Zm7.903 5.304a2.803 2.803 0 0 1-1.512-.426 3.18 3.18 0 0 1-1.488-2.736c0-.436.078-.844.234-1.224.156-.384.37-.72.642-1.008.276-.292.596-.52.96-.684a2.8 2.8 0 0 1 1.164-.246c.468 0 .896.1 1.284.3.392.196.724.466.996.81a3.332 3.332 0 0 1 .678 2.556h-4.386c.056.224.148.426.276.606.128.176.29.318.486.426.196.104.418.158.666.162.256.004.488-.056.696-.18.212-.128.388-.3.528-.516l1.494.348a3.207 3.207 0 0 1-1.092 1.308 2.785 2.785 0 0 1-1.626.504Zm-1.476-3.756h2.952a1.523 1.523 0 0 0-.282-.648 1.58 1.58 0 0 0-.522-.468 1.358 1.358 0 0 0-.672-.174c-.24 0-.462.058-.666.174a1.597 1.597 0 0 0-.522.462c-.14.192-.236.41-.288.654Zm7.227 3.708a3.32 3.32 0 0 1-.906-.186 2.684 2.684 0 0 1-.768-.438 1.876 1.876 0 0 1-.516-.66l1.236-.528c.048.08.126.166.234.258.108.088.236.162.384.222.152.06.318.09.498.09.152 0 .296-.02.432-.06a.775.775 0 0 0 .336-.198.463.463 0 0 0 .132-.342.406.406 0 0 0-.156-.342.957.957 0 0 0-.384-.186 12.51 12.51 0 0 0-.444-.12 4.362 4.362 0 0 1-1.062-.354 2.263 2.263 0 0 1-.786-.618 1.475 1.475 0 0 1-.294-.924c0-.396.104-.738.312-1.026a2.1 2.1 0 0 1 .822-.666c.34-.156.706-.234 1.098-.234.476 0 .912.1 1.308.3.4.196.716.474.948.834l-1.158.684a.96.96 0 0 0-.234-.264 1.271 1.271 0 0 0-.342-.204 1.16 1.16 0 0 0-.402-.096 1.608 1.608 0 0 0-.492.048.761.761 0 0 0-.36.204.546.546 0 0 0-.132.384c0 .152.06.266.18.342.12.072.264.128.432.168.172.04.336.084.492.132.352.116.682.258.99.426.312.168.562.374.75.618.188.244.278.536.27.876 0 .388-.116.728-.348 1.02a2.219 2.219 0 0 1-.9.66 2.496 2.496 0 0 1-1.17.18Zm6.66-4.644H78.78v4.536h-1.464v-4.536h-.888v-1.464h.888v-1.884h1.464v1.884h1.164v1.464Zm179.126-2.538a2.198 2.198 0 0 0-.81.138 1.667 1.667 0 0 0-.618.378.759.759 0 0 0-.24.552c0 .268.074.47.222.606.152.136.354.236.606.3.252.06.532.116.84.168.56.088 1.078.236 1.554.444.476.208.858.486 1.146.834.288.344.432.766.432 1.266 0 .456-.118.862-.354 1.218-.236.352-.554.64-.954.864a3.536 3.536 0 0 1-1.32.426v1.224h-1.002v-1.224a4 4 0 0 1-1.14-.306 3.183 3.183 0 0 1-.93-.612 2.345 2.345 0 0 1-.576-.882l1.374-.504c.056.16.17.306.342.438.172.132.382.238.63.318.248.08.514.12.798.12.292 0 .564-.044.816-.132.256-.092.462-.218.618-.378a.802.802 0 0 0 .234-.57c0-.22-.082-.4-.246-.54a1.786 1.786 0 0 0-.63-.342 5.2 5.2 0 0 0-.792-.192 7.139 7.139 0 0 1-1.602-.426c-.472-.192-.846-.458-1.122-.798-.272-.34-.408-.78-.408-1.32 0-.456.118-.862.354-1.218.24-.356.558-.644.954-.864a3.59 3.59 0 0 1 1.326-.426v-1.23h1.002v1.23c.396.048.772.15 1.128.306.356.156.666.362.93.618.268.252.464.548.588.888l-1.38.498a.964.964 0 0 0-.342-.438 1.975 1.975 0 0 0-.63-.312 2.585 2.585 0 0 0-.798-.12Zm5.37 7.074 1.614-2.79a2.772 2.772 0 0 1-2.088-.75 2.906 2.906 0 0 1-.666-.924 2.792 2.792 0 0 1-.24-1.158c0-.404.076-.782.228-1.134a2.987 2.987 0 0 1 1.566-1.572 2.888 2.888 0 0 1 1.146-.228 2.78 2.78 0 0 1 1.458.396c.444.264.798.618 1.062 1.062.268.444.402.936.402 1.476 0 .268-.034.522-.102.762a3.062 3.062 0 0 1-.306.72l-2.382 4.14h-1.692Zm1.548-4.152c.288 0 .542-.07.762-.21a1.484 1.484 0 0 0 .708-1.266 1.438 1.438 0 0 0-.744-1.272 1.417 1.417 0 0 0-.714-.192c-.288 0-.544.07-.768.21a1.5 1.5 0 0 0-.522.54 1.461 1.461 0 0 0 0 1.452c.132.224.308.404.528.54.224.132.474.198.75.198Zm6.928 4.308a2.68 2.68 0 0 1-1.332-.336 3.312 3.312 0 0 1-1.038-.942c-.288-.4-.51-.862-.666-1.386a5.944 5.944 0 0 1-.234-1.692c0-.6.078-1.162.234-1.686.156-.528.378-.992.666-1.392.292-.4.638-.712 1.038-.936.4-.228.844-.342 1.332-.342.488 0 .932.114 1.332.342.4.224.742.536 1.026.936.288.4.51.864.666 1.392.16.524.24 1.086.24 1.686 0 .6-.08 1.164-.24 1.692a4.594 4.594 0 0 1-.666 1.386 3.19 3.19 0 0 1-1.026.942 2.68 2.68 0 0 1-1.332.336Zm0-1.464c.428 0 .782-.136 1.062-.408.28-.272.488-.628.624-1.068a4.77 4.77 0 0 0 .204-1.416c0-.532-.072-1.016-.216-1.452-.144-.44-.356-.79-.636-1.05s-.626-.39-1.038-.39c-.324 0-.606.08-.846.24-.236.156-.432.37-.588.642a3.252 3.252 0 0 0-.348.93 4.994 4.994 0 0 0-.114 1.08c0 .5.068.972.204 1.416.14.44.35.796.63 1.068.284.272.638.408 1.062.408Zm4.854 1.464a.738.738 0 0 1-.75-.756c0-.204.072-.38.216-.528a.728.728 0 0 1 .534-.222c.208 0 .386.074.534.222a.721.721 0 0 1 .222.528.735.735 0 0 1-.222.54.738.738 0 0 1-.534.216Zm5.107 0a2.68 2.68 0 0 1-1.332-.336 3.312 3.312 0 0 1-1.038-.942c-.288-.4-.51-.862-.666-1.386a5.944 5.944 0 0 1-.234-1.692c0-.6.078-1.162.234-1.686.156-.528.378-.992.666-1.392.292-.4.638-.712 1.038-.936.4-.228.844-.342 1.332-.342.488 0 .932.114 1.332.342.4.224.742.536 1.026.936.288.4.51.864.666 1.392.16.524.24 1.086.24 1.686 0 .6-.08 1.164-.24 1.692a4.594 4.594 0 0 1-.666 1.386 3.19 3.19 0 0 1-1.026.942 2.68 2.68 0 0 1-1.332.336Zm0-1.464c.428 0 .782-.136 1.062-.408.28-.272.488-.628.624-1.068a4.77 4.77 0 0 0 .204-1.416c0-.532-.072-1.016-.216-1.452-.144-.44-.356-.79-.636-1.05s-.626-.39-1.038-.39c-.324 0-.606.08-.846.24-.236.156-.432.37-.588.642a3.252 3.252 0 0 0-.348.93 4.994 4.994 0 0 0-.114 1.08c0 .5.068.972.204 1.416.14.44.35.796.63 1.068.284.272.638.408 1.062.408Zm6.984 1.464a2.68 2.68 0 0 1-1.332-.336 3.312 3.312 0 0 1-1.038-.942c-.288-.4-.51-.862-.666-1.386a5.944 5.944 0 0 1-.234-1.692c0-.6.078-1.162.234-1.686.156-.528.378-.992.666-1.392.292-.4.638-.712 1.038-.936.4-.228.844-.342 1.332-.342.488 0 .932.114 1.332.342.4.224.742.536 1.026.936.288.4.51.864.666 1.392.16.524.24 1.086.24 1.686 0 .6-.08 1.164-.24 1.692a4.594 4.594 0 0 1-.666 1.386 3.19 3.19 0 0 1-1.026.942 2.68 2.68 0 0 1-1.332.336Zm0-1.464c.428 0 .782-.136 1.062-.408.28-.272.488-.628.624-1.068a4.77 4.77 0 0 0 .204-1.416c0-.532-.072-1.016-.216-1.452-.144-.44-.356-.79-.636-1.05s-.626-.39-1.038-.39c-.324 0-.606.08-.846.24-.236.156-.432.37-.588.642a3.252 3.252 0 0 0-.348.93 4.994 4.994 0 0 0-.114 1.08c0 .5.068.972.204 1.416.14.44.35.796.63 1.068.284.272.638.408 1.062.408ZM87.28 109v-5.78h-.88l.33-1.22h1.77v7h-1.22Zm3.3 0v-5.78h-.88l.33-1.22h1.77v7h-1.22Zm-4.072-31.554v1.22h-2.14v5.78h-1.22v-5.78h-2.14v-1.22h5.5Zm.193 5.15v-3.15h1.22v2.83c0 .197.049.377.145.54.097.16.225.289.385.385.164.094.342.14.535.14a1.045 1.045 0 0 0 .925-.525c.097-.163.145-.343.145-.54v-2.83h1.22l.005 5h-1.22l-.005-.455a1.88 1.88 0 0 1-1.375.585c-.363 0-.695-.088-.995-.265a2.08 2.08 0 0 1-.72-.715 1.934 1.934 0 0 1-.265-1Zm7.703 1.98c-.46 0-.88-.118-1.26-.355a2.65 2.65 0 0 1-1.24-2.28c0-.363.065-.703.195-1.02.13-.32.308-.6.535-.84a2.51 2.51 0 0 1 .8-.57c.303-.136.627-.205.97-.205.39 0 .747.084 1.07.25.327.164.603.389.83.675a2.776 2.776 0 0 1 .565 2.13h-3.655c.047.187.123.355.23.505.107.147.242.265.405.355.163.087.348.132.555.135.213.004.407-.046.58-.15.177-.106.323-.25.44-.43l1.245.29a2.673 2.673 0 0 1-.91 1.09 2.32 2.32 0 0 1-1.355.42Zm-1.23-3.13h2.46c-.037-.2-.115-.38-.235-.54a1.316 1.316 0 0 0-.435-.39 1.13 1.13 0 0 0-.56-.145c-.2 0-.385.049-.555.145a1.33 1.33 0 0 0-.435.385c-.117.16-.197.342-.24.545ZM142.28 109v-5.78h-.88l.33-1.22h1.77v7h-1.22Zm2.421 0v-1.09c.216-.163.473-.365.77-.605.296-.243.601-.505.915-.785.313-.283.603-.567.87-.85a5.89 5.89 0 0 0 .65-.81c.17-.257.255-.477.255-.66 0-.203-.05-.388-.15-.555-.1-.17-.234-.305-.4-.405-.164-.1-.347-.15-.55-.15-.204 0-.389.05-.555.15-.167.1-.3.235-.4.405-.1.167-.15.352-.15.555h-1.22c0-.44.106-.835.32-1.185.213-.353.495-.632.845-.835.353-.207.74-.31 1.16-.31.426 0 .815.105 1.165.315.35.207.63.487.84.84.21.353.315.745.315 1.175 0 .227-.042.455-.125.685-.084.23-.2.462-.35.695-.15.233-.327.47-.53.71-.204.237-.429.48-.675.73-.244.247-.5.5-.77.76h2.485V109h-4.715Zm-7.369-24.554-1.79-7h1.26l1.22 4.785 1.22-4.785h1.115l1.22 4.785 1.215-4.785h1.26l-1.78 7h-1.385l-1.09-4.24-1.075 4.24h-1.39Zm9.072.13c-.46 0-.88-.118-1.26-.355a2.641 2.641 0 0 1-.905-.955 2.665 2.665 0 0 1-.335-1.325c0-.363.065-.703.195-1.02.13-.32.308-.6.535-.84.23-.243.496-.433.8-.57.303-.136.626-.205.97-.205.39 0 .746.084 1.07.25.326.164.603.389.83.675a2.8 2.8 0 0 1 .565 2.13h-3.655c.046.187.123.355.23.505.106.147.241.265.405.355.163.087.348.132.555.135a1.08 1.08 0 0 0 .58-.15c.176-.106.323-.25.44-.43l1.245.29a2.68 2.68 0 0 1-.91 1.09c-.404.28-.855.42-1.355.42Zm-1.23-3.13h2.46c-.037-.2-.115-.38-.235-.54a1.322 1.322 0 0 0-.435-.39 1.133 1.133 0 0 0-.56-.145c-.2 0-.385.049-.555.145a1.33 1.33 0 0 0-.435.385c-.117.16-.197.342-.24.545Zm8.308-4.5h1.22v7.5h-1.22v-.625c-.16.224-.362.405-.605.545-.244.14-.525.21-.845.21-.364 0-.704-.068-1.02-.205a2.713 2.713 0 0 1-.84-.565 2.71 2.71 0 0 1-.565-.84 2.54 2.54 0 0 1-.205-1.02c0-.363.068-.703.205-1.02a2.672 2.672 0 0 1 1.405-1.405 2.543 2.543 0 0 1 1.02-.205c.32 0 .601.07.845.21.243.137.445.319.605.545v-3.125Zm-1.435 6.455c.26 0 .49-.065.69-.195.2-.13.356-.305.47-.525.113-.223.17-.468.17-.735 0-.27-.057-.515-.17-.735a1.337 1.337 0 0 0-.475-.53 1.23 1.23 0 0 0-.685-.195c-.257 0-.492.067-.705.2-.21.13-.379.305-.505.525a1.47 1.47 0 0 0-.185.735 1.462 1.462 0 0 0 .695 1.26c.213.13.446.195.7.195ZM201.28 109v-5.78h-.88l.33-1.22h1.77v7h-1.22Zm4.576.13c-.424 0-.805-.1-1.145-.3-.34-.2-.61-.468-.81-.805-.2-.34-.3-.717-.3-1.13h1.22c0 .187.043.357.13.51.09.153.213.277.37.37.156.09.335.135.535.135.183 0 .353-.045.51-.135a1.11 1.11 0 0 0 .385-.37.941.941 0 0 0 .145-.51.929.929 0 0 0-.195-.605 1.157 1.157 0 0 0-.545-.365c-.23-.08-.499-.12-.805-.12v-.94c.413 0 .74-.078.98-.235a.77.77 0 0 0 .365-.69c0-.157-.04-.3-.12-.43a.897.897 0 0 0-.32-.31.806.806 0 0 0-.43-.12c-.16 0-.315.04-.465.12-.15.077-.274.18-.37.31a.716.716 0 0 0-.14.43h-1.22c0-.287.058-.555.175-.805.116-.253.276-.475.48-.665.206-.19.44-.338.7-.445a2.117 2.117 0 0 1 1.87.115c.32.187.576.437.77.75.193.313.29.663.29 1.05 0 .27-.064.535-.19.795-.127.26-.307.443-.54.55.203.073.373.197.51.37.136.17.24.365.31.585a2.13 2.13 0 0 1-.2 1.78 2.37 2.37 0 0 1-.825.81c-.34.2-.715.3-1.125.3Zm-5.217-31.684v1.22h-2.14v5.78h-1.22v-5.78h-2.14v-1.22h5.5Zm5.578 3.84v3.16h-1.22v-2.84c0-.196-.048-.375-.145-.535a1.044 1.044 0 0 0-.39-.385 1.014 1.014 0 0 0-.535-.145 1.069 1.069 0 0 0-.925.53c-.093.16-.14.339-.14.535v2.84h-1.22l-.005-7.5h1.22l.005 2.945c.17-.18.374-.321.61-.425.237-.106.492-.16.765-.16.364 0 .695.09.995.27.3.177.539.415.715.715.18.297.27.629.27.995Zm.797 1.31v-3.15h1.22v2.83c0 .197.048.377.145.54a1.05 1.05 0 0 0 .92.525 1.045 1.045 0 0 0 .925-.525c.096-.163.145-.343.145-.54v-2.83h1.22l.005 5h-1.22l-.005-.455a1.88 1.88 0 0 1-1.375.585 1.92 1.92 0 0 1-.995-.265 2.08 2.08 0 0 1-.72-.715 1.93 1.93 0 0 1-.265-1ZM252.28 109v-5.78h-.88l.33-1.22h1.77v7h-1.22Zm5.401 0v-1.695h-2.98v-1.225l2.695-4.08h1.505v4.085h.59v1.22h-.59V109h-1.22Zm-1.565-2.92 1.565.005-.005-2.42-1.56 2.415Zm-4.98-21.634v-7h4.135v1.22h-2.915v1.42h2.435v1.22h-2.435v3.14h-1.22Zm4.614 0-.005-5h1.22l.005.445c.17-.18.373-.321.61-.425.237-.106.492-.16.765-.16.183 0 .367.027.55.08l-.48 1.23a1.04 1.04 0 0 0-.92.07 1.045 1.045 0 0 0-.525.92v2.84h-1.22Zm3.686-5h1.22v5h-1.22v-5Zm.62-.645a.638.638 0 0 1-.455-.175.603.603 0 0 1-.185-.45.623.623 0 0 1 .635-.625c.177 0 .325.06.445.18.124.12.185.269.185.445 0 .18-.06.33-.18.45a.613.613 0 0 1-.445.175ZM301.28 109v-5.78h-.88l.33-1.22h1.77v7h-1.22Zm4.771.13c-.45 0-.857-.108-1.22-.325a2.466 2.466 0 0 1-.865-.875 2.346 2.346 0 0 1-.315-1.195h1.22c0 .217.053.415.16.595.106.177.248.318.425.425.18.103.378.155.595.155a1.153 1.153 0 0 0 1.015-.58c.106-.18.16-.378.16-.595 0-.217-.047-.415-.14-.595a.977.977 0 0 0-.445-.435c-.204-.11-.474-.165-.81-.165h-1.8l.74-3.54h3.44v1.22h-2.45l-.225 1.1.495.005a2.63 2.63 0 0 1 1.255.345c.363.213.646.5.85.86.206.357.31.758.31 1.205 0 .327-.062.635-.185.925a2.41 2.41 0 0 1-.515.765c-.22.22-.475.393-.765.52a2.336 2.336 0 0 1-.93.185Zm-5.475-24.554c-.387 0-.759-.06-1.115-.18a2.88 2.88 0 0 1-.93-.525 1.955 1.955 0 0 1-.575-.825l1.145-.42a.794.794 0 0 0 .285.365c.143.11.318.199.525.265.206.067.428.1.665.1.243 0 .47-.036.68-.11a1.34 1.34 0 0 0 .515-.315.668.668 0 0 0 .195-.475.567.567 0 0 0-.205-.45 1.492 1.492 0 0 0-.525-.285 4.363 4.363 0 0 0-.66-.16 5.936 5.936 0 0 1-1.335-.355 2.278 2.278 0 0 1-.935-.665c-.227-.283-.34-.65-.34-1.1 0-.423.121-.793.365-1.11.243-.316.563-.563.96-.74a3.121 3.121 0 0 1 1.285-.265c.383 0 .753.06 1.11.18.356.12.668.295.935.525.27.23.463.507.58.83l-1.15.415a.808.808 0 0 0-.285-.365 1.66 1.66 0 0 0-.525-.26 2.16 2.16 0 0 0-.665-.1 1.828 1.828 0 0 0-.675.115c-.21.077-.382.182-.515.315a.63.63 0 0 0-.2.46c0 .224.061.392.185.505.126.114.295.197.505.25.21.05.443.097.7.14.466.074.898.197 1.295.37.396.174.715.405.955.695.24.287.36.639.36 1.055 0 .424-.12.795-.36 1.115-.24.317-.559.564-.955.74a3.151 3.151 0 0 1-1.295.265Zm7.334-5.13h1.22v5h-1.22l-.055-.62a1.648 1.648 0 0 1-.545.545 1.497 1.497 0 0 1-.795.205c-.37 0-.717-.07-1.04-.21a2.72 2.72 0 0 1-1.43-1.435 2.638 2.638 0 0 1-.205-1.04c0-.356.065-.691.195-1.005a2.598 2.598 0 0 1 1.375-1.38c.31-.133.643-.2 1-.2.33 0 .625.074.885.22.263.147.486.334.67.56l-.055-.64Zm-1.425 3.955c.26 0 .49-.065.69-.195.2-.13.356-.305.47-.525.113-.223.17-.468.17-.735 0-.27-.057-.515-.17-.735a1.337 1.337 0 0 0-.475-.53 1.23 1.23 0 0 0-.685-.195c-.257 0-.492.067-.705.2-.21.13-.379.305-.505.525a1.47 1.47 0 0 0-.185.735 1.462 1.462 0 0 0 .695 1.26c.213.13.446.195.7.195Zm6.321-2.735h-.97v3.78h-1.22v-3.78h-.74v-1.22h.74v-1.57h1.22v1.57h.97v1.22Z"/><path stroke="#B1B1B1" stroke-width=".5" d="M34.934 334.92V142.212m163.98 192.708V142.212m-108 192.708V142.212" opacity=".5"/><path stroke="#001DFF" stroke-width=".5" d="M254.894 334.92V142.212"/><path stroke="#B1B1B1" stroke-width=".5" d="M146.894 334.92V142.212m163.98 192.708V142.212" opacity=".5"/><path fill="#fff" d="M123.62 42.93a3.873 3.873 0 0 1-1.602-.336 4.22 4.22 0 0 1-1.32-.942 4.425 4.425 0 0 1-1.218-3.078 4.442 4.442 0 0 1 1.218-3.078c.38-.4.82-.712 1.32-.936a3.816 3.816 0 0 1 1.602-.342 3.83 3.83 0 0 1 1.608.342c.5.224.94.536 1.32.936.38.4.676.864.888 1.392a4.38 4.38 0 0 1 .324 1.686c0 .6-.108 1.164-.324 1.692a4.374 4.374 0 0 1-.888 1.386c-.38.4-.82.714-1.32.942-.5.224-1.036.336-1.608.336Zm0-1.464c.368 0 .714-.076 1.038-.228.324-.152.608-.36.852-.624.248-.268.44-.576.576-.924.14-.348.21-.72.21-1.116 0-.396-.07-.768-.21-1.116a2.9 2.9 0 0 0-.582-.924 2.727 2.727 0 0 0-.852-.624 2.375 2.375 0 0 0-1.032-.228c-.368 0-.714.076-1.038.228-.324.152-.61.362-.858.63-.244.264-.436.57-.576.918-.136.348-.204.72-.204 1.116 0 .4.07.774.21 1.122.14.348.332.656.576.924.248.264.532.472.852.624.324.148.67.222 1.038.222Zm8.814 1.308h-1.89l-2.184-6.006h1.56l1.572 4.32 1.566-4.32h1.56l-2.184 6.006Zm5.477.156a2.803 2.803 0 0 1-1.512-.426 3.18 3.18 0 0 1-1.488-2.736c0-.436.078-.844.234-1.224.156-.384.37-.72.642-1.008.276-.292.596-.52.96-.684a2.8 2.8 0 0 1 1.164-.246c.468 0 .896.1 1.284.3.392.196.724.466.996.81a3.332 3.332 0 0 1 .678 2.556h-4.386c.056.224.148.426.276.606.128.176.29.318.486.426.196.104.418.158.666.162.256.004.488-.056.696-.18.212-.128.388-.3.528-.516l1.494.348a3.207 3.207 0 0 1-1.092 1.308 2.785 2.785 0 0 1-1.626.504Zm-1.476-3.756h2.952a1.523 1.523 0 0 0-.282-.648 1.58 1.58 0 0 0-.522-.468 1.358 1.358 0 0 0-.672-.174c-.24 0-.462.058-.666.174a1.597 1.597 0 0 0-.522.462c-.14.192-.236.41-.288.654Zm5.416 3.6-.006-6h1.464l.006.534c.204-.216.448-.386.732-.51.284-.128.59-.192.918-.192.22 0 .44.032.66.096l-.576 1.476a1.249 1.249 0 0 0-1.104.084 1.25 1.25 0 0 0-.63 1.104v3.408h-1.464Zm8.69-6h1.464v6h-1.464l-.066-.744a1.966 1.966 0 0 1-.654.654 1.792 1.792 0 0 1-.954.246c-.444 0-.86-.084-1.248-.252-.388-.168-.73-.4-1.026-.696a3.333 3.333 0 0 1-.69-1.026 3.172 3.172 0 0 1-.246-1.248c0-.428.078-.83.234-1.206a3.124 3.124 0 0 1 1.65-1.656c.372-.16.772-.24 1.2-.24.396 0 .75.088 1.062.264.316.176.584.4.804.672l-.066-.768Zm-1.71 4.746c.312 0 .588-.078.828-.234.24-.156.428-.366.564-.63a1.92 1.92 0 0 0 .204-.882c0-.324-.068-.618-.204-.882a1.596 1.596 0 0 0-.57-.636 1.475 1.475 0 0 0-.822-.234c-.308 0-.59.08-.846.24a1.76 1.76 0 0 0-.606.63 1.772 1.772 0 0 0-.222.882 1.76 1.76 0 0 0 .834 1.512c.256.156.536.234.84.234Zm4.405 1.254v-9h1.464v9h-1.464Zm2.906 0v-9h1.464v9h-1.464Zm5.789 0v-8.4h3a2.3 2.3 0 0 1 1.236.342 2.538 2.538 0 0 1 1.206 2.184 2.553 2.553 0 0 1-1.224 2.196 2.318 2.318 0 0 1-1.218.336h-1.536v3.342h-1.464Zm1.464-4.806h1.38c.208 0 .398-.052.57-.156.172-.104.308-.244.408-.42.104-.176.156-.372.156-.588 0-.22-.052-.418-.156-.594a1.142 1.142 0 0 0-.408-.42 1.08 1.08 0 0 0-.57-.156h-1.38v2.334Zm7.305 4.962a2.803 2.803 0 0 1-1.512-.426 3.18 3.18 0 0 1-1.488-2.736c0-.436.078-.844.234-1.224.156-.384.37-.72.642-1.008.276-.292.596-.52.96-.684a2.8 2.8 0 0 1 1.164-.246c.468 0 .896.1 1.284.3.392.196.724.466.996.81a3.332 3.332 0 0 1 .678 2.556h-4.386c.056.224.148.426.276.606.128.176.29.318.486.426.196.104.418.158.666.162.256.004.488-.056.696-.18.212-.128.388-.3.528-.516l1.494.348a3.207 3.207 0 0 1-1.092 1.308 2.785 2.785 0 0 1-1.626.504Zm-1.476-3.756h2.952a1.523 1.523 0 0 0-.282-.648 1.58 1.58 0 0 0-.522-.468 1.358 1.358 0 0 0-.672-.174c-.24 0-.462.058-.666.174a1.597 1.597 0 0 0-.522.462c-.14.192-.236.41-.288.654Zm5.416 3.6-.006-6h1.464l.006.534c.204-.216.448-.386.732-.51.284-.128.59-.192.918-.192.22 0 .44.032.66.096l-.576 1.476a1.249 1.249 0 0 0-1.104.084 1.25 1.25 0 0 0-.63 1.104v3.408h-1.464Zm6.544-7.26v1.26h1.638v1.464h-1.638v4.536h-1.464v-4.536h-.654v-1.464h.654v-1.26c0-.344.084-.658.252-.942.172-.288.402-.516.69-.684.288-.172.606-.258.954-.258.252 0 .502.052.75.156.248.104.468.264.66.48l-1.056 1.032a.333.333 0 0 0-.156-.15.399.399 0 0 0-.198-.054.43.43 0 0 0-.306.126.39.39 0 0 0-.126.294Zm5.149 7.416a2.803 2.803 0 0 1-1.512-.426 3.194 3.194 0 0 1-1.086-1.14 3.206 3.206 0 0 1-.402-1.59c0-.44.078-.85.234-1.23.156-.384.37-.72.642-1.008.276-.292.596-.52.96-.684a2.8 2.8 0 0 1 1.164-.246c.552 0 1.054.142 1.506.426.456.284.818.666 1.086 1.146a3.18 3.18 0 0 1 .408 1.596c0 .436-.078.844-.234 1.224a3.25 3.25 0 0 1-.648 1.008c-.272.288-.59.514-.954.678-.36.164-.748.246-1.164.246Zm0-1.464c.292 0 .554-.078.786-.234.232-.156.414-.362.546-.618.136-.256.204-.536.204-.84 0-.312-.07-.596-.21-.852a1.604 1.604 0 0 0-.558-.618 1.347 1.347 0 0 0-.768-.234c-.288 0-.548.078-.78.234a1.67 1.67 0 0 0-.552.624c-.136.26-.204.542-.204.846 0 .316.07.602.21.858.14.256.326.46.558.612.236.148.492.222.768.222Zm3.94 1.308-.006-6h1.464l.006.534c.204-.216.448-.386.732-.51.284-.128.59-.192.918-.192.22 0 .44.032.66.096l-.576 1.476a1.249 1.249 0 0 0-1.104.084 1.25 1.25 0 0 0-.63 1.104v3.408h-1.464Zm4.47 0v-6h1.464v.534c.204-.216.448-.386.732-.51.284-.128.59-.192.918-.192.416 0 .798.098 1.146.294.352.196.632.458.84.786.212-.328.492-.59.84-.786.348-.196.73-.294 1.146-.294.44 0 .838.108 1.194.324.36.212.646.498.858.858.216.356.324.754.324 1.194v3.792h-1.464v-3.402c0-.232-.058-.444-.174-.636a1.28 1.28 0 0 0-.456-.468c-.188-.12-.4-.18-.636-.18s-.45.058-.642.174a1.31 1.31 0 0 0-.456.456 1.24 1.24 0 0 0-.174.654v3.402h-1.464v-3.402a1.246 1.246 0 0 0-.624-1.11 1.217 1.217 0 0 0-.642-.174c-.232 0-.444.06-.636.18a1.328 1.328 0 0 0-.462.468 1.24 1.24 0 0 0-.168.636v3.402h-1.464Zm15.071-6h1.464v6h-1.464l-.066-.744a1.966 1.966 0 0 1-.654.654 1.792 1.792 0 0 1-.954.246c-.444 0-.86-.084-1.248-.252-.388-.168-.73-.4-1.026-.696a3.333 3.333 0 0 1-.69-1.026 3.172 3.172 0 0 1-.246-1.248c0-.428.078-.83.234-1.206a3.124 3.124 0 0 1 1.65-1.656c.372-.16.772-.24 1.2-.24.396 0 .75.088 1.062.264.316.176.584.4.804.672l-.066-.768Zm-1.71 4.746c.312 0 .588-.078.828-.234.24-.156.428-.366.564-.63a1.92 1.92 0 0 0 .204-.882c0-.324-.068-.618-.204-.882a1.596 1.596 0 0 0-.57-.636 1.475 1.475 0 0 0-.822-.234c-.308 0-.59.08-.846.24a1.76 1.76 0 0 0-.606.63 1.772 1.772 0 0 0-.222.882 1.76 1.76 0 0 0 .834 1.512c.256.156.536.234.84.234Zm9.866-2.538v3.792h-1.464v-3.408a1.265 1.265 0 0 0-.642-1.104 1.217 1.217 0 0 0-.642-.174 1.279 1.279 0 0 0-1.11.636 1.25 1.25 0 0 0-.168.642v3.408h-1.464l-.006-6h1.464l.006.534c.204-.216.448-.386.732-.51.284-.128.59-.192.918-.192.436 0 .834.108 1.194.324.36.212.646.498.858.858.216.356.324.754.324 1.194Zm4.798 1.986 1.32.714a3.147 3.147 0 0 1-1.038.906c-.416.228-.87.342-1.362.342a2.803 2.803 0 0 1-1.512-.426 3.194 3.194 0 0 1-1.086-1.14 3.206 3.206 0 0 1-.402-1.59c0-.44.078-.85.234-1.23.156-.384.37-.72.642-1.008.276-.292.596-.52.96-.684a2.8 2.8 0 0 1 1.164-.246c.492 0 .946.114 1.362.342.416.228.762.534 1.038.918l-1.32.708a1.467 1.467 0 0 0-1.08-.504c-.288 0-.548.08-.78.24a1.67 1.67 0 0 0-.552.624 1.762 1.762 0 0 0-.204.84c0 .3.068.58.204.84.136.256.32.462.552.618.232.156.492.234.78.234.208 0 .406-.044.594-.132.188-.092.35-.214.486-.366Zm4.85 1.962a2.803 2.803 0 0 1-1.512-.426 3.18 3.18 0 0 1-1.488-2.736c0-.436.078-.844.234-1.224.156-.384.37-.72.642-1.008.276-.292.596-.52.96-.684a2.8 2.8 0 0 1 1.164-.246c.468 0 .896.1 1.284.3.392.196.724.466.996.81a3.332 3.332 0 0 1 .678 2.556h-4.386c.056.224.148.426.276.606.128.176.29.318.486.426.196.104.418.158.666.162.256.004.488-.056.696-.18.212-.128.388-.3.528-.516l1.494.348a3.207 3.207 0 0 1-1.092 1.308 2.785 2.785 0 0 1-1.626.504Zm-1.476-3.756h2.952a1.523 1.523 0 0 0-.282-.648 1.58 1.58 0 0 0-.522-.468 1.358 1.358 0 0 0-.672-.174c-.24 0-.462.058-.666.174a1.597 1.597 0 0 0-.522.462c-.14.192-.236.41-.288.654Z"/><path fill="url(#b)" d="M20.925 172.486v160.383h268.839V202.93c-5.833-10.148-18.93-31.779-24.657-37.12-7.158-6.677-9.544 10.54-21.475 37.12-9.545 21.263-20.415 8.859-24.657 0l-20.68-15.811c-4.242 8.417-13.999 21.484-19.089 6.416-5.091-15.068-17.499-20.311-23.066-21.049-6.797 6.329-22.666 21.278-31.773 30.444-11.382 11.456-15.033-1.146-24.913-15.811-9.88-14.664-20.617 2.979-27.275 6.416-6.658 3.437-13.316-13.29-14.82-17.185-1.503-3.895-10.308 1.146-14.818 0-3.608-.917-4.935-12.547-9.995-11.947l-11.621 8.083Z"/><path stroke="#8478F0" d="m20.925 172.486 11.62-8.083c5.061-.6 6.387 11.03 9.996 11.947 4.51 1.146 13.315-3.895 14.819 0 1.503 3.895 8.16 20.622 14.819 17.185 6.657-3.437 17.396-21.08 27.275-6.416 9.88 14.665 13.531 27.267 24.913 15.811 9.107-9.166 24.976-24.115 31.773-30.444 5.567.738 17.975 5.981 23.066 21.049 5.09 15.068 14.847 2.001 19.089-6.416l20.68 15.811c4.242 8.859 15.112 21.263 24.657 0 11.931-26.58 14.317-43.797 21.475-37.12 5.727 5.341 18.824 26.972 24.657 37.12"/><ellipse cx="255.392" cy="117.409" fill="#344BFD" rx="2.082" ry="2.222"/><g filter="url(#c)"><rect width="164.557" height="24.94" x="166.123" y="134.642" fill="#242424" rx="5"/></g><path fill="#8478F0" d="M195.38 150v-1.695h-2.98v-1.225l2.695-4.08h1.505v4.085h.59v1.22h-.59V150h-1.22Zm-1.565-2.92 1.565.005-.005-2.42-1.56 2.415Zm6.726 3.05c-.45 0-.857-.108-1.22-.325a2.474 2.474 0 0 1-.865-.875 2.346 2.346 0 0 1-.315-1.195h1.22c0 .217.053.415.16.595.107.177.248.318.425.425.18.103.378.155.595.155a1.15 1.15 0 0 0 1.015-.58c.107-.18.16-.378.16-.595 0-.217-.047-.415-.14-.595a.973.973 0 0 0-.445-.435c-.203-.11-.473-.165-.81-.165h-1.8l.74-3.54h3.44v1.22h-2.45l-.225 1.1.495.005c.473.017.892.132 1.255.345a2.356 2.356 0 0 1 1.16 2.065c0 .327-.062.635-.185.925-.123.29-.295.545-.515.765-.22.22-.475.393-.765.52a2.336 2.336 0 0 1-.93.185Zm5.714 0c-.406 0-.776-.093-1.11-.28a2.775 2.775 0 0 1-.865-.785 3.82 3.82 0 0 1-.555-1.155c-.13-.44-.195-.91-.195-1.41 0-.5.065-.968.195-1.405.13-.44.315-.827.555-1.16.244-.333.532-.593.865-.78.334-.19.704-.285 1.11-.285a2.2 2.2 0 0 1 1.11.285 2.6 2.6 0 0 1 .855.78c.24.333.425.72.555 1.16.134.437.2.905.2 1.405s-.066.97-.2 1.41a3.82 3.82 0 0 1-.555 1.155 2.648 2.648 0 0 1-.855.785c-.333.187-.703.28-1.11.28Zm0-1.22c.357 0 .652-.113.885-.34.234-.227.407-.523.52-.89.114-.367.17-.76.17-1.18 0-.443-.06-.847-.18-1.21-.12-.367-.296-.658-.53-.875a1.22 1.22 0 0 0-.865-.325c-.27 0-.505.067-.705.2-.196.13-.36.308-.49.535-.13.227-.226.485-.29.775a4.187 4.187 0 0 0-.095.9c0 .417.057.81.17 1.18.117.367.292.663.525.89.237.227.532.34.885.34Zm5.821 1.22c-.407 0-.777-.093-1.11-.28a2.753 2.753 0 0 1-.865-.785 3.82 3.82 0 0 1-.555-1.155c-.13-.44-.195-.91-.195-1.41 0-.5.065-.968.195-1.405.13-.44.315-.827.555-1.16a2.7 2.7 0 0 1 .865-.78 2.2 2.2 0 0 1 1.11-.285c.406 0 .776.095 1.11.285.333.187.618.447.855.78.24.333.425.72.555 1.16.133.437.2.905.2 1.405s-.067.97-.2 1.41a3.82 3.82 0 0 1-.555 1.155 2.669 2.669 0 0 1-.855.785c-.334.187-.704.28-1.11.28Zm0-1.22c.356 0 .651-.113.885-.34.233-.227.406-.523.52-.89.113-.367.17-.76.17-1.18 0-.443-.06-.847-.18-1.21-.12-.367-.297-.658-.53-.875a1.223 1.223 0 0 0-.865-.325c-.27 0-.505.067-.705.2-.197.13-.36.308-.49.535-.13.227-.227.485-.29.775a4.124 4.124 0 0 0-.095.9c0 .417.056.81.17 1.18.116.367.291.663.525.89.236.227.531.34.885.34Z"/><path fill="#344BFD" d="M216.121 146.255a.614.614 0 0 1-.625-.63c0-.17.06-.317.18-.44a.606.606 0 0 1 .445-.185.61.61 0 0 1 .445.185c.123.123.185.27.185.44a.613.613 0 0 1-.185.45.617.617 0 0 1-.445.18Zm0 3.875a.614.614 0 0 1-.625-.63c0-.17.06-.317.18-.44a.606.606 0 0 1 .445-.185.61.61 0 0 1 .445.185c.123.123.185.27.185.44a.613.613 0 0 1-.185.45.617.617 0 0 1-.445.18Z"/><path fill="#fff" d="M220.354 150v-7h1.22v5.78h2.915V150h-4.135Zm7.024.13c-.46 0-.88-.118-1.26-.355a2.662 2.662 0 0 1-.905-.95 2.676 2.676 0 0 1-.335-1.325c0-.367.065-.708.195-1.025.13-.32.308-.6.535-.84.23-.243.497-.433.8-.57.303-.137.627-.205.97-.205.46 0 .878.118 1.255.355.38.237.682.555.905.955.227.4.34.843.34 1.33 0 .363-.065.703-.195 1.02a2.7 2.7 0 0 1-.54.84c-.227.24-.492.428-.795.565-.3.137-.623.205-.97.205Zm0-1.22c.243 0 .462-.065.655-.195s.345-.302.455-.515c.113-.213.17-.447.17-.7 0-.26-.058-.497-.175-.71a1.331 1.331 0 0 0-.465-.515 1.123 1.123 0 0 0-.64-.195c-.24 0-.457.065-.65.195s-.347.303-.46.52c-.113.217-.17.452-.17.705 0 .263.058.502.175.715.117.213.272.383.465.51.197.123.41.185.64.185Zm5.624 1.09h-1.21l-1.67-5h1.195l1.085 3.235 1.08-3.235h1.205l1.08 3.235 1.085-3.235h1.195l-1.67 5h-1.21l-1.085-3.25-1.08 3.25Zm9.823.09a2.764 2.764 0 0 1-.755-.155 2.249 2.249 0 0 1-.64-.365 1.56 1.56 0 0 1-.43-.55l1.03-.44c.04.067.105.138.195.215.09.073.197.135.32.185.127.05.265.075.415.075.127 0 .247-.017.36-.05a.65.65 0 0 0 .28-.165.386.386 0 0 0 .11-.285.338.338 0 0 0-.13-.285.791.791 0 0 0-.32-.155 9.928 9.928 0 0 0-.37-.1 3.626 3.626 0 0 1-.885-.295 1.885 1.885 0 0 1-.655-.515 1.23 1.23 0 0 1-.245-.77c0-.33.087-.615.26-.855.177-.24.405-.425.685-.555.283-.13.588-.195.915-.195.397 0 .76.083 1.09.25.333.163.597.395.79.695l-.965.57a1.041 1.041 0 0 0-.48-.39.967.967 0 0 0-.335-.08 1.339 1.339 0 0 0-.41.04.635.635 0 0 0-.3.17.457.457 0 0 0-.11.32c0 .127.05.222.15.285.1.06.22.107.36.14.143.033.28.07.41.11.293.097.568.215.825.355.26.14.468.312.625.515.157.203.232.447.225.73 0 .323-.097.607-.29.85-.193.24-.443.423-.75.55a2.07 2.07 0 0 1-.975.15Zm6.563-5.09h1.22v5h-1.22l-.055-.62a1.65 1.65 0 0 1-.545.545 1.494 1.494 0 0 1-.795.205c-.37 0-.717-.07-1.04-.21a2.713 2.713 0 0 1-1.43-1.435 2.636 2.636 0 0 1-.205-1.04c0-.357.065-.692.195-1.005.133-.313.318-.588.555-.825.236-.237.51-.422.82-.555.31-.133.643-.2 1-.2.33 0 .625.073.885.22.263.147.486.333.67.56l-.055-.64Zm-1.425 3.955c.26 0 .49-.065.69-.195.2-.13.356-.305.47-.525.113-.223.17-.468.17-.735 0-.27-.057-.515-.17-.735a1.34 1.34 0 0 0-.475-.53 1.23 1.23 0 0 0-.685-.195c-.257 0-.492.067-.705.2-.21.13-.379.305-.505.525a1.47 1.47 0 0 0-.185.735 1.462 1.462 0 0 0 .695 1.26c.213.13.446.195.7.195Zm3.67 1.045v-7.5h1.22v7.5h-1.22Zm4.544.13c-.46 0-.88-.118-1.26-.355a2.652 2.652 0 0 1-1.24-2.28c0-.363.065-.703.195-1.02.13-.32.308-.6.535-.84.23-.243.497-.433.8-.57.303-.137.627-.205.97-.205.39 0 .747.083 1.07.25.327.163.603.388.83.675.227.287.392.613.495.98.103.367.127.75.07 1.15h-3.655c.047.187.123.355.23.505.107.147.242.265.405.355.163.087.348.132.555.135.213.003.407-.047.58-.15.177-.107.323-.25.44-.43l1.245.29a2.673 2.673 0 0 1-.91 1.09 2.32 2.32 0 0 1-1.355.42Zm-1.23-3.13h2.46c-.037-.2-.115-.38-.235-.54a1.331 1.331 0 0 0-.435-.39 1.127 1.127 0 0 0-.56-.145 1.1 1.1 0 0 0-.555.145 1.33 1.33 0 0 0-.435.385c-.117.16-.197.342-.24.545Zm6.023 3.09a2.764 2.764 0 0 1-.755-.155 2.235 2.235 0 0 1-.64-.365 1.56 1.56 0 0 1-.43-.55l1.03-.44c.04.067.105.138.195.215.09.073.196.135.32.185.126.05.265.075.415.075.126 0 .246-.017.36-.05a.656.656 0 0 0 .28-.165.386.386 0 0 0 .11-.285.34.34 0 0 0-.13-.285.798.798 0 0 0-.32-.155 9.928 9.928 0 0 0-.37-.1 3.626 3.626 0 0 1-.885-.295 1.876 1.876 0 0 1-.655-.515 1.225 1.225 0 0 1-.245-.77c0-.33.086-.615.26-.855.176-.24.405-.425.685-.555.283-.13.588-.195.915-.195.396 0 .76.083 1.09.25.333.163.596.395.79.695l-.965.57a.816.816 0 0 0-.195-.22 1.072 1.072 0 0 0-.285-.17.972.972 0 0 0-.335-.08 1.339 1.339 0 0 0-.41.04.625.625 0 0 0-.3.17.453.453 0 0 0-.11.32c0 .127.05.222.15.285.1.06.22.107.36.14.143.033.28.07.41.11.293.097.568.215.825.355.26.14.468.312.625.515.156.203.231.447.225.73 0 .323-.097.607-.29.85-.194.24-.444.423-.75.55a2.075 2.075 0 0 1-.975.15Zm5.273-5.09h1.22v5h-1.22v-5Zm.62-.645a.635.635 0 0 1-.455-.175.6.6 0 0 1-.185-.45c0-.177.061-.325.185-.445a.62.62 0 0 1 .45-.18c.176 0 .325.06.445.18.123.12.185.268.185.445 0 .18-.06.33-.18.45a.613.613 0 0 1-.445.175Zm6.342 2.485V150h-1.22v-2.84a1.01 1.01 0 0 0-.145-.535 1.044 1.044 0 0 0-.39-.385 1.01 1.01 0 0 0-.535-.145 1.068 1.068 0 0 0-.925.53c-.093.16-.14.338-.14.535V150h-1.22l-.005-5h1.22l.005.445c.17-.18.374-.322.61-.425.237-.107.492-.16.765-.16.364 0 .695.09.995.27.3.177.539.415.715.715.18.297.27.628.27.995Zm3.399 3.16 1.36-7h1.01l1.705 4.485 1.705-4.485h1.01l1.36 7h-1.245l-.84-4.33-1.575 4.17h-.835l-1.575-4.17-.835 4.33h-1.245Zm12.588-5h1.22v5h-1.22l-.055-.62a1.632 1.632 0 0 1-.545.545 1.489 1.489 0 0 1-.795.205c-.37 0-.716-.07-1.04-.21a2.736 2.736 0 0 1-.855-.58 2.791 2.791 0 0 1-.575-.855 2.654 2.654 0 0 1-.205-1.04c0-.357.065-.692.195-1.005a2.618 2.618 0 0 1 1.375-1.38c.31-.133.644-.2 1-.2.33 0 .625.073.885.22.264.147.487.333.67.56l-.055-.64Zm-1.425 3.955c.26 0 .49-.065.69-.195.2-.13.357-.305.47-.525a1.59 1.59 0 0 0 .17-.735c0-.27-.056-.515-.17-.735a1.325 1.325 0 0 0-.475-.53c-.2-.13-.428-.195-.685-.195a1.31 1.31 0 0 0-.705.2 1.47 1.47 0 0 0-.505.525 1.48 1.48 0 0 0-.185.735 1.47 1.47 0 0 0 .695 1.26c.214.13.447.195.7.195Zm6.798-3.955h1.295l-2.735 7.5h-1.295l.905-2.5-1.8-5h1.335l1.075 3.33 1.22-3.33Z"/><defs><linearGradient id="b" x1="155.344" x2="155.344" y1="164.368" y2="332.869" gradientUnits="userSpaceOnUse"><stop stop-color="#8478F0"/><stop offset="1" stop-color="#B1B9F8" stop-opacity="0"/></linearGradient><filter id="c" width="168.557" height="28.94" x="164.123" y="132.642" color-interpolation-filters="sRGB" filterUnits="userSpaceOnUse"><feFlood flood-opacity="0" result="BackgroundImageFix"/><feColorMatrix in="SourceAlpha" result="hardAlpha" values="0 0 0 0 0 0 0 0 0 0 0 0 0 0 0 0 0 0 127 0"/><feOffset/><feGaussianBlur stdDeviation="1"/><feComposite in2="hardAlpha" operator="out"/><feColorMatrix values="0 0 0 0 0 0 0 0 0 0 0 0 0 0 0 0 0 0 0.25 0"/><feBlend in2="BackgroundImageFix" result="effect1_dropShadow_5004_143"/><feBlend in="SourceGraphic" in2="effect1_dropShadow_5004_143" result="shape"/></filter></defs></svg>