<svg xmlns="http://www.w3.org/2000/svg" width="86" height="81" fill="none"><path fill="#D7FE03" d="M42.762 80.457c-.045.028-.465-.516-1.232-1.59a315.302 315.302 0 0 1-3.299-4.748l-1.524-2.234c-.553-.79-1.142-1.63-1.727-2.541-.479-.982-1.439-1.72-1.92-2.84-.607-1.036-1.346-2.054-2.105-3.124-.761-1.07-1.398-2.286-2.285-3.4-1.007-1.036-1.337-2.58-2.457-3.663-.898-1.232-1.745-2.556-2.621-3.92-.718-1.466-1.806-2.747-2.78-4.16-.734-1.57-1.791-2.98-2.928-4.392-.705-1.695-1.766-3.21-3.073-4.613-1.047-1.573-1.998-3.26-3.207-4.824-1.103-1.634-2.261-3.278-3.336-5.023-1.318-1.586-2.456-3.333-3.458-5.212-1.371-1.636-2.475-3.491-3.572-5.39a15.444 15.444 0 0 0-.436-.718l-.389-.594L0 16.853l.751-.776.314-.33.21-.228.843-.912c.57-.605 1.158-1.198 1.803-1.74 1.603-1.581 3.167-3.246 4.83-4.852 1.708-1.564 3.443-3.14 4.956-4.975l1.279-1.346.645-.672.325-.336.592-.598 1.235-.002.863.008a52.98 52.98 0 0 1 1.733.062C22.797-.106 25.241.01 27.706.15c2.464-.044 4.951.14 7.458-.006 2.509.04 5.035-.116 7.58-.001 2.546.079 5.073.154 7.58 0 2.507-.168 4.994.07 7.46.007 2.465.244 4.907-.082 7.325.006.58-.005 1.158 0 1.736.009.288.007.576.01.863.016l.432.01.759.008c.294.3.587.603.881.902l.656.66c.439.437.887.865 1.347 1.277 1.706 1.64 3.394 3.263 4.955 4.974 1.903 1.367 3.181 3.318 4.832 4.854a30.616 30.616 0 0 0 1.725 1.816l.892.866.55.53c.262.259.525.514.787.77l-.802 1.236c-.153.234-.309.467-.466.696-1.145 1.869-2.534 3.535-3.572 5.39-1.191 1.754-2.209 3.582-3.457 5.212-.968 1.814-2.361 3.305-3.336 5.024-1.084 1.646-2.134 3.267-3.206 4.823-1.285 1.418-2.097 3.096-3.072 4.615-1.018 1.489-1.82 3.07-2.929 4.392-.961 1.419-1.987 2.742-2.778 4.16-.854 1.378-2.113 2.432-2.621 3.919-.778 1.309-1.897 2.334-2.457 3.665-.577 1.318-1.555 2.31-2.285 3.4l-2.105 3.124a1016.551 1016.551 0 0 1-7.066 10.366 141.81 141.81 0 0 1-1.911 2.702c-.444.605-.689.907-.721.885-.038-.024.189-.447.659-1.24a192.43 192.43 0 0 1 2.129-3.461c1.883-3.008 4.673-7.385 8.219-12.901.709-1.103 1.288-2.357 2.219-3.444.779-1.184 1.456-2.501 2.391-3.706.609-1.421 1.658-2.613 2.561-3.958.879-1.362 1.869-2.707 2.721-4.198.809-1.521 1.975-2.861 2.874-4.43 1.132-1.414 2.11-2.982 3.021-4.647 1.175-1.488 2.071-3.211 3.159-4.855 1.295-1.508 2.251-3.285 3.292-5.052 1.049-1.762 2.303-3.433 3.418-5.237 1.205-1.746 2.296-3.61 3.535-5.413l.427-.724c.025-.041.017-.032.021-.041l.004-.013.007-.027.011-.043-.065-.041-.014-.008-.005-.005-.028-.026-.056-.055-.223-.215a55.88 55.88 0 0 1-.88-.876 46.603 46.603 0 0 1-1.709-1.833c-1.651-1.536-3.219-3.197-4.854-4.832-1.706-1.564-3.282-3.3-4.974-4.955a33.125 33.125 0 0 1-1.299-1.324l-.635-.681-.318-.342-.039-.043-.007-.01-.016-.021-.033-.045-.047-.005-.025-.003h-.012c-.005-.001-.006-.002-.029-.002l-.432-.007a24.833 24.833 0 0 0-.863.002c-.578.01-1.156.044-1.736.11-2.418.037-4.86-.043-7.325.009-2.466-.035-4.953-.072-7.46.004-2.507-.275-5.034-.105-7.58.003-2.545.078-5.071.037-7.58-.003-2.507.028-4.994.014-7.458-.004-2.465.082-4.909-.12-7.327-.01-.579.03-1.156.037-1.733.034l-.863-.012-.431-.01c-.025 0-.022-.001-.024-.001l-.007-.001-.014-.003-.029-.006-.026.017-.013.01-.007.004-.042.04-.338.322-.67.647c-.443.434-.877.876-1.292 1.333-1.617 1.73-3.241 3.418-4.974 4.955-1.634 1.636-3.427 3.074-4.854 4.832-.578.606-1.129 1.236-1.687 1.853-.278.309-.558.614-.844.912l-.215.22-.084.086c-.002-.001-.007-.004-.02-.003-.006.002-.013.004-.02.01l-.011.014-.004.009c-.001.006-.011-.003.013.04.13.25.254.506.366.766 1.283 1.776 2.234 3.73 3.536 5.413.932 1.926 2.3 3.52 3.418 5.238 1.081 1.74 2.107 3.472 3.292 5.052 1.195 1.573 2.086 3.3 3.161 4.855 1.173 1.49 1.879 3.237 3.021 4.646.961 1.527 1.98 2.965 2.875 4.429 1.258 1.224 1.857 2.827 2.721 4.198.845 1.384 1.963 2.529 2.56 3.958 1.075 1.114 1.677 2.479 2.393 3.706.71 1.23 1.631 2.26 2.219 3.444.887.986 1.317 2.207 2.035 3.17.548 1.077 1.282 1.962 1.847 2.887a26.08 26.08 0 0 1 1.651 2.59l1.449 2.286a308.558 308.558 0 0 1 3.054 4.909c.683 1.127 1.018 1.73.974 1.759Z"/><path fill="#D7FE03" d="M84.53 16.938c0 .105-.922.207-2.613.3l-.908.046c-.324.027-.667.058-1.032.044-.363-.138-.747.26-1.15.045-.403-.063-.825-.005-1.266.041-.441.05-.9-.089-1.375.04-.477.271-.97-.302-1.482.037-.51.076-1.038.055-1.583.038-.544-.207-1.105-.002-1.68.034-.575-.25-1.167-.14-1.773.032-.606-.34-1.227-.289-1.862.031-.634.011-1.283-.12-1.945.028-.661.024-1.337.088-2.025.027-.688.23-1.388.22-2.1.024-.713.246-1.436.148-2.172.021-.735-.138-1.481.215-2.238.02-.757-.016-1.523.054-2.3.014-.777-.1-1.562-.213-2.358.014-.795.061-1.6.144-2.411.011-.812.262-1.633.145-2.46.007-.828.043-1.663-.142-2.505.006-.843-.042-1.691.114-2.546 0-.855-.079-1.703-.154-2.545 0-.843.167-1.678-.07-2.505-.006-.828-.245-1.65.081-2.461-.007-.812.024-1.616-.143-2.411-.01-.795.045-1.581.092-2.358-.015-.777.38-1.543-.097-2.3-.015-.757-.16-1.503.023-2.238-.019-.736.071-1.46-.175-2.172-.02-.712-.034-1.412.12-2.1-.025-.687.187-1.364-.158-2.025-.027-.662 0-1.311.013-1.945-.028-.635-.294-1.256-.05-1.862-.03-.606-.032-1.196.166-1.772-.033-.577-.023-1.136-.153-1.681-.034-.544.043-1.072-.43-1.584-.038-.511.071-1.004-.3-1.481-.037-.475.242-.935-.03-1.375-.04-.44-.015-.863-.028-1.266-.04-3.626-.129-5.704-.278-5.704-.436 0-.177 2.567-.34 6.97-.477.44-.014.9-.22 1.375-.04.477.001.97-.158 1.48-.039.513-.273 1.04-.049 1.585-.036.545-.013 1.104.075 1.679-.034.578-.16 1.168.078 1.774-.034.606.17 1.227.125 1.862-.029.634.163 1.283-.036 1.945-.029.66.252 1.338.075 2.025-.026.688-.093 1.388.037 2.1-.024.713.048 1.436-.064 2.172-.02.735-.119 1.48-.164 2.238-.02.757-.082 1.523-.016 2.3-.016.777-.1 1.563.013 2.358-.013.795-.053 1.599.268 2.41-.01.813-.036 1.634.043 2.462-.008.827.034 1.662.071 2.505-.006.842.276 1.69.106 2.545 0 .855-.079 1.703-.04 2.546 0a45.446 45.446 0 0 1 2.505.006c.827-.082 1.648.117 2.46.007.812-.117 1.616.126 2.41.011.797-.08 1.582-.123 2.359.013.777 0 1.543.25 2.3.016.757-.053 1.503-.365 2.238.02.736-.097 1.459.183 2.172.02.712.28 1.412.015 2.1.024.688.054 1.364.148 2.025.026.662-.134 1.31.073 1.945.03.635-.162 1.256.208 1.862.028.606.037 1.198-.023 1.774.034.574-.378 1.135.001 1.679.034.545.055 1.073-.25 1.583.036.512-.285 1.005-.039 1.482.04.476.083.934-.123 1.375.04.44-.202.863.111 1.266.04.403.135.787.008 1.15.045a2.97 2.97 0 0 1 1.032.043l.908.047c1.69.093 2.614.195 2.614.301Z"/><path fill="#D7FE03" d="M42.763 80.461c-.101.032-.49-.815-1.11-2.393a103.86 103.86 0 0 0-.33-.85 8.229 8.229 0 0 1-.367-.967c.017-.39-.482-.63-.404-1.082-.068-.402-.256-.785-.44-1.189-.184-.405-.197-.884-.471-1.297-.407-.368-.02-1.018-.502-1.397-.231-.464-.38-.972-.533-1.495.024-.583-.348-1.051-.563-1.588.056-.626-.235-1.154-.59-1.676.135-.685-.112-1.258-.616-1.761-.21-.6-.288-1.26-.64-1.842-.23-.623-.504-1.245-.662-1.919-.435-.582-.646-1.251-.686-1.99-.457-.6-.592-1.32-.704-2.059-.1-.743-.671-1.341-.723-2.123-.223-.725-.533-1.432-.74-2.182-.148-.771-.29-1.555-.755-2.24-.31-.737-.641-1.476-.77-2.29-.505-.691-.654-1.508-.783-2.339-.301-.774-.39-1.628-.795-2.382-.226-.814-.641-1.572-.803-2.42-.194-.839-.39-1.669-.801-2.423-.424-.748-.462-1.617-.784-2.384-.03-.866-.596-1.543-.77-2.344-.277-.764-.374-1.582-.748-2.297-.293-.741-.586-1.475-.731-2.247-.603-.621-.394-1.5-.71-2.194-.086-.769-.496-1.421-.688-2.135-.297-.676-.293-1.443-.663-2.071-.194-.687-.562-1.306-.64-2.007-.394-.595-.28-1.346-.614-1.935l-.297-.894a75.311 75.311 0 0 0-.14-.443l-.198-.657.049-.133c.08-.123.15-.239.21-.351a1.92 1.92 0 0 0 .12-.216 2.23 2.23 0 0 0 .153-.445c.074-.302.109-.615.197-.906.224-.565.225-1.189.598-1.673.207-.539.51-1.03.572-1.584.133-.53.75-.881.542-1.492.097-.508.607-.858.51-1.394-.077-.53.328-.878.479-1.294.155-.413.303-.81.446-1.188C26.15 2.871 26.957.944 27.107.994c.167.056-.5 2.546-1.781 6.772-.13.422-.081.924-.403 1.319-.154.453-.162.972-.438 1.42.095.572-.286 1.001-.473 1.514-.162.521-.425 1.024-.505 1.606-.035.598-.45 1.084-.538 1.694a3.091 3.091 0 0 0-.394.839 3.9 3.9 0 0 0-.11.46c-.013.075-.03.163-.035.23a.282.282 0 0 0 .028.082.156.156 0 0 0-.028.023.182.182 0 0 0-.012.075c.003.016 0 .019.008.048l.033.11c.048.147.107.29.169.433.125.287.265.571.362.874-.031.708.35 1.295.663 1.918.305.626.403 1.333.685 1.99.178.693.513 1.347.705 2.06.343.662.62 1.358.722 2.124.315.693.496 1.442.74 2.182.34.707.48 1.49.756 2.239.3.74.249 1.605.77 2.291.29.761.473 1.566.782 2.338.228.798.456 1.604.795 2.381.004.888.433 1.642.804 2.422.344.787.573 1.608.8 2.421.292.793.542 1.592.785 2.385.338.762.407 1.605.768 2.344.367.735.39 1.576.75 2.296.327.732.616 1.467.73 2.247.245.74.249 1.548.71 2.194.289.703.82 1.315.687 2.135.323.67.285 1.446.665 2.072-.042.766.43 1.348.64 2.006.165.671.289 1.343.612 1.935.336.587.344 1.27.586 1.859.353.553.197 1.26.558 1.78.156.589.4 1.132.529 1.698.539.429.356 1.081.495 1.609.12.535.576.941.465 1.518.432.396.353.944.43 1.421.073.479.41.851.396 1.322.33.356.166.855.36 1.216 0 .425.24.751.322 1.108.156.333.25.666.28.996l.244.88c.444 1.636.639 2.547.539 2.581Z"/><path fill="#D7FE03" d="M42.763 80.469c-.1-.034.094-.944.538-2.582l.243-.878c.075-.317.155-.653.282-.996.246-.302-.01-.792.321-1.108.186-.364.264-.783.36-1.217.092-.434.366-.828.395-1.322-.108-.538.591-.828.43-1.421.091-.51.276-1.005.464-1.518.368-.452.35-1.05.496-1.61.42-.468.502-1.064.528-1.696.517-.47.662-1.076.557-1.78.19-.608.521-1.183.586-1.86.188-.636.34-1.3.614-1.935 0-.726.23-1.39.64-2.005-.01-.755.311-1.413.663-2.072.363-.657.261-1.478.688-2.135.252-.715.426-1.468.708-2.194.342-.707.696-1.42.73-2.247.193-.776.368-1.567.751-2.297.006-.856.375-1.6.767-2.343.22-.802.66-1.538.785-2.385.304-.79.423-1.645.801-2.423.343-.79.683-1.57.803-2.42.105-.853.595-1.574.793-2.383.495-.71.444-1.593.783-2.338.233-.78.644-1.492.77-2.29.208-.77.41-1.533.755-2.24-.115-.856.578-1.436.74-2.182.39-.67.451-1.438.723-2.123.164-.722.624-1.333.704-2.06.254-.666.33-1.381.684-1.99.04-.713.58-1.247.663-1.918l.296-.895.151-.438.04-.11c.01-.027.011-.025.017-.04l.034-.065-.004-.026a.193.193 0 0 0 .058-.1 1.384 1.384 0 0 0-.03-.231 2.25 2.25 0 0 0-.15-.444c-.124-.287-.285-.558-.392-.842-.163-.586-.542-1.083-.536-1.694-.163-.553-.219-1.128-.506-1.606-.215-.503.063-1.155-.473-1.515-.23-.463-.035-1.051-.438-1.42-.382-.374-.27-.897-.402-1.318l-.366-1.215c-1.04-3.484-1.566-5.505-1.416-5.555.166-.058 1.144 2.327 2.684 6.465.154.414.497.783.48 1.295.151.45.46.87.51 1.393.423.398.38.97.541 1.492.187.512.284 1.072.572 1.584.335.497.298 1.134.598 1.673.018.316.087.616.195.908.054.146.118.289.191.43.04.072.077.145.117.218.06.12.118.245.18.368l.024.135a6.032 6.032 0 0 0-.155.36l-.065.17-.04.11a5.465 5.465 0 0 0-.122.448c-.07.304-.128.615-.23.916-.448.55-.494 1.248-.614 1.935-.129.683-.473 1.308-.638 2.005-.27.663-.393 1.387-.665 2.073-.119.736-.312 1.46-.688 2.135-.16.745-.464 1.454-.709 2.192-.149.772-.504 1.483-.73 2.248-.2.773-.758 1.437-.749 2.298-.223.784-.557 1.539-.768 2.342-.295.778-.593 1.56-.785 2.386-.526.714-.633 1.574-.8 2.42-.194.84-.5 1.634-.804 2.423a45.765 45.765 0 0 1-.794 2.38c-.184.815-.63 1.532-.782 2.339-.145.81-.628 1.499-.77 2.292-.174.78-.38 1.542-.756 2.238-.243.738-.723 1.389-.739 2.182-.189.738-.127 1.545-.723 2.124-.14.73-.635 1.33-.704 2.06-.49.589-.459 1.338-.685 1.99-.267.637-.569 1.249-.662 1.918-.082.672-.482 1.224-.64 1.842-.047.654-.595 1.128-.616 1.762-.224.565-.353 1.146-.589 1.676.177.667-.359 1.08-.562 1.588-.224.5-.1 1.098-.533 1.494.11.576-.28.968-.504 1.398-.229.426-.179.927-.47 1.295.051.483-.378.786-.439 1.19-.254.343-.255.747-.404 1.082a2.973 2.973 0 0 1-.368.967l-.329.85c-.622 1.579-1.009 2.426-1.109 2.393Z"/><path fill="#D7FE03" d="M42.764 80.465c-.106 0-.208-.881-.301-2.492l-.047-.866c-.027-.31-.058-.636-.045-.983.141-.347-.257-.712-.043-1.097.063-.384.006-.787-.04-1.206-.05-.42.088-.858-.041-1.311-.272-.454.301-.925-.039-1.413-.073-.487-.052-.99-.036-1.508.207-.52.001-1.053-.034-1.602.249-.548.141-1.112-.033-1.69.343-.577.291-1.168-.031-1.773-.011-.605.122-1.224-.029-1.854-.022-.631-.086-1.275-.025-1.93-.23-.657-.219-1.324-.024-2.003-.246-.68-.149-1.368-.021-2.07.138-.7-.216-1.411-.019-2.132.015-.721-.056-1.451-.016-2.192.101-.74.214-1.49-.014-2.247-.06-.758-.143-1.525-.011-2.3-.261-.773-.145-1.555-.006-2.344-.044-.788.142-1.585-.005-2.387.04-.803-.117-1.612-.002-2.426.079-.815.154-1.624.002-2.426-.168-.804.069-1.6.005-2.388.244-.79-.081-1.571.006-2.345-.023-.775.143-1.54.011-2.298-.045-.758-.092-1.508.014-2.248-.378-.74.096-1.471.016-2.192.16-.721-.023-1.432.019-2.133-.071-.7.174-1.391.021-2.07.032-.68-.123-1.346.024-2.001-.187-.656.158-1.3.025-1.93v-.837l.005-.412.004-.205.004-.101.001-.027.002-.008.002-.015v-.026l-.002-.023-.009-.1c.203-.641-.127-1.19-.231-1.758-.056-.575-.335-1.103-.219-1.676-.057-.546-.008-1.093-.202-1.59-.119-.506.273-1.072-.187-1.496-.141-.472.156-.993-.171-1.402-.308-.413-.103-.886-.154-1.302l-.138-1.2c-.385-3.436-.531-5.418-.375-5.441.174-.026.699 2.369 1.454 6.499.077.413.345.816.234 1.292.066.448.293.89.247 1.39.344.44.196.972.26 1.487.09.51.081 1.05.271 1.578.237.52.086 1.112.282 1.666-.081.597.05 1.175.293 1.75a1.112 1.112 0 0 0-.009.102l-.001.024.001.042.004.082-.013.152-.008.1a3.508 3.508 0 0 0-.002.206c.003.137.016.273.029.412.029.276.067.556.064.837-.253.63-.075 1.274.026 1.93.093.655-.038 1.322.023 2-.048.68.064 1.37.023 2.07.117.702.161 1.413.018 2.134.081.72.016 1.452.016 2.192.1.739-.012 1.49.013 2.248.053.758-.268 1.523.011 2.298.035.774-.044 1.556.007 2.345-.035.789-.072 1.584.005 2.388-.275.802-.106 1.61.002 2.426.078.814.038 1.623-.002 2.426.027.802.013 1.599-.005 2.387.082.789-.117 1.57-.007 2.345.116.774-.126 1.54-.011 2.299.08.758.123 1.507-.013 2.247 0 .74-.251 1.47-.016 2.192.053.72.365 1.432-.018 2.133.094.7-.185 1.39-.023 2.069-.28.679-.014 1.346-.023 2.003-.054.655-.149 1.299-.026 1.93.133.63-.073 1.249-.029 1.854.161.605-.21 1.196-.03 1.773-.036.578.025 1.142-.033 1.69.378.549-.002 1.083-.035 1.602-.054.519.251 1.02-.036 1.508.286.488.038.959-.038 1.413-.083.453.12.89-.04 1.31.201.42-.112.823-.042 1.207-.134.385-.008.75-.043 1.097a2.72 2.72 0 0 1-.045.983l-.046.866c-.093 1.61-.195 2.492-.3 2.492Z"/></svg>