<svg xmlns="http://www.w3.org/2000/svg" width="85" height="112" fill="none"><path fill="#D7FE03" d="M1.995 14.936c.072 0 .14.7.208 2.033.065 1.335.13 3.31.193 5.862l.063 2.74c.036.98.077 2.02.06 3.12-.187 1.097.344 2.257.057 3.473-.084 1.218-.008 2.491.055 3.821.065 1.331-.118 2.716.053 4.155.363 1.44-.4 2.929.052 4.473.099 1.543.07 3.138.048 4.781-.276 1.641-.001 3.336.045 5.073-.332 1.739-.188 3.525.046 5.354-.458 1.829-.387 3.704.04 5.621.014 1.918-.163 3.875.038 5.877.03 1.997.115 4.037.036 6.114.306 2.08.29 4.193.03 6.344.328 2.151.198 4.337.028 6.556-.09 1.108-.02 2.23.042 3.355.032.563.062 1.13.064 1.696v.426l-.012.405c-.002.115-.013.234-.009.346 0 .115-.003.231.007.345.144.915.63 1.79 1.308 2.563.681.78 1.53 1.469 2.44 2.115 1.781 1.358 3.921 2.468 6.27 3 2.276.732 4.64 1.274 7 1.99 2.479.213 4.888.795 7.362 1.332 2.502.302 5.016.815 7.596.818 2.564.248 5.158.159 7.765.346 2.607.137 5.21.192 7.767-.137 2.55-.35 5.11-.255 7.602-.653 2.551.002 4.943-.835 7.354-1.267 1.194-.288 2.385-.552 3.552-.872 1.165-.321 2.309-.701 3.373-1.224 2.173-.937 4.188-2.065 5.965-3.372.67-.897 1.4-1.628 2.012-2.448.615-.809 1.124-1.728 1.22-2.732a5.4 5.4 0 0 0 .167-1.526 39.84 39.84 0 0 0-.01-1.695c-.025-1.127-.069-2.245-.038-3.355-.088-2.219.244-4.41.045-6.558.047-2.152-.152-4.263.047-6.344-.244-2.075.221-4.122.05-6.117.006-2-.005-3.96.054-5.876.396-1.922.076-3.793.053-5.625.048-1.828-.214-3.612.058-5.353.036-1.738.213-3.433.06-5.074-.055-1.644.578-3.242.058-4.782-.088-1.543.411-3.037.063-4.476-.32-1.435.047-2.823.064-4.153l.065-3.822c.099-5.475.202-9.783.306-12.72.104-2.939.212-4.508.317-4.508.116 0 .224 1.939.323 5.538.098 3.6.185 8.86.26 15.507.014 1.329.286 2.714.042 4.153-.004 1.44.203 2.93.04 4.473.362 1.54.06 3.135.036 4.778.015 1.642-.106 3.337.035 5.072.207 1.736-.113 3.524.03 5.352-.229 1.832-.174 3.705.027 5.619-.224 1.919.036 3.873.023 5.872-.341 2.003-.11 4.038.02 6.111.117 2.076-.063 4.192.016 6.34-.07 2.152.075 4.335.012 6.555a54.68 54.68 0 0 1 .135 3.35 37.98 37.98 0 0 1-.024 1.697c0 .591-.058 1.263-.207 1.887-.137 1.288-.633 2.548-1.34 3.637-.705 1.1-1.617 2.029-2.587 2.854-.932.871-2.004 1.573-3.114 2.175-1.115.598-2.27 1.106-3.436 1.59-1.158.504-2.386.831-3.61 1.145-1.224.317-2.449.622-3.648 1.083-2.476.609-5.024.936-7.574 1.325-2.57.278-5.166.448-7.776.681-2.635-.226-5.255.04-7.919.143-2.663.067-5.3-.103-7.91-.355a86.758 86.758 0 0 1-7.749-.846c-2.57-.26-5.04-.966-7.544-1.387-2.514-.418-4.856-1.391-7.258-2.094-2.384-.754-4.739-1.722-6.744-3.279a12.513 12.513 0 0 1-2.79-2.593c-.8-1.014-1.454-2.18-1.838-3.507a5.29 5.29 0 0 1-.084-.506c-.028-.172-.035-.337-.05-.507-.02-.293-.04-.584-.058-.876a54.106 54.106 0 0 1-.108-1.695c-.05-1.126-.027-2.245.23-3.354-.128-2.218.246-4.404.028-6.555.374-2.147.02-4.265.032-6.342.071-2.076.198-4.114.035-6.112-.179-2.002.097-3.959.037-5.874-.214-1.92.28-3.791.04-5.62.05-1.83-.032-3.615.044-5.354-.504-1.74.003-3.43.047-5.074.072-1.641-.335-3.236.047-4.778-.38-1.545-.05-3.035.053-4.474.11-1.437-.161-2.823.053-4.152-.268-1.331.148-2.605.056-3.821.178-1.216.008-2.377.058-3.475a19.96 19.96 0 0 1 .06-3.116c.02-.975.04-1.89.061-2.742.061-2.55.127-4.526.195-5.86.066-1.335.134-2.034.204-2.034Z"/><path fill="#D7FE03" d="M82.848 81.136c.064.12-.705.643-2.184 1.496l-.796.453c-.277.174-.57.366-.912.503-.413-.02-.55.605-1.044.508-.407.087-.767.322-1.153.553-.383.232-.88.25-1.258.594-.302.528-1.064-.008-1.377.59-.45.269-.961.432-1.485.603-.612-.064-1.046.395-1.582.632-.668-.13-1.185.186-1.7.588-.728-.238-1.298.018-1.788.614-.301.113-.632.15-.953.221-.323.07-.643.162-.94.342-.641.205-1.284.464-1.98.57-.6.468-1.312.59-2.075.504-.636.468-1.388.511-2.156.498-.769-.047-1.433.538-2.241.418-.38.056-.759.141-1.143.222-.38.085-.772.13-1.168.16-.805-.028-1.613-.071-2.381.329-.397.099-.8.168-1.207.223-.406.051-.818.07-1.24.02a2.89 2.89 0 0 1-1.23.308c-.419.026-.846-.055-1.272-.119-.842.094-1.702-.108-2.552.122-.86-.047-1.724.162-2.598.02-.872-.083-1.73-.232-2.594-.053-.435.097-.86.06-1.286.006-.424-.048-.842-.147-1.266-.129-.819-.381-1.684-.001-2.5-.19-.828-.054-1.619-.355-2.444-.267-.814-.026-1.615-.093-2.38-.333-.428.19-.815.11-1.187-.032-.373-.145-.735-.338-1.123-.35-.72-.338-1.516-.215-2.237-.428-.753-.06-1.407-.515-2.157-.47-.696-.203-1.438-.17-2.075-.514-.743.084-1.285-.546-1.983-.545l-.965-.254a12.634 12.634 0 0 1-.928-.311c-.504-.554-1.205-.408-1.797-.58-.572-.227-1.228-.162-1.7-.588-.54-.222-1.019-.567-1.592-.603-.547-.122-.818-.897-1.49-.597-.258-.047-.461-.228-.669-.377-.21-.154-.42-.278-.71-.208-.571.112-.867-.381-1.27-.57l-1.157-.548c-3.292-1.621-5.01-2.856-4.902-3.031.122-.201 2.432.913 6.555 2.432.408.16.94.071 1.29.466.22.088.462.131.703.19.243.056.48.132.691.294.607-.16.987.307 1.496.498.517.16 1.005.452 1.595.506.612-.023 1.073.45 1.693.496.505.401 1.123.506 1.785.492.274.192.582.27.903.326.323.05.655.07.972.16.55.479 1.26.445 1.96.466.696.037 1.333.361 2.041.445.68.207 1.416.203 2.12.404.746.005 1.488.053 2.194.37.381.011.753.071 1.13.143.372.07.751.135 1.132.19.783-.03 1.535.241 2.326.29.79.013 1.545.513 2.384.233.805.028 1.613.172 2.44.166.408.046.817.113 1.233.124.415.02.83.02 1.252-.016.824.38 1.677.207 2.525.045.85-.107 1.69-.061 2.528-.013a35.444 35.444 0 0 1 2.487-.108c.405-.077.817-.042 1.225-.049.41 0 .816-.009 1.211-.116.395-.11.797-.104 1.2-.098.401.004.804.022 1.185-.11.771-.207 1.534-.363 2.324-.287.382-.052.776-.007 1.158-.034.382-.022.758-.082 1.101-.298.73-.198 1.377-.724 2.195-.358.686-.27 1.466-.074 2.112-.434.774.2 1.381-.271 2.042-.433.676-.107 1.36-.163 1.951-.489.295-.17.615-.231.939-.28.321-.046.646-.071.936-.202.537-.392 1.273-.119 1.774-.525.591-.139 1.124-.393 1.694-.497.372-.654 1.06-.389 1.585-.535.535-.124.879-.678 1.493-.507.334-.528.922-.383 1.395-.486.479-.088.792-.51 1.28-.491.296-.413.85-.204 1.181-.446.444.002.726-.3 1.08-.4.306-.203.62-.34.954-.391.298-.123.58-.237.841-.341 1.573-.629 2.47-.915 2.536-.792Zm0-15.825c.064.122-.705.644-2.184 1.496a896.5 896.5 0 0 1-.796.455c-.277.172-.57.365-.912.501-.413-.02-.55.605-1.044.508-.407.087-.767.323-1.153.553-.383.234-.88.25-1.258.594-.302.53-1.064-.006-1.377.591-.45.27-.961.432-1.485.602-.612-.063-1.046.395-1.582.632-.668-.13-1.185.186-1.7.59-.728-.238-1.298.015-1.788.612-.301.113-.632.15-.953.223-.323.067-.643.16-.94.342-.641.204-1.284.462-1.98.568-.6.468-1.312.592-2.075.506-.636.467-1.388.51-2.156.498-.769-.049-1.433.536-2.241.416-.38.056-.759.141-1.143.222-.38.085-.772.13-1.168.16-.805-.028-1.613-.07-2.381.328-.397.101-.8.17-1.207.224-.406.051-.818.07-1.24.021a2.9 2.9 0 0 1-1.23.307c-.419.026-.846-.053-1.272-.119-.842.096-1.702-.108-2.552.123-.86-.048-1.724.162-2.598.02-.872-.084-1.73-.232-2.594-.054-.435.097-.86.061-1.286.008-.424-.048-.842-.149-1.266-.13-.819-.38-1.684 0-2.5-.191-.828-.053-1.619-.355-2.444-.267-.814-.026-1.615-.091-2.38-.332-.428.188-.815.11-1.187-.031-.373-.146-.735-.339-1.123-.35-.72-.34-1.516-.216-2.237-.43-.753-.059-1.407-.515-2.157-.468-.696-.205-1.438-.172-2.075-.516-.743.084-1.285-.544-1.983-.543-.325-.087-.648-.171-.965-.255a14.057 14.057 0 0 1-.928-.31c-.504-.555-1.205-.41-1.797-.581-.572-.227-1.228-.162-1.7-.59-.54-.221-1.019-.566-1.592-.6-.547-.123-.818-.9-1.49-.598-.258-.047-.461-.228-.669-.378-.21-.153-.42-.278-.71-.208-.571.113-.867-.381-1.27-.57-.403-.189-.79-.374-1.157-.548-3.292-1.62-5.01-2.855-4.902-3.03.122-.2 2.432.914 6.555 2.433.408.158.94.07 1.29.465.22.088.462.13.703.19.243.056.48.133.691.293.607-.159.987.309 1.496.498.517.16 1.005.452 1.595.506.612-.022 1.073.452 1.693.498.505.4 1.123.505 1.785.492.274.19.582.27.903.325.323.049.655.07.972.158.55.481 1.26.447 1.96.468.696.037 1.333.362 2.041.444.68.208 1.416.204 2.12.405.746.004 1.488.054 2.194.37.381.012.753.07 1.13.142.372.07.751.136 1.132.191.783-.031 1.535.242 2.326.29.79.012 1.545.512 2.384.234.805.027 1.613.171 2.44.165.408.047.817.112 1.233.125.415.018.83.018 1.252-.017.824.38 1.677.208 2.525.046.85-.11 1.69-.062 2.528-.015a36.188 36.188 0 0 1 2.487-.108c.405-.077.817-.04 1.225-.048.41-.002.816-.01 1.211-.115.395-.111.797-.106 1.2-.1.401.004.804.023 1.185-.11.771-.206 1.534-.363 2.324-.286.382-.053.776-.006 1.158-.034.382-.022.758-.082 1.101-.297.73-.2 1.377-.725 2.195-.36.686-.269 1.466-.073 2.112-.432.774.199 1.381-.273 2.042-.434.676-.108 1.36-.164 1.951-.488.295-.172.615-.233.939-.28.321-.048.646-.072.936-.204.537-.39 1.273-.117 1.774-.525.591-.137 1.124-.393 1.694-.496.372-.655 1.06-.388 1.585-.535.535-.124.879-.678 1.493-.508.334-.528.922-.383 1.395-.486.479-.087.792-.512 1.28-.491.296-.413.85-.204 1.181-.445.444 0 .726-.3 1.08-.4.306-.203.62-.34.954-.392.298-.123.58-.237.841-.341 1.573-.627 2.47-.913 2.536-.792Zm0-15.829c.064.121-.705.645-2.184 1.497-.247.141-.512.293-.796.453-.277.174-.57.367-.912.503-.413-.02-.55.604-1.044.508-.407.087-.768.322-1.153.554-.383.233-.88.25-1.258.592-.302.53-1.064-.005-1.377.59-.45.271-.961.432-1.485.606-.612-.064-1.046.393-1.582.63-.668-.13-1.185.185-1.7.589-.728-.238-1.298.015-1.788.614-.301.11-.632.148-.953.22-.323.07-.643.16-.94.343-.641.203-1.284.463-1.98.568-.6.468-1.312.593-2.075.505-.636.468-1.388.511-2.156.498-.769-.047-1.433.537-2.241.417-.38.056-.759.142-1.143.222-.38.085-.772.13-1.168.162-.805-.029-1.613-.073-2.381.328-.397.1-.8.169-1.207.223a5.17 5.17 0 0 1-1.24.02c-.397.205-.81.289-1.23.308-.419.026-.846-.055-1.272-.12-.842.095-1.702-.107-2.552.123-.86-.047-1.724.162-2.598.02-.872-.084-1.73-.232-2.594-.051-.435.094-.86.058-1.286.005-.424-.05-.842-.148-1.266-.13-.819-.381-1.684 0-2.5-.19-.828-.055-1.619-.354-2.444-.267-.814-.025-1.615-.093-2.379-.333-.427.188-.816.111-1.188-.031-.373-.145-.735-.339-1.123-.35-.72-.34-1.516-.216-2.237-.429-.753-.059-1.405-.516-2.157-.469-.696-.205-1.438-.172-2.075-.516-.743.084-1.285-.545-1.983-.544l-.965-.254a14 14 0 0 1-.928-.311c-.504-.554-1.205-.41-1.797-.58-.572-.226-1.228-.163-1.7-.59-.54-.219-1.019-.565-1.592-.6-.547-.123-.818-.898-1.49-.596-.258-.047-.461-.229-.669-.379-.21-.154-.42-.28-.71-.208-.571.113-.867-.383-1.27-.57-.403-.19-.79-.373-1.157-.55-3.292-1.62-5.01-2.854-4.902-3.03.122-.199 2.432.916 6.555 2.435.408.158.94.068 1.29.464.22.089.462.13.703.19.243.057.48.133.691.293.607-.158.988.308 1.496.498.517.162 1.005.452 1.595.507.612-.024 1.073.45 1.693.496.505.403 1.123.506 1.785.494.274.19.584.27.903.325.323.049.655.07.972.157.55.48 1.26.448 1.96.468.696.038 1.333.363 2.041.445.679.207 1.416.203 2.12.404.746.004 1.488.055 2.195.37.38.011.752.07 1.128.142.373.07.752.136 1.133.19.783-.03 1.535.242 2.326.29.79.014 1.545.513 2.384.235.805.027 1.613.172 2.44.164.408.046.817.113 1.233.127.415.018.83.018 1.252-.018.824.38 1.677.206 2.525.045.85-.11 1.69-.06 2.528-.014a34.666 34.666 0 0 1 2.487-.107c.405-.078.817-.04 1.225-.05.41-.001.816-.007 1.211-.115.395-.11.797-.104 1.2-.099.401.004.804.024 1.185-.111.771-.204 1.534-.36 2.324-.285.382-.053.776-.008 1.158-.032.382-.024.758-.084 1.101-.3.73-.198 1.377-.723 2.195-.359.686-.268 1.466-.073 2.112-.431.774.197 1.381-.273 2.042-.434.676-.11 1.36-.166 1.951-.49.295-.17.615-.232.939-.278.32-.05.646-.073.936-.205.537-.39 1.273-.118 1.774-.525.591-.139 1.124-.392 1.694-.495.372-.655 1.06-.39 1.585-.537.535-.123.879-.676 1.493-.506.334-.529.922-.383 1.395-.486.479-.087.792-.513 1.28-.491.296-.413.85-.205 1.181-.446.444 0 .726-.299 1.08-.4a2.37 2.37 0 0 1 .954-.391c.298-.123.58-.235.841-.343 1.573-.627 2.47-.914 2.536-.791Zm0-15.822c.064.122-.705.643-2.184 1.496-.247.143-.512.292-.796.455-.277.172-.57.364-.912.502-.413-.02-.55.605-1.044.51-.407.084-.768.32-1.153.55-.383.234-.88.253-1.258.595-.302.529-1.064-.007-1.377.59-.45.27-.961.431-1.485.604-.612-.064-1.046.393-1.582.631-.668-.13-1.185.185-1.7.59-.728-.24-1.298.014-1.788.613-.301.11-.632.148-.953.218-.323.07-.643.162-.94.345-.641.203-1.284.463-1.98.567-.6.47-1.312.595-2.075.506-.637.469-1.388.51-2.156.499-.769-.048-1.433.537-2.241.415-.38.058-.759.141-1.143.224-.38.085-.772.13-1.168.16-.805-.028-1.613-.073-2.381.327-.397.1-.8.17-1.207.225a5.17 5.17 0 0 1-1.24.02 2.89 2.89 0 0 1-1.23.308c-.419.026-.846-.055-1.272-.122-.842.096-1.702-.106-2.552.124-.86-.046-1.724.163-2.598.021-.872-.084-1.73-.231-2.594-.053-.435.096-.86.06-1.286.007-.424-.05-.842-.149-1.266-.13-.819-.382-1.684 0-2.5-.19-.828-.055-1.619-.354-2.444-.268-.814-.026-1.615-.09-2.379-.333-.427.19-.816.111-1.188-.032-.373-.144-.735-.337-1.123-.348-.72-.34-1.516-.217-2.237-.43-.753-.06-1.405-.514-2.157-.469-.696-.203-1.438-.17-2.075-.514-.743.082-1.285-.546-1.983-.545l-.965-.256a11.506 11.506 0 0 1-.928-.31c-.504-.552-1.205-.41-1.797-.578-.572-.23-1.228-.164-1.7-.59-.54-.22-1.019-.567-1.592-.602-.547-.121-.818-.899-1.49-.597-.258-.046-.461-.227-.669-.376-.21-.154-.42-.28-.71-.208-.571.112-.867-.383-1.27-.57-.403-.193-.79-.374-1.157-.55-3.292-1.62-5.01-2.855-4.902-3.03.122-.2 2.432.914 6.555 2.433.408.157.94.068 1.29.465.22.09.462.131.703.19.243.057.48.132.691.294.607-.16.988.308 1.496.498.517.16 1.005.452 1.595.504.612-.021 1.073.452 1.693.499.505.401 1.123.504 1.785.492.274.191.584.27.903.326.323.048.655.069.972.158.55.478 1.26.447 1.96.467.696.037 1.333.362 2.041.445.68.207 1.416.202 2.12.405.746.002 1.488.053 2.195.37.38.01.752.07 1.128.142.373.069.752.134 1.133.19.783-.03 1.535.24 2.326.29.79.012 1.545.513 2.384.233.805.026 1.613.171 2.44.165.408.046.817.113 1.233.126.415.019.83.019 1.252-.018.824.38 1.677.208 2.525.047.85-.11 1.69-.063 2.528-.014a33.938 33.938 0 0 1 2.487-.11c.405-.076.817-.04 1.225-.047.41-.001.816-.01 1.211-.116.395-.11.797-.105 1.2-.098.401.002.804.022 1.185-.111.771-.207 1.534-.362 2.324-.284.382-.055.776-.009 1.158-.035.382-.024.758-.084 1.101-.3.73-.198 1.377-.724 2.195-.357.686-.27 1.466-.073 2.112-.434.774.199 1.381-.27 2.042-.431.676-.11 1.36-.167 1.951-.492.295-.17.615-.23.939-.276.32-.05.646-.075.936-.205.537-.392 1.273-.118 1.774-.525.591-.139 1.124-.394 1.694-.497.372-.653 1.06-.39 1.585-.535.535-.125.879-.677 1.493-.507.334-.528.922-.383 1.395-.486.479-.087.792-.512 1.28-.492.296-.412.85-.203 1.181-.446.444.002.726-.3 1.08-.398.306-.205.62-.34.954-.393.298-.123.58-.235.841-.34 1.573-.63 2.47-.917 2.536-.792ZM42.524.993c0 .15-2.003.24-5.64.52-.605.05-1.257.105-1.952.168-.695.078-1.43.173-2.215.22-.798-.118-1.57.477-2.461.287-.872.009-1.767.192-2.696.375-.93.184-1.933.151-2.917.483-.943.513-2.13-.035-3.118.618-1.054.31-2.162.53-3.296.791-1.198.023-2.285.603-3.437 1.013-1.27.059-2.43.613-3.521 1.308-1.359.068-2.562.71-3.488 1.725-.566.332-1.144.655-1.69 1.03-.546.37-1.056.806-1.438 1.334a6.955 6.955 0 0 0-1.111 1.52 5.366 5.366 0 0 0-.575 1.665c.051.294.115.572.192.844.083.271.178.537.283.808.216.54.497 1.102.837 1.699.57.406 1.107.833 1.666 1.281.557.446 1.128.915 1.736 1.367.605.46 1.326.756 2.056 1.032.729.277 1.468.536 2.16.945 1.474.602 3.049 1.016 4.618 1.511 1.548.572 3.156 1.11 4.882 1.159 1.68.262 3.385.447 5.077.865 1.768-.09 3.481.26 5.232.605 1.768.105 3.54.47 5.355.359 1.804.134 3.625-.032 5.458.119 1.832.1 3.66.163 5.455-.12 1.792-.298 3.597-.112 5.357-.357 1.802.155 3.5-.47 5.231-.605 1.713-.278 3.45-.355 5.077-.865 1.651-.397 3.258-.845 4.882-1.157.724-.463 1.508-.667 2.301-.844.793-.178 1.597-.328 2.319-.667 1.565-.39 2.89-1.264 4.216-1.977.625-.421 1.274-.78 1.878-1.192.6-.409 1.152-.88 1.523-1.458.456-.5.783-1.075.984-1.642.099-.286.172-.568.227-.852a9.94 9.94 0 0 0 .104-.857c-.179-.556-.311-1.103-.562-1.668-.244-.56-.601-1.117-1.122-1.517-.91-.921-2.02-1.663-3.128-2.363-.471-.494-1.055-.815-1.659-1.065-.605-.25-1.232-.432-1.828-.661-1.17-.527-2.441-.691-3.521-1.309-1.158-.396-2.27-.88-3.439-1.013-1.135-.226-2.11-1.076-3.293-.791-1.088-.127-2.047-.792-3.118-.618-1.061.149-1.977-.349-2.916-.483-.937-.14-1.837-.268-2.697-.375-3.875-.489-6.948-.703-9.045-.855-2.098-.147-3.223-.234-3.223-.34 0-.11 1.39-.242 3.981-.267a94.82 94.82 0 0 1 11.152.6c.952.108 1.987-.01 2.975.389 1.023.168 2.125.156 3.19.53 1.17-.13 2.238.409 3.385.713 1.162.275 2.309.712 3.558.953 1.275.188 2.398.905 3.688 1.279 1.152.708 2.402 1.229 3.74 1.76.562.446 1.171.82 1.788 1.222.618.4 1.242.835 1.784 1.389.424.664.892 1.278 1.323 1.967.428.684.81 1.466.96 2.347.07.44.072.892.008 1.338a5.548 5.548 0 0 1-.365 1.286c-.346.82-.848 1.526-1.367 2.196-1.157 1.232-2.423 2.326-3.885 3.123-1.35.973-2.864 1.73-4.498 2.168-1.522.714-3.168 1.157-4.812 1.62-1.612.59-3.33.85-5.032 1.231-1.7.418-3.502.304-5.204.915-1.754.301-3.55.405-5.346.638-1.808.12-3.631.196-5.464.378-1.854-.274-3.692-.016-5.563.127-1.868.1-3.725.01-5.561-.127a68.54 68.54 0 0 1-5.466-.378c-1.816-.062-3.566-.527-5.346-.64-1.787-.102-3.467-.712-5.204-.914-1.73-.248-3.435-.596-5.032-1.23-1.652-.466-3.143-1.294-4.811-1.62-.793-.274-1.613-.492-2.393-.808-.778-.314-1.52-.727-2.106-1.361-.749-.366-1.413-.876-2.038-1.423-.626-.55-1.207-1.132-1.848-1.701-.406-.763-.864-1.46-1.222-2.251a6.336 6.336 0 0 1-.42-1.244 4.53 4.53 0 0 1-.08-1.327c.122-.88.466-1.69.887-2.387.423-.705.915-1.32 1.399-1.924.485-.614 1.09-1.086 1.712-1.486.622-.405 1.261-.746 1.862-1.125.563-.445 1.223-.708 1.874-.948.652-.24 1.294-.45 1.868-.813 1.254-.465 2.458-.965 3.688-1.277 1.058-.852 2.398-.706 3.556-.953 1.169-.218 2.212-.86 3.386-.713 1.02-.587 2.151-.464 3.191-.53 1.04-.06 1.992-.472 2.973-.388.918-.383 1.883-.09 2.744-.268.89.08 1.704-.16 2.496-.178a9.758 9.758 0 0 1 2.243-.104c.703-.024 1.363-.04 1.973-.046 3.675-.04 5.679.136 5.679.262Z"/><path fill="#D7FE03" d="m45.148 23.977-.427-1.896c-1.956-.029-3.572-.16-4.86-.409a10.373 10.373 0 0 1-3.464-1.329c-1.032-.645-1.722-1.448-2.094-2.426l3.791-.554c.535 1.014 1.233 1.735 2.103 2.176 1.243.627 2.63.942 4.17.947l-1.34-5.954a38.07 38.07 0 0 1-5.095-.755c-1.307-.277-2.359-.697-3.166-1.262-.8-.568-1.278-1.228-1.45-1.985-.3-1.35.424-2.488 2.184-3.42 1.18-.621 3.037-1.057 5.577-1.306l-.21-.908 2.294-.11.2.907c2.268-.005 4.117.234 5.55.715 1.842.613 3.065 1.51 3.682 2.7l-3.9.489c-.398-.737-1.006-1.296-1.821-1.66-.808-.366-1.861-.583-3.148-.65l1.224 5.465c1.995.145 3.327.28 3.99.383 1.26.198 2.311.469 3.147.803.852.336 1.532.751 2.057 1.244.52.491.845 1.038.98 1.634.291 1.31-.307 2.444-1.822 3.407-1.504.96-3.6 1.533-6.293 1.729l.434 1.92-2.293.105Zm-3.725-16.6c-1.47.182-2.595.532-3.347 1.057-.752.519-1.062 1.105-.916 1.759.144.648.635 1.171 1.46 1.572.835.4 2.156.668 3.972.81l-1.17-5.198Zm5.23 12.997c1.487-.16 2.657-.541 3.519-1.137.85-.596 1.196-1.296 1.015-2.1-.154-.69-.627-1.222-1.414-1.609-.797-.387-2.257-.657-4.39-.822l1.27 5.668Z"/></svg>