<svg xmlns="http://www.w3.org/2000/svg" width="172" height="171" fill="none"><path fill="#242424" d="M151.425 45.359c4.019-2.459 5.316-7.74 2.468-11.493A85.289 85.289 0 0 0 98.037.99c-4.663-.668-8.651 3.03-8.85 7.736-.2 4.707 3.472 8.63 8.117 9.414a68.238 68.238 0 0 1 41.951 24.692c2.941 3.68 8.152 4.986 12.17 2.527Z"/><path fill="#8478F0" d="M85.943 8.658c0-4.711-3.828-8.574-8.515-8.104A85.298 85.298 0 0 0 5.945 55.83c-1.634 4.419 1.141 9.096 5.7 10.281 4.56 1.185 9.167-1.578 10.912-5.954A68.238 68.238 0 0 1 77.436 17.72c4.674-.587 8.507-4.351 8.507-9.062Z"/><path fill="#D7FE03" fill-opacity=".35" d="M152.446 47.077c4.081-2.353 9.34-.966 11.274 3.329a85.295 85.295 0 0 1 1.258 67.098c-1.772 4.365-6.975 5.948-11.141 3.749-4.167-2.198-5.706-7.345-4.044-11.753a68.257 68.257 0 0 0-.947-50.526c-1.826-4.343-.481-9.544 3.6-11.897Z"/><path fill="#D7FE03" d="M152.466 123.738c4.082 2.351 5.519 7.597 2.772 11.424a85.295 85.295 0 0 1-144.64-9.756 85.298 85.298 0 0 1-9.312-50.407c.576-4.675 5.189-7.557 9.784-6.517 4.594 1.04 7.42 5.61 6.96 10.298a68.24 68.24 0 0 0 90.532 71.024 68.233 68.233 0 0 0 31.805-23.216c2.842-3.757 8.017-5.201 12.099-2.85Z"/></svg>