<svg xmlns="http://www.w3.org/2000/svg" width="350" height="460" fill="none"><path fill="#000" d="M0 0h350v460H0z"/><path fill="#fff" d="m43.45 314.938 1.632-8.4h1.212l2.046 5.382 2.046-5.382h1.212l1.632 8.4h-1.494l-1.008-5.196-1.89 5.004h-1.002l-1.89-5.004-1.002 5.196H43.45Zm51.194-8.4v1.464h-2.568v6.936h-1.464v-6.936h-2.568v-1.464h6.6Zm36.584 8.4-2.148-8.4h1.512l1.464 5.742 1.464-5.742h1.338l1.464 5.742 1.458-5.742h1.512l-2.136 8.4h-1.662l-1.308-5.088-1.29 5.088h-1.668Zm50.548-8.4v1.464h-2.568v6.936h-1.464v-6.936h-2.568v-1.464h6.6Zm37.84 8.4v-8.4h4.962v1.464h-3.498v1.704h2.922v1.464h-2.922v3.768h-1.464Zm46.59.156c-.464 0-.91-.072-1.338-.216a3.47 3.47 0 0 1-1.116-.63 2.357 2.357 0 0 1-.69-.99l1.374-.504c.056.16.17.306.342.438.172.132.382.238.63.318.248.08.514.12.798.12.292 0 .564-.044.816-.132.256-.092.462-.218.618-.378a.802.802 0 0 0 .234-.57c0-.22-.082-.4-.246-.54a1.786 1.786 0 0 0-.63-.342 5.2 5.2 0 0 0-.792-.192 7.139 7.139 0 0 1-1.602-.426c-.472-.192-.846-.458-1.122-.798-.272-.34-.408-.78-.408-1.32 0-.508.146-.952.438-1.332.292-.38.676-.676 1.152-.888.476-.212.99-.318 1.542-.318.46 0 .904.072 1.332.216.428.144.802.354 1.122.63.324.276.556.608.696.996l-1.38.498a.964.964 0 0 0-.342-.438 1.975 1.975 0 0 0-.63-.312 2.585 2.585 0 0 0-.798-.12 2.198 2.198 0 0 0-.81.138 1.667 1.667 0 0 0-.618.378.759.759 0 0 0-.24.552c0 .268.074.47.222.606.152.136.354.236.606.3.252.06.532.116.84.168.56.088 1.078.236 1.554.444.476.208.858.486 1.146.834.288.344.432.766.432 1.266 0 .508-.144.954-.432 1.338a2.87 2.87 0 0 1-1.146.888 3.776 3.776 0 0 1-1.554.318Zm43.566 0c-.464 0-.91-.072-1.338-.216a3.47 3.47 0 0 1-1.116-.63 2.357 2.357 0 0 1-.69-.99l1.374-.504c.056.16.17.306.342.438.172.132.382.238.63.318.248.08.514.12.798.12.292 0 .564-.044.816-.132.256-.092.462-.218.618-.378a.802.802 0 0 0 .234-.57c0-.22-.082-.4-.246-.54a1.786 1.786 0 0 0-.63-.342 5.2 5.2 0 0 0-.792-.192 7.139 7.139 0 0 1-1.602-.426c-.472-.192-.846-.458-1.122-.798-.272-.34-.408-.78-.408-1.32 0-.508.146-.952.438-1.332.292-.38.676-.676 1.152-.888.476-.212.99-.318 1.542-.318.46 0 .904.072 1.332.216.428.144.802.354 1.122.63.324.276.556.608.696.996l-1.38.498a.964.964 0 0 0-.342-.438 1.975 1.975 0 0 0-.63-.312 2.585 2.585 0 0 0-.798-.12 2.198 2.198 0 0 0-.81.138 1.667 1.667 0 0 0-.618.378.759.759 0 0 0-.24.552c0 .268.074.47.222.606.152.136.354.236.606.3.252.06.532.116.84.168.56.088 1.078.236 1.554.444.476.208.858.486 1.146.834.288.344.432.766.432 1.266 0 .508-.144.954-.432 1.338a2.87 2.87 0 0 1-1.146.888 3.776 3.776 0 0 1-1.554.318Z"/><path stroke="#B1B1B1" stroke-width=".5" d="M21.234 355.1h307.532" opacity=".5"/><rect width="20.29" height="92.266" x="39.56" y="197.944" fill="#8478F0" rx="10"/><rect width="20.29" height="158.055" x="83.126" y="132.155" fill="#8478F0" rx="10"/><rect width="20.29" height="56.038" x="126.691" y="234.172" fill="#8478F0" rx="10"/><rect width="20.29" height="189.854" x="170.258" y="100.357" fill="#8478F0" rx="10"/><path fill="#fff" d="m180.402 107.085 1.403 4.605h4.538l-3.671 2.846 1.402 4.606-3.672-2.847-3.671 2.847 1.402-4.606-3.672-2.846H179l1.402-4.605Z"/><rect width="20.29" height="137.762" x="213.823" y="152.449" fill="#D7FE03" rx="10"/><rect width="20.29" height="137.762" x="257.389" y="152.449" fill="#8478F0" rx="10"/><rect width="20.29" height="137.762" x="300.955" y="152.449" fill="#8478F0" rx="10"/><path fill="#fff" d="m118.073 44.774-2.506-9.8h1.764l1.708 6.7 1.708-6.7h1.561l1.708 6.7 1.701-6.7h1.764l-2.492 9.8h-1.939l-1.526-5.936-1.505 5.936h-1.946Zm12.701.182a3.27 3.27 0 0 1-1.764-.497 3.7 3.7 0 0 1-1.267-1.337 3.737 3.737 0 0 1-.469-1.855c0-.508.091-.984.273-1.428.182-.448.431-.84.749-1.176a3.53 3.53 0 0 1 1.12-.798 3.265 3.265 0 0 1 1.358-.287c.546 0 1.045.117 1.498.35.457.229.844.544 1.162.945a3.899 3.899 0 0 1 .791 2.982h-5.117c.065.262.172.497.322.707a1.7 1.7 0 0 0 .567.497c.228.122.487.185.777.19a1.51 1.51 0 0 0 .812-.21c.247-.15.452-.35.616-.603l1.743.406a3.75 3.75 0 0 1-1.274 1.526 3.25 3.25 0 0 1-1.897.588Zm-1.722-4.382h3.444a1.785 1.785 0 0 0-.329-.756 1.859 1.859 0 0 0-.609-.546 1.585 1.585 0 0 0-.784-.203c-.28 0-.539.068-.777.203-.238.13-.441.31-.609.54a1.96 1.96 0 0 0-.336.762Zm9.419 4.382a3.27 3.27 0 0 1-1.764-.497 3.7 3.7 0 0 1-1.267-1.337 3.737 3.737 0 0 1-.469-1.855c0-.508.091-.984.273-1.428.182-.448.431-.84.749-1.176a3.53 3.53 0 0 1 1.12-.798 3.265 3.265 0 0 1 1.358-.287c.546 0 1.045.117 1.498.35.457.229.844.544 1.162.945a3.899 3.899 0 0 1 .791 2.982h-5.117c.065.262.172.497.322.707a1.7 1.7 0 0 0 .567.497c.228.122.487.185.777.19a1.51 1.51 0 0 0 .812-.21c.247-.15.452-.35.616-.603l1.743.406a3.75 3.75 0 0 1-1.274 1.526 3.25 3.25 0 0 1-1.897.588Zm-1.722-4.382h3.444a1.785 1.785 0 0 0-.329-.756 1.859 1.859 0 0 0-.609-.546 1.585 1.585 0 0 0-.784-.203c-.28 0-.539.068-.777.203-.238.13-.441.31-.609.54a1.96 1.96 0 0 0-.336.762Zm12.453 4.2h-1.967l-1.596-2.75-.98 1.168v1.582h-1.708v-10.5h1.708v6.265l2.317-2.765h2.233l-2.401 2.863 2.394 4.137Zm1.242 0v-10.5h1.708v10.5h-1.708Zm7.714-7h1.813l-3.829 10.5h-1.813l1.267-3.5-2.52-7h1.869l1.505 4.662 1.708-4.662Zm11.123 7.182c-.663 0-1.286-.13-1.869-.392a4.91 4.91 0 0 1-1.54-1.099 5.162 5.162 0 0 1-1.421-3.591c0-.7.126-1.355.378-1.967a5.171 5.171 0 0 1 1.043-1.624c.443-.466.956-.83 1.54-1.092a4.45 4.45 0 0 1 1.869-.399c.667 0 1.292.133 1.876.4a4.84 4.84 0 0 1 1.54 1.091 5.1 5.1 0 0 1 1.036 1.624 5.11 5.11 0 0 1 .378 1.967c0 .7-.126 1.358-.378 1.974a5.119 5.119 0 0 1-1.036 1.617 4.933 4.933 0 0 1-1.54 1.1 4.538 4.538 0 0 1-1.876.391Zm0-1.708c.429 0 .833-.088 1.211-.266a3.18 3.18 0 0 0 .994-.728 3.39 3.39 0 0 0 .672-1.078c.163-.406.245-.84.245-1.302 0-.462-.082-.896-.245-1.302-.164-.41-.39-.77-.679-1.078a3.186 3.186 0 0 0-.994-.728 2.774 2.774 0 0 0-1.204-.266c-.43 0-.833.089-1.211.266a3.21 3.21 0 0 0-1.001.735 3.457 3.457 0 0 0-.672 1.071c-.159.406-.238.84-.238 1.302 0 .467.081.903.245 1.31.163.405.387.765.672 1.077.289.308.62.55.994.728.378.173.781.26 1.211.26Zm10.283 1.526h-2.205l-2.548-7.007h1.82l1.834 5.04 1.827-5.04h1.82l-2.548 7.007Zm6.389.182a3.27 3.27 0 0 1-1.764-.497 3.718 3.718 0 0 1-1.267-1.337 3.747 3.747 0 0 1-.469-1.855c0-.508.091-.984.273-1.428.182-.448.432-.84.749-1.176.322-.34.696-.606 1.12-.798a3.272 3.272 0 0 1 1.358-.287c.546 0 1.046.117 1.498.35.458.229.845.544 1.162.945.318.402.549.859.693 1.372.145.514.178 1.05.098 1.61h-5.117c.066.262.173.497.322.707.15.206.339.371.567.497.229.122.488.185.777.19.299.004.57-.066.812-.21.248-.15.453-.35.616-.603l1.743.406a3.733 3.733 0 0 1-1.274 1.526 3.248 3.248 0 0 1-1.897.588Zm-1.722-4.382h3.444a1.772 1.772 0 0 0-.329-.756 1.839 1.839 0 0 0-.609-.546 1.582 1.582 0 0 0-.784-.203c-.28 0-.539.068-.777.203-.238.13-.441.31-.609.54a1.989 1.989 0 0 0-.336.762Zm6.319 4.2-.007-7h1.708l.007.623c.238-.252.523-.45.854-.595.331-.15.688-.224 1.071-.224.257 0 .513.038.77.112l-.672 1.722a1.459 1.459 0 0 0-1.288.098 1.49 1.49 0 0 0-.539.54 1.456 1.456 0 0 0-.196.748v3.976h-1.708Zm9.713 0h-2.205l-2.548-7.007h1.82l1.834 5.04 1.827-5.04h1.82l-2.548 7.007Zm3.583-7h1.708v7h-1.708v-7Zm.868-.903a.892.892 0 0 1-.637-.245.842.842 0 0 1-.259-.63c0-.247.086-.455.259-.623a.87.87 0 0 1 .63-.252c.247 0 .455.084.623.252a.833.833 0 0 1 .259.623.855.855 0 0 1-.252.63.86.86 0 0 1-.623.245Zm5.438 8.085a3.27 3.27 0 0 1-1.764-.497 3.718 3.718 0 0 1-1.267-1.337 3.747 3.747 0 0 1-.469-1.855c0-.508.091-.984.273-1.428.182-.448.432-.84.749-1.176.322-.34.696-.606 1.12-.798a3.272 3.272 0 0 1 1.358-.287c.546 0 1.046.117 1.498.35.458.229.845.544 1.162.945.318.402.549.859.693 1.372.145.514.178 1.05.098 1.61h-5.117c.066.262.173.497.322.707.15.206.339.371.567.497.229.122.488.185.777.19.299.004.57-.066.812-.21.248-.15.453-.35.616-.603l1.743.406a3.733 3.733 0 0 1-1.274 1.526 3.248 3.248 0 0 1-1.897.588Zm-1.722-4.382h3.444a1.772 1.772 0 0 0-.329-.756 1.839 1.839 0 0 0-.609-.546 1.582 1.582 0 0 0-.784-.203c-.28 0-.539.068-.777.203-.238.13-.441.31-.609.54a1.989 1.989 0 0 0-.336.762Zm9.596 4.2h-1.694l-2.338-7h1.673l1.519 4.53 1.512-4.53h1.687l1.512 4.53 1.519-4.53h1.673l-2.338 7h-1.694l-1.519-4.55-1.512 4.55Zm-76.081 15.084h.87l2.55 7h-.745l-.545-1.5h-3.385l-.545 1.5h-.745l2.545-7Zm-1 4.8h2.87l-1.435-3.94-1.435 3.94Zm5.976 4.7h-.7v-7.5h.7v.935c.173-.316.41-.573.71-.77.3-.197.657-.295 1.07-.295a2.602 2.602 0 0 1 1.86.775c.24.24.428.519.565.835.137.317.205.657.205 1.02 0 .364-.068.705-.205 1.025a2.71 2.71 0 0 1-.565.845c-.24.24-.52.428-.84.565a2.55 2.55 0 0 1-1.02.205c-.413 0-.77-.098-1.07-.295a2.127 2.127 0 0 1-.71-.77v3.425Zm1.775-6.95c-.35 0-.655.088-.915.265a1.716 1.716 0 0 0-.595.7c-.14.294-.21.622-.21.985 0 .357.068.683.205.98.14.297.338.534.595.71.26.177.567.265.92.265.347 0 .665-.087.955-.26.293-.173.528-.406.705-.7.177-.296.265-.628.265-.995 0-.357-.087-.682-.26-.975a1.994 1.994 0 0 0-.695-.71 1.827 1.827 0 0 0-.97-.265Zm3.482 4.45v-5h.7v.69c.177-.253.407-.455.69-.605.283-.15.592-.225.925-.225.193 0 .38.025.56.075l-.285.695a1.443 1.443 0 0 0-1.155.135 1.522 1.522 0 0 0-.535.535c-.133.224-.2.472-.2.745v2.955h-.7Zm6.527 0v-6.3h-.75l.2-.7h1.25v7h-.7Zm4.481.13c-.42 0-.795-.093-1.125-.28a2.634 2.634 0 0 1-.845-.785 3.82 3.82 0 0 1-.535-1.155 5.34 5.34 0 0 1-.18-1.41c0-.5.06-.97.18-1.41.124-.44.302-.825.535-1.155a2.58 2.58 0 0 1 .845-.78c.33-.19.705-.285 1.125-.285.417 0 .79.095 1.12.285.33.187.61.447.84.78.23.33.405.715.525 1.155.124.44.185.91.185 1.41 0 .5-.061.97-.185 1.41a3.78 3.78 0 0 1-.525 1.155c-.23.334-.51.595-.84.785a2.23 2.23 0 0 1-1.12.28Zm0-.7c.44 0 .809-.135 1.105-.405.3-.27.525-.626.675-1.07.15-.447.225-.931.225-1.455 0-.553-.078-1.05-.235-1.49-.153-.443-.38-.793-.68-1.05-.296-.26-.66-.39-1.09-.39-.34 0-.636.079-.89.235a1.92 1.92 0 0 0-.63.645 3.242 3.242 0 0 0-.375.94c-.083.35-.125.72-.125 1.11 0 .527.077 1.014.23 1.46.154.444.38.8.68 1.07.3.267.67.4 1.11.4Zm5.975-2.78h3.2v.7h-3.2v-.7Zm9.151-3.65h.87l2.55 7h-.745l-.545-1.5h-3.385l-.545 1.5h-.745l2.545-7Zm-1 4.8h2.87l-1.435-3.94-1.435 3.94Zm5.976 4.7h-.7v-7.5h.7v.935c.174-.316.41-.573.71-.77.3-.197.657-.295 1.07-.295a2.602 2.602 0 0 1 1.86.775c.24.24.429.519.565.835.137.317.205.657.205 1.02 0 .364-.068.705-.205 1.025-.136.32-.325.602-.565.845-.24.24-.52.428-.84.565a2.543 2.543 0 0 1-1.02.205c-.413 0-.77-.098-1.07-.295a2.135 2.135 0 0 1-.71-.77v3.425Zm1.775-6.95c-.35 0-.655.088-.915.265a1.724 1.724 0 0 0-.595.7c-.14.294-.21.622-.21.985 0 .357.069.683.205.98.14.297.339.534.595.71.26.177.567.265.92.265.347 0 .665-.087.955-.26.294-.173.529-.406.705-.7.177-.296.265-.628.265-.995 0-.357-.086-.682-.26-.975a1.994 1.994 0 0 0-.695-.71 1.827 1.827 0 0 0-.97-.265Zm3.482 4.45v-5h.7v.69c.177-.253.407-.455.69-.605a1.95 1.95 0 0 1 .925-.225c.194 0 .38.025.56.075l-.285.695a1.443 1.443 0 0 0-1.155.135 1.53 1.53 0 0 0-.535.535c-.133.224-.2.472-.2.745v2.955h-.7Zm6.527 0v-6.3h-.75l.2-.7h1.25v7h-.7Zm2.201 0 3.63-6.3h-4.135v-.7h4.945v.7l-3.64 6.3h-.8Zm-60.149 323.175h1.728l-2.886 4.614v3.786h-1.464v-3.786l-2.886-4.614h1.728l1.89 3.018 1.89-3.018Zm4.171 8.556a2.803 2.803 0 0 1-1.512-.426 3.194 3.194 0 0 1-1.086-1.14 3.206 3.206 0 0 1-.402-1.59c0-.44.078-.85.234-1.23.156-.384.37-.72.642-1.008.276-.292.596-.52.96-.684a2.8 2.8 0 0 1 1.164-.246c.552 0 1.054.142 1.506.426.456.284.818.666 1.086 1.146a3.18 3.18 0 0 1 .408 1.596c0 .436-.078.844-.234 1.224a3.25 3.25 0 0 1-.648 1.008c-.272.288-.59.514-.954.678-.36.164-.748.246-1.164.246Zm0-1.464c.292 0 .554-.078.786-.234.232-.156.414-.362.546-.618.136-.256.204-.536.204-.84 0-.312-.07-.596-.21-.852a1.604 1.604 0 0 0-.558-.618 1.347 1.347 0 0 0-.768-.234c-.288 0-.548.078-.78.234a1.67 1.67 0 0 0-.552.624c-.136.26-.204.542-.204.846 0 .316.07.602.21.858.14.256.326.46.558.612.236.148.492.222.768.222Zm3.566-.912v-3.78h1.464v3.396c0 .236.058.452.174.648.116.192.27.346.462.462.196.112.41.168.642.168.24 0 .456-.056.648-.168.192-.116.346-.27.462-.462.116-.196.174-.412.174-.648v-3.396h1.464l.006 6h-1.464l-.006-.546a2.254 2.254 0 0 1-1.65.702 2.31 2.31 0 0 1-1.194-.318 2.499 2.499 0 0 1-.864-.858 2.32 2.32 0 0 1-.318-1.2Zm14.103-3.78h1.464v6h-1.464l-.066-.744a1.966 1.966 0 0 1-.654.654 1.792 1.792 0 0 1-.954.246c-.444 0-.86-.084-1.248-.252-.388-.168-.73-.4-1.026-.696a3.333 3.333 0 0 1-.69-1.026 3.172 3.172 0 0 1-.246-1.248c0-.428.078-.83.234-1.206a3.124 3.124 0 0 1 1.65-1.656c.372-.16.772-.24 1.2-.24.396 0 .75.088 1.062.264.316.176.584.4.804.672l-.066-.768Zm-1.71 4.746c.312 0 .588-.078.828-.234.24-.156.428-.366.564-.63a1.92 1.92 0 0 0 .204-.882c0-.324-.068-.618-.204-.882a1.596 1.596 0 0 0-.57-.636 1.475 1.475 0 0 0-.822-.234c-.308 0-.59.08-.846.24a1.76 1.76 0 0 0-.606.63 1.772 1.772 0 0 0-.222.882 1.76 1.76 0 0 0 .834 1.512c.256.156.536.234.84.234Zm4.376 1.254-.006-6h1.464l.006.534c.204-.216.448-.386.732-.51.284-.128.59-.192.918-.192.22 0 .44.032.66.096l-.576 1.476a1.249 1.249 0 0 0-1.104.084 1.25 1.25 0 0 0-.63 1.104v3.408h-1.464Zm6.806.156a2.803 2.803 0 0 1-1.512-.426 3.18 3.18 0 0 1-1.488-2.736c0-.436.078-.844.234-1.224.156-.384.37-.72.642-1.008.276-.292.596-.52.96-.684a2.8 2.8 0 0 1 1.164-.246c.468 0 .896.1 1.284.3.392.196.724.466.996.81a3.332 3.332 0 0 1 .678 2.556h-4.386c.056.224.148.426.276.606.128.176.29.318.486.426.196.104.418.158.666.162.256.004.488-.056.696-.18.212-.128.388-.3.528-.516l1.494.348a3.207 3.207 0 0 1-1.092 1.308 2.785 2.785 0 0 1-1.626.504Zm-1.476-3.756h2.952a1.523 1.523 0 0 0-.282-.648 1.58 1.58 0 0 0-.522-.468 1.358 1.358 0 0 0-.672-.174c-.24 0-.462.058-.666.174a1.597 1.597 0 0 0-.522.462c-.14.192-.236.41-.288.654Zm12.97-5.4h1.464v9h-1.464v-.75a2.28 2.28 0 0 1-.726.654c-.292.168-.63.252-1.014.252-.436 0-.844-.082-1.224-.246a3.265 3.265 0 0 1-1.008-.678 3.265 3.265 0 0 1-.678-1.008 3.056 3.056 0 0 1-.246-1.224c0-.436.082-.844.246-1.224a3.214 3.214 0 0 1 1.686-1.686c.38-.164.788-.246 1.224-.246.384 0 .722.084 1.014.252.292.164.534.382.726.654v-3.75Zm-1.722 7.746c.312 0 .588-.078.828-.234.24-.156.428-.366.564-.63a1.92 1.92 0 0 0 .204-.882c0-.324-.068-.618-.204-.882a1.596 1.596 0 0 0-.57-.636 1.475 1.475 0 0 0-.822-.234c-.308 0-.59.08-.846.24a1.76 1.76 0 0 0-.606.63 1.772 1.772 0 0 0-.222.882 1.76 1.76 0 0 0 .834 1.512c.256.156.536.234.84.234Zm7.173 1.41a2.803 2.803 0 0 1-1.512-.426 3.194 3.194 0 0 1-1.086-1.14 3.206 3.206 0 0 1-.402-1.59c0-.44.078-.85.234-1.23.156-.384.37-.72.642-1.008.276-.292.596-.52.96-.684a2.8 2.8 0 0 1 1.164-.246c.552 0 1.054.142 1.506.426.456.284.818.666 1.086 1.146a3.18 3.18 0 0 1 .408 1.596c0 .436-.078.844-.234 1.224a3.25 3.25 0 0 1-.648 1.008c-.272.288-.59.514-.954.678-.36.164-.748.246-1.164.246Zm0-1.464c.292 0 .554-.078.786-.234.232-.156.414-.362.546-.618.136-.256.204-.536.204-.84 0-.312-.07-.596-.21-.852a1.604 1.604 0 0 0-.558-.618 1.347 1.347 0 0 0-.768-.234c-.288 0-.548.078-.78.234a1.67 1.67 0 0 0-.552.624c-.136.26-.204.542-.204.846 0 .316.07.602.21.858.14.256.326.46.558.612.236.148.492.222.768.222Zm3.806-4.692h1.464v6h-1.464v-6Zm.744-.774a.764.764 0 0 1-.546-.21.722.722 0 0 1-.222-.54c0-.212.074-.39.222-.534a.746.746 0 0 1 .54-.216c.212 0 .39.072.534.216a.715.715 0 0 1 .222.534.733.733 0 0 1-.216.54.736.736 0 0 1-.534.21Zm7.611 2.982v3.792h-1.464v-3.408a1.265 1.265 0 0 0-.642-1.104 1.217 1.217 0 0 0-.642-.174 1.279 1.279 0 0 0-1.11.636 1.25 1.25 0 0 0-.168.642v3.408h-1.464l-.006-6h1.464l.006.534c.204-.216.448-.386.732-.51.284-.128.59-.192.918-.192.436 0 .834.108 1.194.324.36.212.646.498.858.858.216.356.324.754.324 1.194Zm5.53-2.208h1.464v6.114c0 .432-.088.824-.264 1.176a2.76 2.76 0 0 1-.72.912 3.266 3.266 0 0 1-1.044.588c-.392.14-.804.21-1.236.21a2.96 2.96 0 0 1-1.212-.258 3.39 3.39 0 0 1-1.032-.708 3.072 3.072 0 0 1-.678-1.014l1.338-.606c.08.22.2.412.36.576.164.168.352.298.564.39.212.096.432.144.66.144.232 0 .454-.032.666-.096.216-.064.41-.158.582-.282a1.29 1.29 0 0 0 .402-.444c.1-.172.15-.368.15-.588v-.846a2.223 2.223 0 0 1-.708.642 1.932 1.932 0 0 1-.984.246c-.432 0-.836-.082-1.212-.246a3.212 3.212 0 0 1-.996-.678 3.122 3.122 0 0 1-.912-2.232c0-.436.08-.844.24-1.224.164-.38.388-.714.672-1.002.288-.292.62-.52.996-.684.376-.164.78-.246 1.212-.246.372 0 .7.082.984.246.284.16.52.372.708.636v-.726Zm-1.674 4.746c.308 0 .58-.078.816-.234.24-.16.428-.372.564-.636.136-.268.204-.56.204-.876 0-.32-.07-.612-.21-.876a1.668 1.668 0 0 0-.564-.636 1.41 1.41 0 0 0-.81-.24c-.3 0-.574.08-.822.24a1.73 1.73 0 0 0-.594.63 1.772 1.772 0 0 0-.222.882c0 .324.074.618.222.882.148.264.346.474.594.63.248.156.522.234.822.234Zm11.916-4.746h1.464v6.114c0 .432-.088.824-.264 1.176a2.76 2.76 0 0 1-.72.912 3.266 3.266 0 0 1-1.044.588c-.392.14-.804.21-1.236.21a2.96 2.96 0 0 1-1.212-.258 3.39 3.39 0 0 1-1.032-.708 3.072 3.072 0 0 1-.678-1.014l1.338-.606c.08.22.2.412.36.576.164.168.352.298.564.39.212.096.432.144.66.144.232 0 .454-.032.666-.096.216-.064.41-.158.582-.282a1.29 1.29 0 0 0 .402-.444c.1-.172.15-.368.15-.588v-.846a2.223 2.223 0 0 1-.708.642 1.932 1.932 0 0 1-.984.246c-.432 0-.836-.082-1.212-.246a3.212 3.212 0 0 1-.996-.678 3.122 3.122 0 0 1-.912-2.232c0-.436.08-.844.24-1.224.164-.38.388-.714.672-1.002.288-.292.62-.52.996-.684.376-.164.78-.246 1.212-.246.372 0 .7.082.984.246.284.16.52.372.708.636v-.726Zm-1.674 4.746c.308 0 .58-.078.816-.234.24-.16.428-.372.564-.636.136-.268.204-.56.204-.876 0-.32-.07-.612-.21-.876a1.668 1.668 0 0 0-.564-.636 1.41 1.41 0 0 0-.81-.24c-.3 0-.574.08-.822.24a1.73 1.73 0 0 0-.594.63 1.772 1.772 0 0 0-.222.882c0 .324.074.618.222.882.148.264.346.474.594.63.248.156.522.234.822.234Zm7.081 1.41a2.803 2.803 0 0 1-1.512-.426 3.194 3.194 0 0 1-1.086-1.14 3.206 3.206 0 0 1-.402-1.59c0-.44.078-.85.234-1.23.156-.384.37-.72.642-1.008.276-.292.596-.52.96-.684a2.8 2.8 0 0 1 1.164-.246c.552 0 1.054.142 1.506.426.456.284.818.666 1.086 1.146a3.18 3.18 0 0 1 .408 1.596c0 .436-.078.844-.234 1.224a3.25 3.25 0 0 1-.648 1.008c-.272.288-.59.514-.954.678-.36.164-.748.246-1.164.246Zm0-1.464c.292 0 .554-.078.786-.234.232-.156.414-.362.546-.618.136-.256.204-.536.204-.84 0-.312-.07-.596-.21-.852a1.604 1.604 0 0 0-.558-.618 1.347 1.347 0 0 0-.768-.234c-.288 0-.548.078-.78.234a1.67 1.67 0 0 0-.552.624c-.136.26-.204.542-.204.846 0 .316.07.602.21.858.14.256.326.46.558.612.236.148.492.222.768.222Zm6.598 1.464a2.803 2.803 0 0 1-1.512-.426 3.194 3.194 0 0 1-1.086-1.14 3.206 3.206 0 0 1-.402-1.59c0-.44.078-.85.234-1.23.156-.384.37-.72.642-1.008.276-.292.596-.52.96-.684a2.8 2.8 0 0 1 1.164-.246c.552 0 1.054.142 1.506.426.456.284.818.666 1.086 1.146a3.18 3.18 0 0 1 .408 1.596c0 .436-.078.844-.234 1.224a3.25 3.25 0 0 1-.648 1.008c-.272.288-.59.514-.954.678-.36.164-.748.246-1.164.246Zm0-1.464c.292 0 .554-.078.786-.234.232-.156.414-.362.546-.618.136-.256.204-.536.204-.84 0-.312-.07-.596-.21-.852a1.604 1.604 0 0 0-.558-.618 1.347 1.347 0 0 0-.768-.234c-.288 0-.548.078-.78.234a1.67 1.67 0 0 0-.552.624c-.136.26-.204.542-.204.846 0 .316.07.602.21.858.14.256.326.46.558.612.236.148.492.222.768.222Zm8.493-7.692h1.464v9h-1.464v-.75a2.28 2.28 0 0 1-.726.654c-.292.168-.63.252-1.014.252-.436 0-.844-.082-1.224-.246a3.265 3.265 0 0 1-1.008-.678 3.265 3.265 0 0 1-.678-1.008 3.056 3.056 0 0 1-.246-1.224c0-.436.082-.844.246-1.224a3.214 3.214 0 0 1 1.686-1.686c.38-.164.788-.246 1.224-.246.384 0 .722.084 1.014.252.292.164.534.382.726.654v-3.75Zm-1.722 7.746c.312 0 .588-.078.828-.234.24-.156.428-.366.564-.63a1.92 1.92 0 0 0 .204-.882c0-.324-.068-.618-.204-.882a1.596 1.596 0 0 0-.57-.636 1.475 1.475 0 0 0-.822-.234c-.308 0-.59.08-.846.24a1.76 1.76 0 0 0-.606.63 1.772 1.772 0 0 0-.222.882 1.76 1.76 0 0 0 .834 1.512c.256.156.536.234.84.234Zm4.52-1.266v-5.88h1.236v5.88h-1.236Zm.624 2.676a.746.746 0 0 1-.756-.762c0-.208.072-.384.216-.528a.746.746 0 0 1 .54-.216c.204 0 .378.072.522.216.144.144.216.32.216.528a.746.746 0 0 1-.216.54.702.702 0 0 1-.522.222Zm-101.088 11.844h.825l-2.36 3.83v3.17h-.7v-3.17l-2.355-3.83h.825l1.88 3.065 1.885-3.065Zm3.124 7.13c-.46 0-.88-.118-1.26-.355a2.67 2.67 0 0 1-.905-.95 2.676 2.676 0 0 1-.335-1.325 2.69 2.69 0 0 1 .73-1.865c.23-.243.497-.433.8-.57.304-.137.627-.205.97-.205.46 0 .879.118 1.255.355.38.237.682.555.905.955.227.4.34.843.34 1.33 0 .363-.065.703-.195 1.02a2.7 2.7 0 0 1-.54.84 2.48 2.48 0 0 1-.795.565c-.3.137-.623.205-.97.205Zm0-.7c.34 0 .645-.088.915-.265.274-.18.489-.417.645-.71.16-.293.24-.612.24-.955 0-.35-.08-.672-.24-.965a1.901 1.901 0 0 0-.65-.71 1.622 1.622 0 0 0-.91-.265c-.34 0-.646.09-.92.27-.27.177-.485.412-.645.705a2.023 2.023 0 0 0-.235.965c0 .36.082.687.245.98.164.29.382.522.655.695.274.17.574.255.9.255Zm3.099-1.345v-3.085h.7v2.945c0 .273.066.522.2.745.133.223.311.402.535.535.226.133.475.2.745.2.273 0 .52-.067.74-.2.223-.133.401-.312.535-.535.133-.223.2-.472.2-.745v-2.945h.7l.005 5h-.7l-.005-.7a1.933 1.933 0 0 1-.69.605c-.28.15-.587.225-.92.225-.377 0-.72-.092-1.03-.275a2.066 2.066 0 0 1-.74-.74 1.979 1.979 0 0 1-.275-1.03Zm11.868-3.085h.7v5h-.7l-.025-.93a2.035 2.035 0 0 1-.685.77c-.293.193-.643.29-1.05.29a2.588 2.588 0 0 1-1.875-.78 2.67 2.67 0 0 1-.57-.845 2.588 2.588 0 0 1-.205-1.03 2.596 2.596 0 0 1 1.59-2.41 2.53 2.53 0 0 1 1.015-.205c.417 0 .78.1 1.09.3.31.197.557.455.74.775l-.025-.935Zm-1.775 4.45c.357 0 .663-.087.92-.26.257-.177.453-.413.59-.71.14-.297.21-.623.21-.98 0-.367-.07-.697-.21-.99a1.706 1.706 0 0 0-.595-.705 1.6 1.6 0 0 0-.915-.26c-.353 0-.677.088-.97.265a1.95 1.95 0 0 0-.695.705c-.17.297-.255.625-.255.985 0 .363.088.693.265.99.177.293.41.527.7.7.293.173.612.26.955.26Zm3.544.55v-7.5h.7v7.5h-.7Zm1.904 0v-5h.7v.69c.18-.253.41-.455.69-.605.28-.15.587-.225.92-.225.377 0 .722.093 1.035.28.314.183.559.428.735.735.177-.307.42-.552.73-.735.31-.187.654-.28 1.03-.28.377 0 .72.092 1.03.275.31.183.557.43.74.74.184.31.275.653.275 1.03v3.095h-.7v-2.94c0-.267-.065-.513-.195-.74a1.524 1.524 0 0 0-.525-.545 1.305 1.305 0 0 0-.725-.21 1.423 1.423 0 0 0-1.25.725c-.13.223-.195.48-.195.77v2.94h-.7v-2.94c0-.29-.065-.547-.195-.77a1.406 1.406 0 0 0-.525-.53 1.407 1.407 0 0 0-.73-.195c-.263 0-.505.07-.725.21-.22.137-.395.318-.525.545-.13.227-.195.473-.195.74v2.94h-.7Zm10.989.13c-.46 0-.88-.118-1.26-.355a2.67 2.67 0 0 1-.905-.95 2.676 2.676 0 0 1-.335-1.325 2.69 2.69 0 0 1 .73-1.865c.23-.243.497-.433.8-.57.304-.137.627-.205.97-.205.46 0 .879.118 1.255.355.38.237.682.555.905.955.227.4.34.843.34 1.33 0 .363-.065.703-.195 1.02a2.7 2.7 0 0 1-.54.84 2.48 2.48 0 0 1-.795.565c-.3.137-.623.205-.97.205Zm0-.7c.34 0 .645-.088.915-.265.274-.18.489-.417.645-.71.16-.293.24-.612.24-.955 0-.35-.08-.672-.24-.965a1.901 1.901 0 0 0-.65-.71 1.622 1.622 0 0 0-.91-.265c-.34 0-.646.09-.92.27-.27.177-.485.412-.645.705a2.023 2.023 0 0 0-.235.965c0 .36.082.687.245.98.164.29.382.522.655.695.274.17.574.255.9.255Zm4.902.665a2.557 2.557 0 0 1-.8-.15 2.234 2.234 0 0 1-.68-.38 1.397 1.397 0 0 1-.415-.545l.605-.26a.89.89 0 0 0 .295.36c.147.107.313.193.5.26.187.063.372.095.555.095.203 0 .393-.033.57-.1.177-.067.32-.162.43-.285a.648.648 0 0 0 .17-.445.537.537 0 0 0-.18-.43 1.267 1.267 0 0 0-.455-.25 13.392 13.392 0 0 0-.565-.18 7.096 7.096 0 0 1-.935-.32 1.705 1.705 0 0 1-.635-.445c-.15-.183-.225-.418-.225-.705 0-.303.085-.565.255-.785.173-.223.398-.395.675-.515a2.2 2.2 0 0 1 .895-.185c.407 0 .777.088 1.11.265.337.177.58.412.73.705l-.565.335a.903.903 0 0 0-.285-.355c-.13-.1-.278-.178-.445-.235a1.652 1.652 0 0 0-1.095.005 1.032 1.032 0 0 0-.445.285.686.686 0 0 0-.165.465c0 .183.055.323.165.42.11.093.258.17.445.23.19.057.403.123.64.2.303.097.588.207.855.33.267.123.482.277.645.46a.99.99 0 0 1 .24.695c0 .3-.09.562-.27.785-.18.223-.413.395-.7.515-.287.117-.593.17-.92.16Zm5.307-4.395h-1.195l-.005 4.3h-.7l.005-4.3h-.905v-.7h.905l-.005-1.57h.7l.005 1.57h1.195v.7Zm3.294 4.3v-5h.7v.69c.177-.253.407-.455.69-.605a1.95 1.95 0 0 1 .925-.225c.194 0 .38.025.56.075l-.285.695a1.447 1.447 0 0 0-1.155.135 1.531 1.531 0 0 0-.535.535c-.133.223-.2.472-.2.745v2.955h-.7Zm5.443.13c-.46 0-.88-.118-1.26-.355a2.653 2.653 0 0 1-.905-.95 2.665 2.665 0 0 1-.335-1.325c0-.367.065-.708.195-1.025.13-.32.308-.6.535-.84.23-.243.496-.433.8-.57.303-.137.626-.205.97-.205a2.35 2.35 0 0 1 1.825.835c.226.263.396.572.51.925.116.353.165.735.145 1.145h-4.24c.04.317.14.6.3.85.163.25.37.448.62.595.253.143.533.217.84.22.333 0 .633-.087.9-.26.27-.173.486-.412.65-.715l.71.165c-.2.443-.502.807-.905 1.09-.404.28-.855.42-1.355.42Zm-1.78-2.93h3.555a1.797 1.797 0 0 0-.285-.85 1.855 1.855 0 0 0-.635-.62 1.623 1.623 0 0 0-.855-.235c-.31 0-.594.077-.85.23-.257.15-.467.355-.63.615a1.993 1.993 0 0 0-.3.86Zm9.178-2.2h.7v5h-.7l-.025-.93a2.035 2.035 0 0 1-.685.77c-.293.193-.643.29-1.05.29a2.588 2.588 0 0 1-1.875-.78 2.67 2.67 0 0 1-.57-.845 2.588 2.588 0 0 1-.205-1.03 2.596 2.596 0 0 1 1.59-2.41 2.53 2.53 0 0 1 1.015-.205c.417 0 .78.1 1.09.3.31.197.557.455.74.775l-.025-.935Zm-1.775 4.45c.357 0 .663-.087.92-.26.257-.177.453-.413.59-.71.14-.297.21-.623.21-.98 0-.367-.07-.697-.21-.99a1.706 1.706 0 0 0-.595-.705 1.6 1.6 0 0 0-.915-.26c-.353 0-.677.088-.97.265a1.95 1.95 0 0 0-.695.705c-.17.297-.255.625-.255.985 0 .363.088.693.265.99.177.293.41.527.7.7.293.173.612.26.955.26Zm6.948-.705.625.34c-.227.317-.515.57-.865.76-.347.19-.723.285-1.13.285-.46 0-.88-.118-1.26-.355a2.662 2.662 0 0 1-.905-.95 2.676 2.676 0 0 1-.335-1.325c0-.367.065-.708.195-1.025.13-.32.308-.6.535-.84.23-.243.497-.433.8-.57.303-.137.627-.205.97-.205.407 0 .783.095 1.13.285.35.19.638.445.865.765l-.625.335a1.757 1.757 0 0 0-.625-.505 1.667 1.667 0 0 0-1.66.09c-.273.177-.49.412-.65.705a2.011 2.011 0 0 0-.235.965 1.965 1.965 0 0 0 .895 1.67c.273.173.575.26.905.26.273 0 .53-.063.77-.19s.44-.292.6-.495Zm5.819-1.84v3.095h-.7v-2.955c0-.273-.067-.522-.2-.745a1.523 1.523 0 0 0-.535-.535 1.429 1.429 0 0 0-.745-.2c-.27 0-.518.067-.745.2a1.523 1.523 0 0 0-.535.535c-.133.223-.2.472-.2.745v2.955h-.7v-7.5h.7v3.19c.177-.253.407-.455.69-.605.283-.15.592-.225.925-.225.377 0 .72.092 1.03.275.31.183.557.43.74.74.183.31.275.653.275 1.03Zm3.104 3.225c-.46 0-.88-.118-1.26-.355a2.653 2.653 0 0 1-.905-.95 2.665 2.665 0 0 1-.335-1.325c0-.367.065-.708.195-1.025.13-.32.308-.6.535-.84.23-.243.496-.433.8-.57.303-.137.626-.205.97-.205a2.35 2.35 0 0 1 1.825.835c.226.263.396.572.51.925.116.353.165.735.145 1.145h-4.24c.04.317.14.6.3.85.163.25.37.448.62.595.253.143.533.217.84.22.333 0 .633-.087.9-.26.27-.173.486-.412.65-.715l.71.165c-.2.443-.502.807-.905 1.09-.404.28-.855.42-1.355.42Zm-1.78-2.93h3.555a1.797 1.797 0 0 0-.285-.85 1.855 1.855 0 0 0-.635-.62 1.623 1.623 0 0 0-.855-.235c-.31 0-.594.077-.85.23-.257.15-.467.355-.63.615a1.993 1.993 0 0 0-.3.86Zm9.183-4.7h.7v7.5h-.7v-.935c-.173.32-.412.578-.715.775-.3.193-.657.29-1.07.29-.363 0-.703-.068-1.02-.205a2.719 2.719 0 0 1-.84-.565 2.719 2.719 0 0 1-.565-.84 2.543 2.543 0 0 1-.205-1.02c0-.363.068-.703.205-1.02a2.65 2.65 0 0 1 1.405-1.41 2.543 2.543 0 0 1 1.02-.205c.413 0 .77.098 1.07.295.303.193.542.448.715.765v-3.425Zm-1.78 6.95c.357 0 .663-.087.92-.26.257-.177.453-.413.59-.71.14-.297.21-.623.21-.98 0-.367-.07-.697-.21-.99a1.706 1.706 0 0 0-.595-.705 1.6 1.6 0 0 0-.915-.26c-.353 0-.675.088-.965.265a1.95 1.95 0 0 0-.955 1.69c0 .363.088.693.265.99.177.293.41.527.7.7.293.173.612.26.955.26Zm9.508-4.45h.74l-2.735 7.5h-.745l.91-2.5-1.795-5h.765l1.38 4.035 1.48-4.035Zm3.638 5.13c-.46 0-.88-.118-1.26-.355a2.67 2.67 0 0 1-.905-.95 2.676 2.676 0 0 1-.335-1.325 2.69 2.69 0 0 1 .73-1.865c.23-.243.497-.433.8-.57.304-.137.627-.205.97-.205.46 0 .879.118 1.255.355.38.237.682.555.905.955.227.4.34.843.34 1.33 0 .363-.065.703-.195 1.02a2.7 2.7 0 0 1-.54.84 2.48 2.48 0 0 1-.795.565c-.3.137-.623.205-.97.205Zm0-.7c.34 0 .645-.088.915-.265.274-.18.489-.417.645-.71.16-.293.24-.612.24-.955 0-.35-.08-.672-.24-.965a1.901 1.901 0 0 0-.65-.71 1.622 1.622 0 0 0-.91-.265c-.34 0-.646.09-.92.27-.27.177-.485.412-.645.705a2.023 2.023 0 0 0-.235.965c0 .36.082.687.245.98.164.29.382.522.655.695.274.17.574.255.9.255Zm3.098-1.345v-3.085h.7v2.945c0 .273.067.522.2.745.134.223.312.402.535.535.227.133.475.2.745.2.274 0 .52-.067.74-.2.224-.133.402-.312.535-.535.134-.223.2-.472.2-.745v-2.945h.7l.005 5h-.7l-.005-.7a1.916 1.916 0 0 1-.69.605c-.28.15-.586.225-.92.225a1.99 1.99 0 0 1-1.03-.275 2.074 2.074 0 0 1-.74-.74 1.988 1.988 0 0 1-.275-1.03Zm5.357 1.915v-5h.7v.69c.176-.253.406-.455.69-.605.283-.15.591-.225.925-.225.193 0 .38.025.56.075l-.285.695a1.444 1.444 0 0 0-1.155.135 1.515 1.515 0 0 0-.535.535 1.42 1.42 0 0 0-.2.745v2.955h-.7Zm9.951-5h.7v5.185c0 .32-.07.62-.21.9-.136.28-.323.525-.56.735-.233.213-.5.38-.8.5-.3.12-.611.18-.935.18-.346 0-.681-.08-1.005-.24a2.777 2.777 0 0 1-.845-.63 2.353 2.353 0 0 1-.505-.875l.645-.295c.064.25.182.475.355.675.177.203.384.363.62.48.24.12.485.18.735.18.23 0 .452-.043.665-.13.217-.083.41-.198.58-.345.174-.147.31-.318.41-.515.1-.193.15-.4.15-.62v-1.105a2.109 2.109 0 0 1-.705.76c-.293.193-.635.29-1.025.29-.35 0-.68-.068-.99-.205a2.61 2.61 0 0 1-1.36-1.405 2.662 2.662 0 0 1-.195-1.02c0-.363.065-.703.195-1.02.134-.32.317-.6.55-.84.234-.243.504-.433.81-.57.31-.137.64-.205.99-.205.39 0 .732.097 1.025.29.297.19.532.443.705.76v-.915Zm-1.725 4.45c.347 0 .645-.09.895-.27a1.75 1.75 0 0 0 .585-.715c.137-.297.205-.618.205-.965 0-.357-.07-.682-.21-.975a1.717 1.717 0 0 0-.585-.71c-.253-.18-.55-.27-.89-.27-.34 0-.65.088-.93.265a1.898 1.898 0 0 0-.66.705 2.013 2.013 0 0 0-.245.985 1.984 1.984 0 0 0 .915 1.69c.28.173.587.26.92.26Zm5.78.68c-.46 0-.88-.118-1.26-.355a2.67 2.67 0 0 1-.905-.95 2.676 2.676 0 0 1-.335-1.325 2.69 2.69 0 0 1 .73-1.865c.23-.243.497-.433.8-.57.304-.137.627-.205.97-.205.46 0 .879.118 1.255.355.38.237.682.555.905.955.227.4.34.843.34 1.33 0 .363-.065.703-.195 1.02a2.7 2.7 0 0 1-.54.84 2.48 2.48 0 0 1-.795.565c-.3.137-.623.205-.97.205Zm0-.7c.34 0 .645-.088.915-.265.274-.18.489-.417.645-.71.16-.293.24-.612.24-.955 0-.35-.08-.672-.24-.965a1.901 1.901 0 0 0-.65-.71 1.622 1.622 0 0 0-.91-.265c-.34 0-.646.09-.92.27-.27.177-.485.412-.645.705a2.023 2.023 0 0 0-.235.965c0 .36.082.687.245.98.164.29.382.522.655.695.274.17.574.255.9.255Zm7.408-4.43h.7v5h-.7l-.025-.93a2.026 2.026 0 0 1-.685.77c-.293.193-.643.29-1.05.29a2.591 2.591 0 0 1-1.875-.78 2.67 2.67 0 0 1-.57-.845 2.605 2.605 0 0 1-.205-1.03c0-.36.067-.698.2-1.015a2.604 2.604 0 0 1 2.405-1.6c.417 0 .78.1 1.09.3.31.197.557.455.74.775l-.025-.935Zm-1.775 4.45c.357 0 .664-.087.92-.26.257-.177.454-.413.59-.71.14-.297.21-.623.21-.98 0-.367-.07-.697-.21-.99a1.706 1.706 0 0 0-.595-.705 1.595 1.595 0 0 0-.915-.26c-.353 0-.676.088-.97.265-.29.173-.521.408-.695.705-.17.297-.255.625-.255.985 0 .363.089.693.265.99.177.293.41.527.7.7.294.173.612.26.955.26Zm3.544.55v-7.5h.7v7.5h-.7ZM93.27 137.893l1.403 4.605h4.538l-3.671 2.846 1.402 4.605-3.671-2.846-3.672 2.846L91 145.344l-3.672-2.846h4.539l1.403-4.605Z"/><ellipse cx="96.5" cy="403.456" fill="#242424" rx="23.5" ry="23.456"/><path fill="#D7FE03" d="M96.5 415.294c6.54 0 11.86-5.31 11.86-11.838 0-6.527-5.32-11.838-11.86-11.838-6.54 0-11.86 5.311-11.86 11.838 0 6.528 5.32 11.838 11.86 11.838Zm4.143-15.389a1.78 1.78 0 0 1 1.282.502 1.762 1.762 0 0 1 .395 1.954 1.767 1.767 0 0 1-1.678 1.08 1.77 1.77 0 0 1-1.223-3.003c.323-.33.762-.521 1.224-.533Zm-5.101 8.191a4.906 4.906 0 0 0 1.916 0c.3-.062.6-.155.89-.276a4.96 4.96 0 0 0 .805-.436 4.91 4.91 0 0 0 .701-.579 4.61 4.61 0 0 0 .58-.701l1.967 1.323a7.132 7.132 0 0 1-4.47 2.989 7.28 7.28 0 0 1-2.863-.001 7.045 7.045 0 0 1-2.547-1.069 7.21 7.21 0 0 1-1.923-1.92l1.967-1.323c.17.25.364.486.579.699a4.732 4.732 0 0 0 2.398 1.294Zm-3.193-8.191a1.787 1.787 0 0 1 1.258.52 1.774 1.774 0 0 1-1.26 3.032 1.78 1.78 0 0 1-1.778-1.777c0-.471.187-.922.521-1.255.334-.333.787-.52 1.259-.52Z"/></svg>